<?xml version="1.0" encoding="UTF-8" standalone="no"?>
<!-- Created with Inkscape (http://www.inkscape.org/) -->

<svg
   width="2048"
   height="2048"
   viewBox="0 0 541.86668 541.8667"
   version="1.1"
   id="svg1"
   inkscape:export-filename="C:\Users\Faustino\Desktop\track1_ackermann.png"
   inkscape:export-xdpi="97.358749"
   inkscape:export-ydpi="97.358749"
   inkscape:version="1.4.2 (f4327f4, 2025-05-13)"
   sodipodi:docname="pista1_ackermann.svg"
   xmlns:inkscape="http://www.inkscape.org/namespaces/inkscape"
   xmlns:sodipodi="http://sodipodi.sourceforge.net/DTD/sodipodi-0.dtd"
   xmlns="http://www.w3.org/2000/svg"
   xmlns:svg="http://www.w3.org/2000/svg">
  <sodipodi:namedview
     id="namedview1"
     pagecolor="#ffffff"
     bordercolor="#cccccc"
     borderopacity="1"
     inkscape:showpageshadow="0"
     inkscape:pageopacity="1"
     inkscape:pagecheckerboard="0"
     inkscape:deskcolor="#d1d1d1"
     inkscape:document-units="px"
     inkscape:export-bgcolor="#5aa02cff"
     inkscape:zoom="0.35355339"
     inkscape:cx="657.60931"
     inkscape:cy="1192.182"
     inkscape:window-width="2400"
     inkscape:window-height="1261"
     inkscape:window-x="2391"
     inkscape:window-y="-9"
     inkscape:window-maximized="1"
     inkscape:current-layer="layer1" />
  <defs
     id="defs1" />
  <g
     inkscape:label="Capa 1"
     inkscape:groupmode="layer"
     id="layer1"
     transform="matrix(0.95805638,0,0,0.96380602,-9.5001096,-101.7248)">
    <path
       id="path2"
       style="fill:#000000;stroke:#ffffff;stroke-width:3.16706;stroke-dasharray:none;stroke-opacity:1"
       d="m 87.03125,109.4043 c -12.55509,0.67746 -24.575274,6.12728 -34.055986,14.26356 -12.196038,10.45636 -20.761797,24.64752 -25.948134,39.74696 -7.78374,22.05845 -9.388354,46.0272 -6.11495,69.11094 3.155617,23.18751 9.97523,45.70075 17.974496,67.63453 10.49952,28.60346 23.039647,56.49168 31.650433,85.76744 10.167249,35.40974 18.053591,71.60975 31.153111,106.13825 6.46308,17.03195 14.44531,33.49953 24.10568,48.9535 10.54066,16.99033 22.81778,32.91737 36.66455,47.34618 17.5246,18.18233 37.82138,33.76203 60.233,45.44075 26.5155,13.93774 55.76232,22.5843 85.56764,25.50488 25.12101,2.72861 50.5292,2.963 75.68204,0.50074 21.21841,-2.11774 42.27253,-6.62644 62.16614,-14.3859 15.47106,-5.88256 30.45968,-13.17035 44.29123,-22.29061 16.00605,-11.06983 29.04744,-26.07925 38.93141,-42.7718 16.40574,-26.74232 26.68321,-56.81498 33.20394,-87.38246 7.17793,-33.69954 10.01847,-68.31229 8.56596,-102.73603 -1.47123,-30.98794 -7.23594,-61.84995 -17.96864,-90.98811 -12.69246,-35.24762 -31.38691,-68.31593 -54.96408,-97.42753 -11.6489,-14.28495 -24.9509,-27.38544 -40.34439,-37.61232 -12.55496,-8.55879 -26.37048,-15.12346 -40.59942,-20.37641 -16.67161,-6.36958 -33.89561,-11.36452 -51.47178,-14.51411 -21.61683,-3.29104 -43.56249,-2.43388 -65.33424,-1.71439 -24.21784,0.85118 -48.45023,1.62307 -72.68606,1.27494 -24.03829,-0.0818 -48.08949,0.21423 -72.11492,-0.69159 -7.52924,-1.20865 -14.36717,-4.84741 -21.41533,-7.49192 -11.33838,-4.57344 -22.88317,-9.12564 -35.093426,-10.66383 -4.000795,-0.52807 -8.042775,-0.77542 -12.078274,-0.63566 z" />
    <path
       id="path3"
       style="fill:none;stroke:#ffff00;stroke-width:2.46329;stroke-dasharray:7.38987, 2.46329;stroke-dashoffset:3.94129;stroke-opacity:1"
       d="m 88.657601,145.65693 c -12.29885,0.41939 -24.53421,8.91449 -32.156162,23.43792 -7.989489,14.69888 -11.003265,34.84711 -8.62096,53.29059 1.881039,17.96062 6.779408,34.83052 12.208025,50.97886 10.426631,30.67422 23.84905,58.8889 33.801757,89.94529 4.415541,14.18238 8.099749,28.80472 11.926439,43.35757 6.50166,24.82874 13.10506,49.75946 22.21942,72.77379 4.47598,11.39068 9.68468,22.12571 15.49304,32.09016 11.7416,20.27755 25.58554,37.70115 40.48121,52.61994 17.42689,17.20512 36.62944,30.18913 56.52286,39.63618 24.10684,11.67286 49.32247,17.78896 74.60395,19.84808 29.02585,2.9261 58.2472,2.24548 87.15335,-2.72633 16.39057,-2.95848 32.55892,-8.34653 48.34762,-15.50664 12.76394,-5.55746 25.52975,-12.0387 36.86641,-22.60168 6.88907,-6.32337 13.11741,-14.16975 18.62374,-22.9898 14.14077,-22.07539 24.18887,-49.57807 30.05963,-78.72141 6.04636,-29.59974 8.64113,-60.8695 7.01345,-91.75574 -1.40094,-24.05546 -5.92015,-47.72408 -13.41188,-69.15141 -10.97051,-32.55283 -27.00428,-60.85264 -45.23946,-84.90845 -13.67737,-18.05456 -29.25111,-33.13459 -46.31774,-43.02796 -17.98532,-10.67793 -36.96418,-16.97177 -55.91799,-22.49071 -10.09884,-2.92341 -20.31883,-4.96393 -30.59948,-5.70221 -21.46516,-1.86122 -42.96848,-0.31355 -64.44029,0.43722 -16.34153,0.67716 -32.69019,0.95984 -49.03779,0.80846 -23.73696,-0.0901 -47.47439,0.0544 -71.21103,-0.17064 -4.92487,-0.0948 -9.85706,-0.1111 -14.77388,-0.53218 -7.31602,-1.21798 -14.50083,-4.29962 -21.64092,-7.14901 -13.70816,-5.69176 -27.57085,-12.08278 -41.953319,-11.78989 z" />
    <path
       id="path1"
       style="fill:#5aa02c;stroke:#ffffff;stroke-width:3.16708;stroke-dasharray:none;stroke-opacity:1"
       d="m 89.75,185.18555 c -3.072886,0.46434 -5.225159,3.08859 -6.538837,5.71958 -3.593917,6.38895 -4.514899,13.91769 -4.131431,21.14138 0.262759,6.84657 1.416854,13.75859 2.955445,20.44992 3.664577,15.928 9.382766,31.30553 15.189589,46.57201 10.278424,26.70315 21.916554,53.00343 29.605674,80.63073 8.41528,29.89349 15.12822,60.27738 25.18323,89.65239 4.12904,11.98901 8.94516,23.7511 15.07224,34.86666 6.61437,12.12695 14.64115,23.4169 23.36615,34.11947 10.14424,12.30847 21.7048,23.56205 34.8076,32.7431 14.60334,10.35105 30.69686,18.5428 47.62021,24.308 17.24726,5.82172 35.41203,8.30824 53.4947,9.66625 25.06912,1.84084 50.4298,0.82963 75.12045,-3.91042 14.11328,-2.87123 27.59592,-8.20804 40.76185,-13.97929 10.69826,-4.69832 21.2747,-10.5645 29.28053,-19.27688 6.52054,-7.11339 11.55026,-15.43771 16.01403,-23.95144 10.08856,-19.53101 15.90653,-40.96086 19.65314,-62.55077 3.54345,-20.40545 5.12381,-41.1078 4.53522,-61.83216 -0.28156,-12.15308 -1.47661,-24.24092 -3.84178,-36.17721 -3.06713,-15.79092 -8.03478,-31.15895 -14.42734,-45.896 -9.65965,-22.43329 -22.47958,-43.50817 -38.0344,-62.355 -9.80505,-11.79498 -21.44371,-22.20277 -35.01261,-29.476 -14.02709,-7.65988 -29.31775,-12.75156 -44.63745,-17.2505 -9.46241,-2.72185 -19.25348,-4.60828 -29.15724,-5.17635 -18.52831,-1.27343 -37.15716,0.0194 -55.7089,0.66612 -17.94565,0.7282 -35.90886,1.27004 -53.87046,0.92685 -27.96417,-0.12517 -55.93232,0.19015 -83.89335,-0.31904 -11.13766,-0.92026 -21.68123,-4.9881 -31.93142,-9.18936 -8.9854,-3.66653 -17.81657,-7.93987 -27.373874,-9.82882 -1.352935,-0.22915 -2.72871,-0.34051 -4.100966,-0.29322 z" />
  </g>
</svg>
