<?xml version="1.0" encoding="UTF-8" standalone="no"?>
<!-- Created with Inkscape (http://www.inkscape.org/) -->

<svg
   width="2048"
   height="2048"
   viewBox="0 0 541.86668 541.8667"
   version="1.1"
   id="svg1"
   inkscape:export-filename="C:\Users\Faustino\Desktop\track3_ackermann.png"
   inkscape:export-xdpi="97.358749"
   inkscape:export-ydpi="97.358749"
   inkscape:version="1.4.2 (f4327f4, 2025-05-13)"
   sodipodi:docname="pista3_ackermann.svg"
   xmlns:inkscape="http://www.inkscape.org/namespaces/inkscape"
   xmlns:sodipodi="http://sodipodi.sourceforge.net/DTD/sodipodi-0.dtd"
   xmlns="http://www.w3.org/2000/svg"
   xmlns:svg="http://www.w3.org/2000/svg">
  <sodipodi:namedview
     id="namedview1"
     pagecolor="#ffffff"
     bordercolor="#cccccc"
     borderopacity="1"
     inkscape:showpageshadow="0"
     inkscape:pageopacity="1"
     inkscape:pagecheckerboard="0"
     inkscape:deskcolor="#d1d1d1"
     inkscape:document-units="px"
     inkscape:export-bgcolor="#5aa02cff"
     inkscape:zoom="0.35355339"
     inkscape:cx="526.08745"
     inkscape:cy="1302.4907"
     inkscape:window-width="2400"
     inkscape:window-height="1261"
     inkscape:window-x="2391"
     inkscape:window-y="-9"
     inkscape:window-maximized="1"
     inkscape:current-layer="layer1" />
  <defs
     id="defs1" />
  <g
     inkscape:label="Capa 1"
     inkscape:groupmode="layer"
     id="layer1"
     transform="translate(-28.239847,-118.32131)">
    <path
       id="path2"
       style="fill:#000000;fill-opacity:1;stroke:#000000;stroke-width:3.16909;stroke-dasharray:none;stroke-dashoffset:3.94129;stroke-opacity:1"
       d="m 266.59806,122.11271 c -12.57255,1.2512 -23.70957,10.24812 -27.41134,21.67807 -6.5775,18.04956 -10.97025,36.71273 -16.43815,55.07532 -11.21228,3.14826 -22.34493,6.55092 -33.55981,9.69275 -9.52677,-16.44376 -17.14327,-33.89711 -27.9957,-49.6434 -4.83205,-6.98518 -10.64653,-13.64126 -18.3039,-17.94682 -7.38675,-4.11941 -16.26647,-5.57632 -24.71714,-4.4317 -9.66153,0.90342 -19.099606,3.18625 -28.462357,5.53323 -12.675971,3.47057 -25.150661,8.27664 -35.795423,15.80009 -7.725241,5.57883 -14.248364,13.02787 -17.297224,21.87793 -3.394537,9.75496 -2.623329,20.49762 0.847489,30.12789 4.518883,13.08038 12.000902,24.94956 18.368352,37.246 2.573471,5.08982 4.404505,10.45307 5.869024,15.89234 2.553921,8.56145 7.886272,16.10325 13.98774,22.74709 8.039607,8.91666 17.633412,16.42571 25.764069,25.25711 0.49881,0.38473 0.56603,0.74904 0.0598,1.19599 -7.012112,9.93223 -15.906598,18.65871 -21.702871,29.35403 -6.462974,11.70181 -8.76854,25.60431 -5.589666,38.5322 1.676196,7.04127 5.276091,13.70203 10.607133,18.87424 3.234118,3.20858 7.168314,5.71179 11.382207,7.60763 9.191917,4.24937 19.383287,5.85253 29.393337,7.32728 4.1262,0.60832 8.26036,1.1674 12.39136,1.74583 -8.38559,15.27824 -18.89124,29.58076 -25.21107,45.82282 -3.32114,8.54204 -5.35532,17.73902 -4.30742,26.86908 0.78042,7.31825 3.68176,14.23418 6.9537,20.83532 4.24517,8.9818 8.72802,17.89519 14.20525,26.26603 3.99071,5.86271 9.03944,11.3533 15.69037,14.54606 10.92842,5.43851 24.47302,5.65747 35.67299,0.79727 5.65514,-2.16735 10.92505,-5.12109 16.12985,-8.10963 4.18157,13.74217 7.05146,27.78601 11.01191,41.581 3.0855,11.16038 6.73777,22.29527 12.56078,32.47269 4.83493,8.0484 11.6984,15.25638 20.50651,19.44723 13.77878,6.67349 31.48134,5.3136 43.84835,-3.55335 9.19597,-6.327 15.97905,-15.20495 21.91195,-24.27428 4.94267,-7.5566 9.44324,-15.42035 15.20072,-22.44071 11.07763,-0.59173 21.66699,-4.66587 30.92434,-10.32438 13.73053,-8.34653 24.83459,-19.8242 36.48256,-30.50996 0.80118,-0.73663 1.60947,-1.46626 2.41345,-2.20013 7.89299,25.86335 13.63702,52.35324 23.24826,77.73313 3.03055,7.82653 6.87415,15.6004 13.03114,21.67124 5.87535,5.89697 14.02256,9.92415 22.6327,10.31347 8.25698,0.48893 16.5495,-2.22683 23.03864,-7.03757 7.00143,-5.08095 12.13046,-12.01628 17.04379,-18.86361 5.54634,-7.93028 10.57109,-16.17065 15.59146,-24.4068 9.09475,-15.11394 17.90269,-30.43892 28.46599,-44.6995 3.92171,-5.60009 5.89016,-12.35914 5.74193,-19.07319 0.0371,-8.90673 -2.33963,-17.5916 -4.36838,-26.22206 -3.75012,-15.07465 -8.36778,-29.96305 -11.66403,-45.1131 6.36524,-7.56588 13.25404,-14.94708 17.5267,-23.83933 6.15067,-13.19744 9.60924,-27.60004 9.51853,-42.06088 -0.38418,-11.56136 -4.21421,-22.75064 -9.16891,-33.22463 -4.21102,-8.94792 -9.34041,-17.63894 -11.62896,-27.27798 -0.26194,-1.24295 -0.40371,-2.40585 -0.2256,-3.75479 0.35828,-2.59487 2.33474,-4.58067 3.65332,-6.77538 4.11043,-6.09191 8.23548,-12.33549 10.29585,-19.37131 3.77524,-11.71292 2.62352,-24.69281 -2.79041,-35.77713 -4.04952,-8.46989 -10.63224,-16.08525 -19.36798,-20.48486 -6.83371,-3.41388 -14.6971,-4.87521 -22.3859,-4.31678 5.08757,-7.55114 9.72642,-15.64282 11.44648,-24.55238 1.47783,-7.80322 0.43501,-16.16288 -3.69914,-23.12082 -5.36942,-9.32627 -15.40239,-16.00811 -26.403,-17.82503 -9.49709,-1.73078 -19.36953,-0.19926 -28.32075,3.05701 -7.08754,2.47417 -13.78138,5.84779 -20.27352,9.48539 4.82667,-7.3777 6.22351,-16.87393 3.00123,-25.08031 -4.09635,-11.05756 -15.77751,-19.23121 -28.15805,-19.37722 -1.86011,-0.12117 -3.09423,-1.6394 -4.59772,-2.50087 -7.81985,-5.31876 -15.54249,-11.06887 -24.64299,-14.29562 -7.40045,-2.73439 -15.48862,-3.44087 -23.29245,-3.83871 -27.28776,-2.26976 -54.09912,-8.75824 -81.53392,-9.99357 -2.3672,-0.092 -4.73646,-0.15387 -7.10542,-0.14497 z" />
    <path
       id="path3"
       style="fill:#5aa02c;fill-opacity:1;stroke:#000000;stroke-width:3.16909;stroke-dasharray:none;stroke-dashoffset:3.94126;stroke-opacity:1"
       d="m 287.15339,177.64033 c -5.17202,18.02647 -9.40579,36.36249 -16.52186,53.8242 -2.81509,6.1029 -7.78114,11.42218 -14.13269,14.34705 -3.69877,1.69907 -7.82121,2.18175 -11.78304,3.05487 -3.97296,0.76619 -7.91815,1.69096 -11.73135,3.01042 -13.72675,4.09665 -27.39369,8.45735 -41.41664,11.50498 -4.66647,0.94706 -9.50138,2.01618 -14.24667,1.82668 -7.59826,-0.35069 -15.13079,-3.39611 -20.89012,-8.23679 -3.63801,-3.01115 -6.43195,-6.79524 -9.17897,-10.5296 -5.91476,-8.29687 -10.57011,-17.35303 -15.37503,-26.28096 -5.19026,-9.7642 -10.30999,-19.56214 -16.00934,-29.07139 -7.83416,1.5949 -15.56307,3.72687 -22.929251,6.73997 6.109389,12.66378 13.921421,24.52413 19.054081,37.58828 1.45608,3.41605 2.21062,6.9803 3.50637,10.45814 0.5883,1.449 1.14972,2.96552 2.33258,4.08467 3.89885,4.35764 8.36196,8.21326 12.58288,12.28137 7.09417,6.61296 14.40329,13.25841 19.96351,21.08498 6.33829,8.95313 9.33208,19.93395 8.71376,30.68611 -0.52699,9.27004 -4.00085,18.33463 -9.15167,26.21549 -4.36277,6.53615 -9.63784,12.45686 -14.54951,18.61542 -0.78913,0.53883 -0.88754,1.94089 0.17443,2.24602 13.37522,1.94814 26.98038,3.01415 39.7232,7.54008 3.87048,1.39918 7.47418,3.1433 10.85286,5.45841 4.72489,3.23824 8.44746,7.50726 10.86158,12.55556 1.96434,4.00384 3.13091,8.39689 3.44783,12.72053 0.4578,6.7419 -0.7279,13.53001 -2.73738,19.95706 -3.51522,11.19756 -9.55513,21.47431 -15.65126,31.57938 -5.76545,9.48771 -11.68998,18.93194 -16.21842,29.02836 -0.73617,1.397 -0.90161,3.07948 -0.19643,4.51982 0.81784,1.92595 1.85614,3.76014 2.70067,5.67704 0.78973,1.65499 1.57923,3.31008 2.36913,4.96499 8.01422,-4.73028 16.28866,-9.38445 25.48876,-11.72517 4.39289,-1.14755 9.09821,-1.55849 13.57077,-1.18899 7.97077,0.61467 15.91895,3.76726 21.79391,9.05689 6.74726,5.86303 11.23307,13.67487 14.58952,21.63523 4.23106,10.06282 6.96628,20.54461 9.69943,31.05086 2.46979,9.74126 4.94929,19.48021 7.4428,29.21616 6.31352,-9.58697 12.36095,-19.53283 20.92625,-27.51234 6.69698,-6.20761 15.06472,-11.07349 24.35845,-12.67657 3.77747,-0.68944 7.73465,-0.22771 11.49709,-1.31011 3.67179,-1.24667 6.41361,-4.00065 9.37666,-6.28306 14.30892,-11.76691 26.54062,-25.76479 41.97545,-36.27965 8.08378,-5.45251 17.00038,-9.86919 26.79284,-11.61948 8.71635,-1.56939 18.20998,0.40597 25.09355,5.82066 4.83664,3.70371 8.50389,8.62461 11.2816,13.8214 6.15266,11.78647 9.72576,24.56401 13.48015,37.16297 3.71976,12.68718 7.13859,25.50696 10.67125,38.26793 0.0986,1.06957 0.42798,0.47665 0.76588,-0.1775 7.81848,-12.98298 15.43795,-26.05902 24.0709,-38.57012 -4.53234,-21.20285 -12.07855,-41.73927 -15.46061,-63.16676 -0.87327,-5.43298 -1.2012,-11.02116 0.15438,-16.44605 1.93234,-7.35736 6.53364,-13.77307 11.48468,-19.5646 4.24902,-4.99802 8.94698,-9.78064 11.95973,-15.59341 2.14407,-4.43693 2.80289,-9.3382 3.49036,-14.12728 0.36815,-4.41753 -1.30167,-8.68477 -3.2223,-12.62549 -4.80823,-10.35928 -10.37908,-20.45494 -13.86271,-31.32306 -2.53913,-7.75635 -3.97722,-15.85075 -3.94357,-23.94145 0.0275,-5.22126 0.72374,-10.49488 2.24092,-15.5214 0.48203,-1.12726 0.35659,-2.49039 -0.53867,-3.40203 -0.93954,-1.08756 -2.57228,-1.49621 -3.96548,-1.04438 -7.96841,1.45723 -16.28307,1.01589 -23.85828,-1.83082 -3.63865,-1.39104 -7.04947,-3.25409 -10.09806,-5.49832 -8.25088,-6.03037 -14.21469,-15.10078 -15.41203,-25.0036 -0.58845,-4.57952 -0.2945,-9.34794 0.71703,-13.90359 0.27357,-1.18735 -0.0403,-2.52694 -1.10931,-3.27592 -1.1609,-0.93936 -2.93305,-1.05856 -4.21424,-0.27142 -3.6538,1.41759 -7.4128,2.56743 -11.19971,3.31683 -5.41362,1.06457 -10.97487,1.26757 -16.39093,0.21336 -6.5717,-1.21457 -12.69214,-4.00261 -18.33221,-7.35916 -10.26109,-5.84341 -19.99249,-12.60626 -30.5699,-17.97955 -2.69942,-1.36651 -5.55616,-2.41634 -8.47517,-3.27093 -3.35773,-1.07118 -6.77213,-2.42669 -9.4453,-4.73123 -8.38586,-6.63741 -12.14277,-18.22489 -8.72864,-28.13441 2.33754,-6.85072 7.71383,-12.40702 13.87124,-16.42398 4.33694,-2.7617 8.93029,-5.13183 13.34729,-7.77153 -18.27776,-2.45646 -36.49365,-5.30332 -54.7487,-7.90394 -0.0428,0.14795 -0.0855,0.29591 -0.12832,0.44387 z" />
    <path
       id="path4"
       style="fill:none;fill-opacity:1;stroke:#ffffff;stroke-width:3.16909;stroke-dasharray:none;stroke-dashoffset:3.94126;stroke-opacity:1"
       d="m 287.09524,181.77994 c -2.64393,9.70629 -5.29622,19.41911 -8.13862,29.07672 -2.32142,7.72008 -4.82117,15.4208 -8.18568,22.79419 -3.40934,5.99471 -8.69271,11.30694 -15.5019,13.75295 -6.46504,2.21913 -13.4191,2.56325 -19.87248,4.80695 -12.34324,3.72925 -24.6543,7.58702 -37.18383,10.71565 -5.74823,1.38477 -11.5518,2.66156 -17.45393,3.2683 -11.21275,0.70477 -22.43469,-4.43693 -29.35214,-12.75774 -8.35431,-9.62847 -14.10065,-20.93778 -20.06228,-31.97146 -5.22334,-9.77985 -10.24754,-19.69671 -16.06216,-29.1584 -7.10774,1.40384 -14.12446,3.31001 -20.781891,6.11131 6.263471,13.23105 14.745491,25.59698 19.569321,39.46909 1.15364,3.28721 1.90096,6.71493 3.35409,9.90113 2.05485,2.9896 5.03685,5.23491 7.52917,7.87146 9.02823,8.69025 18.89429,16.79614 26.23371,26.92889 10.06832,14.13471 11.86319,33.16674 4.72188,48.81196 -3.7978,8.82749 -10.01841,16.4217 -16.19146,23.84429 -1.31264,1.60393 -2.63287,3.20257 -3.89754,4.84106 12.97806,1.85659 26.21317,2.98911 38.6714,7.14575 7.90603,2.64659 15.41461,7.09217 20.30887,13.67719 5.68204,7.61681 7.70633,17.33603 6.56526,26.5276 -1.19462,11.02867 -5.66319,21.46112 -10.97152,31.23951 -7.56754,14.02033 -17.09545,27.09497 -23.52047,41.64358 -0.44741,1.12221 -1.08045,2.43143 -0.33474,3.56794 1.09546,2.01643 1.96581,4.16569 2.99102,6.23337 0.56324,1.17241 1.14326,2.34921 1.78882,3.4767 0.79446,-0.41003 1.46927,-1.00689 2.29188,-1.38357 8.09464,-4.71313 16.70651,-9.03791 26.144,-10.63846 10.84257,-1.83046 22.60033,0.80106 31.03785,7.63607 7.26806,5.7009 12.19474,13.61229 15.72756,21.81126 5.69504,12.80978 8.75076,26.46042 12.24912,39.91093 1.65195,6.51643 3.26623,13.04232 5.0646,19.52383 6.05443,-9.45573 12.26533,-19.04057 20.8459,-26.65264 6.87515,-6.04969 15.40853,-10.71882 24.76907,-12.04088 3.48123,-0.46037 6.94245,-0.17376 10.33775,-1.06453 3.26708,-1.22903 5.80463,-3.63061 8.48806,-5.70145 14.13694,-11.60446 26.24763,-25.36867 41.33204,-35.93865 8.70469,-6.07746 18.56711,-11.0288 29.298,-12.79375 9.4536,-1.50555 19.58886,1.24354 26.64827,7.43689 6.2451,5.37731 10.24534,12.62177 13.3801,19.94804 4.00641,9.38594 6.89152,19.15742 9.78149,28.89567 3.71329,12.61508 7.08116,25.32229 10.66761,37.96845 7.44014,-12.42206 14.77921,-24.9117 23.02751,-36.87172 -4.52351,-21.6858 -12.49653,-42.68836 -15.62765,-64.66154 -0.85775,-6.33418 -0.79267,-12.98441 1.74818,-18.98659 2.85131,-7.35421 8.15212,-13.49392 13.36111,-19.44749 3.39405,-3.98484 6.95576,-7.88777 9.17668,-12.61287 1.77063,-4.12176 2.44017,-8.52294 3.02047,-12.84957 0.38549,-2.95292 -0.421,-5.96531 -1.43854,-8.6817 -1.74194,-4.35919 -3.97206,-8.52367 -5.9845,-12.7728 -4.91734,-10.05013 -9.7109,-20.30607 -11.92729,-31.25035 -2.35236,-11.07701 -2.38324,-22.80561 1.40394,-33.60306 0.19729,-0.58327 0.41044,-1.16126 0.6255,-1.73896 -8.23907,2.08693 -17.12065,2.67046 -25.37072,0.31643 -13.51071,-3.70304 -24.90928,-14.12374 -28.77874,-27.03614 -2.39788,-7.92742 -1.71351,-16.47898 0.90451,-24.27585 -7.9033,3.47389 -16.35175,6.37253 -25.15913,6.47561 -8.9529,0.0972 -17.72207,-2.80566 -25.23408,-7.32061 -11.39911,-6.26447 -21.93184,-13.83562 -33.62928,-19.60678 -4.27301,-1.99558 -9.10557,-2.71184 -13.2103,-5.0641 -3.86662,-2.12069 -7.03998,-5.28543 -9.40007,-8.86395 -4.74025,-7.26908 -5.88904,-16.72841 -2.33255,-24.66299 3.00831,-6.92822 8.90404,-12.39941 15.56312,-16.24078 3.03904,-1.84218 6.20758,-3.48135 9.40254,-5.06265 -17.23613,-2.03049 -34.32254,-5.05003 -51.52265,-7.32672 -0.30142,1.13665 -0.60284,2.27332 -0.90426,3.40998 z" />
    <path
       id="path1"
       style="fill:none;fill-opacity:1;stroke:#ffff00;stroke-width:3.16909;stroke-dasharray:9.50727, 3.16909;stroke-dashoffset:5.07057;stroke-opacity:1"
       d="m 269.51334,147.18282 c -2.35139,0.018 -4.02065,1.9942 -4.80371,3.91519 -3.60228,7.95316 -5.56813,16.44448 -7.99147,24.75238 -3.80598,13.66041 -7.13576,27.4582 -11.79232,40.88936 -0.4412,1.15917 -0.96349,2.35754 -1.53974,3.41308 -5.29221,0.34151 -10.29451,2.157 -15.37275,3.46555 -14.04293,3.99531 -27.83612,8.82993 -42.0625,12.1525 -2.53581,0.55645 -5.11577,1.17989 -7.73253,1.10046 -2.08169,-0.56482 -3.29581,-2.43223 -4.6119,-3.91857 -5.27915,-6.57707 -8.99725,-14.10233 -12.98093,-21.41427 -6.9351,-13.08554 -13.20202,-26.54356 -21.50518,-38.92576 -2.67415,-3.90627 -5.75327,-7.76438 -9.99753,-10.22784 -2.41749,-1.23086 -5.27622,-1.28982 -7.91904,-0.82897 -11.38147,1.12033 -22.5396,3.83755 -33.310492,7.45676 -7.407856,2.61338 -14.723808,5.90616 -20.666832,10.94508 -3.388263,2.99145 -6.061297,7.03765 -6.244195,11.53078 -0.412721,5.52657 1.557944,10.88453 3.689087,15.93683 5.372214,12.40421 13.325809,23.59912 18.737997,35.97435 1.196673,2.76881 2.248761,5.61061 2.723169,8.60685 0.459653,2.57841 1.144006,5.14213 2.437952,7.46725 3.125472,6.10667 8.133778,11.07213 13.077214,15.87853 7.86162,7.4819 16.59436,14.22297 23.34281,22.69387 3.09804,4.11829 4.76256,9.23459 4.34762,14.30415 -0.28966,4.18889 -1.76184,8.16468 -4.03363,11.72997 -5.58246,9.25558 -14.0133,16.56916 -19.88562,25.63697 -3.55625,5.40712 -6.120326,11.60868 -6.119987,18.05915 -0.03942,3.90083 0.681751,7.8793 2.524997,11.38601 2.1913,3.39581 6.19105,5.18753 10.0406,6.37135 9.14668,2.83374 18.79737,3.56755 28.26051,4.84762 7.93852,0.99008 16.02914,1.87295 23.6508,4.22178 2.18098,0.74787 4.61458,1.71903 6.10682,3.55304 1.05227,1.9283 0.8627,4.19457 0.81804,6.29801 -0.2606,3.59985 -1.38125,7.12668 -2.7315,10.46826 -4.42683,10.90493 -11.24081,20.86502 -17.38582,31.01283 -5.57608,9.05056 -11.21565,18.21955 -14.47491,28.30201 -1.58024,5.21812 -2.24483,10.96334 -0.20706,16.15845 1.45495,3.9075 3.33182,7.65636 5.06961,11.4541 3.74803,7.83399 7.78373,15.5784 12.72647,22.80033 2.91127,3.53474 8.13159,5.19325 12.66437,4.13725 5.81844,-0.99285 10.85449,-4.1241 15.84423,-6.95201 6.42467,-3.79759 12.52892,-8.11011 19.6878,-10.62053 2.66455,-0.96728 5.89947,-1.40384 8.46158,0.0566 3.40659,2.19703 5.20002,5.87763 6.98265,9.26882 3.75066,7.75393 5.87774,16.08458 8.13875,24.30928 4.31078,16.32687 7.40807,33.03122 13.26582,48.97388 2.22213,5.77092 4.83916,11.59054 9.24409,16.18701 3.36304,3.40277 8.26268,5.60783 13.23527,5.19602 3.70579,-0.24496 7.14645,-1.90326 9.9574,-4.1465 4.83701,-3.73697 8.29725,-8.75271 11.69898,-13.64552 6.2274,-9.228 11.32153,-19.17295 18.51063,-27.79723 2.92297,-3.41135 6.27042,-6.81662 10.72113,-8.36104 2.10606,-0.71616 4.36521,-0.59745 6.55716,-0.47732 6.35352,0.14393 12.50086,-2.01911 17.93561,-5.00129 7.36571,-4.10594 13.75711,-9.56748 19.90112,-15.15558 8.0436,-7.40471 15.6892,-15.24627 24.01053,-22.34843 4.94764,-4.14972 10.26695,-8.10063 16.24668,-10.87609 2.34586,-1.05524 4.82437,-1.88862 7.40037,-2.24952 1.4833,0.50797 2.0822,2.04081 2.95967,3.15785 3.42508,5.35844 5.2968,11.42191 7.40202,17.31735 5.27857,15.74252 9.1644,31.84584 13.58304,47.81112 3.63747,13.41797 7.22275,26.88988 12.37899,39.86837 1.75467,4.18734 3.7302,8.42085 6.94421,11.79785 1.86786,1.81387 4.79263,2.98298 7.41019,2.0066 3.04492,-1.01486 5.22922,-3.41658 7.34828,-5.60924 4.51452,-5.04366 8.20143,-10.6885 11.88428,-16.29181 7.62268,-11.88 14.55445,-24.14504 21.78229,-36.246 4.155,-6.96173 8.36671,-13.93522 13.14435,-20.49786 1.33484,-1.73609 2.95041,-3.22984 4.23748,-4.99823 1.57079,-2.80092 1.1108,-6.09209 0.81695,-9.1216 -0.99192,-7.92134 -3.23189,-15.63347 -5.25355,-23.35748 -3.49247,-12.94128 -7.54973,-25.73978 -10.38504,-38.82188 -0.76498,-3.77071 -1.62294,-7.53043 -1.27209,-11.39617 0.46259,-1.67737 1.83968,-2.91724 2.74221,-4.3802 4.19492,-5.77025 9.28345,-10.90231 13.90052,-16.38421 4.53972,-5.64449 7.11032,-12.44963 8.85971,-19.29006 1.22828,-4.6545 2.30095,-9.37717 2.6625,-14.17149 0.50114,-9.01525 -1.99002,-17.97141 -5.9546,-26.10521 -4.63488,-10.09302 -10.75942,-19.66777 -13.57169,-30.44186 -1.47652,-5.55631 -2.32581,-11.39338 -1.59185,-17.07433 0.57924,-4.06555 2.31854,-8.06737 4.56124,-11.63021 3.63922,-5.81656 8.44598,-11.09821 10.62823,-17.64114 1.64817,-4.91562 1.34427,-10.2898 -0.39613,-15.14285 -1.41358,-3.93759 -3.2455,-7.96411 -6.649,-10.72779 -2.72523,-2.30849 -6.53423,-3.25693 -10.122,-2.76838 -5.41724,0.68548 -10.22337,3.36234 -14.98302,5.73527 -4.12194,2.07358 -8.27474,4.28846 -12.75562,5.38881 -3.10162,0.81833 -6.59974,0.71708 -9.38803,-0.93828 -2.46277,-1.45587 -4.53657,-3.61906 -5.63508,-6.18462 -0.87262,-2.09148 -0.86082,-4.38538 -0.52681,-6.51451 0.72895,-4.55133 2.75254,-8.96132 4.8566,-13.16255 4.28929,-8.40729 9.72422,-16.25957 13.61938,-24.85168 1.42828,-3.41503 2.84296,-6.99901 2.6659,-10.73406 -0.0854,-2.91998 -1.4064,-5.81998 -3.79804,-7.69534 -3.52449,-2.87957 -8.46684,-3.66171 -12.96347,-3.02566 -6.19106,0.77002 -11.84487,3.50802 -17.29553,6.24801 -11.24975,5.8723 -21.54953,13.24263 -32.83637,19.05685 -3.57139,1.77153 -7.29157,3.46315 -11.16205,4.43435 -2.7323,0.65705 -5.71717,0.7451 -8.32624,-0.39851 -4.00911,-1.70876 -7.71541,-4.04283 -11.42453,-6.22561 -10.45542,-6.32665 -20.49991,-13.356 -31.67472,-18.53102 -1.51725,-0.65986 -3.08414,-1.22746 -4.6981,-1.63557 3.92691,-2.55533 8.35233,-4.4857 12.58805,-6.59752 15.37431,-7.34554 31.35087,-13.51905 46.47744,-21.33011 2.11829,-1.17881 4.35145,-2.42361 5.75838,-4.38917 1.07315,-1.87659 0.10647,-4.57485 -2.11136,-5.20157 -2.43706,-0.89754 -5.11285,-0.0952 -7.60357,-0.74681 -5.71567,-1.11361 -10.47022,-4.55824 -15.03843,-7.81024 -5.85335,-4.2128 -11.69435,-8.78756 -18.78135,-10.98191 -4.54149,-1.31726 -9.35514,-0.99298 -13.98761,-1.33982 -11.9338,-0.78845 -23.73397,-2.82922 -35.54888,-4.61229 -14.94669,-2.32881 -29.89184,-4.96764 -45.04237,-5.73017 -1.02698,-0.0421 -2.05531,-0.0575 -3.083,-0.0527 z" />
    <path
       id="path5"
       style="fill:none;fill-opacity:1;stroke:#ffffff;stroke-width:3.16909;stroke-dasharray:none;stroke-dashoffset:3.94129;stroke-opacity:1"
       d="m 266.4537,120.63061 c -4.40814,0.34978 -8.52848,1.73642 -12.40898,3.77194 -5.1389,2.68996 -9.49879,6.66138 -12.65761,11.35013 -1.11653,1.68393 -2.20584,3.64692 -2.98145,5.5379 -3.20491,8.13925 -5.55002,16.54039 -8.04005,24.88965 -3.03411,10.45119 -5.92195,20.93834 -8.93233,31.39426 -10.49653,3.06561 -20.9934,6.13017 -31.49063,9.19364 -9.2709,-16.63655 -17.2267,-33.93374 -28.15713,-49.68604 -4.47766,-6.41971 -9.84813,-12.3649 -16.68685,-16.61066 -4.6399,-2.8975 -9.97983,-4.68989 -15.43169,-5.40285 -4.83534,-0.6673 -9.699,-0.42221 -14.46622,0.24905 -11.83388,1.63679 -23.517598,4.31607 -34.787607,8.01133 -9.786994,3.19729 -19.20924,7.43629 -27.476477,13.39875 -6.471851,4.59333 -12.047488,10.45298 -15.615335,17.37672 -1.850982,3.53528 -3.097675,7.32377 -3.79326,11.2341 -1.302474,7.25331 -0.763724,14.91657 1.428868,22.07932 2.246606,7.50003 5.738151,14.54932 9.316937,21.54566 4.260492,8.21627 8.976769,16.2306 12.66506,24.7024 2.687135,6.79452 3.918885,14.1027 7.903855,20.37365 5.305588,8.76321 12.62655,16.16093 20.144161,23.22683 5.030238,4.76154 10.103433,9.47958 14.999063,14.36754 -7.092522,9.70135 -15.585173,18.51682 -21.476929,28.98332 -2.910584,5.25268 -4.987016,10.87559 -6.17211,16.67247 -2.246403,11.18881 -1.278556,23.19663 4.28069,33.45982 2.851371,5.22778 6.94159,9.85836 11.977909,13.30469 4.700844,3.24491 10.229273,5.50937 15.797495,7.17993 8.28092,2.48918 17.01337,3.61905 25.60927,4.88333 1.84683,0.26774 3.69361,0.53571 5.54046,0.80326 -8.09012,13.88082 -17.20019,27.31716 -23.45645,42.08863 -3.79363,9.10755 -6.24343,19.02882 -5.31129,28.87882 0.80188,7.71296 3.85198,15.02192 7.20802,22.00027 3.14462,6.44807 6.32763,12.88605 9.84471,19.15986 2.92516,5.15223 6.23358,10.11158 10.2817,14.48246 6.4133,7.03108 15.8984,11.15423 25.56316,12.06203 7.59737,0.76843 15.39555,-0.60268 22.33618,-3.48592 4.1163,-1.67253 8.01669,-3.7769 11.96874,-5.75625 1.39157,-0.50734 3.13915,0.52341 3.12426,1.97785 4.79939,17.61148 8.51062,35.5238 14.72675,52.76072 3.19133,8.9082 7.35237,17.68313 13.7258,24.98826 4.56523,5.29963 10.37342,9.67255 17.01462,12.37962 7.59235,3.14741 16.0945,4.28498 24.23414,2.99514 9.26435,-1.39147 18.06887,-5.68872 24.8336,-11.93181 10.54764,-9.53944 17.49079,-21.82452 25.19657,-33.43814 1.92994,-2.92377 3.93521,-5.80401 6.03925,-8.61816 11.98065,-0.92104 23.45545,-5.51054 33.3298,-11.97196 11.66509,-7.61737 21.53213,-17.28493 31.64445,-26.6219 0.72965,-0.9404 2.15601,-1.5671 3.29107,-0.87703 1.28716,0.62501 1.32525,2.13133 1.68293,3.28549 5.58486,19.7644 10.61485,39.69969 17.13521,59.19237 1.74065,5.07773 3.50261,10.15586 5.60046,15.08047 3.1919,7.19041 7.36089,14.22863 13.4579,19.59652 5.95725,5.27064 13.82919,8.63568 21.99178,8.99567 4.90156,0.23703 9.80254,-0.54404 14.32135,-2.18282 7.55403,-2.70222 13.74549,-7.98555 18.82044,-13.868 4.4915,-5.27937 8.48809,-10.92263 12.31035,-16.65256 6.1963,-9.40253 11.83798,-19.11994 17.70903,-28.70526 7.31878,-12.11554 14.81125,-24.14838 23.10859,-35.6851 2.63405,-4.18213 4.28259,-8.9008 4.85029,-13.67765 0.62546,-5.82061 -0.002,-11.77666 -1.05227,-17.53663 -1.86343,-9.86989 -4.6259,-19.64544 -7.18318,-29.40552 -2.54557,-9.58173 -5.10826,-19.15987 -7.44387,-28.78823 6.6035,-7.84246 13.64733,-15.53773 17.83379,-24.85883 5.84367,-12.85219 9.10605,-26.81542 9.04284,-40.83279 -0.0395,-4.94712 -0.70716,-9.88633 -1.94967,-14.69851 -2.38695,-9.71998 -6.68754,-18.88056 -11.19537,-27.85343 -3.18621,-6.53505 -6.3732,-13.18761 -7.75276,-20.31483 -0.27562,-2.43609 0.93307,-4.75604 2.46285,-6.63167 4.51998,-6.57339 8.88197,-13.41989 11.34974,-20.98373 2.19809,-6.78982 2.78464,-14.23632 1.83615,-21.33763 -1.22241,-9.16497 -4.91534,-18.07017 -10.87492,-25.45909 -5.14788,-6.45726 -12.2773,-11.56999 -20.44415,-14.01951 -3.2622,-1.0269 -6.62854,-1.55053 -9.99859,-2.03091 -1.48199,-0.25283 -2.13679,-1.97742 -1.49881,-3.18858 1.44986,-2.4927 2.8069,-4.99547 4.01198,-7.62563 3.00263,-6.47606 5.05982,-13.60217 4.58347,-20.66396 -0.57033,-9.13293 -4.80773,-17.995 -11.8898,-24.22437 -6.42368,-5.66405 -14.88847,-9.16764 -23.52262,-10.11748 -4.09911,-0.46761 -8.40564,-0.33254 -12.48965,0.29242 -7.44778,1.11286 -14.56176,3.54274 -21.36759,6.54054 -1.2263,0.46301 -2.50347,1.43284 -3.88099,0.87286 -1.40984,-0.47777 -2.22358,-2.01445 -1.80923,-3.37884 1.3051,-7.57395 -0.39797,-15.63308 -4.97371,-21.99226 -4.38441,-6.17194 -11.06954,-10.81727 -18.65447,-12.79485 -2.34899,-0.69383 -4.81036,-0.83334 -7.22214,-1.20897 -3.07155,-0.76334 -5.23619,-3.1234 -7.83965,-4.69053 -6.14327,-4.21138 -12.46114,-8.30306 -19.4525,-11.14784 -3.6905,-1.5429 -7.74182,-2.62347 -11.80749,-3.25515 -7.01285,-1.10716 -14.1417,-1.23719 -21.19092,-2.05546 -7.61535,-0.7977 -15.17485,-2.00288 -22.74734,-3.09825 -16.95544,-2.52197 -33.92393,-5.29066 -51.0429,-6.11885 -2.50143,-0.10988 -5.00467,-0.15752 -7.50875,-0.13525 z" />
  </g>
</svg>
