<?xml version="1.0" encoding="UTF-8" standalone="no"?>
<!-- Created with Inkscape (http://www.inkscape.org/) -->

<svg
   width="2048"
   height="2048"
   viewBox="0 0 541.86668 541.8667"
   version="1.1"
   id="svg1"
   inkscape:export-filename="track5.png"
   inkscape:export-xdpi="97.358749"
   inkscape:export-ydpi="97.358749"
   inkscape:version="1.4.2 (f4327f4, 2025-05-13)"
   sodipodi:docname="pista5.svg"
   xmlns:inkscape="http://www.inkscape.org/namespaces/inkscape"
   xmlns:sodipodi="http://sodipodi.sourceforge.net/DTD/sodipodi-0.dtd"
   xmlns="http://www.w3.org/2000/svg"
   xmlns:svg="http://www.w3.org/2000/svg">
  <sodipodi:namedview
     id="namedview1"
     pagecolor="#ffffff"
     bordercolor="#cccccc"
     borderopacity="1"
     inkscape:showpageshadow="0"
     inkscape:pageopacity="1"
     inkscape:pagecheckerboard="0"
     inkscape:deskcolor="#d1d1d1"
     inkscape:document-units="px"
     inkscape:export-bgcolor="#5aa02cff"
     inkscape:zoom="4"
     inkscape:cx="1185.75"
     inkscape:cy="1582.625"
     inkscape:window-width="2400"
     inkscape:window-height="1261"
     inkscape:window-x="2391"
     inkscape:window-y="-9"
     inkscape:window-maximized="1"
     inkscape:current-layer="layer1" />
  <defs
     id="defs1" />
  <g
     inkscape:label="Capa 1"
     inkscape:groupmode="layer"
     id="layer1"
     transform="matrix(1.0477474,0,0,1.0316981,-39.784498,-124.22333)">
    <path
       id="path1"
       style="fill:#000000;fill-opacity:1;stroke:#ffffff;stroke-width:2.46329;stroke-dasharray:none;stroke-dashoffset:3.94129;stroke-opacity:1"
       d="m 133.28125,187.74675 c -15.71526,0.44476 -31.37833,1.67684 -47.049667,2.93525 -9.174824,1.49824 -17.448458,7.2488 -22.737853,14.7957 -5.868618,8.67845 -10.326163,18.16369 -14.811248,27.60666 -3.707574,8.96612 -5.248008,18.72907 -5.353116,28.38485 -0.06107,5.90264 0.378769,11.78071 0.975385,17.63465 0.643407,5.60591 1.627388,11.16172 3.570951,16.45195 3.832247,9.7473 10.193249,18.18449 16.40588,26.51341 7.535416,9.93391 15.823752,19.36133 22.208521,30.11409 2.954984,5.82825 3.206333,12.87619 0.921765,18.97434 -2.690578,8.04802 -5.723698,16.11073 -6.122886,24.65506 -0.45634,9.0428 0.849345,18.38143 4.612613,26.72514 2.406608,5.64945 6.899119,10.09918 11.768428,13.69704 5.740907,4.15281 11.889697,7.70557 18.077497,11.14271 13.08278,7.23494 26.77061,13.50283 39.56733,21.30993 2.3562,1.43454 4.65002,2.97398 6.82773,4.66859 0.009,5.69725 -2.3903,10.99382 -4.67395,16.08934 -3.626,8.1797 -7.49084,16.27172 -9.26762,25.09394 -1.53862,7.74427 -1.39053,15.86936 1.20576,23.38547 1.32943,3.77815 3.18601,7.50187 6.22965,10.19587 3.78397,3.49938 8.71159,5.55423 13.75612,6.39853 7.76296,1.41702 15.73391,1.25953 23.64498,0.97784 14.24691,-0.58254 28.46508,-2.00718 42.7116,-2.79359 6.72032,-0.355 13.45402,-0.52341 20.18252,-0.33373 1.96386,0.71405 3.72751,1.98958 5.83989,2.26369 5.04064,1.10291 10.07278,-0.0639 15.12886,-0.45314 22.0868,-2.11527 44.14466,-4.6372 66.29705,-5.97848 11.33338,-0.46991 22.82348,-1.00646 34.0135,1.24606 0.92006,0.23247 2.06685,0.34986 2.49414,1.34766 1.8424,3.11523 4.48817,5.68617 7.27734,7.96093 4.96598,4.07818 10.85834,6.99118 17.09707,8.51743 7.53703,1.88211 15.60417,1.79042 23.13801,-0.33995 9.44023,-2.44122 18.24678,-7.28224 26.114,-13.00799 14.61855,-10.70141 26.51852,-24.63097 37.02825,-39.27655 4.35205,-6.09689 8.4222,-12.42894 12.32189,-18.84411 2.68362,-1.01081 5.13618,-2.47815 7.24676,-4.27009 3.98469,-3.33937 6.89421,-7.84101 8.63344,-12.71825 3.6197,-9.32049 4.84824,-19.27166 6.08756,-29.12305 2.5391,-20.73487 3.08538,-41.75081 7.09309,-62.30502 0.39428,-1.89809 0.87672,-3.77744 1.44696,-5.63046 7.86509,-1.35278 14.92073,-7.32924 16.97944,-15.12376 0.95655,-3.23366 1.11038,-6.70783 0.66739,-9.95836 -0.45113,-3.68704 -1.76727,-7.1946 -3.3534,-10.53064 -4.17684,-9.24993 -10.22295,-17.60133 -15.74265,-26.12357 -5.50772,-8.24379 -11.17428,-16.41989 -15.73828,-25.24219 5.96296,-5.21906 8.46979,-13.91611 6.41547,-21.54049 -1.61268,-6.9688 -5.79292,-12.92784 -9.77066,-18.7362 -1.80045,-2.5957 -3.61187,-5.18196 -5.34207,-7.82487 4.60478,-4.73599 7.85958,-10.87477 9.18554,-17.39063 0.35007,-1.7238 0.5998,-3.64332 0.65631,-5.45835 0.13201,-3.71805 -0.32311,-7.44656 -1.62164,-10.97479 -3.51737,-9.64578 -12.30432,-17.09521 -22.3466,-19.14218 -6.48092,-1.61703 -13.25224,-1.7115 -19.83112,-1.00039 -12.19998,1.37464 -23.95602,5.0261 -35.38329,9.46232 -6.48042,2.53793 -12.90393,5.30968 -19.24123,8.23839 -3.75538,1.81918 -7.31426,4.43102 -9.31055,8.18555 -1.74616,3.14388 -2.52045,6.79162 -2.53825,10.30377 -0.04,2.35228 0.32761,4.49182 0.73546,6.83279 1.35226,8.13202 3.15606,16.16082 5.24119,24.1403 2.11831,8.23146 4.2796,16.46815 6.76537,24.58873 2.39594,7.93379 4.82662,15.84525 7.51574,23.67866 2.87265,7.80514 6.48927,15.43006 7.90551,23.68435 0.17659,1.24925 -0.47376,2.50579 -1.55248,3.13761 -0.84107,0.67312 -1.81004,1.15507 -2.75027,1.6709 -5.08188,-3.80178 -10.30048,-7.77257 -13.67661,-13.25657 -2.80463,-4.94464 -3.22588,-10.74051 -3.84926,-16.27048 -0.87788,-8.81277 -0.79635,-17.68022 -0.84082,-26.52571 -0.35311,-7.61149 -3.3654,-14.71741 -5.77358,-21.84364 -2.81761,-8.05297 -6.0773,-16.03748 -10.56091,-23.31454 -5.57222,-9.01491 -13.2246,-17.1921 -22.98172,-21.66864 -6.0149,-2.81235 -12.79272,-3.95483 -19.33873,-3.37581 -5.62658,0.43371 -11.15931,2.24511 -16.20292,4.81376 -5.36438,2.7553 -10.32329,6.34119 -14.54955,10.64753 -3.91019,4.07945 -6.88902,8.95303 -9.2782,14.05054 -6.62625,13.00171 -11.07703,26.92147 -15.89809,40.64912 -8.42877,24.91824 -15.76422,50.2428 -25.48711,74.71358 -6.22218,-6.97657 -12.08897,-14.44277 -19.7168,-19.97656 -3.10673,-2.25911 -6.68871,-4.01227 -10.18437,-5.64234 -2.73183,-1.37828 -5.73988,-2.35472 -8.08041,-4.39241 -2.80248,-2.50481 -4.51614,-6.00618 -5.3538,-9.62785 -1.56801,-5.38819 -4.00537,-10.7559 -8.28214,-14.53788 -1.75318,-1.66275 -2.92416,-3.83575 -3.66936,-6.1139 -3.31164,-8.04545 -5.28924,-16.64448 -5.81308,-25.32776 -0.0318,-1.47607 0.61627,-2.98276 1.87831,-3.80138 3.14238,-2.63811 6.77683,-4.61401 10.42595,-6.45424 8.8141,-4.29411 18.34879,-6.94438 27.9801,-8.63345 4.7786,-0.74789 9.62709,-0.75793 14.44329,-1.05491 4.27955,-0.55121 7.7978,-3.57181 10.20153,-6.99741 1.8188,-2.53254 3.16162,-5.33022 4.09265,-8.25436 1.67135,-5.28274 1.93947,-11.10448 0.83415,-16.53027 -1.49259,-7.49834 -5.67124,-14.44593 -11.5822,-19.37208 -4.02508,-3.36312 -8.81865,-5.75488 -13.818,-7.14767 -9.43939,-2.61713 -19.28394,-2.25621 -28.97968,-1.83114 -14.2318,0.67626 -28.48087,0.88838 -42.72657,0.96016 -7.14389,0.28111 -14.34748,1.17652 -21.51256,0.49105 -2.92551,-0.42832 -5.77185,-1.47 -8.64336,-1.97677 -3.95164,-0.81454 -8.02108,-0.92812 -12.01145,-1.16929 -2.8308,-0.1205 -5.66481,-0.14689 -8.49783,-0.11735 z"
       sodipodi:nodetypes="cccccccccccccccccccccccccccccccccccccccccccccccccccccccccccccccccccccccccccccccccccccccccccccccccc" />
    <path
       id="path3"
       style="fill:none;stroke:#ffff00;stroke-width:2.46329;stroke-dasharray:7.38987, 2.46329;stroke-dashoffset:3.94129;stroke-opacity:1"
       d="m 91.65102,208.11512 c -12.29885,0.41939 -16.302308,12.095 -23.92426,26.61843 -7.989489,14.69888 -7.261492,29.60863 -4.879187,48.05211 1.881039,17.96062 36.011973,48.77688 41.440587,64.92522 10.42663,30.67422 -12.588234,35.55506 -2.63552,66.61145 4.41554,14.18238 73.77605,37.44384 77.60274,51.99669 6.50166,24.82874 -21.41918,44.52098 -12.30482,67.53531 4.47598,11.39068 93.12812,-6.62174 98.93648,3.34271 57.76053,-5.40744 123.85408,-15.74995 129.15936,4.52162 21.333,23.62851 61.88122,-0.38599 96.93401,-63.236 24.10684,11.67286 9.6688,-116.42789 34.95028,-114.36877 29.02585,2.9261 -54.38931,-76.70594 -25.48316,-81.67775 16.39057,-2.95848 -27.68364,-37.53237 -11.89494,-44.69248 17.19874,-8.1184 20.07892,-50.72438 -64.16147,-10.628 -3.779,-0.84693 13.03592,61.25992 14.88197,62.32263 4.47915,24.7732 32.54708,53.67307 -12.03533,67.58194 -28.0157,-19.25948 -32.02615,-26.52106 -33.65383,-57.4073 -1.40094,-24.05546 2.87302,-12.55141 -4.61871,-33.97874 -10.60223,-33.37868 -29.59275,-47.2378 -50.82297,-30.11523 -20.27832,9.54942 -48.11174,154.91908 -65.17837,145.02571 -17.98532,-10.67793 -23.14354,-30.14909 -42.09735,-35.66803 -22.28827,-10.79123 -18.2478,-27.31126 -23.38641,-30.65071 -10.0328,-6.87765 -17.23975,-40.62501 -14.93701,-48.73728 0.96776,-19.39128 46.04213,-34.13821 68.26682,-33.61586 2.95702,-3.0561 6.64687,-25.18763 -23.69052,-24.67925 -4.92487,-0.0948 -38.48162,1.75979 -43.39844,1.33871 -7.31602,-1.21798 -31.15172,2.62266 -38.29181,-0.22673 -13.70816,-5.69176 -50.39567,-0.48329 -64.77814,-0.1904 z"
       sodipodi:nodetypes="cccccccccccccccccccccccccccc"
       transform="translate(-1.2160367e-6)" />
    <path
       id="path2"
       style="fill:#5aa02c;fill-opacity:1;stroke:#ffffff;stroke-width:2.46329;stroke-dasharray:none;stroke-dashoffset:3.94129;stroke-opacity:1"
       d="m 133.9082,223.73894 c -13.64069,0.32347 -27.2211,1.52542 -40.839841,2.36523 -1.352391,1.38561 -1.946819,3.29176 -3.023009,4.8725 -3.298199,6.03476 -6.583168,12.11459 -9.033779,18.55226 -2.165056,7.20164 -1.908619,14.84651 -1.230975,22.23062 0.472488,4.55477 0.563224,9.30852 2.846261,13.37832 2.225329,4.24439 5.191039,8.03205 7.920653,11.9526 9.174539,12.51966 19.75823,24.07295 27.4307,37.63975 8.13658,15.00381 9.08533,33.52655 3.09406,49.44817 -1.45806,4.32279 -3.19419,8.49396 -3.75196,13 -0.28092,2.58915 -0.13224,5.41001 0.53558,8.00112 0.24713,0.82319 0.32671,1.74453 1.19754,2.16638 2.24597,1.38734 4.40543,2.91327 6.67846,4.26285 12.35845,7.53238 25.6005,13.44648 38.22238,20.50219 8.76476,4.79136 17.47956,9.9203 24.84341,16.74131 6.25555,6.18581 9.50031,15.06895 9.34041,23.80807 0.241,10.25926 -2.7841,20.30445 -6.94586,29.57911 -2.50365,5.79019 -5.42106,11.40498 -7.18246,17.44678 12.50901,-0.0942 24.96518,-1.16715 37.43894,-2.07622 12.73967,-0.95253 25.53896,-1.83567 38.31239,-1.0442 3.3482,0.33006 6.67455,0.98717 9.85218,2.1048 29.90375,-2.70891 59.75987,-6.675 89.83008,-6.85547 11.42355,0.0356 23.04662,1.04534 33.82031,5.07812 6.85189,2.73473 13.03281,7.55669 16.65039,14.0625 1.67786,1.61655 4.21146,1.6974 6.39916,1.52766 3.76756,-0.51154 7.14696,-2.28807 10.43024,-4.07543 8.51881,-4.95386 15.55405,-11.92257 22.13349,-19.18074 8.4014,-9.49119 15.65473,-19.95272 22.22491,-30.79463 2.81506,-4.67651 5.46511,-9.45853 8.45783,-14.02308 1.86542,-2.20131 4.39263,-3.84338 7.17859,-4.60612 1.90101,-8.81988 2.52264,-17.84965 3.47245,-26.77705 1.82627,-19.20004 2.94409,-38.56694 7.27123,-57.4155 1.96155,-7.86342 5.17271,-15.66251 10.7683,-21.65565 0.52799,-0.53405 1.06634,-1.05948 1.63841,-1.54633 -9.45996,-15.26578 -20.65744,-29.53718 -28.24372,-45.89961 -2.98275,-6.48496 -4.98897,-13.71278 -4.02373,-20.89463 0.56764,-4.18661 2.15761,-8.26725 4.77331,-11.60225 -5.0755,-7.36747 -10.42549,-14.79369 -13.16176,-23.41457 -2.12628,-7.12025 -1.14134,-15.26967 3.19887,-21.3823 -9.55827,1.8751 -18.75383,5.22786 -27.70312,9.01562 3.34215,15.08462 7.3869,30.03573 12.09649,44.76111 2.1146,6.83038 4.30117,13.66329 6.99389,20.2997 3.37192,8.72835 6.75122,17.69083 7.18305,27.13841 0.3826,9.07688 -2.18645,18.43015 -7.96003,25.54344 -5.79724,7.30084 -13.98897,12.33031 -22.58195,15.70396 -4.97062,1.97474 -10.08608,3.54797 -15.15138,5.25651 -11.28323,-7.97998 -23.03992,-15.59561 -32.45143,-25.84141 -8.39293,-9.2096 -13.18436,-21.29852 -14.6833,-33.5777 -1.59488,-11.60227 -1.84855,-23.33576 -1.77933,-35.03206 -0.85655,-4.5146 -2.87349,-8.68712 -4.19383,-13.06648 -2.34314,-6.69697 -5.12172,-13.48507 -9.59328,-19.00579 -1.4709,-1.72632 -3.17104,-3.76498 -5.58203,-4.13867 -2.35648,0.0807 -4.22818,1.70858 -6.16406,2.85937 -1.8079,1.25177 -3.24363,3.02603 -4.12609,5.08439 -5.69862,10.90935 -9.62898,22.69203 -13.6406,34.31492 -9.29498,26.88604 -16.93857,54.37623 -27.70426,80.74472 -3.28197,7.82493 -6.98445,15.68874 -12.81007,21.97458 -4.35438,4.55064 -10.43906,7.75831 -16.84044,7.66071 -5.36651,0.0445 -10.54153,-2.15164 -14.74864,-5.38561 -8.35575,-5.77125 -14.94386,-13.60318 -21.57668,-21.19026 -2.8892,-3.15596 -5.73031,-6.51104 -9.45927,-8.70659 -3.99512,-2.17483 -8.41233,-3.5087 -12.2339,-6.01709 -6.30699,-3.95924 -11.83998,-9.18212 -15.96156,-15.39763 -3.2415,-4.81318 -5.63401,-10.18637 -7.12505,-15.79053 -0.85987,-1.78526 -2.59089,-2.93128 -3.62892,-4.60018 -5.78033,-7.62165 -9.00655,-16.78717 -11.60585,-25.89302 -2.98885,-10.52339 -4.84137,-21.55243 -3.78226,-32.50814 1.26554,-10.43548 7.34931,-19.93932 15.66187,-26.22699 5.52264,-4.44599 11.70508,-8.0183 18.13445,-10.97929 -8.15905,0.24473 -16.32346,0.22046 -24.48418,0.30384 -9.93352,0.41115 -19.97814,1.5866 -29.85397,-0.12499 -4.74543,-0.99849 -9.42068,-2.75463 -14.3406,-2.55361 -2.27473,-0.0797 -4.55101,-0.11357 -6.82711,-0.1018 z"
       sodipodi:nodetypes="ccccccccccccccccccccccccccccccccccccccccccccccccccccccccccccccccccccccccc" />
    <path
       style="fill:#5aa02c;stroke:#ffffff;stroke-width:2.79931;stroke-dashoffset:14.8961"
       d="m 362.3959,511.66249 0.50505,35.39068"
       id="path4" />
    <path
       style="fill:#000000;fill-opacity:1;stroke:#000000;stroke-width:3.17623;stroke-dashoffset:14.8961;stroke-opacity:1"
       d="m 363.39846,513.16897 0.10368,3.01615"
       id="path5" />
    <path
       style="fill:#000000;fill-opacity:1;stroke:#000000;stroke-width:3.17623;stroke-dashoffset:14.8961;stroke-opacity:1"
       d="m 365.82208,522.06857 0.10368,3.01615"
       id="path5-2" />
    <path
       style="fill:#000000;fill-opacity:1;stroke:#000000;stroke-width:3.17623;stroke-dashoffset:14.8961;stroke-opacity:1"
       d="m 360.51904,516.23424 0.10368,3.01615"
       id="path5-9" />
    <path
       style="fill:#000000;fill-opacity:1;stroke:#000000;stroke-width:3.17623;stroke-dashoffset:14.8961;stroke-opacity:1"
       d="m 363.61248,522.00727 0.10368,-3.01615"
       id="path5-9-8" />
    <path
       style="fill:#000000;fill-opacity:1;stroke:#000000;stroke-width:3.17623;stroke-dashoffset:14.8961;stroke-opacity:1"
       d="m 360.96096,521.94034 0.10368,3.01615"
       id="path5-9-8-3" />
    <path
       style="fill:#000000;fill-opacity:1;stroke:#000000;stroke-width:3.17623;stroke-dashoffset:14.8961;stroke-opacity:1"
       d="m 364.0544,524.82544 0.10368,3.01615"
       id="path5-9-8-3-7" />
    <path
       style="fill:#000000;fill-opacity:1;stroke:#000000;stroke-width:3.17623;stroke-dashoffset:14.8961;stroke-opacity:1"
       d="m 361.21348,527.90288 0.10368,3.01615"
       id="path5-9-8-3-7-6" />
    <path
       style="fill:#000000;fill-opacity:1;stroke:#000000;stroke-width:3.17623;stroke-dashoffset:14.8961;stroke-opacity:1"
       d="m 364.18066,530.53156 0.10368,3.01615"
       id="path5-9-8-3-7-6-1" />
    <path
       style="fill:#000000;fill-opacity:1;stroke:#000000;stroke-width:3.17623;stroke-dashoffset:14.8961;stroke-opacity:1"
       d="m 364.30693,536.36587 0.10368,3.01615"
       id="path5-9-8-3-7-9" />
    <path
       style="fill:#000000;fill-opacity:1;stroke:#000000;stroke-width:3.17623;stroke-dashoffset:14.8961;stroke-opacity:1"
       d="m 361.46601,539.44331 0.10368,3.01615"
       id="path5-9-8-3-7-6-9" />
    <path
       style="fill:#000000;fill-opacity:1;stroke:#000000;stroke-width:3.17623;stroke-dashoffset:14.8961;stroke-opacity:1"
       d="m 361.40288,543.5466 0.10368,3.01615"
       id="path5-9-8-3-7-6-9-6" />
    <path
       style="fill:#000000;fill-opacity:1;stroke:#000000;stroke-width:3.17623;stroke-dashoffset:14.8961;stroke-opacity:1"
       d="m 364.43319,542.07199 0.10368,3.01615"
       id="path5-9-8-3-7-6-1-8" />
    <path
       style="fill:#000000;fill-opacity:1;stroke:#000000;stroke-width:3.17623;stroke-dashoffset:14.8961;stroke-opacity:1"
       d="m 361.21348,533.48078 0.10368,3.01615"
       id="path5-9-8-3-7-6-1-4" />
  </g>
</svg>
