<?xml version="1.0" encoding="UTF-8" standalone="no"?>
<!-- Created with Inkscape (http://www.inkscape.org/) -->

<svg
   width="2048"
   height="2048"
   viewBox="0 0 541.86668 541.8667"
   version="1.1"
   id="svg1"
   inkscape:export-filename="track2.png"
   inkscape:export-xdpi="97.358749"
   inkscape:export-ydpi="97.358749"
   inkscape:version="1.4.2 (f4327f4, 2025-05-13)"
   sodipodi:docname="pista2.svg"
   xmlns:inkscape="http://www.inkscape.org/namespaces/inkscape"
   xmlns:sodipodi="http://sodipodi.sourceforge.net/DTD/sodipodi-0.dtd"
   xmlns="http://www.w3.org/2000/svg"
   xmlns:svg="http://www.w3.org/2000/svg">
  <sodipodi:namedview
     id="namedview1"
     pagecolor="#ffffff"
     bordercolor="#cccccc"
     borderopacity="1"
     inkscape:showpageshadow="0"
     inkscape:pageopacity="1"
     inkscape:pagecheckerboard="0"
     inkscape:deskcolor="#d1d1d1"
     inkscape:document-units="px"
     inkscape:export-bgcolor="#5aa02cff"
     inkscape:zoom="0.70710678"
     inkscape:cx="1055.0033"
     inkscape:cy="686.60069"
     inkscape:window-width="2400"
     inkscape:window-height="1261"
     inkscape:window-x="2391"
     inkscape:window-y="-9"
     inkscape:window-maximized="1"
     inkscape:current-layer="layer1"
     showgrid="false" />
  <defs
     id="defs1" />
  <g
     inkscape:label="Capa 1"
     inkscape:groupmode="layer"
     id="layer1"
     transform="translate(-28.239847,-118.32131)">
    <path
       id="path3"
       style="fill:#000000;stroke:#000000;stroke-width:4.23333;stroke-dasharray:none;stroke-dashoffset:3.94129;stroke-opacity:1"
       d="m 252.50586,128.20898 c -6.14451,0.16957 -12.42351,1.08881 -17.94531,3.9336 -1.42392,0.28225 -2.28946,1.55633 -3.44727,2.30469 -7.78875,0.40713 -15.60335,0.74502 -23.31668,1.98007 -7.30777,0.91106 -14.60002,1.55212 -21.95723,1.47632 -6.88498,0.31764 -13.68437,1.97728 -20.56456,1.77489 -4.17356,-0.79358 -8.22924,-2.3146 -12.52364,-2.567 -12.58123,-1.55586 -25.28787,-0.94799 -37.92008,-0.54064 -9.74375,0.39724 -19.487254,0.87125 -29.206139,1.66718 -11.959391,1.53553 -22.923643,7.98784 -31.050438,16.75198 -5.381598,5.80225 -9.890252,12.49694 -12.777753,19.88631 -1.664918,4.24977 -2.702302,8.86596 -2.085658,13.44136 0.697996,6.23783 3.583389,12.08976 7.626406,16.8388 1.926927,2.54087 3.825392,5.39345 3.92296,8.69239 0.811672,6.34581 1.053358,12.9179 3.664501,18.86131 2.974773,7.66773 5.084716,15.8281 9.842609,22.6589 2.319655,3.15823 5.571416,5.67975 9.314453,6.89844 1.329028,5.90848 0.791227,12.08511 2.39629,17.94691 1.268059,5.77919 3.096918,11.51292 3.122715,17.4852 0.158632,3.72395 0.667432,7.47526 2.061818,10.95535 2.260777,6.6395 4.580247,13.48796 9.131291,18.96175 3.630607,4.50716 8.28342,8.0485 13.146595,11.12569 4.52949,2.94833 9.31367,5.57684 13.34099,9.18025 2.71978,2.96597 4.67903,6.64739 7.98068,9.05779 6.76832,5.44509 15.77663,7.57344 24.33841,6.82942 8.99403,-0.69437 17.51119,-4.11807 26.48512,-4.9408 0.69872,-0.11552 1.38948,0.13251 1.80633,0.71047 3.8426,3.65082 8.14529,6.79827 12.62204,9.62446 10.57036,6.65206 22.28003,11.16192 33.95449,15.45394 9.22463,3.41715 18.46701,6.78083 27.50997,10.62539 9.20778,3.44271 19.89927,1.86153 28.09981,-3.40994 8.13142,-5.12573 14.33526,-12.62069 20.3852,-19.95598 3.93972,-4.72239 7.80518,-9.60587 12.65786,-13.43888 1.04447,-0.80341 2.23097,-1.67127 3.6302,-1.44712 2.77907,0.34877 5.13359,2.15302 7.05553,4.08379 2.92287,3.08828 5.18816,6.7145 7.74033,10.09941 4.44853,6.11387 9.45969,12.11274 16.132,15.88464 7.39415,4.21599 16.19551,5.76192 24.61132,4.6624 1.04142,0.13762 1.81307,0.98605 2.70188,1.48209 6.71765,4.47836 12.69961,9.96927 18.82209,15.27396 6.27473,5.43122 12.60581,10.86856 19.65753,15.27971 3.87588,2.35138 7.92058,4.55983 12.3224,5.74744 4.56566,1.21363 9.42893,1.45738 14.04883,0.39258 1.69052,0.55473 3.20939,1.51671 4.81822,2.26148 9.78931,5.10934 18.74584,11.59092 28.30735,17.10774 7.64084,4.56219 15.67384,8.77196 24.41802,10.73155 6.93186,1.3723 14.595,0.15304 20.24547,-4.26288 4.83466,-3.76491 7.78984,-9.40107 9.70158,-15.099 3.60705,-9.83982 5.84332,-20.10629 9.0328,-30.08069 4.09145,-2.94862 6.39657,-7.60509 8.48633,-12.0524 2.97426,-6.56299 4.13634,-14.21594 1.9562,-21.19334 -1.78494,-6.08299 -5.77382,-11.16683 -9.81551,-15.92179 -1.49497,-1.86885 -2.20623,-4.37564 -1.69993,-6.73656 0.53342,-5.54678 1.89132,-11.17924 0.68243,-16.73508 -1.57892,-8.44423 -7.72702,-16.03287 -15.93103,-18.81295 -6.64069,-2.52761 -13.8519,-2.42233 -20.84583,-2.659 -0.87504,-0.0455 -1.75048,-0.11568 -2.61587,-0.25606 -0.21938,-2.59921 -0.17144,-5.24432 1.06718,-7.61381 1.83242,-3.16706 4.06028,-6.19338 4.99728,-9.78659 2.109,-6.78516 1.4997,-14.15288 -0.61056,-20.85951 -0.82149,-2.87845 -1.97159,-5.88374 -1.25164,-8.91287 0.59943,-3.36959 1.17913,-6.78889 0.84684,-10.22226 -0.34162,-5.32472 -2.13517,-10.43587 -4.43386,-15.21043 -0.86039,-2.13383 -1.0725,-4.58256 -0.73083,-6.84191 0.52113,-7.48842 1.99541,-15.07681 0.52919,-22.54946 -1.21821,-6.50214 -4.41907,-12.44272 -8.21242,-17.79223 -0.0533,-1.28988 0.83341,-2.37198 1.06021,-3.61451 1.89545,-5.51764 2.72696,-11.69167 0.7806,-17.3146 -2.25284,-6.84591 -7.6246,-12.30652 -13.85628,-15.72281 -10.01711,-5.77852 -21.35698,-8.70608 -32.63108,-10.86167 -15.09199,-2.84022 -30.38018,-4.5015 -45.33951,-7.99944 -11.96739,-2.13186 -24.17228,-1.62537 -36.27058,-1.83054 -14.26601,-0.0139 -28.53511,-0.20427 -42.78749,-0.8504 -13.20832,-0.19617 -26.35506,1.24827 -39.54181,1.61585 -4.25084,-6.55371 -11.70798,-10.83409 -19.48527,-11.36798 -2.72211,-0.32731 -5.47034,-0.33076 -8.20809,-0.28437 z" />
    <path
       id="path1"
       style="fill:none;stroke:#ffff00;stroke-width:4.23333;stroke-dasharray:4.23332977,4.23332977;stroke-dashoffset:0;stroke-opacity:1"
       d="m 90.902665,154.63719 c -12.29885,0.41939 -24.53421,8.91449 -32.156162,23.43792 -7.989489,14.69888 6.957248,14.64153 9.339553,33.08501 1.881039,17.96062 0.04422,7.1414 5.472833,23.28974 10.426631,30.67422 5.888537,-11.45645 15.841244,19.59994 4.415541,14.18238 0.616202,11.59256 4.442892,26.14541 6.501655,24.82874 -1.862035,9.34831 7.252325,32.36264 4.47598,11.39068 25.40013,16.88723 31.20849,26.85168 11.7416,20.27755 41.30099,-7.94849 56.19666,6.9703 17.42689,17.20512 47.1064,22.70558 66.99982,32.15263 24.10684,11.67286 36.60044,-40.5827 61.88192,-38.52358 29.02585,2.9261 25.3196,39.66321 54.22575,34.6914 16.39057,-2.95848 49.77108,45.53501 65.55978,38.3749 12.76394,-5.55746 59.20571,39.59777 70.54237,29.03479 6.88907,-6.33466 13.86576,-55.43916 19.37209,-46.18879 14.14077,-22.07539 -13.97722,-18.14717 -8.10646,-47.29051 6.04636,-29.59974 -37.75686,-0.25277 -39.38454,-31.13901 -1.40094,-24.05546 12.78872,-16.29318 5.29699,-37.72051 -4.5123,-13.38936 3.5892,-15.58223 -2.43713,-27.53318 -8.62517,-17.10477 4.60189,-29.74351 -6.13295,-43.90489 -13.67737,-18.05456 8.91498,-24.15433 -8.15165,-34.0477 -17.98532,-10.67793 -51.93128,-10.98494 -70.88509,-16.50388 -10.09884,-2.92341 -53.99479,-1.22215 -64.27544,-1.96043 -21.46516,-1.86122 -33.23987,0.4348 -54.71168,1.18557 -16.34153,0.67716 -5.74942,-11.76219 -22.09702,-11.91357 -23.73696,-0.0901 -7.06323,6.7896 -30.79987,6.56456 -4.92487,-0.0948 -28.56593,3.63067 -33.48275,3.20959 -7.31602,-1.21798 -24.9778,3.93228 -32.11789,1.08289 -13.70816,-5.69176 -54.51162,-1.60581 -68.894085,-1.31292 z"
       sodipodi:nodetypes="ccccccccccccccccccscccccccccc" />
    <path
       id="path2"
       style="fill:#5aa02c;stroke:#000000;stroke-width:4.23333;stroke-dasharray:none;stroke-dashoffset:3.94129;stroke-opacity:1;fill-opacity:1"
       d="m 251.03711,161.09375 c -1.45787,0.2804 -2.39762,1.54021 -3.67431,2.19491 -3.40329,2.12178 -7.34309,3.24488 -11.31548,3.62712 -6.58785,0.8804 -13.26601,0.43122 -19.82133,1.54866 -9.80925,1.2102 -19.65775,2.33396 -29.55426,2.32488 -8.67429,0.63066 -17.3967,2.65696 -26.13373,1.47204 -5.2122,-0.78593 -10.18979,-2.96295 -15.52291,-2.95271 -12.87275,-0.91946 -25.85435,-0.0362 -38.75363,0.53235 -5.87349,0.34663 -11.740362,0.42321 -17.580193,1.16961 -4.766133,1.17306 -8.717416,4.55861 -11.724693,8.206 -1.452391,1.74961 -2.73116,3.65034 -3.74759,5.68573 4.527713,6.01821 8.501881,12.72161 9.891775,20.21787 1.100437,5.17551 1.053798,10.54577 2.40007,15.6734 0.629119,1.99732 1.457688,3.88053 2.165187,5.85092 5.965272,1.54065 10.688584,6.41046 12.847844,12.08076 2.86093,6.29697 4.87637,12.95733 6.28843,19.71964 1.02687,6.10718 0.93346,12.38594 2.56271,18.39434 1.47321,6.29369 3.17279,12.63615 3.05539,19.1532 0.2379,3.15854 1.75483,5.96669 2.76985,8.90911 0.66559,1.724 1.89913,3.19557 3.48151,4.14901 7.59349,5.41717 16.16902,9.60447 22.70099,16.39754 1.56063,1.60176 2.90319,3.39295 4.18195,5.22179 0.14029,0.40512 0.63982,0.4921 1.06581,0.40726 2.82585,-0.20855 5.55151,-0.94069 8.28929,-1.51617 7.96082,-1.81264 16.02298,-4.04557 24.26819,-3.47802 7.97071,0.51966 15.67977,4.04545 21.3308,9.6839 2.93797,2.80978 6.31082,5.01885 9.77946,7.06159 8.86393,5.09027 18.5343,8.37897 28.0616,11.96974 8.08446,3.00053 16.18688,5.95743 24.14039,9.29358 0.93661,-0.20603 1.52627,-1.08429 2.27268,-1.62891 7.91982,-7.23287 13.68231,-16.42158 21.36191,-23.88357 5.62993,-5.60731 12.19512,-10.60066 19.87754,-12.9624 9.37892,-2.81319 19.75089,-1.47343 28.39246,3.00626 8.31642,4.11877 15.06237,10.88368 20.23211,18.50666 2.60886,3.5602 5.04758,7.42861 8.24026,10.42485 0.7573,0.68234 1.49863,1.49864 2.58519,1.5723 2.52013,0.38065 5.02446,-0.44081 7.5527,-0.33793 6.26923,-0.0116 12.36262,2.21154 17.61816,5.53241 7.86831,4.62508 14.6464,10.80266 21.57873,16.67863 6.75521,5.88904 13.42919,12.00184 21.22186,16.51748 1.1105,0.17348 2.12894,-0.55619 3.24468,-0.52173 5.87354,-0.81733 11.77056,0.85103 17.12768,3.15402 6.14368,2.71553 11.94866,6.12795 17.67903,9.61365 8.70865,5.37828 17.18603,11.18415 26.37048,15.74625 3.80083,-11.47095 5.92631,-23.51141 10.94254,-34.56238 1.15828,-2.40982 2.57514,-4.72848 4.44418,-6.65637 -3.85616,-4.78164 -7.51455,-9.95615 -9.11281,-15.97285 -1.84321,-6.0762 -2.18048,-12.55397 -1.35008,-18.83184 -7.12957,-0.27333 -14.48244,-0.56181 -21.12665,-3.44189 -7.62069,-3.19384 -13.65252,-9.87476 -16.12088,-17.75442 -1.87641,-5.79488 -2.05628,-11.98477 -1.71031,-18.0187 0.47962,-6.68614 2.40554,-13.31405 5.95655,-19.0265 0.38593,-0.75511 0.99496,-1.46131 1.16043,-2.29264 -0.44508,-2.47118 -1.41504,-4.80881 -1.96419,-7.25693 -1.39804,-5.39383 -1.9434,-11.10782 -0.76582,-16.5984 0.34212,-1.89156 0.94523,-3.9686 -0.0265,-5.78241 -1.74523,-4.11659 -3.51375,-8.30044 -4.08018,-12.77459 -1.02063,-6.34412 -0.46719,-12.79819 0.24843,-19.14026 0.1725,-2.08924 0.53611,-4.15064 0.45077,-6.25861 -0.1035,-1.48742 -0.79037,-2.85029 -1.70703,-3.99812 -2.70309,-4.03645 -5.32791,-8.28925 -6.31363,-13.11367 -1.37134,-5.7016 -1.12935,-11.75402 0.51855,-17.37099 -7.17237,-3.39115 -15.14505,-4.67076 -22.94067,-6.14394 -14.23104,-2.46378 -28.59272,-4.27017 -42.67226,-7.56546 -8.53006,-1.09433 -17.19163,-0.86212 -25.8066,-1.0347 -14.54111,-0.0406 -29.09401,0.0492 -43.61736,-0.78247 -15.69696,-0.50025 -31.30158,1.65446 -46.993,1.60412 -4.70983,-0.10956 -9.50823,-1.22214 -13.42576,-3.93391 -3.0136,-1.96647 -5.60272,-4.60665 -7.43107,-7.712 -1.12076,0.0401 -2.24829,-0.1095 -3.36523,0.004 z" />
    <path
       id="path4"
       style="fill:none;stroke:#ffffff;stroke-width:4.23333;stroke-dasharray:none;stroke-dashoffset:3.94129;stroke-opacity:1"
       d="m 251.67969,165.18945 c -1.80974,0.51883 -3.13643,1.99326 -4.90039,2.63282 -5.19748,2.31323 -10.9233,2.95278 -16.54685,3.26644 -5.89031,0.30362 -11.77445,0.73731 -17.62583,1.49008 -10.15168,1.32245 -20.4177,1.66139 -30.6377,2.45046 -6.56015,0.60399 -13.10165,1.5916 -19.69353,1.06059 -5.55252,-0.45236 -11.05175,-2.47807 -16.70079,-3.07261 -3.9445,-0.32017 -7.91077,-0.25604 -11.866,-0.29989 -14.12423,0.02 -28.22699,0.87871 -42.317067,1.74024 -3.857251,0.44098 -7.433749,2.47409 -9.970665,5.38597 -1.423239,1.47939 -2.635706,3.14168 -3.848602,4.79317 4.177798,5.73485 7.331402,12.22706 8.994558,19.13881 0.675737,2.7567 1.081502,5.76368 1.349407,8.6875 0.433053,3.72815 0.966536,7.51566 2.523222,10.96666 1.754119,1.14364 3.776344,1.7753 5.371094,3.17187 4.806093,3.6261 7.865023,9.07166 9.780873,14.68442 3.45455,8.89703 5.46694,18.30859 6.19234,27.79542 1.06344,7.87786 3.51813,15.51516 4.24554,23.44594 0.25135,4.34322 1.0522,9.08074 3.92584,12.58308 1.81583,2.03361 4.38575,3.118 6.5625,4.6933 7.11117,4.60314 14.45156,9.21765 19.88861,15.8369 0.41261,0.42379 0.78016,1.16342 1.27533,1.47295 2.23074,-0.19531 4.38651,-0.84775 6.58295,-1.25284 8.19407,-1.76903 16.39586,-3.93066 24.82951,-3.44439 7.63739,0.45299 15.01699,3.34082 21.03096,8.07975 2.83019,2.3551 5.56981,4.82892 8.61061,6.91838 3.05572,2.17563 6.40914,3.75856 9.76165,5.39695 8.41758,3.96924 17.26954,6.8905 25.91482,10.30963 5.88377,2.23861 11.7679,4.47553 17.62503,6.78325 9.53312,-9.06375 16.58908,-20.4497 26.84577,-28.77718 4.73508,-3.83494 9.95795,-7.02423 15.77337,-8.90642 2.37589,-0.7577 5.09041,-1.32193 7.66798,-1.55264 7.39698,-0.69832 15.02019,0.71168 21.74413,3.70108 4.67743,2.05939 9.08057,5.0048 12.89887,8.44537 5.79398,5.16785 10.35917,11.50166 14.80523,17.81708 1.29764,1.73275 2.74408,3.36273 4.40137,4.76099 3.06744,0.0725 6.1958,-0.57072 9.1976,-0.16298 6.25586,0.52727 12.2248,2.92464 17.51661,6.15484 13.41687,8.33541 24.24596,20.03391 36.98008,29.27953 1.34995,0.93077 2.64999,1.96639 4.08305,2.75986 1.2058,0.39857 2.41708,-0.27793 3.64178,-0.2018 2.87018,-0.16886 5.71274,0.0666 8.46504,0.62374 7.11913,1.42524 13.50615,4.93561 19.81079,8.40254 10.11807,5.68107 19.6866,12.2811 29.80895,17.95286 3.09716,-10.85837 5.60479,-21.98963 10.55998,-32.20266 0.71827,-1.42124 1.92214,-2.95834 1.31532,-4.64243 -0.51905,-1.43381 -1.64422,-2.53208 -2.36486,-3.86089 -3.91872,-6.40624 -6.15758,-13.81312 -6.4909,-21.31355 -0.0797,-1.69136 -0.0492,-3.5027 0.041,-5.23828 -5.05288,-0.15413 -10.11455,-0.80675 -14.99923,-2.26305 -1.95694,-0.59947 -3.76632,-1.32494 -5.62772,-2.26039 -1.60757,-0.82758 -3.26952,-1.83695 -4.71897,-2.93653 -4.54306,-3.43381 -8.09859,-8.16801 -10.3293,-13.32373 -1.82558,-4.12351 -2.68257,-8.60624 -2.91804,-13.0929 -0.36727,-5.86889 -0.0259,-11.85753 1.43591,-17.61881 0.89931,-3.627 2.32885,-7.16084 4.09416,-10.51404 0.62686,-1.19898 1.26497,-2.52918 0.91085,-3.91633 -0.37842,-1.57513 -0.94512,-3.05151 -1.25557,-4.65199 -1.44106,-6.05433 -1.98153,-12.43024 -0.66757,-18.55859 0.35708,-2.20723 -0.23348,-4.45125 -1.27474,-6.39509 -2.16196,-5.04864 -3.17194,-10.47263 -3.48181,-15.8748 -0.36801,-6.64767 0.87245,-13.21702 1.01922,-19.86006 -0.0393,-1.28426 -0.94303,-2.31714 -1.52635,-3.40478 -1.48537,-2.33741 -3.1026,-4.61771 -4.1214,-7.21156 -3.02832,-6.90682 -3.76378,-14.72628 -2.391,-22.12126 -2.03148,-1.01047 -4.28641,-1.4085 -6.44803,-2.04235 -11.23348,-2.87945 -22.78038,-4.12519 -34.15491,-6.27512 -8.15725,-1.41087 -16.2883,-2.99236 -24.47324,-4.23046 -10.65594,-0.98948 -21.37031,-0.54784 -32.05459,-0.79068 -14.10804,-0.13122 -28.21146,-0.61006 -42.31954,-0.70254 -14.16115,0.15385 -28.30137,2.04594 -42.46896,1.12079 -5.99432,-0.68931 -11.56831,-3.74792 -15.82451,-7.95623 -0.89622,-0.86617 -1.69352,-1.85419 -2.59411,-2.69958 -0.26231,-0.13934 -0.57303,-0.24764 -0.86914,-0.17383 z" />
    <path
       id="path5"
       style="fill:none;stroke:#ffffff;stroke-width:4.23333;stroke-dasharray:none;stroke-dashoffset:3.94129;stroke-opacity:1"
       d="m 253.06055,125.06445 c -6.94979,0.12456 -14.08424,1.29824 -20.35547,4.50391 -1.33589,0.70348 -2.70916,1.66843 -4.30213,1.81291 -2.06891,0.24679 -4.1609,0.18776 -6.23243,0.42718 -11.71723,0.93239 -23.37758,2.6197 -35.13704,2.97812 -5.83089,0.28719 -11.66447,0.98988 -17.48747,1.60195 -4.37277,0.23604 -8.62035,-1.0064 -12.86571,-1.8423 -9.97854,-1.7318 -20.19491,-1.52154 -30.34799,-1.44272 -12.62841,0.28122 -25.2426,0.92356 -37.837999,1.79326 -5.386589,0.49019 -10.804721,1.54107 -15.820646,3.59285 -14.529452,6.11556 -26.059477,18.32534 -32.618977,32.58851 -1.818664,4.0771 -3.159209,8.24963 -3.540722,12.73018 -0.375398,4.60334 0.623355,9.28863 2.338698,13.42756 1.514264,3.74946 3.756939,7.14701 6.237701,10.32082 1.58938,2.11478 2.911968,4.54934 3.091064,7.23889 0.547347,4.11761 0.730249,8.30092 1.783415,12.33529 1.612497,6.80149 4.389439,13.24182 6.885326,19.74817 2.099621,5.08414 4.618919,10.20373 8.712533,13.99021 1.53444,1.37303 3.347834,2.39613 4.957501,3.65782 1.390493,1.56168 1.024037,3.79299 1.35043,5.70075 0.618453,6.01266 1.547371,11.92815 3.125471,17.76071 1.374851,5.5879 1.334959,11.40325 2.425891,17.03944 1.381927,6.35126 3.973333,12.36095 6.770386,18.19982 3.867298,7.25775 10.059709,13.03844 16.953878,17.4839 5.57691,3.64244 11.63577,6.87967 15.95553,12.08474 2.69165,3.21356 5.34363,6.65355 9.09141,8.70191 8.05173,5.02829 18.02675,6.5761 27.29081,5.00916 7.49189,-1.13461 14.8404,-3.43194 22.40661,-4.4196 1.36143,1.09329 2.62202,2.30838 4.00782,3.37695 9.25509,7.4679 20.00471,12.86411 31.00777,17.27218 13.6064,5.38533 27.32491,10.48309 40.98606,15.72773 4.03712,1.44023 8.20554,2.0121 12.49033,1.71667 6.94875,-0.42358 13.70813,-2.9818 19.3433,-6.93873 8.00766,-5.72722 14.23722,-13.46149 20.5578,-20.90857 3.79818,-4.44641 7.63777,-8.93566 12.32177,-12.48451 4.26424,2.14087 7.20072,6.04929 9.9051,9.84431 5.02778,6.92724 10.30069,13.9606 17.49019,18.79498 6.56675,4.36607 14.43097,6.55628 22.20469,6.75726 1.6143,0.0945 3.23264,-0.10709 4.84143,-0.0391 2.37436,0.35895 4.08556,2.20362 5.98435,3.49802 12.09049,9.15202 22.67196,20.26852 35.62417,28.23924 5.91779,3.62178 12.65415,6.39025 19.57312,6.77446 2.77602,0.29108 5.60745,-0.65126 8.33398,0.16211 2.29149,0.93496 4.41282,2.24634 6.58802,3.41915 11.44971,6.42952 22.14378,14.22217 33.94518,19.99687 6.19291,2.96951 12.76208,5.69725 19.69761,6.30431 7.56589,0.6454 15.38819,-1.86554 20.86493,-7.18554 1.94369,-1.90652 3.60521,-4.21254 4.94722,-6.50097 2.58986,-4.48311 4.26174,-9.53357 5.79089,-14.49852 2.35284,-7.51546 4.24072,-15.17844 6.81459,-22.62124 1.14069,-1.97842 3.17162,-3.26516 4.23116,-5.30278 3.75869,-5.41271 6.2845,-11.6698 7.33697,-18.10353 0.90935,-6.72178 -0.4137,-13.68965 -3.79208,-19.64773 -2.3917,-4.25785 -5.90404,-7.77289 -8.2409,-12.05924 -0.83592,-2.62637 0.1722,-5.31449 0.37525,-7.94804 0.7317,-5.90657 0.68965,-12.24937 -1.67441,-17.88827 -3.86644,-9.32956 -12.9839,-16.21995 -23.01105,-17.414 -4.00745,-0.67878 -8.09146,-0.72761 -12.11752,-1.20086 -1.89074,-0.59838 -2.24857,-3.24064 -1.06645,-4.65333 4.20265,-5.69443 6.08152,-13.00327 5.82308,-20.04642 -0.0972,-4.64848 -1.43574,-9.22909 -2.53411,-13.75104 -0.491,-1.77373 -0.7695,-3.61552 -0.54868,-5.45564 0.27855,-2.90674 1.02474,-5.77786 0.84824,-8.71857 -0.0967,-6.03682 -1.84579,-11.87533 -4.24669,-17.35156 -0.92221,-2.15118 -1.18732,-4.53087 -0.90265,-6.84525 0.37471,-4.98913 1.10174,-9.9603 1.03522,-14.97506 -0.0146,-3.45811 -0.40599,-7.08267 -1.23609,-10.35938 -1.4131,-5.51231 -4.23187,-10.52701 -7.27734,-15.28711 2.30551,-6.33845 3.5162,-13.3665 1.77344,-19.99805 -1.906,-7.20032 -7.0821,-13.15372 -13.2259,-17.16818 -7.0415,-4.6561 -15.05666,-7.57044 -23.12252,-9.75165 -15.80337,-4.28028 -32.17873,-5.9054 -48.23155,-9.04284 -8.02214,-1.51544 -16.11265,-3.17024 -24.27739,-3.41751 -15.94805,-0.82093 -31.9265,-0.19859 -47.88026,-0.82363 -13.84311,-0.34835 -27.74148,-0.6584 -41.54714,0.32052 -4.61797,0.23712 -9.23594,0.47442 -13.85391,0.71142 -4.57732,-5.88488 -11.41964,-9.78084 -18.75271,-11.07225 -3.32604,-0.63268 -6.65222,-0.45621 -10.0344,-0.48049 z" />
  </g>
</svg>
