<?xml version="1.0" encoding="UTF-8" standalone="no"?>
<!-- Created with Inkscape (http://www.inkscape.org/) -->

<svg
   width="2048"
   height="2048"
   viewBox="0 0 541.86668 541.8667"
   version="1.1"
   id="svg1"
   inkscape:export-filename="track3.png"
   inkscape:export-xdpi="97.358749"
   inkscape:export-ydpi="97.358749"
   inkscape:version="1.4.2 (f4327f4, 2025-05-13)"
   sodipodi:docname="pista3.svg"
   xmlns:inkscape="http://www.inkscape.org/namespaces/inkscape"
   xmlns:sodipodi="http://sodipodi.sourceforge.net/DTD/sodipodi-0.dtd"
   xmlns="http://www.w3.org/2000/svg"
   xmlns:svg="http://www.w3.org/2000/svg">
  <sodipodi:namedview
     id="namedview1"
     pagecolor="#ffffff"
     bordercolor="#cccccc"
     borderopacity="1"
     inkscape:showpageshadow="0"
     inkscape:pageopacity="1"
     inkscape:pagecheckerboard="0"
     inkscape:deskcolor="#d1d1d1"
     inkscape:document-units="px"
     inkscape:export-bgcolor="#5aa02cff"
     inkscape:zoom="0.35355339"
     inkscape:cx="528.91587"
     inkscape:cy="1087.5302"
     inkscape:window-width="2400"
     inkscape:window-height="1261"
     inkscape:window-x="2391"
     inkscape:window-y="-9"
     inkscape:window-maximized="1"
     inkscape:current-layer="layer1" />
  <defs
     id="defs1" />
  <g
     inkscape:label="Capa 1"
     inkscape:groupmode="layer"
     id="layer1"
     transform="translate(-28.239847,-118.32131)">
    <path
       id="path2"
       style="fill:#000000;fill-opacity:1;stroke:#000000;stroke-width:3.16706264;stroke-dasharray:none;stroke-dashoffset:3.94129;stroke-opacity:1"
       d="m 268.26758,125.33203 c -8.23221,0.86441 -15.36478,7.13195 -17.96289,14.88867 -6.158,16.54387 -9.62911,33.88837 -14.42868,50.83496 -1.01115,3.73465 -2.06897,7.44754 -3.18851,11.1377 -15.36679,4.09357 -30.24904,9.78196 -45.66406,13.69922 -5.43446,-8.4049 -9.43107,-17.66092 -14.02472,-26.56621 -6.39317,-12.75023 -12.58658,-25.75173 -21.28149,-37.13752 -4.42533,-5.53916 -10.38296,-10.18736 -17.39887,-11.79041 -6.35808,-1.37208 -12.85569,-0.0907 -19.1491,0.99875 -15.061,2.70708 -30.014067,7.07022 -43.34036,14.73957 -7.2199,4.27428 -13.787179,10.13029 -17.574547,17.72523 -3.814872,7.90674 -3.954285,17.21686 -1.534833,25.55477 3.089471,11.36145 8.985399,21.64673 14.355354,32.0358 2.8059,5.33842 5.748712,10.71342 7.658783,16.36019 1.424084,4.19024 2.053106,8.61509 3.690547,12.73951 1.294405,3.38778 3.268283,6.46193 5.272007,9.46584 6.974908,10.12418 16.467609,18.11683 25.129439,26.68597 2.99048,3.02319 5.93528,6.14676 8.29349,9.69632 0.69706,1.42108 0.70646,3.03246 0.33834,4.49391 -0.85753,3.06295 -2.90081,5.59363 -4.65125,8.18885 -6.03418,8.25887 -13.185653,15.76378 -18.017521,24.8511 -3.934897,7.24745 -6.325612,15.41351 -6.312069,23.69407 -0.0076,7.19208 1.641615,14.53824 5.561084,20.63521 3.249878,4.94139 8.224576,8.53944 13.647306,10.77434 6.61165,2.80831 13.73698,4.06726 20.77945,5.26556 9.44894,1.48516 19.05323,2.30466 28.36169,4.27665 -1.66896,4.76759 -4.13898,9.28547 -6.4872,13.77871 -7.71975,14.33774 -17.06702,27.86674 -23.06723,43.07678 -3.1772,8.10877 -5.21087,16.9533 -3.98146,25.68206 1.12296,7.60486 4.76076,14.48135 7.81983,21.43392 4.34279,9.47153 8.97308,18.93144 15.38464,27.2025 7.01788,7.61235 18.43651,10.49439 28.33724,7.75392 5.60653,-1.60098 10.88438,-4.17263 15.86425,-7.17826 4.88062,-2.87604 9.52661,-6.14124 14.49517,-8.87073 2.72899,6.27569 4.33832,12.95344 6.12994,19.53659 4.90856,18.95299 8.24481,38.39935 15.26654,56.74857 3.03623,7.84844 7.22126,15.50526 13.61121,21.12647 5.22288,4.65381 12.00804,7.5955 19.02273,7.89439 7.73765,0.43649 15.5916,-2.13252 21.57114,-7.06578 7.46642,-5.83638 12.87324,-13.78746 17.77438,-21.78801 5.54515,-9.00606 10.42855,-18.5005 17.48032,-26.46083 0.63697,-0.81774 1.73757,-0.3579 2.60701,-0.44752 9.10578,0.0224 17.93048,-3.22226 25.65114,-7.88055 10.12018,-6.07168 18.67441,-14.32566 26.99436,-22.60664 7.48678,-7.45009 14.82236,-15.11985 23.19982,-21.59184 4.1268,12.14323 7.33739,24.57362 10.58859,36.9832 4.84831,18.70244 9.2919,37.57411 15.77492,55.80831 2.58823,7.04767 5.61794,14.15735 10.71821,19.78732 4.39856,4.72634 10.67895,7.99628 17.23623,7.81992 7.09302,-0.0828 13.87021,-3.64811 18.48946,-8.94136 6.02072,-6.13212 10.52287,-13.522 15.10506,-20.73748 11.36781,-18.26855 20.90171,-37.62436 32.58242,-55.70649 2.75015,-4.11172 6.37069,-7.76663 7.99594,-12.53263 1.90084,-5.34267 1.60882,-11.15084 0.87757,-16.68326 -0.80085,-5.35083 -1.96453,-10.64124 -3.16921,-15.91404 -3.86129,-16.46736 -9.01775,-32.65049 -12.21563,-49.25566 -0.1815,-0.97168 -0.33334,-1.91367 -0.49333,-2.89736 5.8741,-8.10319 13.29353,-15.14068 17.89063,-24.12696 5.124,-10.29548 7.68762,-21.66125 9.08963,-33.01573 1.03237,-11.71563 -1.67293,-23.49382 -6.33492,-34.20135 -3.95663,-9.39611 -9.21495,-18.24948 -12.26057,-28.0212 -1.06507,-3.53415 -1.95953,-7.14129 -1.9668,-10.88867 -0.0148,-2.46104 0.5324,-4.98214 1.69861,-7.21441 1.96872,-3.89547 4.76495,-7.28537 6.94205,-11.05773 3.9358,-6.45169 6.96093,-13.70071 7.26429,-21.33829 0.53608,-10.46659 -2.87941,-21.08558 -9.37764,-29.30219 -3.92526,-4.84852 -9.41644,-8.45205 -15.51191,-9.87088 -5.96839,-1.50488 -12.32766,-1.00426 -18.13306,0.95112 -6.32813,1.92028 -12.16873,5.12373 -18.0171,8.11949 3.81246,-5.97818 8.04972,-11.66836 12.03731,-17.52825 5.26449,-7.5823 10.43114,-15.3845 13.63684,-24.09577 2.20067,-6.70626 2.41795,-14.31582 -0.60202,-20.80997 -3.96187,-8.6097 -12.97113,-14.40077 -22.34357,-15.08706 -8.3281,-0.84231 -16.64801,1.45377 -24.16704,4.89688 -15.41534,6.97555 -28.89926,17.3887 -43.69689,25.4854 -2.64472,1.40818 -5.41845,2.73238 -8.26893,3.78135 -6.00475,-3.50176 -11.82573,-7.30414 -17.64453,-11.10352 12.44217,-5.84875 25.11453,-11.35456 36.7448,-18.75103 5.08144,-3.79846 8.82419,-9.75723 8.98675,-16.20867 0.36833,-9.37444 -6.92439,-18.40062 -16.18468,-19.96217 -2.81838,-0.67078 -5.88159,0.0991 -8.48708,-1.4251 -3.16931,-1.68291 -5.85641,-4.09775 -8.77856,-6.15301 -6.28666,-4.7323 -12.91246,-9.31461 -20.52537,-11.61135 -5.13459,-1.60443 -10.59522,-1.93901 -15.89841,-2.13154 -9.03698,-0.50967 -17.985,-2.03519 -26.9421,-3.39101 -17.83439,-2.81022 -35.63831,-6.23667 -53.70525,-7.18929 -1.72129,-0.0704 -3.44463,-0.0773 -5.16713,-0.0714 z" />
    <path
       id="path3"
       style="fill:#5aa02c;fill-opacity:1;stroke:#000000;stroke-width:3.16706264;stroke-dasharray:none;stroke-dashoffset:3.94126;stroke-opacity:1"
       d="m 279.70117,162.33789 c -5.80408,19.57278 -9.71902,39.70166 -16.62349,58.94311 -1.74059,4.54615 -4.54655,8.94839 -8.88626,11.38825 -2.65407,1.57071 -5.744,2.142 -8.77619,2.41524 -4.38016,0.70289 -8.61766,2.27594 -12.90838,3.48382 -15.50807,4.71748 -30.8052,10.43613 -46.81826,13.28906 -6.17625,0.96136 -12.84569,-0.5078 -17.68151,-4.57236 -5.60743,-4.42884 -9.34247,-10.65957 -12.9424,-16.71542 -9.53703,-16.38734 -16.58792,-34.09494 -26.37842,-50.34518 -1.06736,-1.74418 -2.20243,-3.44717 -3.41282,-5.0955 -9.96231,1.41447 -19.80884,3.88294 -29.130862,7.81054 -3.50243,1.51173 -7.214135,3.16519 -10.052734,5.87891 0.953167,4.14388 2.636621,8.08235 4.453962,11.91441 4.132244,8.60627 8.950383,16.86075 13.067524,25.47231 2.80193,5.93502 5.22855,12.09555 6.54805,18.54246 0.50693,2.26698 1.34404,4.64583 2.95885,6.43569 4.3772,5.61251 9.66013,10.42073 14.76068,15.35583 6.88472,6.58027 13.86734,13.25556 18.97289,21.36551 5.812,9.6228 7.25901,21.64783 4.26706,32.4487 -1.44727,5.46151 -4.06882,10.53254 -7.18365,15.2176 -5.60318,8.61935 -12.98209,15.95222 -18.29767,24.7697 -1.2162,2.22393 -2.17712,4.67398 -2.21957,7.23951 8.04538,2.35629 16.41232,2.95152 24.66364,4.18139 10.10688,1.36871 20.39508,2.78713 29.79728,6.95508 6.83019,3.09339 12.50188,9.19548 14.1721,16.61154 1.82527,7.88508 0.55979,16.15191 -1.93771,23.74418 -3.74289,11.3816 -10.00428,21.68272 -15.91874,32.02758 -5.79292,9.96867 -12.00894,19.84032 -15.73046,30.8227 -0.72029,2.22407 -0.84559,4.77303 0.31915,6.87425 3.37038,7.81635 6.81523,15.56877 10.97654,23.00203 0.12311,0.53447 0.73355,-0.33993 1.07159,-0.33152 5.77604,-3.15895 11.0717,-7.11416 16.85366,-10.26206 6.19763,-3.50026 12.97244,-6.43064 20.17045,-6.79314 7.67738,-0.25021 15.5103,2.89575 20.53339,8.77869 5.68775,6.19994 9.0515,14.08321 11.75526,21.94502 4.82805,13.86203 7.57477,28.31755 11.0833,42.5402 2.52116,10.64995 5.10852,21.40431 9.66992,31.40846 0.26698,0.45579 0.46586,1.52246 0.92445,0.62665 2.67991,-3.10992 4.79884,-6.79047 7.06981,-10.25081 6.42719,-10.35288 12.05432,-21.34794 20.29159,-30.43798 5.3658,-5.93593 12.28552,-10.80506 20.21959,-12.45586 4.00873,-0.89556 8.21022,-0.0304 12.18655,-1.10049 4.61261,-1.49998 8.32349,-4.6343 12.07962,-7.58694 8.7192,-7.27245 16.34378,-15.72546 24.55911,-23.57802 8.09181,-7.8795 16.72441,-15.45013 26.85592,-20.60181 5.47556,-2.68783 11.47832,-4.67019 17.63708,-4.5658 6.91716,0.50847 13.15691,4.92192 16.68568,10.78175 5.12789,7.74727 7.83976,16.72714 10.68456,25.48218 6.10757,19.62006 10.59823,39.67896 16.00156,59.49075 1.64518,6.18041 3.39539,12.3341 5.35636,18.42245 11.68924,-18.53093 21.34868,-38.31548 33.2,-56.7685 1.49518,-2.29484 3.0389,-4.55741 4.6418,-6.77838 -1.0083,-7.12994 -2.8901,-14.13377 -4.60531,-21.11713 -3.85101,-15.10796 -8.45369,-30.08195 -11.03813,-45.48856 -0.8213,-5.45292 -1.54701,-11.18471 0.21586,-16.53671 1.28535,-4.09509 3.68042,-7.71827 6.28339,-11.08712 4.60776,-6.41766 10.26725,-12.04121 14.53491,-18.70984 2.7501,-5.19087 3.77351,-11.04319 5.01358,-16.72266 0.89354,-4.94858 0.67347,-10.05832 -0.8835,-14.84036 -2.17959,-6.85883 -5.60398,-13.22022 -8.63018,-19.72418 -4.28127,-8.96949 -8.05163,-18.30156 -9.69504,-28.15335 -1.41125,-8.44003 -1.52953,-17.26351 0.98341,-25.51449 2.22366,-7.5609 6.63194,-14.19222 10.90194,-20.72342 1.39597,-2.19517 3.18997,-4.46266 3.07331,-7.211 -0.0909,-0.37172 0.0987,-1.431 -0.5066,-0.97336 -5.57685,2.42355 -10.77562,5.62107 -16.33613,8.07707 -6.81264,3.09855 -14.22132,5.49444 -21.79394,5.04933 -10.95632,-0.71047 -21.39399,-7.76328 -25.70056,-17.93353 -2.77854,-6.3081 -2.91266,-13.59434 -0.91095,-20.14436 2.5955,-9.32321 7.87169,-17.57524 13.208,-25.53963 2.37612,-3.49991 4.83256,-6.94002 7.25703,-10.40592 -10.58765,6.35257 -20.74851,13.42526 -31.68555,19.17969 -5.15047,2.6353 -10.48518,5.01685 -16.10742,6.44531 -7.01217,1.61552 -14.65624,1.02755 -21.06733,-2.37296 -7.51727,-3.59165 -14.25733,-8.5344 -21.29904,-12.9386 -6.68548,-4.34617 -13.29279,-8.9587 -20.66596,-12.10226 -3.53083,-0.9356 -7.35618,-1.56407 -10.22135,-4.01679 -5.81416,-4.42334 -8.31449,-12.90242 -5.35024,-19.66508 2.08163,-5.13702 6.46486,-8.93831 11.1612,-11.66026 10.89092,-6.68356 22.6776,-11.68537 34.17124,-17.20694 -3.23823,-2.40825 -6.48574,-5.00779 -10.35996,-6.30205 -3.59761,-0.72463 -7.36342,-0.34201 -11.02472,-0.86219 -22.87254,-2.02003 -45.29908,-7.29861 -68.0997,-9.7049 -0.13737,0.49349 -0.27474,0.98698 -0.41211,1.48047 z" />
    <path
       id="path4"
       style="fill:none;fill-opacity:1;stroke:#ffffff;stroke-width:3.16706264;stroke-dasharray:none;stroke-dashoffset:3.94126;stroke-opacity:1"
       d="m 281.53906,163.59375 c -5.84625,19.98927 -9.87967,40.52978 -17.17418,60.08128 -1.9644,4.49605 -5.1458,8.6143 -9.48402,11.02419 -2.2582,1.27913 -4.97568,1.84909 -7.56225,2.29788 -3.08356,0.50978 -6.19055,1.00339 -9.13227,2.09712 -17.24679,4.99387 -34.09364,11.52696 -51.82081,14.73322 -4.29054,0.77232 -8.78643,0.48099 -12.8792,-1.05986 -4.24364,-1.51095 -7.93928,-4.30128 -10.85989,-7.70112 -5.71451,-6.28368 -9.62187,-13.86463 -13.68188,-21.24929 -8.17003,-15.23713 -14.891,-31.33763 -24.30394,-45.92069 -1.06982,-0.81629 -2.36428,-0.0373 -3.52528,0.0516 -10.60146,1.96098 -21.167808,4.91329 -30.628981,10.19857 -0.698766,0.42754 -1.372504,0.89346 -2.035187,1.37478 2.918046,9.74281 8.329636,18.43319 12.861498,27.46157 4.50001,8.58351 8.79235,17.48629 10.84769,27.04439 0.60151,2.62024 1.70803,5.19227 3.64454,7.10663 9.49683,11.17645 21.50727,20.00516 30.24754,31.85834 3.83884,5.20123 6.70601,11.27307 7.88311,17.68728 1.39452,7.25524 0.91053,14.99942 -1.32696,22.09822 -1.41445,4.62742 -3.71791,8.94932 -6.27645,12.95101 -5.29668,8.29419 -12.11585,15.47495 -17.55139,23.66745 -1.22525,1.87621 -2.34533,3.87393 -2.96825,6.02746 0.0193,0.94079 1.20026,0.79988 1.8392,1.02686 10.67686,2.31825 21.60419,2.98161 32.33313,4.97513 7.6139,1.3871 15.276,3.3053 22.06559,7.13195 4.79513,2.91841 8.69957,7.42555 10.84802,12.55746 1.19932,2.75295 1.76291,5.87022 1.9811,8.86749 0.52014,6.6433 -0.70396,13.43481 -2.78145,19.72189 -3.30029,9.8665 -8.34255,19.02345 -13.51869,27.9925 -4.04685,7.03884 -8.2331,14.00202 -12.05813,21.16385 -2.576,4.94184 -4.94131,10.04478 -6.41775,15.43201 -0.36823,2.42627 1.09192,4.58622 1.95952,6.73811 2.70064,6.11146 5.49471,12.18257 8.63813,18.08025 7.72239,-4.54994 15.10854,-9.9069 23.34766,-13.41992 5.42651,-2.34751 11.5177,-3.75183 17.41406,-3.25977 8.39869,0.67193 16.18157,5.51584 20.98945,12.35979 6.23306,8.48273 9.54478,18.60617 12.48549,28.62302 5.45307,18.74419 8.48815,38.18301 14.6926,56.73438 0.71138,2.03648 1.51149,4.04017 2.28363,6.05429 7.64401,-10.92797 13.5038,-23.01796 21.60541,-33.63769 5.11363,-6.73771 11.49163,-12.82167 19.37044,-16.15551 2.44555,-1.02606 4.84869,-1.73861 7.47532,-2.11304 2.10765,-0.31862 4.39611,-0.38321 6.64736,-0.37271 2.84096,-0.0616 5.73958,-0.84786 8.06873,-2.44665 5.3176,-3.18653 9.80616,-7.52038 14.36385,-11.674 11.11607,-10.457 21.25153,-22.03137 33.59194,-31.08282 6.59215,-4.82415 14.00803,-8.99652 22.01953,-10.84765 5.16423,-1.30365 10.84384,-1.12173 15.66287,1.29228 5.08561,2.48681 9.15054,6.85521 11.85019,11.81768 3.27615,5.83887 5.75276,12.0901 7.80901,18.45312 4.8008,14.83645 8.7202,29.95796 12.58084,45.06924 2.89091,11.28952 5.81113,22.57002 9.13225,33.74072 11.10992,-18.28311 20.69393,-37.49447 32.48047,-55.33398 0.79939,-1.21267 1.63562,-2.44284 2.46093,-3.6543 -1.94433,-11.99049 -5.44717,-23.64047 -8.43948,-35.39529 -3.06888,-11.57449 -6.18247,-23.21689 -7.59567,-35.07932 -0.37697,-2.79185 -0.46975,-5.64301 -0.0764,-8.38623 0.4956,-3.73029 1.68337,-7.25532 3.67738,-10.44612 4.63135,-7.71991 11.02269,-14.1486 16.31507,-21.3864 2.0103,-2.82315 3.58961,-5.96656 4.43858,-9.33657 1.28697,-4.33755 2.16036,-8.80007 2.69343,-13.28935 0.40333,-6.13112 -1.66175,-12.09166 -4.20868,-17.57468 -4.85494,-10.92372 -10.75196,-21.51983 -13.74108,-33.15049 -2.64801,-9.84466 -3.69711,-20.22471 -1.56849,-30.25725 1.35677,-6.56049 4.26559,-12.69234 7.84056,-18.32183 2.1769,-3.51925 2.72226,-5.5275 4.93722,-9.02282 -6.29867,3.22675 -10.80545,5.19785 -17.42083,7.62682 -5.15892,1.88796 -10.5872,3.16251 -16.12474,2.95163 -3.72146,-0.11203 -7.52281,-0.83709 -11.00857,-2.25771 -7.15205,-2.9375 -13.23199,-8.32712 -16.77681,-15.21637 -2.81249,-5.40745 -3.72051,-11.59081 -2.95231,-17.60412 0.73526,-6.20947 3.12931,-12.01108 5.95394,-17.55607 2.32119,-4.54106 5.1162,-8.81422 7.81181,-13.11581 0.35309,-0.39683 5.09524,-5.25888 4.3514,-5.33117 -0.80819,0.16852 -5.98954,4.79466 -6.74846,5.15307 -5.47485,3.28604 -10.82727,6.78634 -16.47942,9.77024 -5.96898,3.20377 -12.13094,6.06462 -18.72137,7.70614 -5.52643,1.25898 -11.29158,1.24018 -16.7809,-0.32286 -4.20826,-1.20792 -8.0022,-3.43786 -11.78533,-5.59183 -10.17802,-6.01443 -19.73181,-13.03449 -30.02125,-18.86281 -3.01474,-1.68128 -6.24361,-2.97264 -9.60667,-3.75944 -3.25194,-0.91411 -6.48677,-2.62784 -8.82904,-5.20358 -1.68267,-1.78479 -2.99926,-3.93129 -3.85566,-6.12102 -2.0152,-5.01854 -1.85932,-10.92465 0.74931,-15.70304 1.74431,-3.31461 4.35046,-6.10907 7.3433,-8.41091 4.08604,-3.03993 8.60698,-5.36424 13.09427,-7.78818 7.22891,-3.78218 14.6513,-7.17556 22.02712,-10.65803 -2.88161,-2.05172 -6.07796,-4.16894 -9.75348,-4.16535 -10.44102,-0.39703 -20.83126,-1.94577 -31.18587,-3.49188 -14.2994,-2.20454 -28.5423,-4.82187 -42.92393,-6.49902 -0.041,0.14453 -0.082,0.28906 -0.12305,0.43359 z"
       sodipodi:nodetypes="scccccccccccccccccccccccccccccccccccccccccccccccccccccccccccccccccccccccccccccccccccccccccss" />
    <path
       id="path1"
       style="fill:none;fill-opacity:1;stroke:#ffff00;stroke-width:3.16706264;stroke-dasharray:9.50118822,3.16706264;stroke-dashoffset:5.06733357;stroke-opacity:1"
       d="m 129.06876,158.75314 c -12.29885,0.41939 -49.978275,8.54031 -57.600227,23.06374 -7.989489,14.69888 20.80181,47.94332 23.184115,66.3868 1.881039,17.96062 35.216892,35.95305 40.645512,52.10139 10.42663,30.67422 -36.393512,44.67016 -26.4408,75.72655 4.41554,14.18238 63.85217,7.85079 67.67886,22.40364 6.50166,24.82874 -42.64736,70.71339 -33.533,93.72772 4.47598,11.39068 9.68468,22.12571 15.49304,32.09016 11.7416,20.27755 42.7977,-25.909 57.69337,-10.99021 17.42689,17.20512 19.41728,93.79928 39.3107,103.24633 24.10684,11.67286 35.47791,-56.67233 60.75939,-54.61321 29.02585,2.9261 55.62796,-52.01024 84.53411,-56.98205 16.39057,-2.95848 33.30727,132.34416 49.09597,125.18405 12.76394,-5.55746 43.11609,-73.02961 54.45275,-83.59259 6.88907,-6.32337 -20.55856,-77.40572 -15.05223,-86.22577 14.14077,-22.07539 20.07292,-17.39882 25.94368,-46.54216 6.04636,-29.59974 -18.29964,-45.15405 -19.92732,-76.04029 -1.40094,-24.05546 22.14315,-29.76357 14.65142,-51.1909 -10.97051,-32.55283 -37.85542,18.09878 -56.0906,-5.95703 -13.67737,-18.05456 31.36562,-57.45612 14.29899,-67.34949 -17.98532,-10.67793 -57.43756,34.67651 -76.39137,29.15757 -10.09884,-2.92341 -39.68338,-27.27327 -49.96403,-28.01155 -21.46516,-1.86122 81.65028,-39.2073 60.17847,-38.45653 -16.34153,0.67716 -27.13394,-20.47141 -43.48154,-20.62279 -23.73696,-0.0901 -64.67231,-10.79352 -88.40895,-11.01856 -4.92487,-0.0948 -19.23297,75.26266 -24.14979,74.84158 -7.31602,-1.21798 -59.09992,19.80996 -66.24001,16.96057 -13.70816,-5.69176 -36.25804,-77.58986 -50.64051,-77.29697 z"
       sodipodi:nodetypes="cccccccccccccccccccccccccccc"
       transform="translate(-1.2160367e-6)" />
    <path
       id="path5"
       style="fill:none;fill-opacity:1;stroke:#ffffff;stroke-width:3.16706264;stroke-dasharray:none;stroke-dashoffset:3.94129;stroke-opacity:1"
       d="m 268.03711,122.70117 c -8.88188,0.94346 -16.73483,7.41097 -19.87659,15.69573 -4.4529,11.92046 -7.58928,24.27231 -10.76197,36.58064 -2.1433,8.39348 -4.34485,16.75688 -6.8341,25.05566 -14.21256,3.91596 -28.07736,9.00243 -42.32617,12.79883 -6.01398,-9.96237 -10.63523,-20.66921 -16.02019,-30.96485 -5.56878,-11.06676 -11.28582,-22.18589 -18.99154,-31.95183 -4.72885,-5.77778 -11.1205,-10.49245 -18.50389,-12.11652 -6.78478,-1.41124 -13.7251,-0.12769 -20.43383,1.08401 -14.829047,2.72599 -29.557649,6.97781 -42.762776,14.39445 -7.702258,4.37446 -14.734418,10.39507 -19.028007,18.2481 -4.078111,7.55207 -4.862019,16.56711 -3.227492,24.90841 1.491981,7.07662 4.255893,13.81632 7.330852,20.33839 4.056337,8.55117 8.789903,16.76267 12.904978,25.28667 1.840006,3.85662 3.300866,7.89523 4.229456,12.0693 1.227598,4.92906 2.816439,9.85659 5.657744,14.11607 6.00975,9.79459 14.426026,17.76061 22.686305,25.62541 4.50924,4.37212 9.21409,8.65441 12.71503,13.91747 0.74324,2.02699 -0.47292,4.06028 -1.48286,5.75339 -4.5537,7.21804 -10.40753,13.48818 -15.346635,20.44502 -4.596154,6.37596 -8.478559,13.39075 -10.434524,21.04941 -2.569136,9.63622 -2.335219,20.1753 1.542159,29.4351 2.242565,5.30625 5.902376,10.07012 10.727152,13.26847 6.720908,4.60605 14.763528,6.6633 22.662098,8.17946 10.18183,1.94275 20.56991,2.80872 30.72714,4.65235 -4.09669,9.36929 -9.50668,18.10995 -14.58943,26.98676 -6.1321,10.54422 -12.23896,21.26876 -15.87675,32.9761 -2.41281,8.03068 -3.38491,16.73749 -1.22243,24.93826 1.85315,7.18702 5.29134,13.81196 8.32593,20.54512 4.16281,8.96409 8.66593,17.8974 14.89718,25.62716 2.70405,3.05814 6.22321,5.32772 9.94677,6.94864 7.583,3.24909 16.42586,3.41888 24.1169,0.42014 8.96813,-3.15367 16.79113,-8.68238 24.84519,-13.59061 0.54663,-0.27055 0.41395,0.75446 0.66176,1.01945 2.81339,8.09317 4.76537,16.50995 6.82667,24.84008 4.00859,16.7091 7.44538,33.67136 13.9182,49.65085 3.40091,8.17698 8.24058,16.02564 15.33009,21.50141 8.36215,6.55397 19.95364,8.75933 30.11914,5.62771 6.14282,-1.78202 11.59818,-5.44634 16.10097,-9.93274 8.16609,-8.00407 13.7824,-18.08038 19.59656,-27.80644 3.46541,-5.81168 7.05305,-11.56299 11.47982,-16.67376 9.90472,0.21575 19.5844,-3.18757 27.98078,-8.26863 11.58215,-6.94934 21.13912,-16.63723 30.6367,-26.11218 5.47125,-5.45983 10.95992,-10.92056 16.89228,-15.88482 8.0339,25.17791 13.3047,51.13044 20.97467,76.41473 2.14297,6.91971 4.46138,13.7987 7.31049,20.46223 2.89529,6.43206 6.77755,12.69697 12.57588,16.89213 5.54167,4.02974 12.78394,5.81802 19.51842,4.30371 6.81538,-1.36914 12.81606,-5.55893 17.17141,-10.88686 6.98556,-7.72622 12.17685,-16.81579 17.62598,-25.63309 10.20237,-17.01794 19.08906,-34.8298 30.14463,-51.33273 3.07019,-4.14955 6.48317,-8.34155 7.62315,-13.5026 1.74896,-6.93667 0.75744,-14.17454 -0.56511,-21.091 -3.94329,-20.78067 -10.91142,-40.8457 -14.76624,-61.63433 5.86281,-7.93637 13.07824,-14.9677 17.53514,-23.87202 4.06555,-8.26021 6.5972,-17.20998 8.16508,-26.26003 0.62854,-3.94676 1.25419,-7.91597 1.33299,-11.91873 0.17685,-11.65369 -3.05925,-23.10954 -7.88701,-33.63406 -3.96667,-8.89657 -8.83765,-17.40801 -11.48995,-26.82883 -0.61802,-2.27055 -1.18987,-4.62799 -1.33054,-6.93627 -0.23928,-2.92075 0.31884,-5.93272 1.86656,-8.44709 2.48567,-4.4448 5.79066,-8.56574 8.1685,-13.15839 3.83144,-7.1138 6.25564,-15.16748 5.83516,-23.30563 -0.43816,-10.43287 -4.30677,-20.79101 -11.27767,-28.6228 -6.8625,-7.76718 -17.79351,-11.483 -27.99583,-9.98664 -5.79702,0.76513 -11.31014,2.88428 -16.57282,5.35916 6.71434,-9.70891 13.90991,-19.22299 18.77734,-30.04504 2.90812,-6.4069 4.17342,-13.70002 2.74099,-20.6486 -1.28825,-6.69587 -5.32842,-12.72479 -10.8301,-16.70771 -5.48352,-4.05091 -12.32795,-6.1308 -19.13232,-6.00818 -8.1444,-0.0284 -16.06285,2.50355 -23.3598,5.95869 -14.42126,6.75689 -27.20574,16.40422 -41.10508,24.10054 -2.645,1.44819 -5.30625,2.88608 -8.12228,3.97921 -4.2056,-2.49886 -8.3279,-5.13433 -12.4375,-7.78711 11.35159,-5.34707 22.89824,-10.45543 33.36982,-17.43529 5.36367,-4.07288 9.10762,-10.43949 9.52918,-17.21344 0.39548,-6.12853 -2.06458,-12.26751 -6.29876,-16.66736 -3.38901,-3.59865 -7.97727,-6.05206 -12.8798,-6.75821 -2.49502,-0.37004 -5.25704,0.11016 -7.4799,-1.34724 -4.24926,-2.66113 -8.05933,-5.95162 -12.19897,-8.77451 -6.70345,-4.71115 -14.13401,-8.79036 -22.32462,-10.07734 -6.97064,-1.15154 -14.08498,-0.86291 -21.06826,-1.92379 -17.31791,-2.2362 -34.51509,-5.58625 -51.84646,-7.85999 -8.10354,-1.05144 -16.25771,-1.8195 -24.43504,-1.84713 z" />
  </g>
</svg>
