<?xml version="1.0" encoding="UTF-8" standalone="no"?>
<!-- Created with Inkscape (http://www.inkscape.org/) -->

<svg
   width="2048"
   height="2048"
   viewBox="0 0 541.86668 541.8667"
   version="1.1"
   id="svg1"
   inkscape:export-filename="track1.png"
   inkscape:export-xdpi="97.358749"
   inkscape:export-ydpi="97.358749"
   inkscape:version="1.4.2 (f4327f4, 2025-05-13)"
   sodipodi:docname="pista1.svg"
   xmlns:inkscape="http://www.inkscape.org/namespaces/inkscape"
   xmlns:sodipodi="http://sodipodi.sourceforge.net/DTD/sodipodi-0.dtd"
   xmlns="http://www.w3.org/2000/svg"
   xmlns:svg="http://www.w3.org/2000/svg">
  <sodipodi:namedview
     id="namedview1"
     pagecolor="#ffffff"
     bordercolor="#cccccc"
     borderopacity="1"
     inkscape:showpageshadow="0"
     inkscape:pageopacity="1"
     inkscape:pagecheckerboard="0"
     inkscape:deskcolor="#d1d1d1"
     inkscape:document-units="px"
     inkscape:export-bgcolor="#5aa02cff"
     inkscape:zoom="2"
     inkscape:cx="1714"
     inkscape:cy="701.75"
     inkscape:window-width="2400"
     inkscape:window-height="1261"
     inkscape:window-x="2391"
     inkscape:window-y="-9"
     inkscape:window-maximized="1"
     inkscape:current-layer="layer1" />
  <defs
     id="defs1" />
  <g
     inkscape:label="Capa 1"
     inkscape:groupmode="layer"
     id="layer1"
     transform="translate(-28.239847,-118.32131)">
    <path
       id="path2"
       style="fill:#000000;stroke:#ffffff;stroke-width:3.16706264;stroke-dasharray:none;stroke-opacity:1"
       d="m 88.447381,119.91255 c -17.486753,0.4896 -34.768965,12.8675 -45.586679,33.43899 -11.027944,20.71801 -15.306814,48.78747 -11.878481,74.65671 2.385507,20.50382 7.919177,39.83692 14.150418,58.3392 10.145071,29.34703 22.795814,56.65556 32.457313,86.33025 4.566898,14.25759 8.324939,29.04494 12.222932,43.72532 7.017402,26.70207 14.202026,53.49299 24.171596,78.11516 5.22481,12.99661 11.28072,25.24213 18.07075,36.51827 15.1884,25.44528 33.23576,46.98969 52.91865,64.24166 21.56627,18.79441 45.14694,32.13518 69.36531,41.04909 13.19253,4.88385 26.61749,8.29564 40.12667,10.49781 18.33258,3.0226 36.78763,4.09459 55.22532,4.1892 21.53053,-0.0483 43.08818,-1.94959 64.39206,-6.68866 21.55321,-5.15485 42.75421,-13.60674 63.1405,-25.23553 13.34825,-7.969 26.01243,-19.01895 36.37258,-33.99484 16.09035,-22.55819 28.09087,-51.17297 35.77822,-81.93706 7.08674,-28.2776 10.90619,-58.32922 11.52379,-88.4876 0.49965,-27.37598 -1.99887,-55.01857 -8.30864,-80.79939 -6.93732,-28.75941 -17.97435,-55.00588 -30.96144,-78.53384 -11.56958,-20.87116 -24.84217,-39.62962 -39.34982,-55.91385 -16.47325,-18.10175 -35.20907,-31.52206 -54.84974,-39.97283 -17.78068,-8.10482 -36.03797,-13.65466 -54.37985,-18.07197 -22.90732,-4.90685 -46.12402,-4.07848 -69.19413,-3.32098 -21.00487,0.76605 -42.01293,1.73166 -63.02672,1.42483 -27.63881,-0.0406 -55.27994,0.17564 -82.91653,-0.42617 -4.60532,-0.17577 -9.27002,-1.20468 -13.75425,-2.99268 -11.66844,-4.22136 -23.0823,-9.97863 -34.91495,-13.15784 -6.84954,-1.92977 -13.815233,-3.10871 -20.794879,-2.99325 z" />
    <path
       id="path3"
       style="fill:none;stroke:#ffff00;stroke-width:2.46329;stroke-dasharray:7.38987, 2.46329;stroke-dashoffset:3.94129;stroke-opacity:1"
       d="m 88.657601,145.65693 c -12.29885,0.41939 -24.53421,8.91449 -32.156162,23.43792 -7.989489,14.69888 -11.003265,34.84711 -8.62096,53.29059 1.881039,17.96062 6.779408,34.83052 12.208025,50.97886 10.426631,30.67422 23.84905,58.8889 33.801757,89.94529 4.415541,14.18238 8.099749,28.80472 11.926439,43.35757 6.50166,24.82874 13.10506,49.75946 22.21942,72.77379 4.47598,11.39068 9.68468,22.12571 15.49304,32.09016 11.7416,20.27755 25.58554,37.70115 40.48121,52.61994 17.42689,17.20512 36.62944,30.18913 56.52286,39.63618 24.10684,11.67286 49.32247,17.78896 74.60395,19.84808 29.02585,2.9261 58.2472,2.24548 87.15335,-2.72633 16.39057,-2.95848 32.55892,-8.34653 48.34762,-15.50664 12.76394,-5.55746 25.52975,-12.0387 36.86641,-22.60168 6.88907,-6.32337 13.11741,-14.16975 18.62374,-22.9898 14.14077,-22.07539 24.18887,-49.57807 30.05963,-78.72141 6.04636,-29.59974 8.64113,-60.8695 7.01345,-91.75574 -1.40094,-24.05546 -5.92015,-47.72408 -13.41188,-69.15141 -10.97051,-32.55283 -27.00428,-60.85264 -45.23946,-84.90845 -13.67737,-18.05456 -29.25111,-33.13459 -46.31774,-43.02796 -17.98532,-10.67793 -36.96418,-16.97177 -55.91799,-22.49071 -10.09884,-2.92341 -20.31883,-4.96393 -30.59948,-5.70221 -21.46516,-1.86122 -42.96848,-0.31355 -64.44029,0.43722 -16.34153,0.67716 -32.69019,0.95984 -49.03779,0.80846 -23.73696,-0.0901 -47.47439,0.0544 -71.21103,-0.17064 -4.92487,-0.0948 -9.85706,-0.1111 -14.77388,-0.53218 -7.31602,-1.21798 -14.50083,-4.29962 -21.64092,-7.14901 -13.70816,-5.69176 -27.57085,-12.08278 -41.953319,-11.78989 z" />
    <path
       id="path1"
       style="fill:#5aa02c;stroke:#ffffff;stroke-width:3.16708;stroke-dasharray:none;stroke-opacity:1"
       d="m 88.927876,169.12498 c -5.555262,0.35806 -11.350327,2.82395 -15.773142,8.16889 -2.925675,3.4676 -5.337682,7.80319 -7.142262,12.60995 -1.712602,4.70668 -2.676038,9.72426 -2.994452,15.03019 -0.621498,11.08435 1.142562,21.98511 3.592237,32.38284 3.936925,16.59906 9.651291,32.19779 15.552965,47.44625 6.827537,17.619 14.145862,34.80726 20.717838,52.64838 3.69766,10.06351 6.97363,20.46261 9.79802,31.13445 7.49464,27.19863 13.83772,55.20777 22.55004,81.59161 6.31161,19.10579 14.14508,37.24819 24.08796,52.57291 14.18904,22.27099 30.67423,41.38134 48.90516,55.71296 15.65437,12.33925 32.36555,21.53234 49.45252,28.5183 19.11887,7.93159 38.86808,11.41824 58.6123,13.44644 24.01944,2.40689 48.19372,2.15542 72.18262,-0.80484 10.79011,-1.39083 21.58195,-3.47276 32.16079,-6.73306 10.28387,-3.42215 20.49604,-7.54691 30.60167,-12.03831 10.79472,-4.95403 21.52347,-11.05078 30.88534,-20.67686 9.56004,-9.9132 17.31873,-23.07256 23.8753,-37.31856 8.85252,-19.48963 14.49929,-41.85049 18.07911,-64.63547 2.6933,-17.27032 4.02033,-34.95167 3.91172,-52.67077 -0.0553,-15.0502 -1.38207,-30.15043 -4.15733,-44.66454 -2.10754,-10.98199 -5.10909,-21.6512 -8.60059,-31.80627 -7.89527,-22.86428 -18.60105,-43.35959 -30.67712,-61.66528 -7.67072,-11.57548 -15.96428,-22.29792 -24.90197,-31.72301 -11.21127,-11.58676 -23.58927,-20.36047 -36.5101,-26.76169 -15.82737,-7.9229 -32.20009,-12.85321 -48.56915,-17.57771 -17.35043,-4.46631 -35.01811,-4.96655 -52.59719,-4.6995 -24.65687,0.48824 -49.29525,2.78571 -73.96115,2.18908 -30.5362,-0.28307 -61.0734,0.1487 -91.60934,-0.0212 -11.28372,-0.5424 -22.17699,-5.40063 -32.96876,-9.91509 -7.98987,-3.40897 -16.02103,-6.9436 -24.223258,-8.77256 -3.421323,-0.78894 -6.816087,-1.11378 -10.279776,-0.96758 z" />
  </g>
</svg>
