<?xml version="1.0" encoding="UTF-8" standalone="no"?>
<!-- Created with Inkscape (http://www.inkscape.org/) -->

<svg
   width="2048"
   height="2048"
   viewBox="0 0 541.86668 541.8667"
   version="1.1"
   id="svg1"
   inkscape:export-filename="C:\Users\Faustino\Desktop\track2_ackermann.png"
   inkscape:export-xdpi="97.358749"
   inkscape:export-ydpi="97.358749"
   inkscape:version="1.4.2 (f4327f4, 2025-05-13)"
   sodipodi:docname="pista2_ackermann.svg"
   xmlns:inkscape="http://www.inkscape.org/namespaces/inkscape"
   xmlns:sodipodi="http://sodipodi.sourceforge.net/DTD/sodipodi-0.dtd"
   xmlns="http://www.w3.org/2000/svg"
   xmlns:svg="http://www.w3.org/2000/svg">
  <sodipodi:namedview
     id="namedview1"
     pagecolor="#ffffff"
     bordercolor="#cccccc"
     borderopacity="1"
     inkscape:showpageshadow="0"
     inkscape:pageopacity="1"
     inkscape:pagecheckerboard="0"
     inkscape:deskcolor="#d1d1d1"
     inkscape:document-units="px"
     inkscape:export-bgcolor="#5aa02cff"
     inkscape:zoom="0.5"
     inkscape:cx="1232"
     inkscape:cy="1195"
     inkscape:window-width="2400"
     inkscape:window-height="1261"
     inkscape:window-x="2391"
     inkscape:window-y="-9"
     inkscape:window-maximized="1"
     inkscape:current-layer="layer1"
     showgrid="false" />
  <defs
     id="defs1" />
  <g
     inkscape:label="Capa 1"
     inkscape:groupmode="layer"
     id="layer1"
     transform="translate(-28.239847,-118.32131)">
    <path
       id="path3"
       style="fill:#000000;stroke:#000000;stroke-width:3.9286;stroke-dasharray:none;stroke-dashoffset:3.94129;stroke-opacity:1"
       d="m 263.94105,175.72081 c -10.47354,0.0748 -20.92319,2.15259 -30.66254,6.07149 -5.85397,0.9595 -11.88529,1.02886 -17.81609,1.74193 -10.87102,0.93638 -21.73393,1.98836 -32.62927,2.31302 -5.03615,-0.47706 -10.01466,-1.81492 -15.08103,-1.99759 -16.69105,-1.18292 -33.43104,-0.253 -50.11221,0.64314 -9.75301,0.56011 -19.661225,1.32285 -28.927964,4.7078 -15.506569,5.59704 -28.791678,16.68331 -38.259355,30.26623 -6.190031,8.94831 -10.771354,19.13361 -12.838648,29.89682 -1.956272,11.50773 0.179922,23.63865 5.77739,33.81952 1.424453,2.75526 3.048843,5.39581 4.719301,8.00195 0.556031,3.29132 0.798712,6.65075 1.781049,9.85399 2.816025,11.9218 7.278057,23.43986 13.145024,34.14691 2.063208,3.51508 4.516526,6.7998 7.361391,9.69868 1.874902,10.19813 3.426231,20.48264 5.267788,30.69868 3.005541,12.28866 8.225523,24.19828 16.324898,33.90171 6.243516,7.27912 14.115336,12.83707 22.080296,17.98097 4.85682,3.46361 8.14312,8.68053 12.8856,12.28262 9.76023,7.80222 22.14643,11.79463 34.4747,12.24652 6.43386,0.23267 12.94158,-0.52208 19.16722,-1.99171 1.24587,-0.25115 2.49173,-0.50229 3.7376,-0.75345 13.91022,9.61987 29.68428,15.89003 45.36405,21.82547 9.60799,3.67494 19.16242,7.56285 29.061,10.36591 12.58146,3.12597 26.12276,1.1035 37.67166,-4.69843 7.40005,-3.64843 13.93302,-8.90292 19.6653,-14.86363 1.44582,-1.47025 2.85474,-2.9785 4.24018,-4.5083 7.09532,7.62964 15.77075,13.98645 25.66445,17.21683 5.67029,1.98722 11.60786,3.11185 17.57773,3.61347 7.98282,6.62281 15.77141,13.49977 24.02275,19.77944 8.78097,6.57218 18.49273,12.22729 29.20582,14.71157 3.89354,0.9332 7.88396,1.4519 11.8846,1.50647 2.77946,1.19814 5.11282,3.21351 7.79225,4.60211 11.76365,7.23256 23.50948,14.78015 36.51983,19.5054 9.32245,3.25345 19.44041,4.8298 29.21512,2.98267 16.2823,-2.9408 30.69759,-14.77558 36.97214,-30.34282 4.3212,-9.60315 6.44908,-20.01399 10.18392,-29.83716 2.44314,-4.07811 5.41026,-7.87136 7.16292,-12.34148 5.23364,-11.32108 7.27748,-24.39553 4.53853,-36.68528 -1.68827,-7.74612 -5.1075,-15.03855 -9.59447,-21.50333 0.82511,-10.65686 -0.74898,-21.73367 -5.88131,-31.17146 -5.3417,-9.87985 -13.91852,-17.86551 -23.9691,-22.58398 0.32881,-7.11649 -1.16533,-14.1288 -2.34614,-21.09651 0.0269,-3.37836 0.77192,-6.74571 0.37922,-10.12585 -0.30699,-5.35886 -1.51836,-10.74751 -2.931,-15.9569 -0.45809,-2.03392 -1.3264,-4.00141 -1.50614,-6.1104 0.0113,-2.21797 0.54109,-4.39766 0.50414,-6.62063 0.44456,-10.58332 -0.70232,-21.4553 -5.0098,-31.19481 -0.32401,-0.82452 -0.78143,-1.63424 -0.95307,-2.49793 0.97913,-6.81921 0.82243,-13.8391 -0.82944,-20.53923 -1.54406,-6.47473 -4.46378,-12.58652 -8.45172,-17.86702 -6.82196,-9.25268 -16.43049,-16.16456 -26.96698,-20.37738 -13.82062,-5.87363 -28.62887,-8.73681 -43.34422,-11.19215 -13.43964,-2.27974 -26.8406,-4.90588 -40.40103,-6.33754 -11.32663,-1.13195 -22.72158,-0.95144 -34.08772,-1.10388 -9.4486,-0.059 -18.89347,-0.36165 -28.34224,-0.40503 -9.87427,-0.0749 -19.755,0.003 -29.61644,0.56242 -9.77366,-7.043 -21.86117,-10.47746 -33.78994,-10.23986 z" />
    <path
       id="path1"
       style="fill:none;stroke:#ffff00;stroke-width:3.9286;stroke-dasharray:3.9286, 3.9286;stroke-dashoffset:0;stroke-opacity:1"
       d="m 261.78102,203.56261 c -6.47083,0.13779 -13.21302,1.2619 -18.81551,4.80789 -0.71614,0.61366 -1.5801,1.30092 -2.57869,1.0772 -9.45972,0.36216 -18.8642,1.63752 -28.29296,2.59935 -7.91539,0.57042 -15.8543,0.5262 -23.71097,1.78794 -3.91272,0.5261 -7.9501,0.50249 -11.76223,-0.63503 -3.92759,-0.93296 -8.02172,-1.60739 -11.99541,-1.83417 -5.95982,-0.3083 -11.92773,-0.50462 -17.89611,-0.39106 -10.95079,0.16169 -21.91262,0.89006 -32.83004,1.42165 -6.06302,0.37895 -12.12023,1.12624 -17.739309,3.56743 -8.606653,3.60106 -16.043619,9.85479 -21.672299,17.27456 -4.127735,5.47253 -7.620695,11.54154 -9.313591,18.26413 -0.8815,3.55948 -1.102894,7.40457 -0.291035,11.05451 1.123145,5.42477 3.998535,10.28799 7.41908,14.53331 1.686074,2.25164 2.869784,4.95393 2.967633,7.814 0.356279,3.90232 0.798447,7.76101 1.686217,11.5895 0.6278,2.68345 1.529702,5.44026 2.627613,8.02129 2.426715,6.74222 4.648237,13.6987 8.991898,19.46858 1.987305,2.49289 4.717153,4.29957 7.657924,5.41408 1.038143,5.62692 1.063697,11.37464 2.24711,16.95858 0.659464,2.69128 1.406958,5.60506 1.963619,8.43056 0.61878,2.8665 0.87103,5.79313 0.97993,8.72066 0.21973,3.52709 1.10951,6.96288 2.27628,10.2785 1.28563,3.79599 2.76641,7.54473 4.556,11.14937 1.26136,2.33698 2.87922,4.63285 4.64492,6.62813 3.45727,4.01771 7.79133,7.10529 12.24038,9.87725 4.33253,2.81296 8.92975,5.43252 12.39305,9.37631 2.38968,2.94829 4.65481,6.04819 7.83928,8.19332 2.78838,1.79333 5.82175,3.22881 8.97489,4.05981 5.49782,1.50782 11.27649,1.49258 16.82935,0.48391 6.84276,-1.1716 13.47804,-3.54284 20.45418,-3.9431 1.372,0.9337 2.39863,2.28273 3.76096,3.23152 9.09347,7.57394 19.87342,12.85279 30.80718,17.12945 11.85053,4.63412 23.79315,9.02569 35.60189,13.7682 6.77851,2.36684 14.2667,1.75064 20.8127,-1.11422 7.13359,-3.07786 12.86851,-8.63029 17.94549,-14.44839 5.42149,-6.17153 10.25003,-12.94065 16.44419,-18.36431 1.0224,-0.85867 2.0735,-1.94376 3.50472,-1.90753 2.18293,-0.0402 4.02035,1.42293 5.61836,2.76676 2.76755,2.53143 4.76755,5.7673 7.0155,8.75311 4.16384,5.804 8.65106,11.609 14.6968,15.49583 6.12388,4.00903 13.59737,5.8105 20.91276,5.57326 1.1896,-0.005 2.37363,-0.19753 3.56377,-0.19851 2.31504,1.01245 4.12836,2.85751 6.21615,4.2452 11.12744,8.60127 20.91615,19.00967 32.95296,26.37051 4.73361,2.88381 9.98612,4.99133 15.51368,5.4502 2.30944,0.21363 4.62654,-0.0236 6.90852,-0.37504 1.7426,-0.0828 3.16616,1.11999 4.68201,1.80297 12.25939,6.44942 23.36295,15.05364 35.78557,21.13567 6.22432,3.02779 12.88762,5.66999 19.8907,5.35296 6.9475,-0.18425 13.79847,-4.16548 17.57465,-10.19729 4.02202,-6.66389 5.82168,-14.35357 8.04763,-21.75534 1.43229,-4.93003 2.80078,-9.87916 4.2895,-14.7922 2.8501,-2.2582 4.99243,-5.40519 6.62568,-8.7306 1.59689,-3.29769 3.00001,-6.74735 3.60308,-10.40844 0.63333,-3.68756 0.60175,-7.43515 -0.25024,-11.05855 -0.43178,-1.74456 -1.1162,-3.63171 -1.93952,-5.31236 -2.1475,-4.61477 -5.67078,-8.32811 -8.48767,-12.49569 -1.21307,-2.71036 -0.29906,-5.69877 -0.003,-8.50012 0.52708,-4.00662 0.78849,-8.08597 9.7e-4,-12.09133 -0.49751,-2.53433 -1.51058,-5.12199 -2.88608,-7.36983 -3.70801,-6.12116 -10.22531,-10.54233 -17.28352,-11.5289 -5.10157,-0.88532 -10.32881,-0.68592 -15.50776,-1.20732 -0.96254,-0.32855 -0.70428,-1.47066 -0.68263,-2.26019 0.12118,-2.38845 1.07232,-4.67279 2.50711,-6.54783 2.89006,-4.70807 4.62206,-10.37447 4.44926,-15.95373 -0.12028,-4.41373 -1.38067,-8.58667 -2.44211,-12.8557 -0.42027,-1.76574 -0.87032,-3.57311 -0.59093,-5.40112 0.31749,-2.66354 0.9786,-5.29406 0.89864,-7.9962 0.0476,-5.0596 -1.35252,-10.01683 -3.41328,-14.58468 -0.93589,-2.11757 -1.70918,-4.3956 -1.51478,-6.75406 0.16244,-2.87605 0.55515,-5.70814 0.76685,-8.582 0.51479,-5.66543 0.64968,-11.44378 -0.9766,-16.97173 -1.42921,-4.88091 -3.99321,-9.31402 -6.78028,-13.50812 0.36289,-1.94202 1.31053,-3.70204 1.74029,-5.62787 1.42528,-5.33089 1.25346,-11.23116 -1.08266,-16.30212 -2.08929,-4.4243 -5.55547,-8.06959 -9.46981,-10.8047 -4.33373,-3.01002 -9.21871,-5.08475 -14.13499,-6.88801 -9.02453,-3.24008 -18.44496,-4.9455 -27.8664,-6.48258 -11.0554,-1.85035 -22.16703,-3.62324 -33.12557,-5.87928 -7.14401,-1.30663 -14.37854,-1.48417 -21.61515,-1.63935 -10.08961,-0.12939 -20.18179,-0.002 -30.26979,-0.27498 -12.00316,-0.24913 -24.01881,-0.90354 -36.01946,-0.20422 -7.05615,0.34361 -14.10702,0.80389 -21.16745,1.05266 -3.97394,-5.85117 -10.53522,-9.78964 -17.51836,-10.48693 -2.63497,-0.29278 -5.28904,-0.33906 -7.96087,-0.31539 z" />
    <path
       id="path2"
       style="fill:#5aa02c;fill-opacity:1;stroke:#ffffff;stroke-width:3.9286;stroke-dasharray:none;stroke-dashoffset:3.94129;stroke-opacity:1"
       d="m 261.11087,237.68394 c -0.96705,0.41845 -1.85845,1.17923 -2.76174,1.67736 -1.95764,1.24796 -4.1484,2.31237 -6.46425,2.8005 -6.65387,1.7615 -13.59318,1.42364 -20.37763,2.22377 -8.96566,0.8673 -17.90882,2.0015 -26.89906,2.42607 -5.34412,0.29356 -10.67755,0.75658 -15.99754,1.33596 -5.5113,0.50375 -11.15083,0.50888 -16.55182,-0.83353 -5.09552,-1.10787 -10.25732,-2.26138 -15.50157,-2.01583 -15.10516,-0.20154 -30.2015,0.64298 -45.25685,1.80114 -4.22797,0.85009 -7.63702,3.91324 -10.16026,7.32546 -1.340204,1.20157 -1.303208,3.53491 -0.004,4.75203 4.55446,6.99773 7.27352,15.14296 7.9736,23.51361 0.38562,3.58604 1.09698,7.15671 2.3366,10.54416 5.93068,2.25604 10.43156,7.45395 12.78934,13.33392 2.5804,6.17548 4.50385,12.75096 5.66577,19.37763 0.7028,3.77666 1.11114,7.60013 1.57673,11.41063 1.18232,7.57241 3.35477,15.02177 3.82833,22.64642 0.45465,3.7297 1.63345,7.67429 4.57987,10.1556 3.31204,2.5074 6.94119,4.52698 10.29635,6.9256 4.90487,3.31982 9.63056,7.03553 13.39013,11.6876 1.19126,1.14489 2.9723,0.83935 4.39666,0.41827 8.60921,-1.72496 17.18196,-4.24713 26.03372,-3.7443 7.74466,0.48873 15.07823,4.03016 20.93216,9.11241 3.7526,3.35034 7.85741,6.32944 12.39283,8.48392 8.61987,4.41689 17.83054,7.42528 26.78298,11.04098 5.39929,2.09408 10.79995,4.18457 16.19839,6.2809 8.93102,-8.38544 15.52086,-19.07554 25.02061,-26.87361 5.75824,-4.82588 12.64554,-8.49752 20.10523,-9.51133 5.37022,-0.82409 11.02693,-0.30188 16.27206,1.36447 9.63142,2.97994 18.00385,9.42879 24.12906,17.4803 3.36882,4.37477 6.25012,9.17846 10.23739,13.02509 2.50098,0.76302 5.08259,-0.19803 7.6237,0.075 6.78125,0.16628 13.17421,3.07129 18.79753,6.74968 7.80693,5.03908 14.63084,11.4324 21.72917,17.41495 4.84918,4.15877 9.79733,8.23066 15.13971,11.72502 4.17012,-0.79217 8.50398,-0.46177 12.55165,0.57033 5.54029,1.40277 10.61969,4.15977 15.61517,6.89484 9.53002,5.34872 18.58459,11.57072 28.13018,16.91904 1.73764,-1.86483 1.99268,-4.51357 2.74749,-6.84902 2.36074,-8.33345 4.66383,-16.79397 8.72955,-24.46483 1.10327,-1.35557 0.75545,-3.49391 -0.4776,-4.64007 -3.60176,-5.28862 -6.029,-11.34931 -6.95167,-17.6981 -0.39425,-2.36929 -0.35959,-4.72744 -0.4377,-7.12108 -0.30382,-1.69451 -2.14344,-2.5178 -3.69141,-2.4159 -4.74518,-0.41974 -9.56054,-1.35996 -13.92835,-3.28919 -5.72161,-2.44971 -10.50226,-6.93461 -13.60117,-12.3838 -1.84598,-3.22148 -3.17942,-6.86711 -3.82294,-10.54609 -0.59766,-3.69244 -0.75415,-7.51759 -0.60343,-11.30343 0.20084,-4.98885 1.2176,-10.09804 2.96679,-14.74509 0.95011,-2.5125 2.1217,-4.9343 3.47573,-7.24649 -1.63547,-5.39106 -2.99769,-10.98534 -2.86993,-16.67736 -0.0216,-2.79785 0.63111,-5.549 0.74382,-8.33096 -0.23162,-2.69732 -1.89805,-4.93534 -2.51053,-7.52662 -2.29114,-7.14218 -2.30577,-14.71549 -1.50268,-22.16437 0.20677,-2.57694 0.53874,-5.17343 0.33886,-7.75887 -0.28943,-2.40331 -2.03104,-4.17679 -3.19175,-6.17359 -3.51888,-5.79598 -5.00483,-12.76114 -4.59167,-19.53249 0.0539,-1.34093 0.27041,-2.58075 0.45524,-3.89824 0.0498,-0.85915 -0.7151,-1.41554 -1.47362,-1.53162 -11.30868,-3.69551 -23.18794,-4.85732 -34.81676,-7.07593 -8.54601,-1.44501 -17.04258,-3.25573 -25.65433,-4.25099 -14.13431,-0.9408 -28.3093,-0.42862 -42.4597,-0.85421 -12.79314,-0.26372 -25.60565,-0.75339 -38.38934,0.0757 -7.90006,0.35616 -15.81739,1.06753 -23.72539,0.5427 -3.42946,-0.23471 -6.88896,-0.94185 -9.90633,-2.68513 -3.56055,-1.90518 -6.5452,-4.67546 -9.01003,-7.86836 -0.12874,-0.0669 -0.23979,-0.16278 -0.39118,-0.10063 z" />
    <path
       id="path4"
       style="fill:none;stroke:#ffffff;stroke-width:3.9286;stroke-dasharray:none;stroke-dashoffset:3.94129;stroke-opacity:1"
       d="m 260.79093,238.04029 c -2.8748,0.9507 -5.19779,3.24735 -8.25348,3.70224 -7.80821,2.1972 -15.99814,1.65946 -23.96641,2.74926 -8.42488,0.89821 -16.89637,1.78619 -25.33316,2.21567 -7.5724,0.51035 -15.12246,1.46105 -22.71576,1.57768 -5.46367,-0.11174 -10.71209,-1.83247 -16.07396,-2.69054 -3.84789,-0.57473 -7.75209,-0.59619 -11.66576,-0.52678 -13.86128,-0.0138 -27.68018,0.75503 -41.49146,1.81581 -3.44192,0.74807 -6.43541,2.8849 -8.75147,5.46871 -1.22505,1.33251 -2.22155,2.8567 -3.305675,4.30501 5.462845,7.57252 9.027895,16.63643 9.716695,26.03371 0.4557,3.53463 0.78568,7.24098 2.51841,10.35287 1.34145,1.39229 3.392,1.69734 4.78297,3.03629 4.68965,3.56145 7.51866,9.02727 9.40263,14.54501 3.0322,8.26169 4.63812,16.98919 5.51258,25.74134 1.20088,8.14393 3.52298,16.10512 4.0887,24.34464 0.52762,3.88572 2.0722,7.94833 5.37,10.2366 6.69575,4.65393 13.92333,8.6617 19.71674,14.52477 1.39658,1.36063 2.63878,2.89364 3.96105,4.30943 1.32808,0.49813 2.66589,-0.30631 3.99112,-0.44472 8.42257,-1.74362 16.8777,-4.16222 25.55466,-3.69379 8.02129,0.48972 15.6778,4.14923 21.58197,9.62521 4.11948,3.52539 8.64179,6.70749 13.55365,8.81112 11.96923,5.64976 24.58176,9.74124 36.83292,14.75255 1.53631,0.59986 3.07262,1.19973 4.60893,1.79959 8.59022,-8.33069 15.20877,-18.59416 24.32849,-26.40422 6.2022,-5.3252 13.74828,-9.39939 21.91424,-10.23577 11.70509,-1.11542 23.59715,3.46786 32.17324,11.53151 5.53363,5.06512 9.65414,11.42342 14.23432,17.33213 0.95309,1.25619 2.01081,2.43925 3.22762,3.43655 4.6169,-0.0555 9.36078,-0.6161 13.84699,0.81794 7.74872,2.13133 14.46057,6.8783 20.67832,11.88347 9.35155,7.45353 17.88622,15.99989 27.9186,22.54483 1.58248,0.73848 3.31965,-0.0557 4.97201,0.0314 6.81985,-0.14267 13.35307,2.42698 19.34675,5.51419 11.5066,6.02037 22.19149,13.53816 33.48515,19.90956 2.7061,-9.97216 5.15084,-20.11896 9.41576,-29.53487 0.56542,-1.47248 1.60387,-2.78845 1.8182,-4.37861 0.13488,-1.91307 -1.35242,-3.2911 -2.2104,-4.82644 -3.62054,-5.863 -5.66047,-12.68007 -6.03626,-19.58455 -0.11031,-1.87536 -0.11916,-3.75832 -0.0113,-5.63423 -7.09189,-0.30313 -14.40434,-1.32912 -20.67386,-4.93679 -8.88568,-5.13525 -14.55463,-15.25074 -14.91302,-25.57891 -0.75642,-9.17654 0.74145,-18.66995 5.0843,-26.81286 0.67931,-1.35386 1.19006,-2.98156 0.55521,-4.45541 -1.40672,-5.23645 -2.56681,-10.65361 -2.11699,-16.11514 0.10826,-2.23879 0.61107,-4.45153 0.61807,-6.69151 -0.25306,-2.70804 -1.87771,-5.17677 -2.56683,-7.85315 -2.17593,-6.9142 -2.17546,-14.30025 -1.47718,-21.45737 0.20207,-2.82477 0.60468,-5.60574 0.37141,-8.4379 -0.46168,-2.01982 -1.83351,-3.64252 -2.84242,-5.39836 -1.3504,-2.05443 -2.43764,-4.28477 -3.14012,-6.6533 -2.01841,-5.84695 -2.28429,-12.22981 -1.22828,-18.30581 -6.98063,-2.72807 -14.45891,-3.78357 -21.7979,-5.1579 -10.80181,-1.85985 -21.65858,-3.69617 -32.40873,-5.67194 -6.57339,-1.12566 -13.21194,-1.71745 -19.87145,-1.62079 -13.59073,-0.16719 -27.18317,-0.24756 -40.77062,-0.61557 -11.0938,-0.22708 -22.2157,-0.17757 -33.27146,0.61047 -7.62316,0.35532 -15.32149,0.90079 -22.90331,-0.25636 -5.59472,-1.28424 -10.36565,-4.91665 -14.18279,-9.14801 -0.33732,-0.26657 -0.75592,-0.52847 -1.2016,-0.438 z" />
    <path
       id="path5"
       style="fill:none;stroke:#ffffff;stroke-width:3.9286;stroke-dasharray:none;stroke-dashoffset:3.94129;stroke-opacity:1"
       d="m 263.39395,172.46162 c -10.22193,0.35375 -20.2969,2.56291 -30.03495,5.65404 -4.4122,1.12277 -9.06087,1.10104 -13.61808,1.62298 -10.14291,0.88565 -20.31405,1.80726 -30.46411,2.31721 -7.02746,0.24939 -13.99839,-0.62702 -20.97962,-1.33728 -12.50105,-1.03164 -25.0536,-0.40519 -37.56851,-0.0205 -11.89311,0.54449 -23.82905,1.23062 -35.553697,3.43288 -11.662651,2.62549 -22.435725,8.58352 -31.609081,16.28615 -12.729053,10.80333 -22.475071,25.36817 -27.126725,41.59689 -1.990478,6.94755 -2.980786,14.26647 -2.189819,21.49116 0.913794,9.15347 4.125498,18.00045 8.957185,25.75628 1.540683,2.64386 2.627734,5.57403 3.001251,8.59242 2.848714,13.67578 7.534572,27.0386 14.574202,39.07814 1.862734,3.15076 3.999455,6.12244 6.156339,9.06583 1.370158,2.40307 1.301141,5.2769 1.891968,7.91945 2.026661,11.67031 3.777728,23.49119 7.784735,34.66989 3.209814,8.95274 8.192262,17.21275 14.470049,24.2747 4.959702,5.62193 10.740483,10.45553 16.980283,14.53604 5.05682,3.4772 9.6041,7.64786 13.96711,11.97273 7.73758,7.53639 17.78422,12.3542 28.23538,14.47661 8.65975,1.80811 17.62088,1.63206 26.32745,0.25503 2.28506,-0.31335 4.54896,-0.81433 6.83635,-1.08252 1.40417,0.0694 2.50378,1.13262 3.68577,1.79248 2.44883,1.5097 4.97171,2.89685 7.49603,4.27293 14.39302,7.71506 29.76443,13.25673 44.94023,19.12687 9.19578,3.48615 18.58989,6.96952 28.46434,7.65177 13.71403,0.923 27.43291,-3.71571 38.64231,-11.62467 5.02748,-3.56414 9.45977,-7.90074 13.75188,-12.32791 8.54789,8.32339 19.07187,14.82088 30.70148,17.43155 3.70308,0.88246 7.48476,1.39004 11.18583,2.21731 1.49209,0.91162 2.69003,2.22907 4.10076,3.25713 10.85006,8.88781 21.56638,18.15101 33.88559,24.90124 8.10963,4.32342 17.1005,6.73631 26.17074,7.75825 2.67983,0.4091 4.82578,2.20914 7.15079,3.47213 11.71859,6.91939 23.30713,14.25392 35.98476,19.25764 8.79636,3.43176 18.24714,5.50577 27.70257,4.86687 8.92022,-0.54628 17.58206,-3.77845 24.97439,-8.839 9.90685,-6.72907 17.59209,-16.78326 21.50465,-28.23661 3.63818,-9.82673 5.88584,-20.26544 11.07798,-29.43918 3.39586,-6.24309 6.8787,-12.58313 8.44734,-19.60292 2.92516,-11.8192 2.72573,-24.65465 -1.78973,-36.04042 -1.79452,-4.5589 -4.35161,-8.74755 -6.33561,-13.2145 -0.51364,-1.35556 -0.32559,-2.8288 -0.40812,-4.28096 0.0616,-4.35922 -0.45718,-8.7122 -1.33741,-12.9729 -2.13136,-10.10619 -6.97585,-19.70647 -14.30359,-26.92758 -4.00755,-4.04716 -8.68356,-7.3362 -13.51171,-10.27223 -1.07602,-1.18573 -0.89904,-2.86552 -1.06742,-4.32912 -0.77003,-8.32492 -2.33716,-16.59422 -1.85431,-24.9727 0.0668,-6.48593 -1.78855,-12.75557 -3.41582,-18.95974 -1.2745,-5.98769 -0.0472,-12.11653 -0.47011,-18.16488 -0.40544,-8.58795 -2.38979,-17.04202 -5.37167,-25.06832 -0.66321,-2.16894 -0.0292,-4.43297 -0.0614,-6.64533 0.18138,-4.01957 -0.0455,-8.0785 -0.86342,-12.00698 -2.49193,-13.31851 -10.05005,-25.57132 -20.77411,-33.62347 -9.24397,-7.13408 -20.17335,-11.61648 -31.25756,-14.83967 -13.96497,-4.01846 -28.35005,-6.15792 -42.61555,-8.73981 -13.16065,-2.27087 -26.38931,-4.41521 -39.75302,-4.86822 -15.60845,-0.64981 -31.2336,-0.49326 -46.85081,-0.65026 -10.90736,-0.0521 -21.81582,0.0175 -32.72034,0.28637 -10.35202,-6.89651 -22.78164,-10.45584 -35.1435,-10.20327 z" />
  </g>
</svg>
