<?xml version="1.0" encoding="UTF-8" standalone="no"?>
<!-- Created with Inkscape (http://www.inkscape.org/) -->

<svg
   width="2048"
   height="2048"
   viewBox="0 0 541.86668 541.8667"
   version="1.1"
   id="svg1"
   inkscape:export-filename="C:\Users\Faustino\Desktop\track5_ackermann.png"
   inkscape:export-xdpi="97.358749"
   inkscape:export-ydpi="97.358749"
   inkscape:version="1.4.2 (f4327f4, 2025-05-13)"
   sodipodi:docname="pista5_ackermann.svg"
   xmlns:inkscape="http://www.inkscape.org/namespaces/inkscape"
   xmlns:sodipodi="http://sodipodi.sourceforge.net/DTD/sodipodi-0.dtd"
   xmlns="http://www.w3.org/2000/svg"
   xmlns:svg="http://www.w3.org/2000/svg">
  <sodipodi:namedview
     id="namedview1"
     pagecolor="#ffffff"
     bordercolor="#cccccc"
     borderopacity="1"
     inkscape:showpageshadow="0"
     inkscape:pageopacity="1"
     inkscape:pagecheckerboard="0"
     inkscape:deskcolor="#d1d1d1"
     inkscape:document-units="px"
     inkscape:export-bgcolor="#5aa02cff"
     inkscape:zoom="0.5"
     inkscape:cx="1052"
     inkscape:cy="963"
     inkscape:window-width="2400"
     inkscape:window-height="1261"
     inkscape:window-x="2391"
     inkscape:window-y="-9"
     inkscape:window-maximized="1"
     inkscape:current-layer="layer1" />
  <defs
     id="defs1" />
  <g
     inkscape:label="Capa 1"
     inkscape:groupmode="layer"
     id="layer1"
     transform="matrix(1.0477474,0,0,1.0316981,-39.784498,-124.22333)">
    <path
       id="path3"
       style="fill:#000000;fill-opacity:1;stroke:#ffffff;stroke-width:1.64192;stroke-dasharray:none;stroke-dashoffset:0;stroke-opacity:1"
       d="m 465.81445,133.78711 c -7.00419,0.14596 -14.19584,1.47228 -20.23051,5.1944 -3.04606,2.11744 -5.30003,5.12891 -7.60212,7.98819 -4.41395,5.7536 -8.34674,11.85614 -12.25578,17.95851 -6.09569,9.83711 -11.45769,20.2843 -14.41534,31.52472 -2.28774,9.42966 -1.95845,19.28479 -0.517,28.81644 0.47571,2.75079 -0.53245,5.4901 -1.64077,7.91422 -2.02202,4.48205 -3.86039,9.04612 -5.84619,13.54546 -5.05734,11.65145 -10.15537,23.28824 -15.17002,34.9565 -0.73603,0.98059 -2.01055,1.30584 -2.95958,2.03529 -8.30565,5.05659 -16.85507,9.75666 -25.82362,13.53502 -1.54962,1.11847 -4.16593,-0.76046 -3.31642,-2.59212 3.27936,-11.24635 8.3332,-21.93346 13.37118,-32.53175 2.77716,-5.59558 5.58054,-11.24267 9.37062,-16.23533 5.57476,-6.57385 11.41684,-12.97756 16.03397,-20.29123 5.36978,-8.20177 9.73316,-17.26532 11.40887,-26.98776 1.43232,-8.5417 0.40989,-17.57658 -3.46476,-25.36918 -4.31233,-8.82029 -11.782,-15.83621 -20.36747,-20.46052 -10.19028,-5.59176 -21.58123,-8.56858 -32.97255,-10.51909 -21.70107,-3.67888 -43.83051,-3.6614 -65.7541,-2.56365 -10.4391,0.52742 -20.86977,1.2412 -31.31995,1.52527 -22.70372,0.75055 -45.42202,1.12843 -68.12689,1.79378 -38.10446,0.97773 -76.205,1.92575 -114.305864,3.01869 -8.782387,1.21899 -16.519363,8.48914 -17.80333,17.33729 -1.328898,9.05442 4.145522,18.51577 12.512315,22.11974 3.225046,1.37825 6.498519,2.75005 9.553932,4.41864 6.068311,3.24535 11.828597,7.32446 16.178278,12.71286 2.087065,2.7251 3.342669,6.32869 2.438791,9.7443 -1.028812,4.55147 -3.965491,8.3099 -6.518384,12.10325 -3.959542,5.62002 -8.014073,11.27214 -10.60303,17.68736 -3.517437,8.03901 -5.27493,17.10228 -3.577267,25.80836 1.629144,8.6194 6.472184,16.58074 13.39704,21.9684 7.788062,6.26076 17.419529,9.77201 27.125869,11.72934 6.04896,1.21127 12.21604,1.61363 18.28602,2.66929 6.25618,1.26488 12.35008,3.22429 18.5185,4.80922 26.73788,7.27681 53.47649,14.551 80.21392,21.82945 4.89322,-4.73094 9.26383,-10.13581 15.073,-13.80966 0.8325,-0.7133 2.03209,-0.53107 2.85669,0.0909 1.20424,0.92715 2.16999,2.12542 3.23633,3.20312 5.21171,5.84466 8.58992,13.00489 11.82115,20.06208 4.52426,10.19434 7.85916,20.8599 10.82924,31.6098 -14.20134,8.66421 -27.00073,20.13797 -35.55581,34.52713 -7.87648,13.32746 -10.93093,29.43126 -8.4343,44.71341 2.08938,12.77362 7.66413,24.75929 14.90725,35.40564 5.70939,8.43586 12.53011,16.0519 19.62026,23.33748 0.98537,1.43243 1.20628,3.21597 1.89495,4.7893 3.4998,9.70266 6.94576,19.42425 10.4114,29.13915 54.40124,5.48627 108.80211,10.97627 163.20312,16.46484 7.48669,-1.39049 15.12246,-3.25766 21.51592,-7.5788 6.86161,-4.69032 10.39885,-13.38384 9.58955,-21.55401 -0.57373,-5.56662 -3.49364,-10.658 -7.40093,-14.57229 -4.80501,-4.80414 -10.76063,-8.18864 -16.37208,-11.93634 -9.94081,-6.50652 -20.01011,-13.09939 -27.61433,-22.34329 -5.31572,-6.5018 -9.20954,-14.47839 -9.6435,-22.96741 -0.41057,-5.7497 0.41062,-11.66007 1.92413,-17.2608 1.73302,-6.4302 4.4891,-12.5158 6.85968,-18.72311 1.42068,-3.52617 2.61508,-7.13472 3.88422,-10.71689 4.05303,-10.93455 9.65825,-21.4654 17.65267,-30.07163 2.30899,-2.46919 4.92064,-4.77498 7.67108,-6.6934 4.71493,-3.29849 10.29358,-5.67747 16.09639,-6.31704 10.36727,-1.22703 20.74192,1.69757 30.28074,5.78927 3.47921,1.37675 6.96652,3.07809 10.77945,3.18958 5.08644,0.27409 10.02279,-1.71017 14.15908,-4.54594 7.02998,-4.7359 13.36963,-10.83831 17.21695,-18.47844 4.30917,-8.54064 5.2151,-18.56111 3.27526,-27.87023 -1.95031,-9.88413 -6.52012,-18.96442 -11.05651,-27.86978 -2.82284,-5.61968 -5.69609,-11.27223 -7.43105,-17.34273 0.50141,-0.70823 1.42474,-0.94353 2.11445,-1.43684 4.93826,-2.7454 10.35581,-4.44345 15.50765,-6.72109 0.9243,-0.37535 1.84714,-0.75434 2.77243,-1.12723 1.84588,-29.4286 3.76684,-58.85339 5.45899,-88.29101 -0.88662,-14.43659 -9.28344,-28.02801 -21.45048,-35.73619 -11.09556,-7.29809 -23.97349,-11.42859 -36.97798,-13.70513 -7.41875,-1.30647 -14.96091,-1.89977 -22.49342,-1.84579 z" />
    <path
       id="path4"
       style="fill:#5aa02c;fill-opacity:1;stroke:#ffffff;stroke-width:1.64192;stroke-dasharray:none;stroke-dashoffset:0;stroke-opacity:1"
       d="m 469.41406,183.5957 c -4.93827,7.2666 -9.57358,14.91726 -12.41885,23.30846 -1.34603,3.86285 -0.1102,7.94566 0.26368,11.90619 0.85012,7.20953 0.93556,14.65606 -1.15389,21.67415 -2.93944,10.43923 -7.93854,20.11096 -12.11778,30.07677 -5.66499,13.16485 -11.42469,26.29033 -17.20597,39.40357 -1.55598,2.83557 -3.99132,5.08046 -6.52868,7.03271 -3.74431,2.78449 -7.89162,4.95769 -11.84882,7.41273 -13.5667,8.05687 -27.61493,15.59453 -42.73314,20.3111 -9.56332,2.83093 -19.85405,3.99908 -29.66744,1.77921 -14.29909,-3.33152 -25.80756,-15.92439 -28.13638,-30.37855 -1.87509,-10.93975 -0.23806,-22.16296 2.7338,-32.75558 4.87782,-17.33908 12.49866,-33.76042 20.81835,-49.6842 3.22306,-6.1042 6.47098,-12.28293 11.00599,-17.53818 4.15688,-4.9054 8.70964,-9.50053 12.34355,-14.83023 1.70372,-2.46184 3.24167,-5.04963 4.42488,-7.80408 -4.93253,-2.38324 -10.26674,-3.77898 -15.60146,-4.73373 -15.76323,-2.84209 -31.89222,-3.17072 -47.88123,-2.71756 -17.42747,0.56821 -34.84049,2.04446 -52.26411,2.31811 -35.55647,0.96749 -71.1183,1.82688 -106.67898,2.72693 4.76304,13.35071 4.17353,28.45749 -1.38283,41.47841 -3.34215,8.36437 -8.47331,15.85313 -13.74217,23.0958 7.60516,1.50007 15.48772,1.38033 22.95257,3.62226 8.81076,2.29623 17.55719,4.83503 26.35736,7.17044 15.44942,4.22144 30.89885,8.44289 46.34827,12.66434 8.83911,-5.95707 19.40619,-9.7743 30.15686,-9.40385 13.72163,0.43404 26.94367,6.99802 36.13033,17.10371 9.42546,9.89981 16.17678,21.99182 21.72402,34.39651 9.83298,22.06251 15.38773,45.69729 20.35773,69.24599 0.60717,2.87357 1.21697,5.7466 1.82247,8.62053 -10.18004,3.77301 -20.49302,7.61808 -29.79688,13.21093 -7.37296,4.51191 -14.39612,10.06482 -19.00591,17.49435 -1.9056,3.11909 -3.26079,6.68934 -3.26948,10.38261 0.0167,1.3536 0.18654,2.93543 0.47845,4.34934 1.54104,7.30069 5.46147,13.84806 9.94259,19.71716 4.4757,5.89919 9.78337,11.08472 14.77489,16.5302 1.57194,1.70152 3.09923,3.46383 4.19794,5.51804 2.53938,4.43649 3.96454,9.37512 5.64715,14.17041 22.91354,2.31165 45.83383,4.62236 68.75,6.9336 -9.13246,-12.62448 -15.08511,-27.66558 -16.2976,-43.24546 -1.39826,-15.76295 1.54521,-31.72107 7.40505,-46.35664 3.30111,-8.63387 6.5583,-17.28433 9.80731,-25.93737 6.95599,-17.40162 17.18178,-33.71078 30.9919,-46.49173 10.32254,-9.52225 22.90316,-16.69872 36.54899,-20.15707 11.29293,-2.94262 23.18862,-3.34722 34.70446,-1.54845 1.98203,0.29138 3.95653,0.63936 5.91606,1.05703 -4.9121,-9.99408 -10.36097,-19.92136 -12.8772,-30.86455 -2.42402,-10.17388 -1.84213,-21.23709 2.64052,-30.77495 3.90624,-8.46971 10.60257,-15.42286 18.34605,-20.50894 1.11263,-17.97005 2.22526,-35.9401 3.3379,-53.91015 -1.68787,-1.24643 -3.64072,-2.07562 -5.52581,-2.9741 -7.13136,-3.11784 -14.91173,-4.33382 -22.58043,-4.92541 -0.59201,0.004 -0.7511,0.91627 -1.16284,1.2985 -0.35041,0.51023 -0.70083,1.02046 -1.05124,1.53069 z" />
    <path
       id="path2"
       style="fill:none;fill-opacity:1;stroke:#ffff00;stroke-width:1.64192;stroke-dasharray:1.64192, 3.28384;stroke-dashoffset:0;stroke-opacity:1"
       inkscape:label="path2"
       d="m 466.02344,156.16016 c -2.63037,0.18983 -5.31399,0.0898 -7.74805,1.25586 -1.30077,0.97696 -1.98179,2.52014 -3.01412,3.74419 -8.09026,11.10679 -15.94154,22.6928 -20.79252,35.62299 -1.57094,4.43287 -2.59975,9.10803 -2.66602,13.86133 -0.0345,2.16029 0.23641,4.48437 0.56104,6.68281 0.77952,5.24315 1.832,10.67101 0.46974,15.91301 -1.31957,5.55892 -3.91055,10.68922 -6.05259,15.95521 -6.94543,15.88768 -14.24066,31.61181 -20.72428,47.69311 -0.68549,1.13593 -2.06234,1.50087 -3.07054,2.27311 -12.94848,8.08804 -26.24721,15.85207 -40.65463,21.05799 -6.16737,2.1379 -12.76043,3.82375 -19.32558,2.87039 -4.23762,-0.68248 -8.27303,-3.40645 -9.89961,-7.46965 -2.1741,-4.72483 -1.92641,-10.10304 -1.29197,-15.14037 1.35453,-10.53463 5.20536,-20.52201 9.15651,-30.30981 5.09664,-12.26984 11.13342,-24.14221 17.76917,-35.64463 2.13174,-2.83096 4.85244,-5.16125 7.07022,-7.85992 6.62128,-7.44954 12.72738,-15.51559 16.53251,-24.81295 1.43315,-3.664 2.28662,-7.52727 2.1983,-11.41728 -0.0672,-1.97481 -0.49609,-4.11015 -1.21816,-5.95867 -1.97,-5.16582 -6.28506,-9.04369 -10.98745,-11.73866 -7.27432,-4.20424 -15.49971,-6.38528 -23.68177,-8.01433 -12.1571,-2.32353 -24.54681,-3.07978 -36.89931,-3.3368 -15.15108,-0.27524 -30.28417,0.54744 -45.37858,1.86745 -7.1967,0.50724 -14.41631,0.45646 -21.62478,0.69546 -54.69028,1.35987 -109.38077,2.71101 -164.071282,4.06172 9.661414,4.62642 18.844275,10.67486 25.856162,18.85875 4.94508,5.87601 8.58031,13.14888 9.00424,20.91169 0.48874,8.09846 -2.23573,16.09056 -6.37954,22.95904 -3.81898,6.34475 -9.03519,11.79121 -12.235457,18.51809 -1.521305,3.15813 -2.715415,6.49761 -3.102827,10.02587 -0.36161,3.88709 0.666236,7.9858 3.291015,10.94531 3.642449,4.24858 8.964309,6.54638 14.197819,8.16724 6.80899,2.04905 13.8696,2.7678 20.92748,3.11752 3.46001,0.35237 6.70309,1.67486 10.04848,2.47308 26.86894,7.27646 53.72218,14.62744 80.58599,21.93161 5.08659,-5.00781 11.07984,-9.46649 18.10635,-11.22928 6.86254,-1.72817 14.34249,0.23169 19.87989,4.52284 6.73317,4.92586 11.61623,11.88452 15.76824,19.01601 6.26833,10.94504 10.76292,22.79533 14.64923,34.76179 3.24015,10.14021 5.83842,20.47608 8.05136,30.88763 -10.85033,4.72893 -21.15493,10.99024 -29.89242,19.06874 -6.16418,5.6916 -11.50683,12.42214 -14.87125,20.15196 -1.57262,3.61697 -2.70962,7.568 -3.23227,11.53219 -1.04959,7.44956 0.0165,15.16076 2.54011,22.27495 3.31046,9.38007 8.85268,17.9039 15.13248,25.59913 4.52697,5.53598 9.5244,10.67049 14.72961,15.56834 2.96641,8.36384 5.93224,16.72788 8.89843,25.0918 48.58138,4.91536 97.16276,9.83072 145.74414,14.74609 3.37736,-0.77487 7.01881,-1.23146 9.88086,-3.33789 0.49026,-0.85803 -0.48954,-1.5389 -0.96152,-2.13625 -2.06332,-2.17392 -4.76626,-3.56398 -7.19352,-5.27382 -9.37603,-6.06105 -19.02199,-11.8326 -27.40333,-19.26846 -8.66747,-7.52064 -16.2692,-16.56665 -20.80142,-27.1929 -4.32579,-9.99076 -5.79767,-21.13909 -4.49533,-31.93388 1.23042,-11.23615 5.04957,-22.02867 9.86675,-32.1985 1.34546,-3.54185 2.16278,-7.25951 3.56819,-10.78155 4.64338,-12.8805 11.26786,-25.13069 20.10002,-35.62748 7.73965,-9.02404 17.60882,-16.50057 28.99264,-20.21888 10.66158,-3.54243 22.25806,-3.73237 33.20012,-1.40897 7.76334,1.59584 15.26077,4.30932 22.43795,7.6442 4.64981,-2.86084 9.07502,-6.65024 11.18121,-11.81858 1.35716,-3.41792 1.54029,-7.17692 1.00575,-10.74748 -1.18144,-7.13953 -4.44768,-13.6967 -7.67131,-20.10018 -4.08422,-8.07646 -8.69021,-16.03543 -10.92736,-24.87835 -1.27026,-5.26753 -1.2471,-11.09472 1.32665,-15.98225 2.85694,-5.50853 8.02689,-9.3861 13.45413,-12.148 1.92119,-0.98971 3.90796,-1.84484 5.90827,-2.66109 1.53343,-23.82251 3.11612,-47.64338 4.55447,-71.47101 -0.2259,-6.3189 -3.67085,-12.23227 -8.53832,-16.14986 -6.66247,-5.60188 -14.99476,-8.71215 -23.31627,-10.90151 -8.43304,-2.19561 -17.22657,-3.24066 -25.85222,-3.18465 -0.22331,0.008 -0.44662,0.0169 -0.66992,0.0254 z" />
  </g>
</svg>
