<?xml version="1.0" encoding="UTF-8" standalone="no"?>
<!-- Created with Inkscape (http://www.inkscape.org/) -->

<svg
   width="2048"
   height="2048"
   viewBox="0 0 541.86668 541.8667"
   version="1.1"
   id="svg1"
   inkscape:export-filename="C:\Users\Faustino\Desktop\track4_ackermann.png"
   inkscape:export-xdpi="97.358749"
   inkscape:export-ydpi="97.358749"
   inkscape:version="1.4.2 (f4327f4, 2025-05-13)"
   sodipodi:docname="pista4_ackermann.svg"
   xmlns:inkscape="http://www.inkscape.org/namespaces/inkscape"
   xmlns:sodipodi="http://sodipodi.sourceforge.net/DTD/sodipodi-0.dtd"
   xmlns="http://www.w3.org/2000/svg"
   xmlns:svg="http://www.w3.org/2000/svg">
  <sodipodi:namedview
     id="namedview1"
     pagecolor="#ffffff"
     bordercolor="#cccccc"
     borderopacity="1"
     inkscape:showpageshadow="0"
     inkscape:pageopacity="1"
     inkscape:pagecheckerboard="0"
     inkscape:deskcolor="#d1d1d1"
     inkscape:document-units="px"
     inkscape:export-bgcolor="#5aa02cff"
     inkscape:zoom="0.35355339"
     inkscape:cx="404.46508"
     inkscape:cy="1260.0643"
     inkscape:window-width="2400"
     inkscape:window-height="1261"
     inkscape:window-x="2391"
     inkscape:window-y="-9"
     inkscape:window-maximized="1"
     inkscape:current-layer="layer1" />
  <defs
     id="defs1" />
  <g
     inkscape:label="Capa 1"
     id="layer1"
     transform="translate(-28.239847,-118.32131)">
    <path
       id="path3"
       style="fill:#000000;fill-opacity:1;stroke:#ffffff;stroke-width:3.02468;stroke-dasharray:none;stroke-dashoffset:3.94129;stroke-opacity:1"
       d="m 136.28805,136.32464 c -13.06421,0.61305 -26.10113,1.95829 -39.069417,3.8688 -3.845679,0.59957 -7.702392,1.16154 -11.5217,1.94737 -8.060997,2.33369 -15.100914,7.95397 -20.994222,14.54348 -9.117921,10.23844 -16.209363,22.55663 -22.644274,35.12558 -2.859218,5.66588 -5.676836,11.36728 -8.193259,17.24541 -3.105595,7.72317 -4.74361,16.46814 -3.481656,24.94482 1.565516,11.76214 7.49372,22.46511 15.620239,29.71835 3.31602,3.12782 6.919664,5.81759 10.537668,8.45371 -6.49159,6.06139 -12.440919,13.33624 -15.738959,22.29323 -4.599241,12.30238 -4.460089,27.05386 1.105609,38.9193 4.182785,8.68709 11.99092,14.69717 20.409755,16.55446 9.655713,2.7251 19.59857,3.62096 29.452138,4.90116 5.381374,0.64624 10.773478,1.23608 16.112998,2.20146 -2.40963,5.36963 -2.7897,11.50611 -4.21514,17.2423 -1.85579,8.1089 -3.944681,16.15023 -5.46141,24.35682 -2.813662,14.69565 -4.28104,29.94172 -2.466921,44.92762 1.657149,13.8817 6.121401,27.48999 13.744881,38.51436 8.05528,11.75782 19.04979,20.78516 31.25825,25.9399 4.63516,1.8869 9.51574,2.82834 14.40426,3.27847 1.6148,0.21875 3.24241,0.94222 4.28745,2.43186 3.80796,4.26588 6.8532,9.24085 10.23113,13.98413 5.25994,7.68165 10.71756,15.2604 17.17904,21.66147 12.98518,13.88742 26.58608,27.11148 38.32134,42.45637 0.93392,1.15083 1.37615,2.65076 1.68041,4.15252 0.5886,2.62369 1.1965,5.26314 2.27445,7.68709 5.4807,14.94526 16.0629,27.06821 28.61986,34.27053 11.66769,6.86819 24.67271,10.09063 37.62977,11.65704 22.76999,2.59405 45.83968,-0.34134 67.93784,-6.88884 13.43012,-4.04112 26.69706,-9.59431 38.35713,-18.39725 3.80113,-2.92331 7.18978,-6.55625 9.92928,-10.77014 1.35408,-1.88361 3.10641,-3.35133 5.05176,-4.32058 16.9685,-10.63356 34.91434,-19.40808 50.65177,-32.47105 6.45098,-5.43451 11.55253,-12.59389 16.7053,-19.54219 2.13932,-2.79655 4.83491,-5.31651 8.115,-5.95344 4.45417,-1.25847 9.2119,-2.06292 13.00542,-5.25825 6.10241,-4.78742 9.79717,-12.90287 10.79839,-21.20299 1.36879,-10.71272 -1.93035,-22.0397 -8.60182,-29.67609 -5.45501,-6.81737 -11.61565,-12.81672 -17.27234,-19.40431 -10.12728,-11.24059 -21.34427,-21.15126 -30.69436,-33.27707 -3.8381,-5.12972 -6.96643,-10.86582 -9.74773,-16.81267 -3.19496,-6.55082 -7.28492,-12.86106 -13.04092,-16.66633 -9.3615,-6.28227 -21.50376,-7.13101 -31.25205,-1.49663 -5.11269,3.05338 -8.96589,8.52585 -10.90317,14.72044 -0.80094,2.10685 -1.25271,4.72545 -3.12728,5.95677 -2.46274,1.77594 -5.25028,2.85081 -8.00076,3.87477 -8.08215,2.8656 -16.62473,4.37519 -24.15578,9.00918 -0.76989,0.38719 -1.45442,1.11075 -2.28161,1.27214 -22.39461,1.65089 -44.72515,5.54498 -67.20685,4.24381 -5.51248,-0.30875 -11.07163,-0.92539 -16.49173,-2.17714 -0.42974,-3.30486 0.37595,-6.76961 2.20033,-9.37454 3.40046,-4.95083 7.00215,-9.80519 9.46788,-15.48622 3.03875,-6.6645 3.80063,-14.2414 4.96559,-21.53843 0.62131,-3.885 1.26453,-7.81068 2.54711,-11.4894 0.89009,-2.14903 3.11174,-2.80834 4.98516,-3.16696 3.74625,-0.75651 7.6581,-0.35823 11.42151,0.28608 10.7463,1.92062 21.60802,4.4159 32.57704,4.05473 13.8306,0.20468 27.808,0.50755 41.4383,-2.61799 5.53378,-1.53067 10.81076,-4.41783 15.19698,-8.60954 9.72574,0.81336 19.21474,3.57393 28.85045,5.13902 10.05088,1.8082 20.42278,2.79383 30.46784,0.41564 9.70696,-2.36458 18.97585,-8.21364 25.10973,-17.31404 4.28888,-6.27568 7.1293,-13.72857 8.84348,-21.42927 1.22935,-2.18375 3.51073,-3.0115 5.19447,-4.61625 7.67612,-5.8862 15.54629,-11.83267 21.47367,-20.09788 7.10521,-9.90977 11.21221,-22.47366 12.0363,-35.24222 1.68063,-2.4389 3.47315,-4.82516 5.14437,-7.20268 8.06414,-11.08338 16.69731,-21.82823 22.78051,-34.57373 5.21016,-10.96832 8.48437,-23.41616 8.01996,-35.99927 -0.39243,-12.27882 -4.47773,-24.11645 -10.50624,-34.1573 -2.71874,-4.66742 -5.43081,-9.3414 -8.01266,-14.10998 -3.6934,-6.30523 -9.0874,-11.09595 -15.00536,-14.3707 -9.9178,-5.43151 -21.72441,-6.20184 -32.08824,-2.11599 -8.09395,2.78453 -15.88754,6.83613 -22.88155,12.30644 -4.79901,-3.44439 -9.80041,-7.04931 -15.53193,-7.8749 -7.54006,-1.14578 -15.21374,1.71383 -21.40987,6.5897 -6.26323,4.99128 -10.9184,12.37169 -13.64072,20.5098 -3.04027,8.48711 -4.94217,17.43453 -6.68635,26.36907 -1.09018,5.91263 -1.60022,11.97435 -1.3471,18.01799 0.0327,3.38994 0.0898,6.79736 -0.29723,10.16604 -1.29084,-0.30422 -2.72223,-1.03022 -3.93507,-1.84264 -6.33167,-4.14329 -12.12449,-9.34881 -18.73259,-12.93206 -3.26802,-5.59224 -7.03317,-10.77159 -10.36579,-16.31092 -8.05364,-12.74731 -15.86155,-25.8433 -25.66445,-36.93985 -6.55598,-7.22565 -15.23526,-12.0334 -24.33902,-12.75464 -9.63308,-0.81008 -19.33984,2.31972 -27.6109,7.93344 -5.75863,3.92173 -10.80293,9.12647 -15.0657,15.04061 -3.5177,4.64168 -6.74968,9.56002 -10.31137,14.15889 -3.74905,0.82452 -7.48114,2.17304 -10.63141,4.72251 -8.06878,6.10725 -13.07996,16.85939 -13.70616,27.86323 -0.12666,1.64431 -0.18554,3.29439 -0.28737,4.94085 -4.7082,-2.47461 -9.81759,-4.23157 -15.03991,-4.04968 -9.14959,-0.077 -18.19129,3.15295 -26.01363,8.52476 -1.32348,-8.00643 -2.82971,-16.23698 -6.70862,-23.19759 -2.39715,-4.20297 -5.9239,-7.28184 -8.83683,-10.96328 -2.15213,-3.4036 -3.52387,-7.30628 -5.44334,-10.87725 -5.03854,-10.35136 -10.06666,-20.90711 -17.16789,-29.6237 -5.27874,-6.22459 -12.29271,-10.28868 -19.64882,-12.10713 -7.40347,-2.01871 -15.08231,-2.38375 -22.66234,-2.09252 z" />
    <path
       id="path1"
       style="fill:none;stroke:#ffff00;stroke-width:3.02468;stroke-dasharray:9.07403, 3.02468;stroke-dashoffset:4.83952;stroke-opacity:1"
       d="m 136.05144,162.9008 c -14.18245,0.73358 -28.27577,2.90476 -42.385039,4.47281 -5.575613,1.09747 -10.329171,5.12978 -14.147199,9.74948 -8.734046,10.53309 -15.196966,23.1758 -21.307381,35.82862 -1.633207,3.53523 -3.44959,7.00146 -4.596833,10.79602 -0.991191,3.67642 -0.613572,7.74781 0.914737,11.15912 2.135651,5.0783 6.153735,8.59363 10.06478,11.77079 7.572847,6.12417 16.18217,10.60338 22.996414,17.88951 1.518305,1.7338 3.345785,3.86091 3.539303,6.55294 0.226937,3.46177 -1.637409,6.48352 -3.492274,8.99498 -5.207382,7.14975 -12.217495,12.46466 -16.540001,20.479 -2.635036,5.02495 -1.599077,12.23373 2.511106,15.80599 2.810788,2.6291 6.319553,3.91022 9.593789,5.55972 11.586525,5.36573 23.684648,9.1903 35.963108,11.79103 9.08552,2.00772 18.26763,3.35458 27.38657,5.13628 1.79194,0.35889 3.55312,0.74472 5.3218,1.16421 -5.73878,10.04917 -13.19962,18.54377 -20.06261,27.54219 -5.86782,7.62274 -9.7104,17.03949 -12.1384,26.76407 -3.35835,12.96632 -3.86445,27.10119 -0.40011,40.11247 3.16718,12.3805 9.90652,23.29414 18.33069,31.70997 8.49346,8.59279 18.58331,14.81662 29.00689,19.71973 2.80337,1.36817 5.67735,2.56527 8.41691,4.09436 2.40149,1.70533 3.61992,4.78524 5.4073,7.18099 4.94806,6.71106 11.34368,11.81897 16.39228,18.35075 8.60529,11.5688 17.09667,23.2994 26.68103,33.83166 7.82622,8.99115 15.89564,17.83645 22.37009,28.20769 1.30714,2.17915 1.84445,4.70747 2.5493,7.18761 1.1222,4.36501 2.17167,8.8734 4.4714,12.65593 4.94374,8.91665 12.98309,15.23428 21.74513,18.19725 11.17756,4.01592 23.06224,4.46461 34.67232,3.62196 17.88266,-1.34326 35.45769,-5.96636 52.57009,-11.92783 10.78758,-3.87982 21.43604,-8.4336 31.46502,-14.46746 10.16846,-6.3842 19.43056,-14.43557 28.96497,-21.95635 18.59258,-15.1499 36.33892,-31.72341 52.64994,-50.03959 3.01096,0.96017 4.89794,4.15496 7.68523,5.59167 3.00912,1.42761 6.87532,0.32077 8.683,-2.87837 1.84951,-2.9342 1.55422,-7.30114 -0.59819,-9.92936 -2.65769,-4.18546 -6.50835,-7.02301 -9.79707,-10.48155 -7.86587,-7.70836 -15.2034,-16.13649 -22.76913,-24.24577 -9.22233,-10.07811 -18.33102,-20.31893 -27.1403,-30.85703 -0.61804,-2.49143 -0.2686,-5.38504 -1.74715,-7.53317 -2.59671,-4.9913 -7.68915,-8.23565 -12.76255,-7.83756 -3.52334,0.49709 -6.4897,4.2295 -6.43694,8.34581 -0.0983,1.69491 0.45859,3.33928 0.50506,4.99417 -0.42385,1.74392 -2.03409,2.58652 -3.45864,2.89143 -12.05311,5.13015 -24.66633,8.42526 -36.43494,14.44257 -1.40385,0.91284 -2.68089,2.13095 -3.60183,3.66356 -36.47841,2.18253 -73.01494,2.70638 -109.53734,2.61844 -0.16609,-10.9032 -3.81747,-21.21688 -5.94919,-31.64769 -0.63746,-3.32608 -1.14492,-6.72393 -1.09245,-10.13849 0.9611,-1.01692 2.30926,-1.40121 3.22631,-2.49673 4.98873,-4.45735 8.07253,-11.03902 10.41843,-17.64721 5.22498,-14.00423 8.35755,-28.95957 14.24628,-42.64999 0.6924,-1.51821 1.45783,-2.9932 2.2972,-4.41047 14.93274,-1.57696 29.98852,-0.34065 44.97324,-0.0335 16.32705,0.46676 32.73413,1.39874 49.00393,-0.74245 3.96394,-0.66573 7.94773,-2.52618 10.58726,-6.11148 1.46912,-1.77478 3.2818,-3.42019 5.48221,-3.64464 4.63426,-0.98255 9.36005,-0.21552 13.99709,0.33305 13.12594,1.82949 25.97099,6.176 39.25719,6.45794 5.63798,0.10754 11.54192,-0.88689 16.32679,-4.53883 4.10227,-3.16621 6.9697,-8.26029 8.001,-13.79633 1.10166,-4.43264 2.19965,-9.09094 4.93648,-12.61095 3.42772,-4.87044 8.09727,-8.39005 12.60018,-11.85311 5.76184,-4.39477 11.56283,-9.18449 15.41128,-15.92956 3.75123,-6.57642 5.31293,-14.45024 5.85323,-22.19831 0.40228,-3.09358 1.60509,-5.90992 3.06621,-8.45865 2.88104,-4.85517 6.25216,-9.29308 9.4996,-13.82216 5.69488,-7.8473 11.53053,-15.74073 15.56374,-24.9168 3.57008,-8.16797 5.50282,-17.50129 4.3917,-26.63982 -0.90652,-7.60619 -3.48822,-14.90535 -7.19341,-21.26985 -2.23954,-3.74624 -4.86145,-7.26719 -8.05813,-9.97314 -5.56729,-4.48073 -12.903,-5.51354 -19.38827,-3.43565 -8.57504,2.55214 -16.15466,8.22865 -24.33675,11.78861 -2.42503,0.93981 -4.93646,2.18795 -7.55098,1.72578 -1.73253,-0.21838 -3.30145,-1.30349 -4.38521,-2.85474 -1.92799,-2.40901 -3.78646,-5.26461 -6.65871,-6.19789 -4.06451,-1.51649 -8.76953,0.5396 -11.18036,4.5318 -2.83321,4.21287 -3.99678,9.4749 -5.35564,14.46851 -4.60536,18.37043 -6.87746,37.38907 -11.58539,55.71573 -1.04009,4.01699 -2.2018,7.95889 -3.55708,11.85907 -1.2377,-0.29554 -2.25343,-1.3125 -3.36647,-1.97168 -13.22478,-8.63904 -27.2599,-15.62913 -41.78398,-20.81874 -2.08905,-0.76286 -3.79937,-2.43456 -5.17141,-4.35419 -3.11326,-4.19658 -6.00704,-8.6034 -8.88485,-13.01501 -8.59794,-13.35462 -16.52119,-27.38269 -26.51859,-39.45259 -3.15733,-3.7044 -7.43613,-6.46811 -12.04164,-6.45454 -7.92074,-0.21925 -15.66291,3.38041 -21.8394,8.94848 -6.43344,5.76075 -11.36327,13.34337 -16.17361,20.82408 -5.3801,8.46041 -10.7124,16.95143 -16.13517,25.37627 -3.44237,5.42415 -6.71996,11.05399 -10.85935,15.82249 -3.17239,3.08877 -7.63317,3.72798 -11.61301,2.88375 -6.35497,-1.08872 -12.41053,-4.35628 -18.92541,-4.15359 -6.29802,0.35725 -12.07092,4.51379 -15.93396,10.09765 -4.81846,6.68164 -8.36791,14.64449 -14.26672,20.23766 -0.70225,0.66982 -1.6227,1.72427 -2.59705,1.20081 -1.12903,-0.9807 -1.07746,-2.79266 -1.4886,-4.21362 -3.50707,-15.88814 -5.80104,-32.1294 -10.15598,-47.76486 -0.75866,-2.6068 -1.60143,-5.33156 -3.42456,-7.22437 -1.24169,-1.46982 -2.82563,-2.46907 -4.12634,-3.85015 -2.28306,-2.69005 -3.62733,-6.17894 -5.4151,-9.2812 -5.47114,-10.49732 -10.06741,-21.73038 -16.77696,-31.34306 -3.00845,-3.98523 -7.61292,-5.72718 -12.03719,-6.39216 -4.89951,-0.77426 -9.87909,-0.94518 -14.81676,-0.68421 z" />
    <path
       id="path2"
       style="fill:#5aa02c;fill-opacity:1;stroke:#ffffff;stroke-width:3.02468;stroke-dasharray:none;stroke-dashoffset:3.94126;stroke-opacity:1"
       d="m 143.42435,196.67713 c -2.44093,0.7242 -3.92994,3.43953 -6.3299,4.29154 -4.06932,1.75293 -8.50802,1.22693 -12.74046,0.81793 -7.785,-0.88895 -15.45221,-3.11089 -23.31202,-2.91765 -1.815215,-0.0118 -2.971312,1.87019 -4.050835,3.24748 -4.35434,5.51011 -9.650237,10.14975 -12.995972,16.63037 -1.916355,3.26814 -0.530285,8.03474 2.318725,9.93843 3.196341,2.14967 6.700961,3.59427 10.041448,5.40986 4.035694,2.10158 7.929484,4.72679 11.052224,8.38784 6.56048,7.27949 11.02414,17.34793 11.29004,27.92722 0.23631,7.61915 -1.54266,15.59288 -5.97419,21.4175 -2.78333,3.62856 -6.61281,5.85582 -9.67873,9.11903 0.0359,1.11409 1.24008,1.29367 1.98785,1.46807 4.92927,1.3081 9.94464,2.30209 14.93783,2.77035 10.84676,1.07549 21.93393,0.54695 32.57784,3.66913 7.28076,2.13965 14.41306,6.02699 19.5385,12.49431 4.2458,5.2244 6.65763,12.2818 6.79819,19.41421 0.18331,6.6389 -1.50682,13.25133 -4.51769,18.89337 -4.01649,7.83541 -9.77283,14.31134 -16.1289,19.64311 -4.28511,3.97949 -6.67014,10.0034 -7.94912,16.03304 -2.96499,12.28822 -4.49667,25.00356 -4.31223,37.75489 0.006,6.44205 2.52527,13.03296 7.18102,16.77975 5.05021,3.99931 11.00696,5.88483 16.98677,7.05204 5.69782,1.15524 11.64025,1.5108 17.14751,3.78963 4.68467,2.28018 7.93276,7.3178 9.67118,12.67522 0.89675,2.77163 1.99504,5.46154 3.61253,7.87399 3.25862,5.1198 7.24662,9.53772 11.03291,14.12835 17.0679,20.02409 36.3495,37.55857 52.27936,58.88644 5.03746,6.79241 9.357,14.55207 11.27889,23.28589 0.49725,2.3319 1.10077,4.6476 2.69582,6.29264 1.59176,1.60372 3.66446,2.33081 5.57623,3.27843 8.22217,3.6229 17.11419,4.64912 25.83741,4.78614 17.59478,0.28206 35.27482,-2.93379 51.92472,-9.60387 4.14853,-1.70805 8.28173,-3.64882 11.95068,-6.49058 1.5959,-1.27474 2.89298,-3.00199 3.75995,-4.9997 1.35449,-2.66844 3.07265,-5.22523 5.4895,-6.70096 6.60519,-4.95537 14.19064,-7.71806 21.14588,-11.90809 13.74649,-7.62303 26.94067,-16.69203 39.22099,-27.1503 3.65062,-2.95837 7.42425,-5.78013 10.96354,-8.86596 -4.62828,-9.68091 -10.01494,-18.93661 -16.9946,-26.60447 -3.42302,-3.63541 -7.04974,-7.04518 -10.97659,-9.87426 -2.73444,-1.92612 -5.6297,-3.65306 -8.73618,-4.62004 -2.33139,-0.57607 -4.73439,-0.0525 -6.86823,0.9721 -4.25971,2.00431 -8.04052,5.20814 -11.57855,8.49257 -4.63049,4.34098 -8.94604,9.2531 -14.22032,12.57766 -4.18634,2.33821 -8.9544,2.13025 -13.48589,2.43289 -42.03048,2.01182 -84.14313,3.36359 -126.18784,1.10679 -5.39751,-0.36192 -10.9926,-1.9038 -15.21671,-5.98604 -4.98528,-4.74206 -8.04473,-12.41481 -7.09477,-19.88506 0.45245,-3.33946 2.07365,-6.24022 3.74549,-8.94159 1.40416,-2.37879 2.59935,-5.10076 2.503,-8.05235 0.008,-3.32187 -1.09304,-6.46272 -1.93399,-9.59107 -1.80154,-6.06817 -3.84093,-12.24854 -3.74284,-18.76164 -0.006,-9.54775 3.2809,-19.29798 9.61155,-25.63691 2.21871,-2.19536 4.85829,-4.25757 5.81642,-7.60882 5.62276,-15.88835 9.61224,-32.67183 16.62424,-47.92358 3.0844,-6.69766 7.65819,-12.73888 13.67386,-16.06276 5.1092,-2.77581 10.83332,-3.52477 16.41834,-3.79262 16.15191,-0.50614 32.3076,0.14267 48.45662,0.49999 10.91038,0.26153 21.83161,0.47915 32.73995,0.18105 3.16219,-0.77616 5.46226,-3.63168 8.34673,-5.12227 7.82265,-4.85123 16.91882,-6.87654 25.75495,-5.8172 11.50041,0.91103 22.95796,3.12519 33.96188,7.11571 2.47384,0.92992 4.92927,1.99208 7.54329,1.74753 1.88464,-0.87112 2.70913,-3.16149 3.8119,-4.93356 4.1516,-7.62648 7.01187,-16.27522 12.41919,-22.92844 5.44127,-6.55578 12.76505,-10.37855 18.688,-16.20686 0.98766,-0.89274 1.93035,-1.95936 2.20666,-3.42652 0.52076,-2.38851 0.33435,-4.8299 0.7661,-7.26615 1.36035,-9.22312 5.51408,-17.53928 10.34114,-24.93345 7.31327,-11.31824 16.35273,-21.22071 22.72673,-33.28529 1.02952,-2.04305 2.23995,-4.26667 1.87962,-6.73773 -0.31076,-2.55474 -1.50988,-4.88294 -3.00227,-6.76308 -0.9857,-1.18724 -2.56222,-1.72478 -3.89968,-1.02096 -2.31661,0.98908 -4.28241,2.80041 -6.56268,3.87773 -6.17651,3.38648 -12.57023,6.42021 -19.30169,7.97335 -4.21298,0.91476 -8.54259,-0.16729 -12.45728,-1.99811 -0.62217,1.85128 -1.32075,3.68413 -1.86262,5.5786 -3.83935,12.86409 -4.81357,26.48182 -7.38176,39.69198 -1.78288,9.00161 -4.50053,18.03657 -9.61823,25.29104 -3.82328,5.42577 -9.15584,9.689 -15.21876,10.87268 -6.04753,1.26567 -12.41259,-0.28442 -17.66684,-3.89118 -5.33684,-3.39976 -10.67245,-6.878 -16.18636,-9.84785 -7.17157,-3.95641 -14.57881,-7.28773 -22.1338,-10.11937 -5.7992,-2.31223 -11.66145,-5.13985 -16.11854,-10.14741 -6.23986,-6.57124 -11.12295,-14.58844 -15.98156,-22.49353 -4.97296,-8.38847 -9.36079,-17.26456 -14.93398,-25.16736 -0.61508,-0.80963 -1.23528,-1.61394 -1.86781,-2.40562 -5.55076,9.63097 -12.09349,18.73264 -20.33591,25.46752 -1.51642,1.12945 -3.24665,2.43441 -3.59903,4.63932 -2.86875,10.03621 -6.65781,20.0004 -12.85765,27.93992 -9.39891,12.09258 -24.17134,17.99877 -38.09237,15.95878 -4.8508,-0.70801 -9.6077,-2.34984 -13.97795,-4.87051 -0.38789,-0.21547 -0.53714,0.84271 -0.85631,1.08943 -5.0798,8.35761 -10.80299,16.50341 -18.31072,22.12029 -8.18167,6.04281 -18.46323,8.68584 -28.01576,6.11671 -6.67394,-1.89798 -12.12063,-7.92487 -14.69063,-15.16161 -1.75745,-4.88694 -2.91461,-10.02259 -4.10008,-15.12172 -1.8374,-8.38481 -3.42572,-16.83962 -5.24427,-25.22963 -0.98411,-4.75026 -2.01675,-9.5056 -3.06779,-14.2458 -6.7446,-7.72252 -11.22889,-17.50636 -15.71199,-27.03825 -1.85432,-3.87512 -3.32389,-8.14324 -6.11203,-11.29438 -0.56497,-0.58856 -1.43432,-0.58228 -2.14029,-0.44768 z" />
    <path
       style="fill:#000000;stroke:#fffcfc;stroke-width:1.52792;stroke-dasharray:none;stroke-dashoffset:14.8961;stroke-opacity:1"
       d="m 200.17899,547.88336 1.29598,1.21707"
       id="path5-8-1-2-2-1" />
    <path
       style="fill:#000000;stroke:#fffcfc;stroke-width:1.52792;stroke-dasharray:none;stroke-dashoffset:14.8961;stroke-opacity:1"
       d="m 198.02033,547.70955 1.29598,1.21706"
       id="path5-8-2-5-38" />
    <path
       style="fill:#000000;stroke:#fffcfc;stroke-width:1.52792;stroke-dasharray:none;stroke-dashoffset:14.8961;stroke-opacity:1"
       d="m 198.2143,549.86408 1.29598,1.21706"
       id="path5-8-1-3-7-93" />
    <path
       style="fill:#000000;stroke:#fffcfc;stroke-width:1.52792;stroke-dasharray:none;stroke-dashoffset:14.8961;stroke-opacity:1"
       d="m 196.05525,549.77668 1.29597,1.21708"
       id="path5-8-1-2-2-1-6" />
    <path
       style="fill:#000000;stroke:#fffcfc;stroke-width:1.52792;stroke-dasharray:none;stroke-dashoffset:14.8961;stroke-opacity:1"
       d="m 195.88209,551.66831 1.29598,1.21707"
       id="path5-8-2-5-38-6" />
    <path
       style="fill:#000000;stroke:#fffcfc;stroke-width:1.52792;stroke-dasharray:none;stroke-dashoffset:14.8961;stroke-opacity:1"
       d="m 193.69345,551.5566 1.29598,1.21706"
       id="path5-8-1-3-7-93-1" />
    <path
       style="fill:#000000;stroke:#fffcfc;stroke-width:1.52792;stroke-dasharray:none;stroke-dashoffset:14.8961;stroke-opacity:1"
       d="m 193.71329,553.38951 1.29598,1.21707"
       id="path5-8-1-3-7-93-1-3" />
    <path
       style="fill:#000000;stroke:#fffcfc;stroke-width:1.52792;stroke-dasharray:none;stroke-dashoffset:14.8961;stroke-opacity:1"
       d="m 200.06723,545.80288 1.29598,1.21707"
       id="path5-8-2-5-3-7" />
    <path
       style="fill:#000000;stroke:#fffcfc;stroke-width:1.52792;stroke-dasharray:none;stroke-dashoffset:14.8961;stroke-opacity:1"
       d="m 202.26626,545.9023 1.29598,1.21706"
       id="path5-8-2-5-3-7-0" />
    <path
       style="fill:#000000;stroke:#fffcfc;stroke-width:1.52792;stroke-dasharray:none;stroke-dashoffset:14.8961;stroke-opacity:1"
       d="m 202.02512,543.79544 1.29597,1.21707"
       id="path5-8-1-2-2-6-5-9-2" />
    <path
       style="fill:#000000;stroke:#fffcfc;stroke-width:1.52792;stroke-dasharray:none;stroke-dashoffset:14.8961;stroke-opacity:1"
       d="m 210.79942,538.42812 1.29598,1.21707"
       id="path5-8-1-2-2-1-8" />
    <path
       style="fill:#000000;stroke:#fffcfc;stroke-width:1.52792;stroke-dasharray:none;stroke-dashoffset:14.8961;stroke-opacity:1"
       d="m 208.64076,538.25431 1.29598,1.21706"
       id="path5-8-2-5-38-2" />
    <path
       style="fill:#000000;stroke:#fffcfc;stroke-width:1.52792;stroke-dasharray:none;stroke-dashoffset:14.8961;stroke-opacity:1"
       d="m 208.83473,540.40884 1.29598,1.21706"
       id="path5-8-1-3-7-93-4" />
    <path
       style="fill:#000000;stroke:#fffcfc;stroke-width:1.52792;stroke-dasharray:none;stroke-dashoffset:14.8961;stroke-opacity:1"
       d="m 206.67568,540.32144 1.29597,1.21708"
       id="path5-8-1-2-2-1-6-5" />
    <path
       style="fill:#000000;stroke:#fffcfc;stroke-width:1.52792;stroke-dasharray:none;stroke-dashoffset:14.8961;stroke-opacity:1"
       d="m 206.50252,542.21307 1.29598,1.21707"
       id="path5-8-2-5-38-6-5" />
    <path
       style="fill:#000000;stroke:#fffcfc;stroke-width:1.52792;stroke-dasharray:none;stroke-dashoffset:14.8961;stroke-opacity:1"
       d="m 204.31388,542.10136 1.29598,1.21706"
       id="path5-8-1-3-7-93-1-1" />
    <path
       style="fill:#000000;stroke:#fffcfc;stroke-width:1.52792;stroke-dasharray:none;stroke-dashoffset:14.8961;stroke-opacity:1"
       d="m 204.33372,543.93427 1.29598,1.21707"
       id="path5-8-1-3-7-93-1-3-7" />
    <path
       style="fill:#000000;stroke:#fffcfc;stroke-width:1.52792;stroke-dasharray:none;stroke-dashoffset:14.8961;stroke-opacity:1"
       d="m 210.68766,536.34764 1.29598,1.21707"
       id="path5-8-2-5-3-7-1" />
    <path
       style="fill:#000000;stroke:#fffcfc;stroke-width:1.52792;stroke-dasharray:none;stroke-dashoffset:14.8961;stroke-opacity:1"
       d="m 212.88669,536.44706 1.29598,1.21706"
       id="path5-8-2-5-3-7-0-1" />
    <path
       style="fill:#000000;stroke:#fffcfc;stroke-width:1.52792;stroke-dasharray:none;stroke-dashoffset:14.8961;stroke-opacity:1"
       d="m 212.64555,534.3402 1.29597,1.21707"
       id="path5-8-1-2-2-6-5-9-2-5" />
    <path
       style="fill:#000000;stroke:#fffcfc;stroke-width:1.52792;stroke-dasharray:none;stroke-dashoffset:14.8961;stroke-opacity:1"
       d="m 221.38276,528.96925 1.29598,1.21707"
       id="path5-8-1-2-2-1-8-4" />
    <path
       style="fill:#000000;stroke:#fffcfc;stroke-width:1.52792;stroke-dasharray:none;stroke-dashoffset:14.8961;stroke-opacity:1"
       d="m 219.2241,528.79544 1.29598,1.21706"
       id="path5-8-2-5-38-2-2" />
    <path
       style="fill:#000000;stroke:#fffcfc;stroke-width:1.52792;stroke-dasharray:none;stroke-dashoffset:14.8961;stroke-opacity:1"
       d="m 219.41807,530.94997 1.29598,1.21706"
       id="path5-8-1-3-7-93-4-3" />
    <path
       style="fill:#000000;stroke:#fffcfc;stroke-width:1.52792;stroke-dasharray:none;stroke-dashoffset:14.8961;stroke-opacity:1"
       d="m 217.25902,530.86257 1.29597,1.21708"
       id="path5-8-1-2-2-1-6-5-2" />
    <path
       style="fill:#000000;stroke:#fffcfc;stroke-width:1.52792;stroke-dasharray:none;stroke-dashoffset:14.8961;stroke-opacity:1"
       d="m 217.08586,532.7542 1.29598,1.21707"
       id="path5-8-2-5-38-6-5-2" />
    <path
       style="fill:#000000;stroke:#fffcfc;stroke-width:1.52792;stroke-dasharray:none;stroke-dashoffset:14.8961;stroke-opacity:1"
       d="m 214.89722,532.64249 1.29598,1.21706"
       id="path5-8-1-3-7-93-1-1-1" />
    <path
       style="fill:#000000;stroke:#fffcfc;stroke-width:1.52792;stroke-dasharray:none;stroke-dashoffset:14.8961;stroke-opacity:1"
       d="m 214.91706,534.4754 1.29598,1.21707"
       id="path5-8-1-3-7-93-1-3-7-6" />
    <path
       style="fill:#000000;stroke:#fffcfc;stroke-width:1.52792;stroke-dasharray:none;stroke-dashoffset:14.8961;stroke-opacity:1"
       d="m 221.271,526.88877 1.29598,1.21707"
       id="path5-8-2-5-3-7-1-8" />
    <path
       style="fill:#000000;stroke:#fffcfc;stroke-width:1.52792;stroke-dasharray:none;stroke-dashoffset:14.8961;stroke-opacity:1"
       d="m 223.47003,526.98819 1.29598,1.21706"
       id="path5-8-2-5-3-7-0-1-5" />
    <path
       style="fill:#000000;stroke:#fffcfc;stroke-width:1.52792;stroke-dasharray:none;stroke-dashoffset:14.8961;stroke-opacity:1"
       d="m 223.22889,524.88133 1.29597,1.21707"
       id="path5-8-1-2-2-6-5-9-2-5-7" />
    <path
       style="fill:#000000;stroke:#fffcfc;stroke-width:1.16626;stroke-dasharray:none;stroke-dashoffset:14.8961;stroke-opacity:1"
       d="m 230.21735,520.93951 1.05074,0.8746"
       id="path5-8-1-2-2-1-8-4-2" />
    <path
       style="fill:#000000;stroke:#fffcfc;stroke-width:1.16626;stroke-dasharray:none;stroke-dashoffset:14.8961;stroke-opacity:1"
       d="m 228.46718,520.8146 1.05074,0.8746"
       id="path5-8-2-5-38-2-2-7" />
    <path
       style="fill:#000000;stroke:#fffcfc;stroke-width:1.16626;stroke-dasharray:none;stroke-dashoffset:14.8961;stroke-opacity:1"
       d="m 228.62444,522.36288 1.05074,0.87459"
       id="path5-8-1-3-7-93-4-3-9" />
    <path
       style="fill:#000000;stroke:#fffcfc;stroke-width:1.16626;stroke-dasharray:none;stroke-dashoffset:14.8961;stroke-opacity:1"
       d="m 226.87396,522.30007 1.05073,0.87461"
       id="path5-8-1-2-2-1-6-5-2-5" />
    <path
       style="fill:#000000;stroke:#fffcfc;stroke-width:1.16626;stroke-dasharray:none;stroke-dashoffset:14.8961;stroke-opacity:1"
       d="m 226.73357,523.65942 1.05073,0.8746"
       id="path5-8-2-5-38-6-5-2-4" />
    <path
       style="fill:#000000;stroke:#fffcfc;stroke-width:1.16626;stroke-dasharray:none;stroke-dashoffset:14.8961;stroke-opacity:1"
       d="m 224.95909,523.57914 1.05074,0.8746"
       id="path5-8-1-3-7-93-1-1-1-3" />
    <path
       style="fill:#000000;stroke:#fffcfc;stroke-width:1.16626;stroke-dasharray:none;stroke-dashoffset:14.8961;stroke-opacity:1"
       d="m 224.97517,524.89629 1.05074,0.87461"
       id="path5-8-1-3-7-93-1-3-7-6-1" />
    <path
       style="fill:#000000;stroke:#fffcfc;stroke-width:1.16626;stroke-dasharray:none;stroke-dashoffset:14.8961;stroke-opacity:1"
       d="m 230.12674,519.44445 1.05073,0.8746"
       id="path5-8-2-5-3-7-1-8-2" />
    <path
       style="fill:#000000;stroke:#fffcfc;stroke-width:1.16626;stroke-dasharray:none;stroke-dashoffset:14.8961;stroke-opacity:1"
       d="m 231.90964,519.51589 1.05073,0.8746"
       id="path5-8-2-5-3-7-0-1-5-3" />
    <path
       style="fill:#000000;stroke:#fffcfc;stroke-width:1.16626;stroke-dasharray:none;stroke-dashoffset:14.8961;stroke-opacity:1"
       d="m 231.71413,518.00188 1.05073,0.8746"
       id="path5-8-1-2-2-6-5-9-2-5-7-3" />
  </g>
</svg>
