<?xml version="1.0" encoding="UTF-8" standalone="no"?>
<!-- Created with Inkscape (http://www.inkscape.org/) -->

<svg
   width="2048"
   height="2048"
   viewBox="0 0 541.86668 541.8667"
   version="1.1"
   id="svg1"
   inkscape:export-filename="track4.png"
   inkscape:export-xdpi="97.358749"
   inkscape:export-ydpi="97.358749"
   inkscape:version="1.4.2 (f4327f4, 2025-05-13)"
   sodipodi:docname="pista4.svg"
   xmlns:inkscape="http://www.inkscape.org/namespaces/inkscape"
   xmlns:sodipodi="http://sodipodi.sourceforge.net/DTD/sodipodi-0.dtd"
   xmlns="http://www.w3.org/2000/svg"
   xmlns:svg="http://www.w3.org/2000/svg">
  <sodipodi:namedview
     id="namedview1"
     pagecolor="#ffffff"
     bordercolor="#cccccc"
     borderopacity="1"
     inkscape:showpageshadow="0"
     inkscape:pageopacity="1"
     inkscape:pagecheckerboard="0"
     inkscape:deskcolor="#d1d1d1"
     inkscape:document-units="px"
     inkscape:export-bgcolor="#5aa02cff"
     inkscape:zoom="7.9999999"
     inkscape:cx="731.43751"
     inkscape:cy="1552.3125"
     inkscape:window-width="2400"
     inkscape:window-height="1261"
     inkscape:window-x="2391"
     inkscape:window-y="-9"
     inkscape:window-maximized="1"
     inkscape:current-layer="layer1" />
  <defs
     id="defs1" />
  <g
     inkscape:label="Capa 1"
     id="layer1"
     transform="translate(-28.239847,-118.32131)">
    <path
       id="path3"
       style="fill:#000000;fill-opacity:1;stroke:#ffffff;stroke-width:2.91042;stroke-dasharray:none;stroke-dashoffset:3.94129;stroke-opacity:1"
       d="m 132.1418,174.79831 c -15.77753,0.56089 -31.47197,2.37891 -47.132817,4.27344 -8.075425,0.9769 -15.053714,6.18275 -20.641537,11.95103 -9.635937,9.94713 -16.866795,21.88214 -23.566694,33.91388 -3.02362,5.42985 -6.377094,10.97885 -7.081692,17.27338 -1.006967,8.99576 3.377517,17.97251 10.125771,23.88586 7.707559,6.75397 17.025676,11.17395 25.265696,17.12425 0.283852,0.20498 1.29583,0.50479 0.761954,0.90329 -7.320404,5.46413 -15.230164,10.3729 -21.203177,17.41081 -4.810969,5.66869 -7.577279,13.08641 -7.292176,20.53887 0.192317,5.02707 1.576569,10.18786 4.759344,14.15304 2.929517,3.64966 7.461829,5.49947 11.982624,6.52482 22.117496,5.01642 45.828824,3.20059 67.016844,11.19381 4.95631,1.86978 -8.42252,6.61001 -11.5949,10.89169 -2.38705,3.22174 -2.4254,7.45505 -3.38847,11.20259 -2.04998,7.97699 -4.51946,15.84402 -6.31184,23.88734 -2.6957,12.09699 -4.196126,24.6483 -2.48307,37.00048 1.39621,10.0675 5.04665,19.92173 11.25849,28.0303 7.06653,9.22424 16.95741,16.05419 27.78013,20.16113 6.73774,2.5568 15.43134,0.69542 20.87247,5.40655 9.54882,8.26772 15.61128,19.75316 24.61082,28.5012 14.74532,14.33325 30.89269,27.25103 44.62722,42.60338 2.21227,2.47286 4.6061,5.05918 5.29843,8.46314 1.10598,5.43777 3.47744,10.5806 6.62249,15.16499 6.06398,8.83918 15.09783,15.3232 24.9892,19.28294 11.98075,4.79616 24.89072,6.76648 37.71177,7.31451 20.80515,0.88931 41.68153,-2.03391 61.69003,-7.66863 11.69243,-3.29278 23.17308,-7.89129 33.19173,-14.84628 4.27612,-2.9685 6.48482,-8.38974 11.0044,-10.99493 18.67077,-10.76227 39.16649,-18.46504 56.32014,-31.64599 8.18754,-6.29134 13.04877,-16.68302 22.174,-21.54737 6.01147,-3.20451 13.97027,-1.74499 17.9955,-7.27729 4.22275,-5.80377 4.75608,-14.0851 1.07949,-20.2714 -2.08662,-3.51098 -4.93284,-6.48005 -7.94189,-9.21127 -4.37312,-3.96935 -8.54728,-8.15339 -12.78162,-12.27055 -13.54406,-13.16922 -29.7576,-24.34113 -39.74796,-40.37574 -4.54767,-7.29905 -7.45671,-15.76967 -15.33008,-19.00782 -6.05715,-2.49118 -13.27802,-2.89661 -19.07812,0.36329 -5.57038,3.13078 -5.04198,11.35243 -9.86524,15.51562 -10.22401,8.82484 -25.79527,8.29701 -37.8372,14.5308 -1.03996,0.53836 -1.72084,1.92336 -2.89131,1.99264 -32.09187,1.89964 -65.01439,8.16439 -96.42578,1.32226 -6.95871,-1.51577 -7.86811,-13.96442 -5.40039,-20.64453 2.72466,-7.37563 9.71296,-12.26146 12.73766,-19.40667 4.89831,-11.57119 2.30051,-29.03736 13.22327,-35.27106 13.85731,-7.90846 31.88394,0.40422 47.82175,0.75029 14.78059,0.32094 29.66609,0.93991 44.34146,-1.16005 6.08217,-0.87033 12.18971,-3.44003 16.30554,-8.13321 0.4025,-0.45896 0.86253,-0.70041 1.48285,-0.73212 4.90137,-0.25057 9.78491,0.5387 14.6011,1.27548 12.60928,1.92897 25.10456,5.19777 37.94023,5.1793 8.11884,-0.0117 16.47916,-1.88506 23.15714,-6.66894 6.19606,-4.43866 10.39555,-11.31104 12.19924,-18.66797 0.42031,-1.71437 0.94241,-3.51336 1.79913,-5.01466 1.56914,-2.74974 4.21202,-4.66219 6.7942,-6.3835 6.96302,-4.64163 14.26467,-8.97542 20.07228,-15.09685 6.75541,-7.12045 10.57652,-16.6981 11.42186,-26.41358 0.095,-1.09184 -0.13436,-2.26622 0.2368,-3.28247 1.02907,-2.81764 3.34113,-4.90318 5.17751,-7.22486 8.0445,-10.17042 17.45477,-19.35852 23.98832,-30.65127 4.8478,-8.37905 8.04828,-17.97194 7.68648,-27.73624 -0.393,-10.60622 -5.50326,-20.38814 -11.93409,-28.73076 -2.6086,-3.3841 -4.08731,-7.56935 -7.0983,-10.68132 -6.50052,-6.71854 -16.11981,-10.20269 -25.40951,-9.09798 -8.20992,0.97631 -15.83558,4.38917 -23.15961,8.02139 -4.43504,2.19948 -8.9687,7.64736 -13.54352,5.78916 -6.32169,-2.56775 -11.30474,-8.42681 -18.21233,-7.93114 -8.26867,0.59334 -15.6646,6.18612 -19.24939,13.59378 -4.03441,8.33675 -6.071,17.39694 -8.17401,26.34067 -2.58878,11.00962 3.15884,29.39471 -7.54005,33.08263 -12.20895,4.20844 -23.8114,-9.87958 -35.83008,-14.59961 -2.42961,-0.95417 -3.36404,-3.96155 -4.98151,-5.9972 -10.92971,-13.75547 -19.95384,-29.04148 -32.15928,-41.76515 -4.80139,-5.00525 -11.16429,-8.82899 -18.16773,-9.55002 -9.44154,-0.97205 -18.98158,2.32558 -26.45731,8.01586 -7.25272,5.52053 -12.38202,13.19228 -18.23006,20.0417 -1.44463,1.692 -2.79573,3.66606 -4.92816,4.33194 -2.92741,0.91412 -6.1444,0.96743 -8.83765,2.62608 -6.15201,3.78874 -9.66589,11.0106 -9.46582,18.178 0.13547,4.85296 -1.2274,9.95476 -4.43507,13.72316 -1.30244,1.53012 -3.40759,2.29438 -5.42472,1.91499 -3.81347,-0.71725 -7.0327,-3.00204 -10.634,-4.2985 -5.19809,-1.8713 -10.91375,-1.46964 -16.19473,-0.20474 -6.56522,1.5725 -12.70358,4.77866 -17.81888,9.17963 -2.49266,2.14457 -5.26634,10.06375 -6.7768,7.14409 -5.3442,-10.33013 -4.52671,-22.95915 -9.17519,-33.67702 -1.73515,-4.0007 -5.47349,-6.60786 -8.56895,-9.60227 -2.62046,-2.53491 -3.96279,-6.10742 -5.79286,-9.24963 -5.46374,-9.38116 -10.20118,-19.36639 -17.54382,-27.46914 -4.49285,-4.95795 -11.10344,-7.42958 -17.59794,-8.50831 -5.54356,-0.92078 -11.18314,-1.20069 -16.78803,-1.00144 z"
       transform="translate(-1.2160367e-6)"
       sodipodi:nodetypes="sssssssssssssssssssssssssssssssssssssssssssssssssssssssssssssssssssssssssssssssssssssssssss" />
    <path
       id="path1"
       style="fill:none;stroke:#ffff00;stroke-width:2.91042;stroke-dasharray:8.73125, 2.91042;stroke-dashoffset:4.6567;stroke-opacity:1"
       d="m 89.427989,197.64366 c -12.30162,0.3284 -28.169272,29.17658 -35.89794,43.6435 -7.883188,14.75616 36.36228,22.84645 38.52539,41.31692 2.100549,17.93627 -34.016983,30.53204 -18.474521,37.50847 64.436792,28.92329 111.260492,0.10256 58.497462,54.77262 -10.19284,10.56125 -39.612758,70.58405 41.86063,97.98746 4.62259,1.5548 7.96646,10.1 14.01795,14.60379 9.73873,7.24802 15.43695,16.09963 25.47184,27.2357 16.5444,18.35989 38.12106,35.11925 40.35294,47.39811 9.28999,51.10958 119.91298,16.71353 143.4617,1.40761 90.61685,-58.89807 77.17441,-74.4989 92.11768,-59.63326 17.3614,17.27121 -85.68706,-76.90833 -65.83314,-67.37855 24.14665,11.59028 -68.89509,26.13548 -43.63609,28.45417 29.05082,2.66676 -165.12171,7.19607 -136.23053,2.13797 16.4059,-2.87225 -13.13854,-42.87725 2.69798,-49.93096 12.71692,-5.66422 18.01653,-48.74002 29.38287,-59.27106 6.85951,-6.35542 100.60171,4.49299 106.18124,-4.28093 14.06784,-22.12194 78.77889,17.76579 84.68952,-11.36949 6.0065,-29.60785 38.55471,-23.0513 39.56688,-53.96383 0.72744,-22.21649 52.31294,-44.3739 27.32027,-82.08161 -18.97818,-28.63333 -47.96135,21.46876 -66.19339,-2.58943 -13.68051,-18.05218 -17.27757,86.52757 -34.29088,76.54279 -18.03911,-10.5868 -30.22599,-16.23374 -49.1828,-21.74236 -10.09585,-2.93373 -38.28725,-55.00079 -48.55999,-55.84197 -21.47383,-1.75838 -32.44741,21.71731 -45.73143,38.60331 -16.0304,20.37708 -17.34946,34.52932 -47.54108,24.75581 -22.58333,-7.31058 -21.28238,28.53172 -45.01861,28.26684 -4.92548,-0.055 -12.12784,-56.00343 -17.01895,-56.65878 -7.35102,-0.98495 -22.01066,-38.65893 -29.12446,-41.57333 -13.7349,-5.62694 -47.03022,1.2966 -61.410541,1.68049 z"
       sodipodi:nodetypes="ssssssssssssssssssssssssssssss" />
    <path
       id="path2"
       style="fill:#5aa02c;fill-opacity:1;stroke:#ffffff;stroke-width:2.91042;stroke-dasharray:none;stroke-dashoffset:3.94126;stroke-opacity:1"
       d="m 138.68555,214.87305 c -1.55118,4.18754 -5.80431,7.12378 -10.22852,7.34765 -3.79392,0.43878 -7.76197,0.15439 -11.5838,-0.37067 -5.4632,-0.74244 -10.88556,-1.77521 -16.36295,-2.41135 -2.329145,-0.25549 -4.605133,-0.37937 -6.949733,-0.28829 -1.032385,1.17899 -1.871943,2.52703 -3.064741,3.56121 -4.365962,4.71887 -9.784092,8.5879 -13.022065,14.25669 -1.079391,2.1083 -1.17055,5.03978 0.705265,6.73905 2.699717,2.79362 6.569653,3.83047 10.013761,5.38025 5.190612,2.09559 10.333243,4.78096 14.105753,9.01035 5.64176,5.76466 10.00116,13.11911 11.02328,21.21934 1.01741,7.49545 -0.33422,15.5068 -4.6741,21.80276 -2.91657,3.93501 -7.32114,6.28179 -11.196528,9.12215 5.218638,2.25351 11.024738,3.12554 16.701888,3.55136 11.41094,0.84926 23.10246,0.20954 34.27467,3.19668 7.68839,2.03238 15.19771,5.71765 20.51954,11.75977 6.7935,7.69949 8.72302,19.31724 4.74366,28.78956 -3.38119,8.929 -9.76958,16.54226 -17.55936,21.98479 -2.99762,2.25058 -5.97964,4.84243 -7.41396,8.40501 -2.70172,5.79648 -4.12381,12.05116 -5.28237,18.32171 -1.1475,6.71416 -1.79423,13.56792 -2.02227,20.38369 0.0126,4.35916 0.67878,8.91741 3.06031,12.65597 2.99035,4.5598 8.15906,7.02405 13.18597,8.64983 5.54265,1.74599 11.31671,2.55813 17.07501,3.20364 3.11046,0.41714 6.33883,0.58615 9.20722,1.98802 4.36936,1.97247 7.86461,5.71408 9.60482,10.17404 1.29071,3.09609 2.25206,6.44596 4.55761,8.98373 6.6434,8.40925 14.42997,15.81513 22.1831,23.18087 14.87191,13.92109 30.62912,27.0398 43.71104,42.73617 4.77123,5.75655 9.02438,12.22657 10.74462,19.59744 0.56879,2.3199 1.04031,5.01485 3.17335,6.44944 2.71246,1.87654 5.94302,2.96321 9.01674,3.93361 8.30434,2.46897 17.01903,2.95378 25.62309,2.9976 12.85638,-0.0293 25.6238,-1.82085 38.11798,-4.85114 8.63554,-2.1676 17.20266,-5.10097 24.984,-9.5574 1.71885,-1.14081 2.57473,-3.0868 3.45521,-4.86821 2.51748,-4.4183 7.04495,-7.19494 11.59128,-9.1705 6.51599,-2.90757 13.0713,-5.73464 19.45201,-8.93535 12.49949,-6.15317 24.62107,-13.26231 35.55533,-21.8966 3.64549,-2.79907 7.92847,-4.69205 11.36508,-7.77077 0.25247,-0.35831 1.0908,-0.67523 0.65373,-1.17812 -1.09868,-1.91087 -2.09023,-3.8951 -3.26958,-5.76502 -6.34708,-10.53108 -14.96017,-19.91171 -25.45894,-26.33068 -2.4111,-1.41828 -4.94253,-2.84505 -7.65171,-3.69886 -2.13682,-0.64633 -4.39422,-0.24298 -6.45024,0.47975 -3.58828,1.24847 -6.81565,3.3409 -9.88505,5.54242 -5.00073,3.69681 -9.28378,8.22487 -14.23322,11.98482 -3.5596,2.50246 -7.90599,3.82225 -12.25371,3.77459 -37.13445,1.99379 -74.33596,2.71143 -111.52029,2.25848 -9.32852,-0.14758 -18.67053,-0.35732 -27.961,-1.25024 -6.06539,-0.8998 -12.05927,-3.86355 -15.65074,-8.95924 -3.4661,-4.57369 -5.22781,-10.7253 -3.66778,-16.35962 1.17379,-4.03279 4.66762,-6.83644 6.05178,-10.76414 0.84989,-3.53828 -0.49204,-7.08455 -1.57649,-10.41275 -1.96125,-5.64984 -4.36944,-11.36283 -4.25859,-17.45536 0.0178,-8.19782 2.87775,-16.59624 8.74332,-22.45786 1.73586,-1.77053 3.94687,-2.98809 5.74425,-4.67402 1.298,-1.73191 1.74044,-3.90693 2.66428,-5.83307 4.45309,-11.06108 7.69767,-22.59622 12.51221,-33.5252 2.28519,-5.11387 4.94822,-10.13386 8.57462,-14.43291 4.29422,-4.88534 10.19205,-8.43093 16.63892,-9.51336 7.35403,-1.50124 14.90165,-1.1694 22.36264,-1.2975 22.71326,-0.004 45.40788,1.56539 68.12422,1.0369 1.35739,-0.0303 2.76116,0.29622 4.08423,-0.0658 1.72582,-1.1342 3.38471,-2.36553 5.18923,-3.37889 7.03822,-4.2371 15.16808,-6.96023 23.44646,-6.7544 11.05713,-0.12163 21.95462,2.06508 32.76242,4.14281 4.48721,1.03525 8.66877,3.07152 13.14579,4.13299 1.21746,0.25555 2.71958,0.35919 3.58789,-0.7207 1.49322,-1.58039 2.49587,-3.54016 3.65445,-5.36274 3.68449,-6.36563 6.37927,-13.56174 11.58093,-18.96635 5.75249,-5.87013 13.37318,-9.30735 19.69794,-14.42494 0.99945,-0.76792 2.09712,-1.77031 2.03165,-3.14424 0.1356,-2.12336 0.0745,-4.26613 0.51442,-6.36048 1.35417,-8.19478 5.58112,-15.59063 10.50613,-22.15637 7.1195,-9.59956 15.94514,-17.84804 22.5215,-27.86416 1.40617,-2.24148 3.00467,-4.53053 3.40755,-7.1996 0.0155,-2.02135 -1.56159,-3.52457 -2.32826,-5.27762 -0.6696,-1.27591 -1.34368,-2.56823 -2.28553,-3.66928 -2.25929,1.52989 -4.43768,3.20711 -6.92603,4.36356 -7.2379,3.37714 -14.57253,6.91302 -22.52871,8.19569 -2.82137,0.44513 -5.7749,0.38246 -8.46585,-0.65736 -1.19047,-0.35852 -2.37439,-0.78218 -3.61652,-0.92143 -2.08993,4.29955 -3.53851,8.94221 -4.54125,13.64286 -2.1408,9.83475 -2.92298,19.94569 -5.55994,29.70499 -1.90647,7.10497 -4.72308,14.15276 -9.4898,19.84567 -4.0868,4.8548 -9.75166,8.54912 -16.07866,9.57015 -5.77481,1.03218 -11.8743,-0.0579 -16.96816,-2.95763 -5.9033,-2.99064 -11.43626,-6.68242 -17.49653,-9.36901 -9.1798,-4.47901 -18.92223,-7.79301 -28.63368,-10.98126 -6.86867,-2.5938 -12.59483,-7.55248 -17.10188,-13.259 -6.84597,-8.02141 -12.95926,-16.66057 -18.25878,-25.77779 -2.64837,-4.44186 -5.54805,-8.91484 -9.28538,-12.45023 -0.48403,-0.7795 -0.67172,-0.0191 -0.94163,0.45504 -1.66255,3.11296 -3.82189,5.92232 -6.18056,8.53634 -4.77149,5.62023 -9.8828,11.23669 -16.47546,14.73972 -0.56659,0.12685 -0.40369,0.88075 -0.64466,1.30858 -2.76298,9.38382 -6.8526,18.58325 -13.3443,26.00381 -7.59184,8.56942 -18.60354,13.84925 -29.96671,14.87187 -7.01462,0.62345 -14.23891,-0.19301 -20.7812,-2.87039 -1.24602,-0.51627 -2.46806,-1.09115 -3.65571,-1.73051 -1.37126,2.12477 -2.73472,4.2691 -4.34088,6.23237 -4.13996,5.29413 -8.71208,10.3749 -14.34954,14.11226 -7.31665,4.82911 -16.19649,7.47575 -24.98346,6.8424 -4.14068,-0.26768 -8.29079,-1.37783 -11.75621,-3.7206 -4.85627,-3.13534 -8.07066,-8.24944 -9.9771,-13.6114 -1.86109,-5.32059 -3.2417,-10.79694 -4.5579,-16.27231 -2.35744,-10.00435 -4.23998,-20.13187 -7.12476,-30.0085 -0.61698,-0.98803 -1.65285,-1.61069 -2.41092,-2.48321 -1.78354,-1.89887 -3.23351,-4.08207 -4.76179,-6.18433 -5.10964,-7.36954 -8.79665,-15.57765 -13.05348,-23.43881 -1.09292,-1.84875 -2.26026,-3.70108 -3.8617,-5.15537 z" />
    <path
       style="fill:#000000;stroke:#ffffff;stroke-width:1.70709;stroke-dasharray:none;stroke-dashoffset:14.8961;stroke-opacity:1"
       d="m 210.12612,539.48567 28.20793,-25.65696 v -0.27008"
       id="path4" />
    <path
       style="fill:#000000;stroke:#000000;stroke-width:1.70709;stroke-dasharray:none;stroke-dashoffset:14.8961;stroke-opacity:1"
       d="m 242.73701,502.78853 1.40317,1.40316"
       id="path5" />
    <path
       style="fill:#000000;stroke:#000000;stroke-width:1.70709;stroke-dasharray:none;stroke-dashoffset:14.8961;stroke-opacity:1"
       d="m 236.09744,512.95779 1.40317,1.40316"
       id="path5-8" />
    <path
       style="fill:#000000;stroke:#000000;stroke-width:1.70709;stroke-dasharray:none;stroke-dashoffset:14.8961;stroke-opacity:1"
       d="m 236.30746,515.44175 1.40317,1.40316"
       id="path5-8-1" />
    <path
       style="fill:#000000;stroke:#000000;stroke-width:1.70709;stroke-dasharray:none;stroke-dashoffset:14.8961;stroke-opacity:1"
       d="m 233.88997,515.26933 1.40317,1.40316"
       id="path5-8-1-2" />
    <path
       style="fill:#000000;stroke:#000000;stroke-width:1.70709;stroke-dasharray:none;stroke-dashoffset:14.8961;stroke-opacity:1"
       d="m 233.88724,517.67352 1.40317,1.40316"
       id="path5-8-2" />
    <path
       style="fill:#000000;stroke:#000000;stroke-width:1.70709;stroke-dasharray:none;stroke-dashoffset:14.8961;stroke-opacity:1"
       d="m 234.09726,520.15748 1.40317,1.40316"
       id="path5-8-1-3" />
    <path
       style="fill:#000000;stroke:#000000;stroke-width:1.70709;stroke-dasharray:none;stroke-dashoffset:14.8961;stroke-opacity:1"
       d="m 231.67977,519.98506 1.40317,1.40316"
       id="path5-8-1-2-2" />
    <path
       style="fill:#000000;stroke:#000000;stroke-width:1.70709;stroke-dasharray:none;stroke-dashoffset:14.8961;stroke-opacity:1"
       d="m 231.37254,517.3993 1.40317,1.40316"
       id="path5-8-1-2-2-3" />
    <path
       style="fill:#000000;stroke:#000000;stroke-width:1.70709;stroke-dasharray:none;stroke-dashoffset:14.8961;stroke-opacity:1"
       d="m 229.34255,519.78467 1.40317,1.40316"
       id="path5-8-2-5" />
    <path
       style="fill:#000000;stroke:#000000;stroke-width:1.70709;stroke-dasharray:none;stroke-dashoffset:14.8961;stroke-opacity:1"
       d="m 224.5947,523.57183 1.40317,1.40316"
       id="path5-8-2-5-3" />
    <path
       style="fill:#000000;stroke:#000000;stroke-width:1.70709;stroke-dasharray:none;stroke-dashoffset:14.8961;stroke-opacity:1"
       d="m 229.55257,522.26863 1.40317,1.40316"
       id="path5-8-1-3-7" />
    <path
       style="fill:#000000;stroke:#000000;stroke-width:1.70709;stroke-dasharray:none;stroke-dashoffset:14.8961;stroke-opacity:1"
       d="m 217.74494,532.43749 1.40317,1.40316"
       id="path5-8-1-2-2-1" />
    <path
       style="fill:#000000;stroke:#000000;stroke-width:1.70709;stroke-dasharray:none;stroke-dashoffset:14.8961;stroke-opacity:1"
       d="m 215.40772,532.2371 1.40317,1.40316"
       id="path5-8-2-5-38" />
    <path
       style="fill:#000000;stroke:#000000;stroke-width:1.70709;stroke-dasharray:none;stroke-dashoffset:14.8961;stroke-opacity:1"
       d="m 215.61774,534.72106 1.40317,1.40316"
       id="path5-8-1-3-7-93" />
    <path
       style="fill:#000000;stroke:#000000;stroke-width:1.70709;stroke-dasharray:none;stroke-dashoffset:14.8961;stroke-opacity:1"
       d="m 213.2801,534.62031 1.40317,1.40316"
       id="path5-8-1-2-2-1-6" />
    <path
       style="fill:#000000;stroke:#000000;stroke-width:1.70709;stroke-dasharray:none;stroke-dashoffset:14.8961;stroke-opacity:1"
       d="m 213.09262,536.80117 1.40317,1.40316"
       id="path5-8-2-5-38-6" />
    <path
       style="fill:#000000;stroke:#000000;stroke-width:1.70709;stroke-dasharray:none;stroke-dashoffset:14.8961;stroke-opacity:1"
       d="m 210.72295,536.67237 1.40317,1.40316"
       id="path5-8-1-3-7-93-1" />
    <path
       style="fill:#000000;stroke:#000000;stroke-width:1.70709;stroke-dasharray:none;stroke-dashoffset:14.8961;stroke-opacity:1"
       d="m 210.74443,538.78555 1.40317,1.40316"
       id="path5-8-1-3-7-93-1-3" />
    <path
       style="fill:#000000;stroke:#000000;stroke-width:1.70709;stroke-dasharray:none;stroke-dashoffset:14.8961;stroke-opacity:1"
       d="m 226.85445,521.90912 1.40317,1.40316"
       id="path5-8-1-2-2-6" />
    <path
       style="fill:#000000;stroke:#000000;stroke-width:1.70709;stroke-dasharray:none;stroke-dashoffset:14.8961;stroke-opacity:1"
       d="m 226.93058,524.02213 1.40317,1.40316"
       id="path5-8-2-5-7" />
    <path
       style="fill:#000000;stroke:#000000;stroke-width:1.4585;stroke-dasharray:none;stroke-dashoffset:14.8961;stroke-opacity:1"
       d="m 222.04809,526.11115 1.41359,1.0167"
       id="path5-8-1-3-7-9" />
    <path
       style="fill:#000000;stroke:#000000;stroke-width:1.70709;stroke-dasharray:none;stroke-dashoffset:14.8961;stroke-opacity:1"
       d="m 224.53602,526.00626 1.40317,1.40316"
       id="path5-8-1-2-2-6-5" />
    <path
       style="fill:#000000;stroke:#000000;stroke-width:1.70709;stroke-dasharray:none;stroke-dashoffset:14.8961;stroke-opacity:1"
       d="m 217.62393,530.0389 1.40317,1.40316"
       id="path5-8-2-5-3-7" />
    <path
       style="fill:#000000;stroke:#000000;stroke-width:1.70709;stroke-dasharray:none;stroke-dashoffset:14.8961;stroke-opacity:1"
       d="m 220.00485,530.15352 1.40317,1.40316"
       id="path5-8-2-5-3-7-0" />
    <path
       style="fill:#000000;stroke:#000000;stroke-width:1.70709;stroke-dasharray:none;stroke-dashoffset:14.8961;stroke-opacity:1"
       d="m 225.17754,525.5106 1.40317,1.40316"
       id="path5-8-2-5-7-7" />
    <path
       style="fill:#000000;stroke:#000000;stroke-width:1.70709;stroke-dasharray:none;stroke-dashoffset:14.8961;stroke-opacity:1"
       d="m 222.0814,528.00922 1.40317,1.40316"
       id="path5-8-1-2-2-6-5-9" />
    <path
       style="fill:#000000;stroke:#000000;stroke-width:1.70709;stroke-dasharray:none;stroke-dashoffset:14.8961;stroke-opacity:1"
       d="m 219.74376,527.72451 1.40317,1.40316"
       id="path5-8-1-2-2-6-5-9-2" />
  </g>
</svg>
