<?xml version="1.0" encoding="UTF-8" standalone="no"?>
<!-- Created with Inkscape (http://www.inkscape.org/) -->

<svg
   width="8192"
   height="8192"
   viewBox="0 0 2167.4666 2167.4667"
   version="1.1"
   id="svg1"
   inkscape:export-filename="ackerman1.png"
   inkscape:export-xdpi="96"
   inkscape:export-ydpi="96"
   inkscape:version="1.4.2 (f4327f4, 2025-05-13)"
   sodipodi:docname="ackerman1.svg"
   xmlns:inkscape="http://www.inkscape.org/namespaces/inkscape"
   xmlns:sodipodi="http://sodipodi.sourceforge.net/DTD/sodipodi-0.dtd"
   xmlns="http://www.w3.org/2000/svg"
   xmlns:svg="http://www.w3.org/2000/svg">
  <sodipodi:namedview
     id="namedview1"
     pagecolor="#ffffff"
     bordercolor="#cccccc"
     borderopacity="1"
     inkscape:showpageshadow="0"
     inkscape:pageopacity="1"
     inkscape:pagecheckerboard="0"
     inkscape:deskcolor="#d1d1d1"
     inkscape:document-units="px"
     inkscape:export-bgcolor="#00c389ff"
     inkscape:zoom="0.06086681"
     inkscape:cx="575.02602"
     inkscape:cy="4049.8261"
     inkscape:window-width="1708"
     inkscape:window-height="871"
     inkscape:window-x="2391"
     inkscape:window-y="-9"
     inkscape:window-maximized="1"
     inkscape:current-layer="layer1" />
  <defs
     id="defs1" />
  <g
     inkscape:label="Capa 1"
     inkscape:groupmode="layer"
     id="layer1"
     transform="matrix(1.1835904,0,0,1.2977245,-265.74346,-485.80025)">
    <path
       id="path3"
       style="fill:#000000;stroke:#ffffff;stroke-width:5.49177;stroke-dasharray:none;stroke-dashoffset:0;stroke-opacity:1"
       d="m 1481.3915,453.75667 c -38.1916,1.18492 -75.8946,11.35693 -109.8821,28.42823 -29.3914,14.78284 -56.4044,33.59771 -84.799,50.08519 -0.482,0.22996 -0.8981,0.60756 -1.3936,0.78904 -3.028,-0.87376 -6.1444,-1.54224 -9.2134,-2.30967 -52.9966,-12.72401 -107.4651,-20.41158 -162.097,-19.80484 -37.1977,0.45449 -74.4848,4.99515 -110.2537,15.23581 -10.29015,2.90308 -20.40993,6.34969 -30.57354,9.65083 -8.63528,2.77877 -17.40474,5.25041 -26.44543,6.31424 -8.91395,0.9942 -18.1505,1.1984 -27.17149,0.65369 -18.43557,-1.05825 -36.50974,-5.26918 -54.24093,-10.3007 -15.62607,-4.49647 -31.06376,-9.74095 -46.49889,-14.8878 -39.48003,-13.29308 -78.87819,-27.4334 -119.9248,-35.33457 -28.54971,-5.48205 -57.81945,-7.86771 -86.86695,-5.71603 -34.92202,2.49108 -69.33146,11.13307 -101.34307,25.06268 -30.62103,13.27462 -59.19455,30.92313 -85.31428,51.46416 -21.98351,17.33813 -42.29714,36.74069 -60.60545,57.81872 -24.49618,28.38418 -45.04162,60.3375 -58.67486,95.16556 -12.87615,33.04045 -19.19237,68.77955 -16.67411,104.16814 2.54953,36.66049 14.09626,72.53506 32.52747,104.42386 19.65664,34.28783 46.28212,64.31963 76.05352,90.43099 34.19277,30.0379 72.47427,55.2431 112.29739,77.4203 21.49194,12.0617 43.62111,22.9675 65.42029,34.4717 4.81956,2.6155 9.68229,5.2335 14.03968,8.5632 3.24418,2.6077 6.20052,6.0959 6.62997,10.3502 0.42699,4.1742 -0.2202,8.365 -0.77727,12.4983 -1.78682,11.5603 -5.56791,22.6976 -9.25844,33.7852 -7.69788,22.7602 -16.60606,45.2172 -21.74094,68.7257 -3.3103,15.2893 -4.69535,31.159 -2.30947,46.6846 2.2988,15.2469 8.11791,30.0345 17.30858,42.546 11.81499,16.3394 28.74375,28.9679 47.81065,35.9752 17.90357,6.8834 37.16056,9.5166 56.26472,10.4076 33.81634,1.5232 67.47398,-3.1535 100.87496,-7.7527 11.64212,-1.5524 23.30248,-3.1956 35.00063,-4.1422 13.97885,-0.7181 27.91353,0.6086 41.7478,2.4926 29.91384,4.253 59.12656,12.3756 87.32292,22.995 17.19329,6.5106 34.04704,13.9155 50.36898,22.3287 21.55716,11.154 42.19496,24.2189 61.09606,39.2981 12.4055,9.8858 24.196,20.6907 34.4218,32.8387 8.6138,10.2884 16.3044,21.4314 21.9352,33.5903 3.4585,7.4189 5.9379,15.291 7.5062,23.2818 5.9415,28.6874 11.6516,57.4786 20.0971,85.5777 11.4815,38.7743 26.3329,76.6691 45.6756,112.3186 18.2555,33.7099 40.5485,65.3951 67.0924,93.3038 27.8526,29.3158 60.3775,54.5149 96.6204,73.0076 40.7434,20.9217 85.8384,33.7465 131.717,36.763 66.7368,4.5292 134.6609,-10.6514 192.9658,-42.9122 57.4945,-31.5261 106.1142,-78.8851 137.8786,-135.7205 29.3557,-52.28 44.8764,-111.9804 44.808,-171.7221 0.2829,-42.6138 -6.609,-85.1556 -19.2256,-125.8727 -5.1016,-16.6179 -11.2303,-32.9074 -17.7359,-49.0388 -3.9209,-9.8669 -8.0247,-19.6742 -11.4496,-29.7234 -4.461,-13.3535 -7.5433,-27.1813 -8.3054,-41.2236 -0.6719,-11.1515 -0.1143,-22.4569 1.843,-33.4342 3.9463,-22.1032 12.3429,-43.0946 21.7484,-63.4471 11.4554,-24.7452 24.1214,-48.9112 36.3453,-73.297 21.6381,-42.9157 42.7568,-86.2443 58.7194,-131.5711 19.0307,-53.9151 31.4405,-109.94449 39.1653,-166.46744 2.6124,-19.68583 4.4721,-39.63902 2.5901,-59.47487 -1.4589,-14.86237 -5.4019,-29.69201 -13.1512,-42.62371 -10.5728,-17.88042 -27.7429,-31.89168 -47.5981,-38.68037 -10.9351,-3.93102 -22.5187,-5.69499 -34.064,-6.76028 -8.2648,-0.93919 -16.7071,-1.71952 -24.5595,-4.44256 -8.27,-3.01007 -15.3629,-8.40947 -21.8392,-14.18263 -13.5214,-12.27246 -23.8835,-27.37713 -34.1776,-42.25762 -18.8351,-27.23759 -37.4371,-54.69187 -58.5331,-80.3102 -26.9382,-32.93383 -56.8051,-63.80776 -91.0515,-89.45801 -24.9733,-18.66429 -52.636,-34.08196 -82.3892,-43.98534 -24.3375,-8.14561 -50.0394,-12.30838 -75.7546,-12.0608 z" />
    <path
       id="path4"
       style="fill:#00c389;fill-opacity:1;stroke:#ffffff;stroke-width:5.29167;stroke-dasharray:none;stroke-dashoffset:0;stroke-opacity:1"
       d="m 1441.9434,621.66211 c -15.7693,0.47681 -31.3815,4.62278 -45.8179,10.98952 -18.7791,8.34672 -35.9437,19.76376 -53.2138,30.789 -13.5002,8.63078 -26.9338,17.52152 -41.5747,24.13929 -9.518,4.17261 -19.6488,7.32186 -30.085,7.84196 -7.9524,0.27402 -15.8339,-1.35978 -23.392,-3.70775 -34.0501,-9.51761 -69.0371,-15.55425 -104.3272,-17.78233 -27.9655,-1.67156 -56.2427,-0.59615 -83.7049,5.10641 -8.5394,1.79719 -16.9454,4.1672 -25.2017,7.03787 -12.7675,4.2843 -25.4709,8.90073 -38.67114,11.69597 -10.36294,2.20574 -20.90809,3.49825 -31.47502,4.21639 -24.91178,1.5887 -50.00242,-0.96127 -74.26594,-6.7025 -31.74098,-7.26369 -62.28224,-18.71223 -93.01956,-29.2893 -19.66498,-6.83219 -39.4155,-13.4467 -59.70431,-18.1568 -17.62678,-4.04228 -35.68447,-6.52879 -53.83203,-6.09375 -21.57741,0.46866 -42.93435,5.33789 -62.81039,13.76504 -20.29322,8.56614 -39.05334,20.433 -56.27542,34.11787 -16.24177,12.99566 -31.08607,27.72832 -44.30702,43.78285 -12.4818,15.38621 -23.14872,32.34611 -30.5636,50.74214 -6.61336,16.37667 -10.23426,34.13027 -9.35354,51.84879 0.84663,17.44332 6.03745,34.62346 14.15076,50.06673 10.16979,19.5786 24.42403,36.75061 40.19437,52.06135 18.94607,18.3594 40.30045,34.10499 62.38704,48.5026 25.76917,16.63684 52.97449,30.86774 80.37778,44.57414 12.82647,6.4947 25.38291,13.7948 36.25933,23.2771 13.47859,11.5842 24.64162,26.0736 31.40736,42.5706 7.26863,17.4413 9.87445,36.6992 8.1056,55.4825 -1.72322,21.3991 -7.89445,42.1235 -14.93053,62.3067 -5.48279,15.8579 -11.49753,31.5792 -15.55609,47.8866 -0.12673,0.5416 -0.2448,1.0856 -0.3376,1.6341 6.25055,1.4445 12.70794,1.6164 19.15504,1.7843 13.22086,0.1502 26.39611,-1.0733 39.50939,-2.5782 20.18049,-2.4255 40.19134,-6.27 60.4337,-8.2576 18.02557,-1.5381 36.16553,-0.382 54.09537,1.7307 45.54453,5.4832 89.883,18.9357 131.79275,37.3821 38.5679,17.0059 75.1708,38.7939 107.4716,65.9538 25.4187,21.338 47.7722,46.651 64.0826,75.6423 11.9062,21.0648 19.481,44.4178 23.3149,68.2657 5.6625,30.6662 13.1224,61.0854 23.9371,90.3682 10.1419,27.6224 23.0334,54.3794 39.4947,78.8044 15.9613,23.7038 35.3772,45.2033 58.2956,62.3741 19.4785,14.6103 41.5438,25.9379 64.9613,32.7964 23.1954,6.7958 47.6247,9.2184 71.7274,7.3823 44.9878,-3.444 88.6534,-22.0431 122.9343,-51.3843 25.6908,-21.9884 46.2232,-49.9967 59.0506,-81.307 9.8405,-23.8857 15.379,-49.5233 16.4785,-75.3105 1.4938,-32.1366 -3.2654,-64.3155 -12.7723,-95.0028 -4.5215,-14.8079 -10.138,-29.2344 -16.1141,-43.5091 -8.0188,-19.8037 -14.9868,-40.1883 -18.3835,-61.3417 -5.6002,-32.4976 -4.1786,-66.1926 4.1968,-98.089 6.4753,-25.5999 16.773,-50.0382 28.1775,-73.7936 18.2676,-38.3711 38.7053,-75.71 55.8619,-114.5999 12.8779,-29.2907 24.0323,-59.4192 32.2002,-90.36584 6.3038,-23.57082 11.0193,-47.51095 14.9621,-71.57885 2.1179,-12.77887 3.9808,-25.60304 4.742,-38.54556 0.023,-0.59802 0.058,-1.29807 0.078,-1.93555 -13.8881,-1.60582 -27.9051,-3.54588 -41.0595,-8.48772 -21.6345,-7.79849 -41.0951,-20.94626 -57.4864,-36.97374 -16.9927,-16.49373 -30.7942,-35.88968 -43.8091,-55.5702 -14.9636,-22.53947 -30.2244,-44.93641 -47.4299,-65.83387 -14.2226,-17.38529 -29.4894,-34.01237 -46.4814,-48.70733 -11.5689,-10.01955 -23.8739,-19.29207 -37.339,-26.62624 -12.0522,-6.5935 -25.0421,-11.64273 -38.6017,-13.94348 -5.9111,-1.00303 -11.9126,-1.51046 -17.9394,-1.44531 z" />
    <path
       style="fill:none;stroke:#ffca00;stroke-width:5.4387;stroke-dasharray:5.4387, 43.5095;stroke-dashoffset:0;stroke-opacity:1"
       d="m 492.59468,615.11855 c 191.69744,-121.81703 324.18945,73.42626 493.37844,5.83452 34.34088,-13.71924 72.22048,-19.30542 108.64938,-20.33683 88.4131,-2.50325 168.2826,21.82242 168.2826,21.82242 73.3538,-0.51692 202.5034,-244.21712 438.2861,103.43632 119.2177,175.78254 193.1502,-13.88422 153.5214,210.67992 -43.0235,243.8006 -197.7704,320.8997 -113.2398,500.9947 195.3182,416.1316 -440.583,667.2818 -549.596,100.1848 -28.7554,-149.5898 -282.27324,-244.0174 -399.21318,-221.6148 -340.26504,65.1867 6.24367,-158.0503 -190.2212,-246.0707 C 191.2314,885.81776 402.95935,672.07868 492.59468,615.11855 Z"
       id="path1"
       sodipodi:nodetypes="sssssssssss" />
  </g>
</svg>
