<?xml version="1.0" encoding="UTF-8" standalone="no"?>
<!-- Created with Inkscape (http://www.inkscape.org/) -->

<svg
   width="8192"
   height="8192"
   viewBox="0 0 2167.4666 2167.4667"
   version="1.1"
   id="svg1"
   inkscape:version="1.4.2 (f4327f4, 2025-05-13)"
   sodipodi:docname="ackerman5.svg"
   inkscape:export-filename="ackerman5.png"
   inkscape:export-xdpi="96"
   inkscape:export-ydpi="96"
   xmlns:inkscape="http://www.inkscape.org/namespaces/inkscape"
   xmlns:sodipodi="http://sodipodi.sourceforge.net/DTD/sodipodi-0.dtd"
   xmlns="http://www.w3.org/2000/svg"
   xmlns:svg="http://www.w3.org/2000/svg">
  <sodipodi:namedview
     id="namedview1"
     pagecolor="#ffffff"
     bordercolor="#cccccc"
     borderopacity="1"
     inkscape:showpageshadow="0"
     inkscape:pageopacity="1"
     inkscape:pagecheckerboard="0"
     inkscape:deskcolor="#d1d1d1"
     inkscape:document-units="px"
     inkscape:export-bgcolor="#00c389ff"
     inkscape:zoom="0.060866811"
     inkscape:cx="1577.2142"
     inkscape:cy="4164.8313"
     inkscape:window-width="1708"
     inkscape:window-height="871"
     inkscape:window-x="2391"
     inkscape:window-y="-9"
     inkscape:window-maximized="1"
     inkscape:current-layer="layer1" />
  <defs
     id="defs1">
    <inkscape:path-effect
       effect="bspline"
       id="path-effect1"
       is_visible="true"
       lpeversion="1.3"
       weight="33.333333"
       steps="2"
       helper_size="0"
       apply_no_weight="true"
       apply_with_weight="true"
       only_selected="false"
       uniform="false" />
  </defs>
  <g
     inkscape:label="Capa 1"
     inkscape:groupmode="layer"
     id="layer1">
    <path
       id="path2"
       style="fill:#000000;fill-opacity:1;stroke:#ffffff;stroke-width:5.08608538;stroke-dasharray:none;stroke-dashoffset:0;stroke-opacity:1"
       d="m 762.72852,134.26758 c -68.24753,2.3713 -136.11592,11.89342 -202.87545,26.04213 -56.97438,11.97632 -113.02109,27.85706 -168.92338,44.02427 -9.50983,1.80324 -19.20808,1.5875 -28.81335,2.50178 -23.8602,1.76533 -47.75407,3.86822 -71.27167,8.39986 -19.3809,3.70642 -38.51137,8.85012 -56.98624,15.80418 -21.90459,8.27256 -42.93581,19.21742 -61.36963,33.73964 -21.71537,17.02971 -39.98107,38.64331 -52.25782,63.41449 -14.18847,28.4957 -20.852297,60.5583 -19.99294,92.33803 0.63391,25.8107 5.69251,51.314 12.74825,76.08308 12.00566,42.41365 28.89736,83.30078 40.54909,125.81289 1.49918,5.64834 2.81244,11.36017 3.34157,17.16777 -14.95596,10.33143 -30.19518,20.4844 -43.24813,33.23112 -27.606869,26.57108 -47.567519,61.25375 -55.54677,98.80579 -7.146303,33.40244 -5.284081,68.5381 4.394683,101.23939 10.094023,34.10161 27.347585,65.83963 48.952597,93.99538 19.82617,25.87614 42.81795,49.26702 67.83404,70.14592 28.46285,23.7014 59.58203,44.1423 92.35609,61.3585 40.35986,21.1251 83.47645,37.1654 128.10023,46.488 43.72927,9.0526 89.12428,11.1802 133.30035,4.0762 36.10859,-5.8247 71.29706,-17.8931 102.94928,-36.2945 32.07259,-18.5797 60.4792,-43.3744 83.50344,-72.4041 9.54477,-11.9329 18.13938,-24.5784 26.48717,-37.366 3.76161,-5.66822 7.52775,-11.39278 12.54626,-16.09959 1.84588,-1.69065 4.47005,-2.12767 6.88443,-2.30892 9.88866,-0.4349 19.74371,1.47434 29.19945,4.21769 11.5255,3.38573 22.76499,7.79552 33.72116,12.74702 20.52335,9.3252 40.02657,20.7347 58.90128,33.0577 19.98913,13.1142 39.23922,27.2843 58.13999,41.9098 48.00366,37.3834 92.4604,79.063 135.2456,122.2525 11.1822,11.3156 22.1803,22.8109 33.1675,34.3153 -19.714,42.39 -34.7063,87.1096 -42.9623,133.1716 -7.9927,45.3994 -8.6124,92.1955 -0.8347,137.6708 5.8617,33.8726 17.0074,66.7907 32.5765,97.424 14.6232,28.7747 33.2062,55.5297 55.0637,79.2809 30.0278,32.8275 65.3272,60.6099 103.4707,83.406 20.4877,12.2581 41.7506,23.2073 63.494,33.0607 52.4183,23.7091 107.6195,40.7638 163.549,53.9414 64.9974,15.2649 131.1816,25.014 197.575,31.7045 36.3626,3.6383 72.8195,6.3603 109.3236,8.0611 38.567,1.7243 77.3452,1.7651 115.7183,-2.9209 22.254,-2.6788 44.4634,-6.7575 65.6566,-14.2036 21.7047,-7.5475 42.5338,-18.2468 60.0997,-33.1944 18.8456,-15.9687 33.9817,-36.4407 43.0404,-59.4636 12.5095,-31.6359 13.9876,-67.4482 4.406,-100.0711 -6.2825,-22.7091 -16.827,-44.043 -29.4422,-63.8659 -16.4217,-26.0729 -36.0888,-49.8888 -56.1484,-73.2166 -32.7712,-37.7853 -66.7285,-74.538 -98.847,-112.8862 -12.0571,-14.5075 -23.77,-29.3396 -34.0069,-45.1887 -0.5029,-0.7869 -0.9877,-1.5849 -1.4742,-2.3819 22.1254,-12.961 43.822,-26.9626 62.9898,-44.0861 25.2125,-22.2195 46.6411,-49.0635 61.0125,-79.5365 15.9309,-33.817 22.6768,-71.8613 19.5423,-109.101 -2.3589,-29.5174 -10.4614,-58.3867 -22.2432,-85.4853 -14.5525,-33.7637 -34.3456,-64.8764 -53.8166,-95.94764 -9.4087,-14.97955 -18.8335,-29.95503 -27.7719,-45.22626 12.9123,-12.65487 23.6058,-27.73108 30.3703,-44.54498 9.7864,-23.40388 12.5228,-49.83616 7,-74.64763 -7.6123,-34.5342 -30.487,-65.40818 -61.3655,-82.67041 -18.2133,-10.43379 -38.3016,-17.15548 -58.6686,-21.94737 -25.4183,-6.05328 -51.3191,-9.6863 -77.076,-13.9557 -32.9951,-5.36241 -66.0848,-10.24125 -98.9714,-16.21351 -24.2852,-4.44772 -48.4842,-9.47898 -72.2788,-16.11688 -21.0938,-5.97101 -41.8795,-13.31772 -61.4481,-23.24543 -10.7546,-5.537 -21.2236,-12.01212 -29.7186,-20.7198 -3.9707,-4.19426 -6.9593,-9.55542 -7.4251,-15.39106 -0.7259,-6.00949 -0.1286,-12.18469 0.6971,-18.09801 2.3555,-14.94993 7.9076,-29.11407 13.0677,-43.26077 10.5627,-28.69876 21.5524,-57.36328 28.4871,-87.20648 6.6119,-28.30585 10.3424,-57.58557 7.7012,-86.65173 -2.2986,-25.09368 -9.4516,-49.90029 -22.0957,-71.77208 -15.9001,-27.48441 -40.2905,-49.84423 -68.7547,-63.82967 -22.5081,-11.13859 -47.4314,-16.70944 -72.3908,-18.46125 -29.569,-2.08718 -59.2265,1.14122 -88.346,6.16854 -28.475,4.93492 -56.5865,11.70385 -84.7044,18.3363 -28.5301,6.78262 -57.0735,13.71536 -85.7086,19.91152 -18.1657,3.72934 -36.3982,7.43341 -54.8987,8.75874 -0.481,-0.079 -1.0438,0.41144 -1.2136,-0.23249 -13.7658,-25.26292 -33.1708,-47.31593 -55.97188,-64.80413 -17.77553,-13.76436 -37.57907,-24.82959 -58.42444,-33.20865 -12.37993,-4.97999 -25.12248,-9.03731 -38.0197,-12.44948 -26.607,-6.98611 -53.99632,-10.68968 -81.44257,-12.18362 -16.44655,-0.998 -32.93317,-1.25962 -49.40799,-1.20459 z" />
    <path
       id="path3"
       style="fill:#00c389;fill-opacity:1;stroke:#ffffff;stroke-width:5.08608538;stroke-dasharray:none;stroke-dashoffset:0;stroke-opacity:1"
       d="m 763.78516,354.00391 c -33.34195,1.19689 -66.53449,4.99853 -99.48315,10.161 -57.8524,9.22369 -114.81865,23.33992 -171.20354,39.14525 -17.66835,4.89848 -35.23435,10.113 -52.91071,14.98477 -7.0515,1.92736 -14.19403,3.54477 -21.43824,4.54057 -8.4149,1.2295 -16.91431,1.71884 -25.40429,2.08839 -20.42598,1.1102 -40.95955,2.21205 -61.06845,6.12878 -3.02345,0.59561 -6.03391,1.25757 -9.02483,2.00006 4.02088,15.62729 9.64888,30.76703 14.70287,46.07303 12.01158,35.21454 24.9063,70.28059 32.66015,106.74604 5.98949,28.57809 8.31522,58.14431 4.61192,87.19158 -4.18225,33.31071 -16.5703,65.63936 -36.18978,92.921 -14.63901,20.53865 -33.25978,38.08993 -54.01155,52.35399 -2.05968,1.4678 -4.1515,2.88947 -6.23454,4.32569 6.09024,10.4091 13.91627,19.64947 22.2111,28.34717 13.27984,13.64821 28.40188,25.36622 44.1173,36.06298 27.19526,18.26252 57.27892,32.3288 89.03411,40.50093 11.47987,2.95275 23.20175,5.00293 35.05936,5.78619 13.67489,0.83589 27.62698,0.19505 40.85734,-3.70054 9.55066,-2.77873 18.54924,-7.50379 26.11227,-13.98134 6.34241,-5.35854 11.70934,-11.82087 16.24816,-18.72367 6.6181,-9.73701 12.93144,-19.68362 19.73712,-29.29034 8.72445,-12.375 18.23036,-24.27002 29.17823,-34.76208 25.67484,-25.29178 56.97838,-45.07596 91.30611,-56.25959 33.82718,-11.1135 70.07198,-14.36179 105.41989,-10.48919 37.89035,4.04602 74.84705,14.90017 109.70661,30.1204 52.23615,22.76816 100.87928,53.08237 146.52848,87.02971 31.7679,23.59823 62.3725,48.74034 92.0197,74.94571 49.9509,44.1884 97.1231,91.4669 142.3307,140.4827 13.5285,14.6989 26.9327,29.5105 40.0062,44.6124 6.8323,7.9337 13.5673,15.9842 19.4709,24.6438 11.6403,17.9494 15.8542,40.2472 12.8154,61.3228 -1.9742,13.9179 -7.2004,27.3303 -14.997,39.0164 -6.5875,10.3542 -13.6984,20.3966 -19.5783,31.1872 -15.1961,26.6216 -27.3044,55.1613 -35.0819,84.8407 -4.0424,15.4797 -6.7219,31.3942 -7.3102,47.3821 -0.487,12.6637 0.2314,25.3564 2.8455,37.7791 3.5196,16.7746 10.4023,32.9606 20.2464,47.0416 12.345,17.9391 28.6435,32.9124 46.3528,45.5098 29.9665,21.5272 63.7077,37.1328 98.2878,49.6783 50.8841,18.4959 103.8973,30.498 157.2383,39.4407 51.4352,8.5841 103.3658,13.8781 155.3518,17.8581 18.0949,1.3375 36.2038,2.2814 54.3491,2.6902 -33.0655,-37.5581 -67.0592,-74.3501 -98.5861,-113.2338 -22.4725,-27.8605 -43.5284,-57.1293 -59.5707,-89.2261 -13.0529,-26.072 -22.5801,-54.1967 -25.5347,-83.3054 -2.2978,-22.4722 -0.6525,-45.417 5.5494,-67.1662 7.1851,-25.7096 20.4121,-49.6565 38.0702,-69.6551 15.2494,-17.4114 33.6777,-31.8981 53.7183,-43.4055 15.7758,-9.4397 32.1439,-18.0471 46.7891,-29.2462 3.4282,-2.6862 6.7253,-5.6556 9.1993,-9.2617 -0.1958,-1.1681 -0.5587,-2.3259 -0.8297,-3.4889 -3.1972,-11.8645 -9.1029,-22.7718 -14.9968,-33.4521 -12.0812,-21.6769 -25.9385,-42.2877 -38.9071,-63.4265 -16.0492,-25.7445 -32.0062,-51.7425 -43.6791,-79.82826 -10.4983,-25.34371 -16.8974,-52.6518 -16.5727,-80.18105 0.035,-3.14687 0.1527,-6.2929 0.376,-9.43176 -53.6068,-8.54533 -107.3932,-17.06392 -159.6992,-31.87905 -40.7475,-11.52641 -80.7206,-26.51532 -117.6961,-47.31445 -31.3934,-17.79329 -60.2019,-40.48929 -83.6406,-68.01414 -22.928,-26.95941 -40.0048,-58.913 -49.4348,-93.03064 -9.3025,-33.83549 -11.2366,-69.51363 -7.0067,-104.29401 3.0529,-25.21547 9.378,-49.93477 17.5298,-73.9578 3.3481,-9.98194 7.1093,-19.81772 10.8673,-29.65158 2.289,-6.01667 4.5618,-12.03885 6.7776,-18.08294 -25.6092,5.33889 -51.0114,11.70579 -76.4704,17.6984 -37.4982,9.01678 -75.0284,18.18762 -113.1605,24.14614 -31.1389,4.76825 -62.8857,7.2897 -94.3007,3.81384 -26.86268,-2.96628 -53.43435,-10.4866 -77.06776,-23.77004 -27.6409,-15.51325 -50.79536,-38.91588 -65.94602,-66.7624 -3.59843,-6.47875 -6.77958,-13.17726 -9.79295,-19.94429 -5.78957,-3.06334 -12.06606,-4.91689 -18.37521,-6.54905 -11.97439,-2.95505 -24.28916,-4.26473 -36.58292,-5.10905 -11.92495,-0.71002 -23.9353,-0.7342 -35.89538,-0.72276 z" />
    <path
       style="fill:none;fill-opacity:1;stroke:#ffc400;stroke-width:5.08619;stroke-dasharray:5.08619022,20.3447609;stroke-dashoffset:0;stroke-opacity:1"
       d="m 406.74892,318.63866 c 0,0 483.47675,-164.66818 545.99525,7.48491 62.51863,172.1531 587.67443,-213.32014 429.29413,164.66819 -158.3803,377.98833 575.1705,261.9721 429.2939,363.01849 -145.8765,101.0464 262.5779,295.65435 -16.6715,437.86775 -279.2495,142.2133 629.3534,561.3688 -125.0372,475.2922 -754.39043,-86.0765 -416.7903,-550.1414 -416.7903,-550.1414 0,0 -450.13349,-538.9141 -604.34591,-273.19955 C 494.27491,1209.3439 14.966084,853.81025 215.0254,737.79404 415.08475,621.77782 -14.209243,322.38112 406.74892,318.63866 Z"
       id="path1" />
  </g>
</svg>
