<?xml version="1.0" encoding="UTF-8" standalone="no"?>
<!-- Created with Inkscape (http://www.inkscape.org/) -->

<svg
   width="8192"
   height="8192"
   viewBox="0 0 2167.4666 2167.4667"
   version="1.1"
   id="svg1"
   inkscape:version="1.4.2 (f4327f4, 2025-05-13)"
   sodipodi:docname="ackerman2.svg"
   inkscape:export-filename="ackerman2.png"
   inkscape:export-xdpi="96"
   inkscape:export-ydpi="96"
   xmlns:inkscape="http://www.inkscape.org/namespaces/inkscape"
   xmlns:sodipodi="http://sodipodi.sourceforge.net/DTD/sodipodi-0.dtd"
   xmlns="http://www.w3.org/2000/svg"
   xmlns:svg="http://www.w3.org/2000/svg">
  <sodipodi:namedview
     id="namedview1"
     pagecolor="#ffffff"
     bordercolor="#cccccc"
     borderopacity="1"
     inkscape:showpageshadow="0"
     inkscape:pageopacity="1"
     inkscape:pagecheckerboard="0"
     inkscape:deskcolor="#d1d1d1"
     inkscape:document-units="px"
     inkscape:export-bgcolor="#00c389ff"
     inkscape:zoom="0.086078669"
     inkscape:cx="5239.3933"
     inkscape:cy="3758.1901"
     inkscape:window-width="1708"
     inkscape:window-height="871"
     inkscape:window-x="2391"
     inkscape:window-y="-9"
     inkscape:window-maximized="1"
     inkscape:current-layer="layer1" />
  <defs
     id="defs1" />
  <g
     inkscape:label="Capa 1"
     inkscape:groupmode="layer"
     id="layer1">
    <path
       id="path2"
       style="fill:#000000;fill-opacity:1;stroke:#ffffff;stroke-width:5.52506;stroke-dasharray:none;stroke-opacity:1"
       d="m 1220.1616,32.484181 c -23.5349,0.505462 -46.6456,6.648824 -68.4377,15.517054 -29.1007,11.841223 -55.9776,28.609542 -81.994,46.326703 -35.1924,24.048502 -67.8222,51.764352 -99.7225,80.181092 -7.68409,6.86517 -15.2701,13.84181 -22.85296,20.82465 C 917.82469,191.31856 889.35813,182.2426 862.00542,170.80237 824.76547,155.33415 788.81422,136.93709 752.57286,119.19091 706.42461,96.477827 660.23104,73.384547 611.50743,56.987753 570.67664,43.242531 527.96133,34.627193 484.90103,34.301085 427.22681,34.002176 369.6743,50.524349 320.24576,80.978329 c -35.97631,22.054231 -68.34892,49.993841 -96.93792,81.390811 -19.75494,21.65458 -38.14786,44.63679 -54.75288,68.93023 -2.84585,4.16372 -5.68465,8.34413 -8.07461,12.8062 -3.71612,6.70022 -7.14589,13.62897 -11.85939,19.6738 -3.94391,5.13662 -7.94428,10.22569 -11.84681,15.39611 -11.07821,14.59897 -21.68464,29.75379 -29.57875,46.45646 -13.179076,27.44555 -20.583486,57.64194 -22.783006,88.11425 -1.555827,21.50711 -0.518883,43.11432 1.311597,64.56635 0.235679,1.04217 -0.691756,1.79303 -1.038299,2.68469 -13.711091,24.97958 -21.672151,53.05188 -24.553067,81.51429 -3.734792,34.07681 -1.536191,68.68888 5.074718,102.24939 9.440321,48.84649 26.994381,96.12653 52.424437,138.56507 18.40303,30.70891 41.56164,58.68743 69.54332,80.60903 20.58712,16.13716 44.00546,28.64957 69.03716,35.62978 22.61206,6.37553 46.4504,8.23484 69.72394,5.19486 26.17077,-3.29396 51.55057,-12.3647 74.39,-25.8327 28.54953,-16.49246 53.5562,-38.8858 75.24003,-63.98026 14.31703,-16.3502 27.50652,-33.70568 42.06708,-49.84094 8.39634,-9.29789 17.58212,-18.04397 27.96969,-24.99907 5.49831,-3.58539 11.2896,-7.03322 17.74217,-8.3813 2.63148,-0.57839 5.42513,-0.43258 7.92626,0.62708 4.04806,1.53414 7.67309,4.03058 11.12321,6.65058 7.17212,5.59492 13.40016,12.46891 19.18369,19.54754 12.20035,15.10632 22.2509,31.95754 31.31739,49.23515 15.23499,29.18142 27.56894,59.86612 38.49028,90.99163 7.05474,20.14653 13.37197,40.55902 19.12096,61.14438 4.61435,16.39054 8.86241,32.90206 13.13803,49.39676 2.3999,9.0096 4.74603,18.2047 9.46221,26.286 8.38191,14.7532 22.01612,26.1911 37.65491,31.9266 10.0142,3.862 20.56445,6.009 30.75449,9.2275 57.50757,16.7921 113.65271,38.5713 167.17695,66.0182 30.38447,15.5891 59.81085,33.3829 87.05505,54.2833 12.217,9.3876 24.0159,19.3741 35.1003,30.132 16.7552,16.4001 31.8161,34.7944 43.2974,55.5032 8.7857,15.9261 15.1831,33.4285 17.8045,51.556 2.1591,14.7835 1.9489,29.984 -0.3112,44.7513 -3.502,23.3758 -11.5503,45.8255 -21.7581,66.9283 -12.4913,25.8615 -28.5259,49.7218 -45.693,72.5091 -20.8285,27.8684 -42.4681,55.2301 -60.3302,85.2655 -17.03411,28.457 -31.4057,58.7752 -40.85923,90.7993 -8.12929,27.7236 -12.16633,56.8823 -10.30011,85.8402 1.3272,21.0411 5.81121,41.8803 13.44727,61.4567 10.28084,26.5948 26.03212,50.8775 45.62807,71.1861 22.8167,23.7961 50.055,42.7311 78.9395,57.8656 38.9379,20.4572 80.8213,34.3269 123.2418,44.86 31.0815,7.6748 62.5565,13.6077 94.2016,18.213 51.4296,7.4571 103.2957,11.3259 155.1803,13.3259 29.3752,1.0927 58.7845,0.6207 88.1568,1.8062 15.0456,1.1634 30.0926,2.7615 45.2005,2.5179 17.0041,-0.08 33.9936,-1.1024 50.9273,-2.653 31.5336,-3.0209 62.8849,-8.3635 93.551,-16.5264 37.0801,-9.8918 73.2188,-23.7628 107.1219,-42.1407 36.2423,-19.8052 69.5985,-45.4598 97.4019,-76.5598 34.6924,-38.8284 59.4876,-86.7893 71.9274,-137.8862 7.1463,-29.3329 10.4506,-59.5937 10.6081,-89.813 0.1318,-34.4549 -3.8866,-68.833 -10.6127,-102.5542 -9.6378,-48.1288 -25.1059,-94.8451 -43.5188,-140.1282 -20.2667,-49.599 -44.4054,-97.4556 -70.7352,-143.9281 -24.5828,-43.0746 -51.3553,-84.7785 -78.2773,-126.3393 -10.349,-16.1901 -20.9609,-32.3834 -28.4154,-50.2533 -2.0357,-4.9432 -3.8541,-9.9584 -4.53,-15.2487 0.774,-2.8632 2.2658,-5.4438 3.2525,-8.2268 4.8374,-11.5161 9.7784,-23.3094 17.9688,-32.7683 6.7551,-7.8419 14.8578,-14.202 22.616,-20.9433 39.7652,-34.0622 79.9712,-67.66532 117.8117,-103.98665 32.2456,-30.72984 64.0025,-62.0711 93.6797,-95.44757 27.8723,-31.71473 52.311,-66.78228 71.2149,-104.90011 13.8047,-27.86981 24.3992,-57.51855 30.2468,-88.24385 6.1913,-32.38152 7.1988,-65.92561 1.8661,-98.51266 -6.8486,-42.27578 -23.6418,-82.71442 -48.097,-117.3925 -19.1695,-27.40139 -42.4932,-51.64863 -68.4881,-72.23627 -26.0136,-20.59036 -54.4403,-37.95959 -84.4449,-51.66137 -26.6795,-12.16487 -54.6137,-21.47031 -83.2197,-27.45362 -27.6476,-5.73003 -56.0655,-8.15885 -84.2159,-5.71761 -21.0181,1.85903 -41.9496,6.69561 -61.1151,15.91065 -6.3008,3.10445 -12.0277,7.29233 -17.5268,11.68885 -7.6629,6.20529 -14.8229,13.02503 -22.2455,19.52635 -46.7928,41.60167 -96.1464,80.22271 -148.0832,114.81767 -27.9952,18.59026 -56.6315,36.16954 -86.1664,52.07202 -28.1749,15.09462 -57.2696,28.61131 -87.5599,38.59468 -14.2158,4.66184 -28.7272,8.59495 -43.5094,10.49324 -6.778,0.85454 -13.7847,1.29765 -20.5294,0.78545 -3.0145,-0.28077 -6.1108,-0.75569 -8.9157,-1.8355 -1.1523,-1.11342 -1.373,-2.82951 -1.9432,-4.27558 -2.3519,-7.54717 -3.0039,-15.48005 -3.3972,-23.34287 -0.4835,-14.11295 0.899,-28.19049 2.7036,-42.15685 4.1835,-30.54739 12.5713,-60.22016 20.9287,-89.76647 11.9559,-42.17601 24.5346,-84.27502 32.449,-127.49852 5.4925,-29.4797 9.5219,-59.37532 9.5955,-89.44175 0.041,-21.87724 -2.3679,-43.91881 -8.8798,-64.80705 -5.8011,-18.73399 -15.3027,-36.389173 -28.4725,-50.725306 -13.8415,-15.171912 -25.593,1.377671 -44.9607,-4.572178 -12.4165,-3.844441 -31.5885,-33.194644 -44.5443,-33.037545 z"
       sodipodi:nodetypes="ccccccccccccccccccccccccccccccccccccccccccccccccccccccccccccccccccccccccccccccccccccccccccccccccccccccc" />
    <path
       id="path3"
       style="fill:#00c389;fill-opacity:1;stroke:#ffffff;stroke-width:5.15266;stroke-dasharray:none;stroke-opacity:1"
       d="m 490.5445,265.42036 c -19.30458,0.4385 -38.46984,5.46847 -55.68261,14.33641 -21.63342,11.06994 -40.82981,26.53491 -57.7778,43.92544 -15.33947,15.77396 -29.67447,32.59905 -42.19265,50.75043 -6.63183,10.25325 -12.21133,21.21204 -19.7232,30.86899 -8.25281,11.11103 -17.15246,21.80997 -24.69938,33.41022 -1.90005,2.81436 -3.60018,5.82342 -4.43984,9.14786 -1.61863,6.28446 -2.05245,12.84718 -2.32857,19.27337 -0.45916,16.08324 1.63705,32.06052 3.75222,47.95836 2.23473,16.40132 4.97917,32.74396 6.4908,49.23501 0.27484,9.07118 -4.20369,17.92226 -11.07869,23.63885 -4.61115,3.90199 -10.31853,6.27101 -16.1656,7.52353 -1.6333,0.39573 -3.27654,0.76462 -4.87097,1.30399 -2.55612,11.34656 -2.38587,23.12574 -1.29953,34.6866 2.44857,25.43158 9.88519,50.36082 21.11373,73.25056 6.78522,13.82454 14.94101,27.16481 25.72813,38.19543 4.28207,4.23944 8.71412,8.55545 14.21179,11.1486 1.473,0.64496 3.10909,1.40638 4.7376,0.89921 2.19528,-0.57619 4.23855,-1.71905 6.24706,-2.68507 10.18495,-5.3369 18.61528,-13.39785 26.53055,-21.68464 10.81688,-11.44668 20.52469,-23.88531 30.85267,-35.76998 15.46041,-17.96436 31.72149,-35.40336 50.31079,-50.12517 22.20452,-17.77022 47.01421,-32.59168 74.02338,-41.5399 28.31476,-9.44204 58.97211,-12.02301 88.35897,-6.64036 25.30751,4.59456 49.58906,14.54062 71.14237,28.65688 10.06939,6.56546 19.47961,14.10821 28.45046,22.12064 20.11675,18.06939 37.43733,39.13386 52.41226,61.67295 23.0434,34.51686 41.11883,72.1305 56.91064,110.49803 14.45773,35.37947 26.13641,71.84106 36.85251,108.53203 65.23833,20.9022 128.95086,47.1404 188.91351,80.55817 34.1195,19.0435 66.747,25.5352 96.8249,50.6024 13.9239,11.646 30.436,14.6857 43.007,27.8138 28.2283,29.4963 67.645,54.074 84.7692,91.3277 17.3922,38.0179 51.5865,110.4442 52.0919,152.3392 0.507,39.1978 -18.8859,81.4243 -32.0148,118.2662 -15.2617,43.0759 -12.8821,74.2393 -39.538,111.1678 -19.6912,27.3919 -7.4895,65.6778 -25.9675,93.9566 -9.6499,15.182 0.3188,3.5985 -4.9342,20.8989 -2.1456,7.212 5.5675,36.2553 6.4478,43.7856 0.519,3.4382 -0.8961,0.4131 1.1575,3.1171 5.1721,6.5854 -28.1426,14.8838 -21.267,19.541 9.7682,6.522 -1.188,11.8829 9.575,16.5776 16.3929,7.1066 -18.7942,18.8003 -1.5891,23.5539 33.294,9.152 67.329,15.0431 101.5283,19.4262 18.3887,2.3639 36.8047,4.3356 55.2916,5.6986 39.7272,2.9964 79.5848,3.7997 119.4141,4.2803 14.5878,0.2187 29.1755,0.7964 43.7089,2.1143 10.36,0.8188 20.8218,0.9975 31.1847,0.2663 24.1226,-1.2621 48.2195,-4.3805 71.7197,-10.0615 23.1916,-5.5555 45.9665,-13.2707 67.2641,-24.1751 17.5717,-9.0062 34.2856,-20.1616 48.1515,-34.4334 11.1209,-11.3875 20.2264,-24.8296 26.3248,-39.6049 6.6297,-16.0036 9.85,-33.1957 10.9292,-50.4399 1.3328,-21.8112 -0.853,-43.7086 -4.7561,-65.1382 -5.8726,-31.5327 -15.5904,-62.2447 -27.3336,-92 -6.6906,-16.9187 -13.9625,-33.6039 -21.7101,-50.0655 -24.3279,-51.5052 -53.646,-100.4554 -84.5969,-148.1517 -15.454,-23.9477 -31.2862,-47.6545 -46.039,-72.0505 -14.6408,-24.7377 -26.4954,-51.3946 -32.8436,-79.572 -4.7868,-21.2436 -6.0117,-43.4185 -2.543,-64.9687 2.9933,-18.6247 9.4815,-36.4834 17.2642,-53.5752 6.2528,-13.7283 13.0263,-27.247 20.9581,-40.0756 7.6051,-12.33236 16.3215,-23.99389 26.3536,-34.42744 15.369,-16.17271 32.7947,-30.12731 49.7785,-44.4974 29.8759,-25.09653 59.7969,-50.20975 88.2612,-76.9239 28.5613,-26.64836 56.599,-53.89745 82.6902,-83.03719 15.2292,-17.70827 28.8813,-36.99795 39.1396,-58.05712 7.6222,-15.62777 13.5064,-32.57096 14.2949,-50.13708 0.497,-10.60675 -0.9045,-21.40603 -4.5841,-31.34506 -5.5015,-15.17657 -14.9489,-28.65616 -26.0593,-40.15367 -12.4439,-12.83661 -26.9569,-23.41977 -42.3078,-32.42277 -20.162,-11.69605 -42.2049,-20.22976 -64.9807,-24.94325 -9.4595,-1.92097 -19.0282,-3.03388 -28.6899,-2.63633 -1.0312,0.7025 -1.8841,1.64116 -2.8797,2.39665 -27.9219,23.88999 -56.206,47.36707 -85.5942,69.40896 -33.232,24.97958 -67.62,48.3795 -102.9203,70.27946 -35.3786,21.87016 -71.8237,42.08374 -109.7148,59.18312 -29.0376,13.06932 -58.9507,24.27028 -89.7073,32.47314 -28.3893,7.42699 -57.7423,11.57911 -87.1082,10.83137 -28.7338,-0.8516 -57.4574,-7.64178 -83.0309,-21.03771 -21.9161,-11.48222 -41.1041,-28.12715 -55.9008,-48.06579 -9.5152,-12.78099 -17.2058,-26.92682 -22.8756,-41.8467 -9.646,-24.96926 -14.1166,-51.7597 -14.8286,-78.48949 -1.1649,-37.6873 4.252,-75.27026 12.5415,-111.93212 10.4156,-45.91382 -2.1497,-26.02313 9.1841,-71.6872 1.7609,-7.15028 -27.3183,-29.69203 -25.812,-36.89553 -31.8437,22.10124 -2.8026,-1.60423 -31.6995,24.21555 -10.9094,9.674 -21.7019,19.48245 -32.9125,28.80089 -13.20302,10.10714 -29.40594,15.98059 -45.89282,17.24602 -15.02981,1.36491 -30.13062,0.0587 -45.09635,-1.46569 -19.77898,-2.12239 -39.44107,-5.47688 -58.73521,-10.37624 -30.32805,-7.59155 -59.77621,-18.41654 -88.46514,-30.85469 -34.10151,-14.69084 -67.37091,-31.24985 -100.91277,-47.18568 -25.5982,-12.23692 -51.17297,-24.56127 -77.36222,-35.47263 -20.25809,-8.22816 -41.02651,-15.67408 -62.42484,-20.31126 -13.48248,-2.88028 -27.22801,-4.34822 -41.00825,-4.20096 z"
       sodipodi:nodetypes="cccccccccccccccccccccccccccccccccccccccccccccccccccccccccccccccccccccccccccccccccccccccccccccccc" />
    <path
       id="path1"
       style="fill:none;stroke:#ffc300;stroke-width:5.42057;stroke-dasharray:5.42057, 43.3645;stroke-dashoffset:0;stroke-opacity:1"
       d="m 1209.8848,151.24631 c -5.4485,0.21296 -10.9005,1.11241 -16.1806,2.43625 -10.7181,2.72677 -20.96,6.99713 -30.9581,11.75618 -15.9961,7.71339 -31.1426,17.05502 -45.9299,26.92872 -31.8771,21.43098 -61.665,45.90761 -90.5741,71.29727 -16.5511,14.61063 -32.5639,29.83664 -48.45189,45.19346 -2.32962,2.21122 -5.43437,3.38971 -8.57477,3.6652 -3.49584,0.33395 -7.00739,-0.0407 -10.50942,-0.0531 -31.89182,-0.99646 -63.45612,-7.40029 -93.83933,-17.14164 -31.72176,-10.08814 -62.32882,-23.47001 -92.43265,-37.74707 -37.79296,-17.98336 -74.9067,-37.41746 -112.77252,-55.24487 -24.13795,-11.32947 -48.64221,-21.94484 -73.80639,-30.60601 -27.10471,-9.2779 -55.14078,-16.16773 -83.68502,-18.23513 -20.13085,-1.4451 -40.5101,-0.45386 -60.29423,3.54384 -23.94502,4.78113 -47.07754,13.8837 -68.27091,26.202 -25.12337,14.52927 -47.84459,33.14358 -68.36269,53.81036 -21.64031,21.83666 -41.13151,45.81893 -58.91869,70.99754 -2.09067,3.51623 -3.2424,7.51132 -5.29949,11.0484 -7.69315,14.52195 -18.4866,26.9576 -28.53537,39.7621 -7.74866,9.91633 -14.99802,20.32099 -20.03772,31.95761 -7.51228,17.08047 -10.84403,35.81763 -11.5971,54.45717 -0.8318,19.38566 0.65797,38.79199 3.30923,57.96053 0.88336,6.56228 1.89211,13.10606 2.87214,19.65387 -10.12879,8.01359 -17.69206,19.20639 -22.34724,31.26358 -5.86888,15.41868 -8.3907,32.12398 -8.89598,48.66452 -1.00512,33.65005 5.28757,67.10545 15.76465,98.94039 9.20562,27.80194 22.07046,54.36634 38.92048,78.18277 11.93461,16.76068 26.14459,32.01767 43.04131,43.60885 12.42131,8.50153 26.51001,14.74577 41.37528,16.93512 9.85832,1.48758 20.04023,1.1611 29.83105,-0.84473 11.53084,-2.30814 22.62694,-6.87446 32.85745,-12.7103 14.79602,-8.4797 28.07359,-19.48815 40.1691,-31.58052 8.95915,-8.96201 17.23774,-18.64565 25.1381,-28.6087 7.84028,-9.84688 15.53118,-19.83251 23.92893,-29.19602 15.04822,-16.93459 31.67435,-32.59215 50.53259,-45.02155 15.71331,-10.31902 33.21203,-18.23166 51.75445,-21.23288 16.66297,-2.70938 33.95816,-1.27788 49.95422,4.21418 14.79996,5.06683 28.43343,13.28288 40.62332,23.16679 13.92777,11.32908 26.02597,24.83387 36.90401,39.17546 10.93981,14.51139 20.61189,29.99452 29.47443,45.90516 15.14073,27.41711 27.79532,56.19529 39.03915,85.47895 14.58856,38.32973 26.77496,77.58754 36.987,117.35764 1.72738,6.75202 3.36768,13.5307 4.98613,20.3129 51.23788,13.7961 101.36456,31.7824 150.01606,53.1895 43.61015,19.3418 85.92113,41.9788 125.32773,69.2069 28.2276,19.5822 54.8824,41.7221 78.2079,67.2128 20.5155,22.389 38.3146,47.5555 51.2939,75.2542 9.7999,20.829 16.654,43.1151 20.0465,65.9676 2.8135,18.7265 3.314,37.8073 1.5431,56.6656 -2.7548,30.353 -11.0223,60.0042 -22.8098,87.9471 -15.925,38.0063 -38.1242,72.9507 -62.9954,105.4517 -11.5714,15.1515 -23.7286,29.8569 -34.7516,45.4447 -13.3182,18.6753 -25.5183,38.2174 -35.5407,58.9631 -8.0294,16.6607 -14.7711,34.1384 -18.555,52.3599 -2.4463,11.8333 -3.6476,23.9723 -2.9609,36.0996 0.6434,11.9545 3.15,23.8547 7.7309,34.9434 4.7046,11.5584 11.5216,22.2649 19.6248,31.6891 13.5018,15.7553 30.3261,28.2166 48.0218,38.5866 19.52,11.4008 40.3551,20.2037 61.552,27.7076 32.3333,11.3634 65.7819,19.2042 99.395,25.4424 43.2991,7.9208 87.0924,12.653 130.9766,15.6197 41.5634,2.7826 83.2679,3.6431 124.9257,3.0169 5.4197,-0.081 10.8922,-0.1449 16.2269,0.9804 8.139,1.4256 16.3542,1.8847 24.5862,2.2642 15.9719,0.6079 31.9682,-0.065 47.887,-1.2726 22.2734,-1.8145 44.375,-5.2567 66.2199,-10.0416 34.196,-7.69 67.6834,-19.1274 98.8558,-35.5009 20.0924,-10.5395 39.1121,-23.2952 56.1799,-38.4625 17.0385,-15.1132 32.0559,-32.7438 43.8604,-52.4476 10.8379,-17.9758 19.0028,-37.6449 24.3758,-58.0147 9.6222,-36.3313 10.6025,-74.5817 6.4815,-111.869 -2.8273,-25.3158 -8.0192,-50.364 -14.6708,-74.8879 -10.1445,-37.2092 -23.8407,-73.3036 -39.4332,-108.4591 -20.1318,-45.2219 -43.6421,-88.8093 -68.9387,-131.2343 -19.6499,-32.8561 -40.5553,-64.9053 -61.906,-96.6186 -14.4168,-21.7395 -28.0489,-44.3019 -37.1102,-68.9757 -5.3911,-14.7691 -9.1525,-30.4261 -8.6796,-46.2817 0.3037,-10.5281 2.6227,-20.9368 6.3823,-30.7274 3.2565,-8.7026 7.0669,-17.1727 10.8939,-25.6258 7.2062,-15.4293 15.9281,-30.2993 27.3822,-42.8593 13.6182,-15.2301 29.6995,-27.81579 45.2789,-40.83857 26.4742,-21.91512 52.8562,-43.96021 78.1003,-67.35298 31.6947,-29.03542 62.6072,-58.97732 92.4473,-89.99732 23.1311,-24.52434 44.1969,-51.20336 61.3462,-80.45502 14.6976,-25.15215 26.3059,-52.42654 31.8219,-81.24738 3.5035,-18.2199 4.5096,-37.03325 2.3803,-55.49046 -2.5741,-22.53751 -9.6818,-44.57152 -20.5302,-64.43375 -14.8187,-27.32726 -35.8368,-50.7519 -59.7909,-70.02905 -24.3896,-19.63268 -51.8655,-35.20189 -80.7979,-46.69625 -21.3217,-8.45393 -43.5906,-14.62292 -66.2776,-17.58274 -11.8867,-1.54714 -23.8956,-2.21852 -35.8897,-1.45153 -10.0815,0.69562 -20.2842,2.18733 -29.8252,5.66869 -0.9595,0.36853 -2.0448,0.69622 -2.8088,1.48722 -2.3449,2.00435 -4.4818,4.24747 -6.8429,6.2333 -59.5344,54.25668 -123.6721,103.22009 -191.4002,146.29791 -41.6364,26.3667 -84.8954,50.28379 -130.2092,69.42924 -28.2062,11.84422 -57.3721,21.69147 -87.4822,26.99797 -19.2672,3.34599 -39.0501,4.58702 -58.4646,1.80121 -16.7919,-2.49998 -33.3228,-8.48168 -47.0173,-18.87432 -12.7497,-9.63956 -22.7666,-22.84987 -29.1882,-37.62625 -7.8979,-17.78269 -11.1805,-37.32377 -12.1463,-56.71556 -1.076,-22.65136 1.035,-45.33446 4.5013,-67.69304 5.0674,-32.1759 13.3363,-63.72574 22.7578,-94.83502 6.8691,-22.98885 13.8975,-45.91648 19.7196,-69.20729 6.6756,-26.28595 12.3732,-52.90796 15.804,-79.84902 1.8099,-14.81421 2.7882,-29.74529 2.1959,-44.6889 -0.5018,-10.06027 -1.9205,-20.26787 -5.4303,-29.79236 -1.1363,-2.92736 -2.5054,-5.69412 -4.2025,-8.1854 -2.7249,-4.08571 -6.5613,-7.46658 -11.1313,-9.2002 -4.3854,-1.72105 -9.1156,-2.19337 -13.749,-2.06169 z" />
  </g>
</svg>
