<?xml version="1.0" encoding="UTF-8" standalone="no"?>
<!-- Created with Inkscape (http://www.inkscape.org/) -->

<svg
   width="8192"
   height="8192"
   viewBox="0 0 2167.4666 2167.4667"
   version="1.1"
   id="svg1"
   inkscape:version="1.4.2 (f4327f4, 2025-05-13)"
   sodipodi:docname="ackerman4.svg"
   inkscape:export-filename="ackerman4.png"
   inkscape:export-xdpi="96"
   inkscape:export-ydpi="96"
   xmlns:inkscape="http://www.inkscape.org/namespaces/inkscape"
   xmlns:sodipodi="http://sodipodi.sourceforge.net/DTD/sodipodi-0.dtd"
   xmlns="http://www.w3.org/2000/svg"
   xmlns:svg="http://www.w3.org/2000/svg">
  <sodipodi:namedview
     id="namedview1"
     pagecolor="#ffffff"
     bordercolor="#cccccc"
     borderopacity="1"
     inkscape:showpageshadow="0"
     inkscape:pageopacity="1"
     inkscape:pagecheckerboard="0"
     inkscape:deskcolor="#d1d1d1"
     inkscape:document-units="px"
     inkscape:export-bgcolor="#00c389ff"
     inkscape:zoom="0.086078669"
     inkscape:cx="4321.6282"
     inkscape:cy="3363.2026"
     inkscape:window-width="1708"
     inkscape:window-height="871"
     inkscape:window-x="2391"
     inkscape:window-y="-9"
     inkscape:window-maximized="1"
     inkscape:current-layer="layer1" />
  <defs
     id="defs1">
    <inkscape:path-effect
       effect="bspline"
       id="path-effect1"
       is_visible="true"
       lpeversion="1.3"
       weight="33.333333"
       steps="2"
       helper_size="0"
       apply_no_weight="true"
       apply_with_weight="true"
       only_selected="false"
       uniform="false" />
  </defs>
  <g
     inkscape:label="Capa 1"
     inkscape:groupmode="layer"
     id="layer1">
    <path
       id="path2"
       style="fill:#000000;fill-opacity:1;stroke:#ffffff;stroke-width:4.70746663;stroke-dasharray:none;stroke-dashoffset:0;stroke-opacity:1"
       d="m 725.21484,120.94531 c -40.09489,1.17832 -79.77728,10.85713 -116.3559,27.19176 -35.21735,15.64031 -68.55245,35.34085 -99.9265,57.6693 -11.87996,8.43858 -23.43528,17.31953 -34.85627,26.36551 -5.24041,4.07839 -10.48591,8.18826 -15.97365,11.93882 -3.18503,1.85844 -6.57719,3.33197 -9.7676,5.18351 -16.21731,8.82539 -31.09823,19.87119 -45.43339,31.44765 -12.57769,10.20893 -24.76385,20.89034 -36.83575,31.68762 -33.9069,30.45632 -66.33023,62.50905 -98.72215,94.55941 -31.20954,31.08096 -62.02049,62.61636 -91.18159,95.63972 -13.60184,16.03252 -25.74708,33.30117 -36.22992,51.52581 -10.19351,17.83864 -18.76548,36.69198 -24.46181,56.45782 -7.94368,27.83708 -10.07056,57.54839 -4.54687,86.04989 6.89308,35.68568 25.21676,69.07201 51.69452,93.98701 18.72359,18.1023 41.08209,32.1966 64.90212,42.58171 32.82234,14.6034 67.98585,23.21564 103.37805,28.79502 33.79109,5.22553 67.9592,7.53527 102.10567,8.80074 38.13763,0.91084 76.2672,-0.75111 114.38906,-1.6013 15.99516,0.64533 31.91782,3.02476 47.86218,4.47767 32.41972,3.4476 64.92744,6.65568 96.94329,12.84757 18.45319,3.71826 36.69589,8.48573 54.13663,15.63768 1.90348,0.80469 3.79213,1.64672 5.63965,2.57349 -5.95779,13.36639 -14.37614,25.40906 -22.52032,37.49974 -14.36571,20.90906 -29.42124,41.38358 -42.26715,63.28384 -12.85867,21.5226 -23.8991,44.18 -32.18032,67.8564 -12.16529,33.9401 -19.17639,69.964 -18.44915,106.1019 0.6614,37.8882 9.71892,75.6222 26.48975,109.6114 15.85125,32.3965 38.10923,61.5255 64.54209,86.0129 30.82214,28.7937 66.42091,52.2013 104.20157,70.8062 42.04768,20.7976 86.49681,36.7751 132.22063,47.2831 26.17858,5.7774 52.82949,8.9171 79.31359,12.9177 119.4313,17.4498 238.8626,34.8996 358.2938,52.3495 32.3777,20.426 67.1506,37.3869 103.9488,48.1931 40.7729,11.7989 83.9781,15.5175 126.1037,9.9842 44.9702,-5.8791 88.284,-22.4991 126.4725,-46.833 28.8271,-18.4023 54.8838,-40.9286 78.2325,-65.8747 27.2561,-29.2079 50.7228,-61.8541 70.6318,-96.4556 9.7248,-16.969 18.6775,-34.4621 25.3551,-52.8748 4.5361,-12.7209 7.7961,-25.8481 10.7018,-39.0247 6.8423,-29.4638 13.7895,-59.0819 15.8622,-89.3422 2.9883,-43.9952 -4.016,-88.6778 -20.6255,-129.537 -5.6476,-13.9536 -12.4214,-27.4417 -20.1318,-40.3692 -17.374,-29.426 -39.3219,-55.9764 -63.763,-79.78977 -20.8063,-20.38651 -43.246,-39.05808 -66.7094,-56.30157 -28.125,-20.68583 -57.6689,-39.3706 -87.8196,-56.94942 -44.5785,-25.93277 -90.7133,-49.0731 -137.4296,-70.87932 -22.5846,-10.58556 -45.1991,-21.10806 -67.806,-31.64917 56.9395,-20.93305 113.8968,-42.01098 169.1289,-67.17773 33.4176,-15.22598 66.4518,-31.48863 97.6832,-50.86868 32.3482,-20.30743 62.3876,-44.79003 86.7294,-74.35639 18.349,-22.35794 32.9209,-48.00361 41.4255,-75.7096 9.5991,-30.90693 11.513,-64.21266 5.2154,-95.97553 -5.7508,-30.10726 -18.4513,-58.72653 -36.0416,-83.77132 -12.5304,-17.99744 -27.2539,-34.4122 -43.3488,-49.28686 -14.3979,-13.29912 -29.8166,-25.48476 -45.988,-36.5525 -29.5858,-20.18588 -61.882,-36.31044 -95.6077,-48.32369 -31.1364,-11.41209 -63.0494,-20.74916 -95.5112,-27.55249 -37.3311,-7.68922 -75.5138,-11.79554 -113.6532,-10.58762 -37.9879,1.31802 -75.9166,8.44562 -111.3182,22.42328 -42.8702,16.99194 -81.4586,44.87571 -110.6047,80.6609 -10.6741,13.02798 -20.0815,27.04531 -28.6912,41.5064 -6.223,10.13522 -12.5086,20.35784 -20.6053,29.10894 -15.0556,16.17645 -33.5939,28.7141 -53.3194,38.4821 -23.0879,11.40111 -48.1427,18.68646 -73.6656,21.67217 -18.0194,2.08542 -36.4309,1.85173 -54.2543,-1.61171 -9.7384,-1.91216 -19.26422,-4.8816 -28.16502,-9.29647 -7.00744,-3.48486 -13.67966,-7.92326 -19.34593,-13.43714 -5.7139,-5.50632 -10.47614,-11.90935 -14.01279,-19.0269 -5.44818,-10.96535 -8.68907,-22.94708 -12.3867,-34.63052 -4.88398,-15.50879 -9.97103,-30.99873 -16.67027,-45.83636 -4.28162,-9.58311 -9.32394,-18.8188 -14.7936,-27.77397 -16.80035,-27.27529 -39.06926,-51.43454 -65.99365,-68.95126 -28.21224,-18.35428 -61.08076,-29.27901 -94.5745,-32.16262 -7.00128,-0.61027 -14.03063,-0.87201 -21.0585,-0.80037 z" />
    <path
       style="fill:none;stroke:#ffb200;stroke-width:4.70757;stroke-dasharray:4.70757, 37.6607;stroke-dashoffset:0;stroke-opacity:1"
       d="m 513.32543,350.63623 c 0,0 257.82966,-246.33517 315.70979,-15.23723 57.88013,231.09795 392.00628,182.84674 484.08838,10.15816 92.082,-172.68859 357.8043,-43.17215 357.8043,-43.17215 0,0 267.5361,131.23006 -23.6781,271.73054 -302.8625,146.12039 -570.8999,129.70186 -173.6405,304.74454 450.0405,198.29921 375.0563,324.05151 349.9116,439.34001 0,0 -134.1765,309.8237 -378.8515,129.5165 l -452.51742,-66.0281 c 0,0 -389.81895,-81.8255 -176.27135,-360.6143 C 1027.8511,744.34419 579.03018,766.05193 555.42005,751.88321 c 0,0.0691 -510.397498,49.07581 -265.72241,-203.16303 C 519.60483,311.70577 513.32543,350.63623 513.32543,350.63623 Z"
       id="path1"
       sodipodi:nodetypes="csscsscccscsc" />
    <path
       id="path3"
       style="fill:#00c389;stroke:#ffffff;stroke-width:4.70757;stroke-dasharray:none;stroke-dashoffset:0;stroke-opacity:1;fill-opacity:1"
       d="m 722.0957,337.53711 c -11.78069,1.95499 -22.95609,6.47884 -33.72259,11.5603 -18.35449,8.70478 -35.53079,19.6621 -52.26365,31.1253 -27.02679,18.92246 -51.57781,41.07612 -75.74421,63.45121 -10.9738,10.03715 -21.66625,20.44895 -33.58579,29.37768 -7.95917,5.89286 -17.57016,9.19316 -27.27874,10.7582 -0.69206,0.14985 -1.51603,0.0279 -1.95619,0.69685 -47.79183,44.76675 -94.19816,91.01072 -139.41704,138.36335 -6.39171,6.75644 -12.66258,13.64351 -18.42632,20.94836 19.99272,4.87208 40.52775,7.2631 61.01265,8.97515 38.55048,3.12951 77.30213,2.65918 115.92288,1.10408 14.42936,-0.49375 28.85907,-1.20709 43.30009,-1.14918 10.80765,0.37096 21.43303,2.6178 32.14603,3.77218 8.86761,1.05678 17.79657,1.6681 26.68591,2.6319 47.15171,4.68409 94.44011,9.85521 140.5764,21.00384 35.27002,8.50292 69.94794,20.36564 101.84455,37.82252 27.25719,15.03666 52.1738,34.82833 71.37788,59.45065 20.14201,25.84853 33.51439,57.0147 37.88035,89.52097 3.90929,28.43363 1.36051,57.60804 -6.43083,85.18133 -8.91171,32.27006 -23.87875,62.6003 -41.90218,90.7144 -15.45262,24.209 -33.21112,46.8759 -48.23607,71.3692 -8.14418,13.4709 -15.22627,27.8272 -19.0325,43.1244 -2.248,9.1771 -3.53308,18.8299 -1.2583,28.1091 1.80801,7.3951 5.74236,14.0326 10.36493,20.0141 7.11927,9.0111 15.80477,16.7146 24.93899,23.5795 14.21191,10.5486 29.69877,19.2857 45.68483,26.8365 20.17535,9.4835 41.18356,16.9682 62.53826,23.3172 17.57806,5.0246 35.74376,7.1989 53.79356,9.9232 139.9536,20.5759 279.9078,41.148 419.8609,61.7263 11.1191,2.4789 21.2637,8.0534 30.6037,14.4265 15.3754,10.4192 30.8816,20.9309 48.0185,28.2822 11.9779,5.1136 24.6141,8.8282 37.6402,9.8564 4.7912,0.4018 9.6925,0.3162 14.4355,-0.1953 9.9807,-1.0531 19.6866,-4.1055 28.675,-8.5295 12.726,-6.2327 24.286,-14.838 34.7753,-24.3216 17.0223,-15.4641 31.2606,-33.6709 43.9885,-52.7755 7.2283,-10.9148 13.8842,-22.2376 19.4722,-34.0829 2.6873,-7.0584 3.7392,-14.5303 5.6432,-21.807 3.8482,-16.478 7.8352,-33.0077 9.3205,-49.9084 0.8135,-10.1227 0.1,-20.6128 -3.4868,-30.2223 -3.581,-9.828 -9.233,-18.7512 -15.4473,-27.1087 -10.5301,-14.0018 -23.1724,-26.2643 -36.378,-37.6992 -24.0055,-20.7583 -50.2311,-38.8037 -77.3215,-55.2764 -16.6223,-10.1073 -33.5209,-19.7578 -50.5897,-29.0893 -48.138,-26.1591 -98.1555,-48.5991 -147.8059,-71.68658 -36.3698,-16.91465 -72.7887,-33.8294 -107.8892,-53.28576 -23.7024,-13.21489 -46.8562,-27.60597 -67.9893,-44.6841 -16.1237,-13.11339 -30.8074,-28.27988 -41.8876,-45.94528 -11.0958,-17.73936 -18.4299,-38.01299 -20.0327,-58.93959 -2.4559,-30.88885 6.9272,-62.61419 26.104,-86.99031 12.8753,-16.82622 29.455,-30.55565 47.5403,-41.46158 22.2098,-13.62728 46.2651,-23.87755 70.4257,-33.48173 34.9205,-13.73416 70.3423,-26.14243 105.5295,-39.1733 53.0492,-19.50649 106.1931,-38.99259 157.4987,-62.7987 20.7883,-9.61178 41.3272,-19.87664 60.9859,-31.62701 12.4504,-7.5749 24.5242,-16.07326 34.6948,-26.54537 0.7206,-0.74174 1.3718,-1.42979 2.0273,-2.20508 -6.75,-8.79265 -15.428,-15.82432 -24.101,-22.62243 -12.9648,-9.91895 -27.2052,-18.11847 -42.2752,-24.35721 -13.313,-5.56303 -27.0355,-10.05489 -40.8334,-14.2655 -8.7752,-2.67686 -17.6061,-5.21383 -26.5348,-7.3319 -23.7022,-5.70382 -48.0183,-9.15329 -72.4353,-8.61882 -10.7952,0.24841 -21.6259,1.46639 -32.0598,4.45047 -10.7019,3.03404 -21.3363,8.31896 -28.8238,16.85139 -6.5976,7.43368 -11.3336,16.22654 -16.5583,24.61506 -9.5449,15.78062 -19.9876,31.04311 -31.8482,45.18081 -9.3478,11.17425 -19.4545,21.70325 -30.0598,31.69113 -26.4405,24.82031 -56.4554,45.75644 -88.6324,62.44626 -47.3508,24.66858 -99.1686,40.76725 -152.1915,47.09349 -45.4916,5.44355 -92.0226,3.526 -136.6189,-7.23021 -31.24553,-7.523 -61.48173,-19.48048 -89.07865,-35.99541 C 844.5858,531.93179 823.72714,515.29789 805.63071,496.03956 779.053,467.85092 758.4206,434.24344 744.4619,398.14524 c -3.41682,-8.75471 -6.3936,-17.70196 -9.08711,-26.68445 -3.62378,-11.49164 -6.86012,-23.14227 -11.78495,-34.1522 -0.49804,0.0762 -0.99609,0.15235 -1.49414,0.22852 z" />
  </g>
</svg>
