<?xml version="1.0" encoding="UTF-8" standalone="no"?>
<!-- Created with Inkscape (http://www.inkscape.org/) -->

<svg
   width="8192"
   height="8192"
   viewBox="0 0 2167.4666 2167.4667"
   version="1.1"
   id="svg1"
   inkscape:version="1.4.2 (f4327f4, 2025-05-13)"
   sodipodi:docname="ackerman3.svg"
   inkscape:export-filename="ackerman3.png"
   inkscape:export-xdpi="96"
   inkscape:export-ydpi="96"
   xmlns:inkscape="http://www.inkscape.org/namespaces/inkscape"
   xmlns:sodipodi="http://sodipodi.sourceforge.net/DTD/sodipodi-0.dtd"
   xmlns="http://www.w3.org/2000/svg"
   xmlns:svg="http://www.w3.org/2000/svg">
  <sodipodi:namedview
     id="namedview1"
     pagecolor="#ffffff"
     bordercolor="#cccccc"
     borderopacity="1"
     inkscape:showpageshadow="0"
     inkscape:pageopacity="1"
     inkscape:pagecheckerboard="0"
     inkscape:deskcolor="#d1d1d1"
     inkscape:document-units="px"
     inkscape:export-bgcolor="#00c389ff"
     inkscape:zoom="0.086078669"
     inkscape:cx="4379.7146"
     inkscape:cy="3421.289"
     inkscape:window-width="1708"
     inkscape:window-height="871"
     inkscape:window-x="2391"
     inkscape:window-y="-9"
     inkscape:window-maximized="1"
     inkscape:current-layer="layer1" />
  <defs
     id="defs1">
    <inkscape:path-effect
       effect="bspline"
       id="path-effect1"
       is_visible="true"
       lpeversion="1.3"
       weight="33.333333"
       steps="2"
       helper_size="0"
       apply_no_weight="true"
       apply_with_weight="true"
       only_selected="false"
       uniform="false" />
  </defs>
  <g
     inkscape:label="Capa 1"
     inkscape:groupmode="layer"
     id="layer1">
    <path
       id="path2"
       style="fill:#000000;stroke:#ffffff;stroke-width:6.36174;stroke-opacity:1;fill-opacity:1"
       d="m 964.33823,241.12988 c -99.43236,1.29595 -198.86535,7.46038 -297.55512,20.45704 -36.21069,4.86216 -72.30032,10.79915 -108.12875,18.1776 -37.11672,7.68751 -73.96957,17.00378 -110.07739,28.90612 -42.27576,14.08076 -83.49018,32.16284 -121.73696,55.86829 -41.91007,26.17444 -79.6442,60.1536 -109.26054,100.97518 -24.32882,33.51266 -43.22644,71.18258 -57.28989,110.60888 -12.72432,35.642 -22.02464,72.53722 -29.54311,109.74903 -4.43251,22.11086 -8.34695,44.33547 -11.73247,66.64949 -11.50218,76.37494 -15.9958,153.98515 -12.32377,231.244 2.96029,62.02979 11.48637,123.83969 26.51895,183.92729 8.51677,34.1106 19.15671,67.6501 32.185,100.1533 17.71856,44.3363 39.73974,86.7922 65.87562,126.2682 33.6334,50.9211 73.45704,97.1761 117.30458,138.5674 51.2735,48.3926 108.00975,90.2093 167.90814,125.924 79.89477,47.6073 165.37627,84.5061 253.38634,111.8969 71.45445,22.1935 144.64597,38.1842 218.57967,47.8649 54.49437,7.0983 109.40977,10.8127 164.32977,10.5928 63.8188,-0.2611 127.6677,-5.8482 190.4994,-17.7035 57.9748,-10.9664 115.0646,-27.4431 169.8391,-50.3111 44.4873,-18.5528 87.4068,-41.3796 127.605,-68.7204 36.1747,-24.572 70.1336,-52.7633 101.103,-84.2472 45.6072,-46.2187 85.1296,-98.8425 118.9593,-155.0845 38.8564,-64.6358 70.1878,-134.1559 94.4476,-206.2051 24.0016,-71.4071 40.989,-145.4337 50.3042,-220.5404 7.5365,-61.18353 9.7368,-123.20346 4.9189,-184.72927 -4.6326,-58.37783 -16.1057,-116.34438 -36.1198,-171.08786 -19.2947,-52.82048 -46.8219,-102.34025 -81.3679,-145.72998 -17.0384,-21.38753 -35.723,-41.32157 -55.6642,-59.72164 -25.6377,-23.64859 -53.3964,-44.70853 -82.5987,-63.21467 -49.8835,-31.83085 -103.6057,-56.68575 -158.8722,-76.16416 -78.3251,-27.85401 -159.5411,-45.8178 -241.2698,-58.34621 -80.5928,-12.34371 -161.8519,-19.48377 -243.1992,-23.2693 -48.9767,-2.22023 -98.007,-2.83998 -147.02477,-2.75513 z" />
    <path
       id="path3"
       style="fill:#00c389;stroke:#ffffff;stroke-width:4.71117;stroke-opacity:1;fill-opacity:1"
       d="m 964.27251,496.91533 c -60.43846,0.74077 -120.87018,3.56432 -181.00928,9.68167 -45.45306,4.85929 -90.87185,10.94536 -135.55837,20.72618 -24.04174,5.27989 -47.91673,11.51687 -71.18683,19.5453 -19.6888,6.84563 -39.00223,15.05869 -57.28123,25.12805 -21.14548,11.66085 -40.76397,26.26539 -57.31356,43.86243 -9.38497,9.97336 -17.68713,20.99126 -24.85174,32.61525 -9.27426,15.01353 -16.74724,31.12172 -22.772,47.68418 -9.64632,26.2963 -15.99859,53.64056 -21.42987,81.06512 -6.45215,32.83825 -10.86779,66.07084 -13.02573,99.47303 -1.93889,30.16707 -2.06518,60.49779 -0.11558,90.67274 3.28392,50.02652 12.50869,99.79882 29.34691,147.13792 10.15241,28.5565 23.19975,56.1451 39.18283,81.9563 18.99173,30.7497 41.96866,58.9846 67.44465,84.6415 38.18594,38.4016 81.98918,71.0244 128.73241,98.4638 45.47414,26.6666 93.73829,48.4658 143.50929,65.9552 46.41989,16.2942 94.11546,28.8577 142.49328,37.862 40.38525,7.503 81.25331,12.5398 122.29461,14.8056 35.2647,1.9349 70.6984,1.8553 105.9398,-0.518 50.9657,-3.4694 101.6524,-11.8967 150.6198,-26.523 46.9154,-14.0459 92.1923,-34.0142 133.1813,-60.8136 21.3162,-13.9203 41.397,-29.6255 59.9071,-47.065 31.8606,-29.8988 59.2439,-64.211 82.7552,-100.8927 26.3721,-41.2282 47.5909,-85.606 64.2822,-131.4845 14.7725,-40.7746 25.8327,-82.8744 32.927,-125.6272 6.7281,-40.86099 9.668,-82.39922 7.7844,-123.8016 -1.3728,-29.15092 -5.4531,-58.20844 -13.0137,-86.41265 -7.9323,-29.55285 -19.7479,-58.17128 -35.9901,-84.20757 -19.2517,-31.00719 -44.2354,-58.3624 -72.9994,-80.91809 -30.1953,-23.7345 -64.0511,-42.62223 -99.3124,-57.79212 -38.7228,-16.65586 -79.2164,-28.98276 -120.2293,-38.7147 -38.0072,-8.98135 -76.5427,-15.56812 -115.25,-20.80354 -38.6812,-5.15427 -77.5763,-8.78687 -116.5226,-11.42962 -50.7668,-3.26612 -101.6665,-4.34926 -152.53909,-4.27238 z" />
    <path
       id="path1"
       style="fill:none;stroke:#ffd100;stroke-width:5.59799987;stroke-opacity:1;stroke-dasharray:5.59800005, 44.7840004;stroke-dashoffset:0"
       d="m 976.18135,375.13719 c -90.65361,0.54975 -181.34802,5.40904 -271.35659,16.55694 -55.81414,7.10999 -111.47697,16.41592 -165.87301,31.15126 -40.48722,11.02138 -80.28686,25.42238 -117.22178,45.70248 -32.49125,17.91041 -62.42372,41.06113 -86.55051,69.60617 -21.65067,25.64418 -38.43952,55.28303 -50.83279,86.55629 -14.43753,36.28305 -23.67979,74.4194 -31.24872,112.71145 -12.53767,63.95499 -18.89912,129.21511 -18.02668,194.44062 0.90233,66.64398 9.69415,133.3801 28.54899,197.3027 16.01545,54.2465 39.70127,106.2809 71.15971,153.1151 28.89537,43.1526 63.62453,82.1317 101.98727,116.8079 54.43692,49.1696 115.99277,89.8623 181.00898,123.1098 62.16382,31.7889 127.59974,56.807 194.6034,75.8662 58.05762,16.4857 117.34516,28.4635 177.17401,36.0017 65.43367,8.1934 131.58207,10.8862 197.42767,7.1706 58.3046,-3.3514 116.3903,-11.9182 172.9251,-26.8676 50.7177,-13.4424 100.1509,-32.2142 146.5291,-57.0686 52.8185,-28.2619 101.3276,-64.875 142.6896,-108.6011 44.5842,-46.704 81.8095,-100.3322 112.1598,-157.5092 33.9304,-63.8622 59.4933,-132.2184 76.6802,-202.6166 14.5652,-59.7242 22.9892,-121.0852 23.6957,-182.64241 0.4945,-45.686 -3.6901,-91.54544 -14.169,-136.02565 -10.8916,-46.07877 -29.0008,-90.56778 -54.766,-130.16962 -24.3736,-37.62715 -55.2078,-70.84372 -90.2617,-98.41223 -42.2164,-33.44537 -89.9063,-59.24331 -139.5093,-79.46131 -51.5806,-21.06779 -105.337,-36.22943 -159.6725,-47.95245 -66.0742,-14.1695 -133.1471,-23.09957 -200.3746,-29.31231 -75.3706,-6.84426 -151.066,-9.55895 -226.72635,-9.46013 z" />
  </g>
</svg>
