<?xml version="1.0" encoding="UTF-8" standalone="no"?>
<!-- Created with Inkscape (http://www.inkscape.org/) -->

<svg
   width="4096"
   height="4096"
   viewBox="0 0 1083.7333 1083.7333"
   version="1.1"
   id="svg1"
   inkscape:export-filename="pista6.png"
   inkscape:export-xdpi="96"
   inkscape:export-ydpi="96"
   inkscape:version="1.4.2 (f4327f4, 2025-05-13)"
   sodipodi:docname="pista6.svg"
   xmlns:inkscape="http://www.inkscape.org/namespaces/inkscape"
   xmlns:sodipodi="http://sodipodi.sourceforge.net/DTD/sodipodi-0.dtd"
   xmlns="http://www.w3.org/2000/svg"
   xmlns:svg="http://www.w3.org/2000/svg">
  <sodipodi:namedview
     id="namedview1"
     pagecolor="#ffffff"
     bordercolor="#cccccc"
     borderopacity="1"
     inkscape:showpageshadow="0"
     inkscape:pageopacity="1"
     inkscape:pagecheckerboard="0"
     inkscape:deskcolor="#d1d1d1"
     inkscape:document-units="px"
     inkscape:export-bgcolor="#00c389ff"
     inkscape:zoom="0.12173362"
     inkscape:cx="2070.0937"
     inkscape:cy="2723.159"
     inkscape:window-width="1708"
     inkscape:window-height="871"
     inkscape:window-x="2391"
     inkscape:window-y="-9"
     inkscape:window-maximized="1"
     inkscape:current-layer="layer1" />
  <defs
     id="defs1" />
  <g
     inkscape:label="Capa 1"
     inkscape:groupmode="layer"
     id="layer1">
    <path
       id="path4"
       style="fill:#000000;stroke:#ffffff;stroke-width:7.93749976;stroke-dasharray:none;stroke-opacity:1;fill-opacity:1"
       d="m 428.32422,28.503906 c -12.79933,0.193862 -25.56634,1.497147 -38.20811,3.465107 -21.64681,3.406969 -42.9039,8.933054 -63.84691,15.322964 -42.86724,13.192734 -84.12812,31.069924 -124.46815,50.55615 -12.48882,6.097863 -24.8018,12.864573 -35.44771,21.886213 -12.99717,10.68256 -24.59651,23.38076 -32.55621,38.29145 -8.18001,15.29088 -12.24485,32.725 -11.77475,50.0549 0.3138,14.91011 3.8482,29.60726 9.22281,43.47039 6.21107,16.17752 15.00866,31.21865 24.50846,45.66122 1.05671,1.74918 0.9618,3.87168 1.42584,5.80457 7.53467,42.58072 15.01222,85.17152 22.5002,127.76047 -6.52462,22.37461 -8.99415,46.09332 -5.88343,69.25458 2.84416,20.70421 11.48967,40.83588 25.72887,56.26736 13.63638,14.80975 31.82946,25.12757 51.25199,30.17488 20.56839,5.59297 42.13618,6.48173 63.31283,4.95972 19.15265,-1.32732 38.09624,-4.68651 56.8456,-8.71513 2.29885,0.50999 4.51146,1.33611 6.79203,1.91811 20.37426,5.96584 40.73568,12.59394 59.4631,22.75549 5.07345,2.80398 9.89464,5.98906 14.15568,9.97123 0.61342,0.57314 1.21261,1.16183 1.79426,1.76728 -2.93156,4.47193 -6.84887,8.171 -10.92306,11.58779 -7.38751,6.18945 -15.09111,11.98642 -22.3376,18.34571 -14.66626,12.77697 -28.37126,26.96774 -38.6211,43.5931 -7.89426,12.66799 -13.44905,26.98401 -14.8721,41.90918 -1.51678,15.4835 1.95742,31.30945 9.34543,44.96122 7.09837,13.1948 17.83908,24.12521 29.88163,32.89316 13.6718,9.96096 29.00735,17.48112 44.91574,23.13446 6.05921,2.04697 12.31348,3.82323 18.743,4.03298 5.03611,0.0772 10.16074,-0.66677 15.02747,0.96163 5.79109,1.85609 10.97129,5.25363 15.67056,8.95817 7.82819,6.29823 15.22254,13.12248 22.62422,19.90253 7.26979,6.72214 14.58465,13.39063 22.04284,19.90304 17.96083,15.7737 36.82262,30.62965 57.15736,43.23842 35.63807,22.64918 74.30916,40.27553 114.2314,53.90021 38.75955,13.34515 78.61036,23.76834 119.2152,29.61844 27.33022,3.7062 55.19155,4.5931 82.55892,0.7514 20.96987,-3.0977 41.61315,-9.5657 59.90528,-20.4132 20.49593,-12.20498 37.49609,-30.44734 47.54189,-52.14039 6.6079,-14.1726 10.6005,-29.72815 10.4462,-45.42347 -0.4123,-7.94752 -3.7201,-15.41185 -7.7112,-22.17828 -10.643,-18.2686 -25.0223,-34.01914 -40.29503,-48.50978 -23.49484,-22.24235 -50.26458,-40.66115 -77.78544,-57.52725 -26.41492,-16.05969 -54.24994,-29.56896 -81.82706,-43.48297 -15.85973,-8.19601 -31.41943,-17.41129 -44.53602,-29.64377 -5.45124,-5.14116 -10.50505,-10.99986 -13.31511,-18.03206 -0.83874,-2.51916 -1.0241,-5.20672 -0.2924,-7.78558 1.57357,-5.23954 5.43449,-9.32717 9.16817,-13.14942 3.43608,-3.48761 6.87831,-7.04597 9.37884,-11.29051 3.3791,-5.69876 6.11901,-11.77111 8.29938,-18.02398 5.49698,-15.87163 7.07499,-33.07971 4.53011,-49.68459 -1.95505,-13.04699 -6.37738,-25.69337 -12.82892,-37.19378 -9.37669,-17.0272 -22.50298,-31.76235 -37.2938,-44.27504 -19.63886,-16.73361 -42.07041,-29.83396 -65.18271,-41.12865 -25.62553,-12.52363 -52.51481,-22.22092 -79.56646,-31.16611 -17.97958,-5.95622 -36.0228,-11.74191 -53.82103,-18.19596 -15.27082,-5.55965 -30.34915,-11.59937 -44.90874,-18.84562 -7.40122,-3.73638 -14.64793,-7.88043 -21.185,-13.00533 -1.23594,-0.96355 -2.24022,-2.20107 -2.85653,-3.64575 -1.46514,-2.89028 -2.65783,-6.05982 -3.7992,-9.14623 -2.4121,-7.18176 -3.53925,-14.81795 -2.59485,-22.33768 0.64718,-5.03877 2.36744,-10.01629 5.2872,-14.24425 4.52979,-6.66595 11.10896,-11.64008 18.02523,-15.6232 10.4496,-5.97462 21.8955,-9.69378 33.4987,-12.67476 21.36637,-5.37673 43.42697,-7.21487 65.39562,-8.21084 40.93772,-1.93924 81.8932,-4.0219 122.67093,-8.24666 30.63115,-3.15816 61.18421,-7.4177 91.31377,-13.83468 21.13931,-4.54505 42.11513,-10.23626 62.1314,-18.48517 14.05998,-5.87238 27.71886,-13.19974 39.14764,-23.39077 8.49787,-7.59199 15.62435,-16.96856 19.50191,-27.75836 4.31348,-11.77557 4.64733,-24.97763 0.82338,-36.93039 -3.39005,-11.02589 -9.9754,-20.90429 -18.24489,-28.87798 -10.04193,-9.95939 -22.22924,-17.46679 -34.88372,-23.6387 -17.3727,-8.31741 -35.99057,-13.77245 -54.83599,-17.577286 -15.15352,-2.899829 -30.52959,-4.554769 -45.93244,-5.347171 -7.57128,0.256685 -14.95114,4.590554 -18.62081,11.258942 -1.77816,0.988646 -3.73664,1.470981 -5.61026,2.3067 -13.4266,4.936175 -27.55009,7.954555 -41.64158,10.390765 -19.72068,3.4127 -39.60477,5.63674 -59.58019,6.80253 -18.48688,1.0155 -37.12221,1.29749 -55.60782,0.0975 -12.64166,-0.84227 -25.22885,-2.41428 -37.54257,-5.38194 -5.07913,-1.24802 -10.12241,-2.77951 -14.79169,-5.11639 -0.73832,-0.42535 -1.59763,-0.79033 -2.19049,-1.36786 -5.62831,-22.386131 -19.40383,-42.7201 -38.44361,-55.844616 -13.78273,-9.534195 -29.91711,-15.283491 -46.37733,-18.02243 -10.70557,-1.813512 -21.5882,-2.454572 -32.43907,-2.376008 z" />
    <path
       style="fill:none;stroke:#ffea00;stroke-width:5.2916665;stroke-dasharray:5.2916665,15.87502002;stroke-opacity:1;stroke-dashoffset:0"
       d="m 200.3766,138.88309 c 0,0 275.03886,-148.8126433 310.38685,-25.8631 4.61061,64.54851 251.76736,39.9586 277.89413,9.22122 126.7494,7.39127 235.33122,117.14199 -189.92745,131.48117 -214.27777,7.22517 -154.2541,136.28962 -136.99706,148.74042 12.4754,9.0009 30.04478,25.13091 129.44845,56.13755 236.90729,73.89767 165.36403,171.96715 165.36403,171.96715 0,0 -84.20015,63.42204 67.94214,135.14627 152.14232,71.72423 175.56821,135.10875 175.56821,135.10875 0,0 -0.48989,128.27948 -228.70328,65.2491 C 543.13915,903.04123 546.94773,796.07825 468.5674,803.76259 c 0,0 -145.82485,-39.93855 -5.96974,-142.90879 46.10608,-36.88487 45.64268,-79.99054 -90.67529,-115.2652 C 157.71662,598.75688 214.4163,436.48772 216.69857,433.39714 L 190.57179,284.32082 C 133.70763,205.94049 160.418,166.54674 200.3766,138.88309 Z"
       id="path3"
       sodipodi:nodetypes="cccssscscscccccc" />
    <path
       id="path5"
       style="fill:#00c389;stroke:#ffffff;stroke-width:7.93749976;stroke-dasharray:none;stroke-opacity:1;fill-opacity:1"
       d="m 428.05664,95.222656 c -21.64696,0.503492 -42.94636,5.060794 -63.81694,10.530164 -36.97898,9.78054 -72.53727,24.17884 -107.37251,39.84093 -12.47479,5.69229 -24.97461,11.38318 -36.95674,18.0667 -3.20662,1.81659 -6.4506,3.62093 -9.28868,5.99359 -6.84923,5.40569 -13.21927,11.66304 -17.61389,19.26656 -3.61899,6.46731 -5.03216,14.13705 -3.91056,21.46691 1.27798,10.36354 5.19664,20.19977 9.9173,29.44247 5.44608,10.53376 12.30472,20.23496 18.49791,30.32504 3.0355,5.49022 3.75357,11.8343 4.87713,17.9349 8.75032,49.94073 17.50064,99.88146 26.25096,149.82219 -5.42361,9.86217 -7.77761,21.06823 -9.00359,32.16205 -1.00935,9.92275 -0.72037,20.16056 2.38986,29.70956 2.26964,6.66086 6.59107,12.78137 12.66452,16.46433 7.47957,4.76698 16.28664,6.85796 24.97551,8.05841 14.08956,1.87497 28.38237,1.07189 42.44983,-0.59079 14.72086,-1.82054 29.22746,-4.97502 43.72993,-8.02876 5.5645,-0.97898 11.40407,-0.62204 16.75661,1.03323 21.04744,5.82481 41.9956,12.10768 62.18187,20.48689 13.75808,5.74883 27.20063,12.56686 39.45736,21.10994 11.26441,7.96198 21.59048,17.69407 28.35887,29.80594 4.6186,8.28432 7.50121,17.53207 8.02151,27.00052 0.59562,11.27027 -2.0678,22.69076 -7.08806,32.80457 -3.8404,7.80765 -9.22613,14.84103 -15.12718,21.23931 -7.05296,7.65494 -15.07283,14.33197 -23.24591,20.74714 -10.53877,8.38704 -20.96877,17.0757 -29.63046,27.45092 -4.09662,4.97138 -7.903,10.26719 -10.5627,16.16021 -1.23887,2.91397 -2.42519,6.04343 -2.09945,9.26739 0.26038,2.85801 1.57911,5.53836 3.47516,7.66599 4.22736,5.44282 10.07235,9.29662 15.8832,12.85354 6.22746,3.65364 12.80559,6.76432 19.69078,8.95952 3.67399,0.7937 7.46184,0.21933 11.17235,0.67856 19.20707,1.3804 37.87394,8.81117 53.26642,20.41255 9.80039,7.36892 18.93912,15.5403 27.97871,23.8058 11.06209,10.15082 21.97938,20.46539 33.56884,30.01668 17.74582,14.85765 36.79198,28.18591 56.98748,39.50291 31.3504,17.80706 64.96182,31.37159 99.33822,42.10491 25.91061,8.19263 52.31158,14.92286 79.10311,19.52359 22.73088,3.80386 45.96197,5.56717 68.94686,3.1946 13.46206,-1.45844 26.94045,-4.61845 38.93106,-11.07748 8.81445,-4.78828 16.64603,-11.70621 21.61401,-20.49476 2.38426,-4.12591 4.169,-8.59371 5.30943,-13.21868 -8.73727,-13.33018 -20.10504,-24.68145 -31.92096,-35.27966 -17.31547,-15.28714 -36.3528,-28.49512 -55.89473,-40.75605 -23.65755,-14.67717 -48.56281,-27.17036 -73.47074,-39.55027 -18.35094,-9.15818 -36.42847,-18.98052 -52.80221,-31.41365 -11.89553,-8.98644 -22.96223,-19.28086 -32.01293,-31.10584 -8.2809,-10.88703 -14.69538,-23.4071 -17.53655,-36.86936 -1.67183,-7.76983 -2.2118,-15.706 -1.50446,-23.61892 0.72103,-7.90086 2.71379,-15.78816 5.70829,-23.17899 3.72996,-9.23384 9.10651,-17.84628 15.58663,-25.44405 2.27733,-2.75905 4.84812,-5.25414 7.21498,-7.93148 1.26495,-1.42782 2.1222,-3.16562 2.57181,-5.0142 1.4526,-4.69282 2.09159,-9.6556 1.61006,-14.55739 -0.76745,-8.58064 -4.59572,-16.58232 -9.48486,-23.56117 -5.91468,-8.40107 -13.38766,-15.58679 -21.32421,-22.06047 -11.39718,-9.19922 -23.9509,-16.85587 -36.83786,-23.76591 -26.64232,-14.20832 -55.11533,-24.52989 -83.74845,-33.92762 -29.51201,-9.76261 -59.19754,-19.12954 -87.70006,-31.58797 -11.1936,-4.91232 -22.21157,-10.24558 -32.79124,-16.40625 -9.32384,-5.4872 -18.26198,-11.64779 -26.12064,-19.10529 -6.96701,-7.01957 -11.87656,-15.69469 -15.98374,-24.60587 -6.54962,-14.23068 -10.49808,-29.66722 -11.31009,-45.27912 -0.69264,-13.83753 1.10781,-27.71854 5.78711,-40.7832 6.34653,-17.68153 17.78616,-33.37765 32.36407,-45.19803 11.07534,-9.0868 23.69273,-16.30534 36.95187,-21.80327 12.76412,-5.29552 26.06529,-9.22708 39.5394,-12.24988 19.96928,-4.45943 40.39946,-6.66503 60.81614,-7.86176 26.80662,-1.65827 53.68346,-2.38729 80.47992,-4.33815 39.45955,-2.74275 78.87586,-6.80387 117.82446,-13.80125 21.17945,-3.92004 42.23671,-8.91239 62.43945,-16.46526 7.59756,-2.93349 14.94506,-6.58202 21.67649,-11.1867 -8.60097,-6.61938 -18.59216,-11.14826 -28.77054,-14.75568 -13.36515,-4.68711 -27.31083,-7.54883 -41.35001,-9.27556 -1.09087,-0.26675 -1.90557,0.64944 -2.82913,1.04489 -12.62877,6.78536 -26.41456,10.92395 -40.22972,14.46276 -26.15675,6.56024 -52.9753,10.01647 -79.79329,12.44352 -23.93803,2.13565 -48.02537,2.81963 -72.03903,1.59538 -13.02315,-0.68413 -26.04467,-1.91394 -38.91986,-3.98761 -14.49077,-2.38799 -28.89287,-5.9595 -42.36663,-11.92983 -10.85345,-4.85528 -21.00867,-11.52645 -28.74281,-20.66037 -6.24852,-7.38644 -10.27268,-16.4548 -12.41635,-25.84238 -0.80016,-3.51527 -2.18795,-6.90352 -4.23834,-9.87795 -3.00423,-4.49441 -7.35338,-8.0134 -12.27417,-10.21935 -7.2166,-3.379211 -15.18981,-4.69641 -23.06748,-5.401045 -4.37895,-0.349723 -8.77597,-0.424972 -13.16772,-0.387789 z" />
  </g>
</svg>
