<?xml version="1.0" encoding="UTF-8" standalone="no"?>
<!-- Created with Inkscape (http://www.inkscape.org/) -->

<svg
   width="4096"
   height="4096"
   viewBox="0 0 1083.7333 1083.7333"
   version="1.1"
   id="svg1"
   inkscape:export-filename="pista7.png"
   inkscape:export-xdpi="96"
   inkscape:export-ydpi="96"
   inkscape:version="1.4.2 (f4327f4, 2025-05-13)"
   sodipodi:docname="pista7.svg"
   xmlns:inkscape="http://www.inkscape.org/namespaces/inkscape"
   xmlns:sodipodi="http://sodipodi.sourceforge.net/DTD/sodipodi-0.dtd"
   xmlns="http://www.w3.org/2000/svg"
   xmlns:svg="http://www.w3.org/2000/svg">
  <sodipodi:namedview
     id="namedview1"
     pagecolor="#ffffff"
     bordercolor="#cccccc"
     borderopacity="1"
     inkscape:showpageshadow="0"
     inkscape:pageopacity="1"
     inkscape:pagecheckerboard="0"
     inkscape:deskcolor="#d1d1d1"
     inkscape:document-units="px"
     inkscape:zoom="0.12173362"
     inkscape:cx="870.7537"
     inkscape:cy="2320.6408"
     inkscape:window-width="1708"
     inkscape:window-height="871"
     inkscape:window-x="2391"
     inkscape:window-y="-9"
     inkscape:window-maximized="1"
     inkscape:current-layer="layer1"
     inkscape:export-bgcolor="#00c389ff" />
  <defs
     id="defs1" />
  <g
     inkscape:label="Capa 1"
     inkscape:groupmode="layer"
     id="layer1">
    <path
       id="path2"
       style="fill:#000000;stroke:#ffffff;stroke-width:5.38997;stroke-dasharray:none;stroke-opacity:1"
       d="m 559.57499,18.865478 c -13.38853,0.666812 -26.30039,6.770985 -37.42392,15.709826 -13.49229,10.792883 -25.01845,24.765656 -35.90164,39.205693 -15.9805,21.574744 -29.32844,45.970463 -45.90033,66.866983 -4.58024,5.75538 -9.62578,11.17846 -15.59734,14.65825 -1.06647,0.46273 -2.09796,-0.44567 -3.04202,-0.94628 -9.86382,-6.55791 -18.91168,-14.75438 -28.55977,-21.75113 -11.50241,-8.57654 -23.69001,-16.09917 -36.76213,-20.3415 -21.6284,-7.41382 -44.72064,-7.76089 -66.64378,-2.04929 -19.91355,4.92623 -38.97263,14.00641 -57.28193,24.62036 -26.79343,15.26771 -53.51232,30.76571 -80.79399,44.69936 -18.54693,9.71243 -37.22792,19.05709 -55.565158,29.34578 -8.55506,5.31842 -16.770366,11.99753 -22.877013,21.17693 -7.673521,11.80757 -11.210266,27.2109 -10.572653,42.18713 0.15237,4.4063 0.425532,8.80464 0.711663,13.20094 -11.38805,20.38743 -22.547321,41.13941 -30.975239,63.64449 -4.769984,13.30283 -8.468193,27.43474 -8.984978,42.03881 -0.78134,19.87639 6.713208,40.04788 19.702981,52.10468 8.471494,7.88546 18.577698,12.62059 28.77093,16.0189 9.634545,3.26345 19.566904,5.47127 28.651457,10.7294 2.05724,1.30866 3.64076,3.6084 4.41139,6.27482 3.24885,8.68914 6.76703,17.31367 11.52736,24.93774 9.43893,15.72297 21.47314,28.74322 33.81729,40.94993 14.90623,14.75923 30.58634,28.48676 44.21303,45.07974 7.7995,9.56653 14.78007,20.28899 19.51053,32.57455 4.60624,11.90088 6.804,25.07629 7.28956,38.18644 0.6013,16.0863 -1.33135,32.11711 -4.38994,47.70588 -4.35078,22.58471 -9.78214,44.95472 -11.99256,68.06274 -2.16749,20.17732 -2.63021,40.8309 0.47733,60.90063 2.76577,17.55517 8.7547,34.56149 18.27851,48.23676 10.0743,14.70001 23.67985,25.43953 38.38129,31.89089 17.29228,7.97862 35.66479,11.31021 53.52717,16.75263 7.7601,2.31384 15.33743,5.59873 22.77028,9.2033 8.26121,3.73222 17.04637,6.08531 25.89099,5.69444 14.25026,-0.35731 28.19983,-6.57242 39.77712,-16.62434 13.6549,-11.43501 24.61679,-26.79054 37.09927,-39.93675 3.48155,-3.59099 7.07254,-7.0656 11.20761,-9.51829 3.16991,-1.66434 6.87652,-1.72063 10.05804,-0.069 5.38756,2.22245 10.40033,5.56173 15.66567,8.15569 9.83113,5.20756 19.92464,9.65316 30.17294,13.45767 0.6486,0.93545 1.01988,2.10807 1.60529,3.10457 13.67479,27.41433 26.06873,55.77975 40.54226,82.59085 13.37751,23.5425 32.60723,41.613 53.93158,53.2218 15.26141,8.2814 31.61169,13.3006 48.12725,16.0328 23.79887,3.828 48.07034,2.5318 71.63674,-2.8653 15.1974,-3.5662 30.15392,-9.1124 44.051,-17.503 9.11345,-5.6582 17.7039,-13.1181 23.93086,-23.1512 7.03912,-11.4867 10.03065,-26.83798 7.14805,-40.85884 -2.99092,-15.03202 -12.02491,-27.88259 -23.47629,-34.30498 -9.97251,-5.96783 -20.97008,-8.69489 -31.87455,-10.70902 -5.43426,-1.06329 -10.79479,-2.29946 -15.81064,-5.1452 -10.93336,-6.40439 -19.61981,-18.14432 -24.34386,-31.79526 -2.60252,-7.54357 -4.159,-15.74326 -3.89249,-23.96159 0.15985,-3.80362 0.76855,-7.85496 2.51471,-11.12953 1.08345,-1.79866 2.61401,-3.08098 4.28652,-3.78391 5.09995,-1.89253 10.5866,-1.8363 15.80421,-1.10218 8.97739,1.38036 17.71114,4.64615 26.18095,8.53345 21.12269,9.83514 40.46072,24.45735 59.28991,39.63541 13.08575,10.52611 26.03591,21.31037 39.41859,31.26961 18.76871,14.06066 38.19682,27.0187 58.74375,36.78061 12.85875,6.02298 26.38283,10.58248 40.22856,10.9049 11.22593,0.25612 22.68869,-2.62927 32.37467,-9.76997 9.81518,-7.17124 17.62788,-18.25923 22.14602,-31.08722 3.8659,-10.75939 5.5424,-22.51832 5.8833,-34.21215 0.6657,-19.61778 -2.0281,-39.10855 -5.2289,-58.25633 -3.65025,-21.65771 -8.09721,-43.12588 -10.65432,-65.022 -3.68844,-28.35902 -8.45692,-56.6786 -16.75636,-83.61082 -4.35137,-13.80996 -9.34982,-27.54579 -16.79892,-39.3173 -4.78025,-7.51363 -10.75086,-14.22808 -18.05298,-17.8217 -10.86532,-5.45051 -23.6207,-4.4359 -34.00148,2.16101 -5.67908,3.36232 -11.1616,7.31209 -17.14553,9.84516 -6.5578,2.61643 -13.52448,3.29493 -20.38783,3.18117 -14.83817,-0.3485 -29.29583,-5.09807 -43.65381,-9.58043 -10.61651,-3.34959 -21.29354,-6.53715 -32.16986,-8.34746 -18.25853,-3.18915 -36.8531,-3.0417 -55.14378,-0.31217 -15.74268,2.321 -31.47846,5.53025 -47.37471,4.72075 -18.87017,-1.12379 -37.45783,-5.9122 -55.73938,-11.64074 -24.66686,-7.5961 -49.19644,-16.24603 -74.35416,-21.18682 -12.06781,-2.19997 -24.55401,-2.33163 -36.43392,1.39179 -10.98954,3.50716 -21.02137,10.38655 -30.38216,18.09647 -7.33193,6.0148 -14.23623,12.76362 -21.54257,18.82415 -2.02949,1.62469 -4.06367,3.29306 -6.22803,4.62129 -2.89862,0.97848 -5.86381,0.3313 -8.80376,0.22393 -9.26756,-0.95051 -18.14427,-4.256 -26.74243,-8.4323 -13.15945,-6.42021 -25.65196,-15.15078 -36.17401,-26.82389 -2.92449,-3.27325 -5.84017,-6.76156 -8.06705,-10.73443 -1.05522,-1.86777 -1.97583,-3.85482 -2.68974,-5.95218 4.02182,-4.85363 9.07207,-8.031 14.15628,-10.9016 8.24031,-4.64769 16.97065,-7.7758 25.7326,-10.47024 16.47633,-5.09741 33.4397,-8.02016 50.32121,-10.77838 13.2263,-2.18545 26.4647,-4.26254 39.72468,-6.1198 19.50129,-2.7887 39.03847,-5.19808 58.56174,-7.68417 9.06191,-1.18731 18.13892,-2.34867 27.11845,-4.27363 8.73956,-2.21519 17.3633,-6.44 24.08159,-13.78807 7.96234,-8.63323 12.90837,-20.9489 14.56561,-33.71357 1.82327,-11.37365 3.34657,-22.89029 6.83097,-33.73321 5.17823,-17.50304 11.90561,-34.27325 20.13772,-49.92611 0.54003,-0.97929 1.10141,-1.94235 1.70871,-2.86123 6.37808,5.21897 11.56756,12.21923 16.85593,18.93875 11.01238,14.37032 21.03255,29.82188 31.51163,44.77875 18.1678,26.26306 36.50748,52.61436 57.90611,75.07598 17.84432,18.77109 37.84664,34.90429 59.98484,45.00114 21.03678,9.61251 43.9362,13.22838 66.25717,9.99933 7.33899,-1.02635 14.56793,-2.95406 21.7709,-4.91638 13.49543,-3.80981 26.78778,-8.6821 39.80339,-14.46959 14.82794,-6.80174 29.16423,-15.74517 41.38406,-28.18343 10.3,-10.55997 18.7694,-24.14183 23.2051,-39.7574 5.4048,-18.79107 5.002,-39.80897 -0.47,-58.50304 -5.0515,-18.13954 -13.5944,-34.48304 -23.175,-49.521 -16.04878,-25.15982 -35.3604,-46.79317 -54.64252,-68.15035 -6.71132,-7.48893 -13.49816,-14.91544 -19.89091,-22.82413 -4.15605,-5.52171 -7.77479,-11.92479 -9.40147,-19.24109 -0.34987,-1.85004 -0.4375,-3.59032 -0.31852,-5.51775 0.19342,-2.95628 1.11022,-5.94205 2.23255,-8.62129 3.31027,-7.89035 8.04833,-14.70911 13.17577,-20.88335 12.40423,-15.0608 27.14929,-26.84767 39.53648,-41.92758 7.12334,-9.43894 10.73746,-22.35816 10.79585,-35.10551 0.16467,-13.63705 -2.74877,-27.03695 -6.76075,-39.66306 -7.05316,-21.86515 -17.80521,-41.8064 -30.7994,-59.068264 -15.7483,-20.700047 -35.47081,-37.188811 -57.50406,-46.060149 -21.20151,-8.559307 -44.33335,-9.60609 -66.05131,-3.366648 -22.58229,6.302213 -43.58406,19.445288 -62.25833,36.007964 -19.62705,17.385953 -36.48896,38.907777 -55.91179,56.594587 -5.6525,5.11066 -11.44944,9.9577 -17.65944,14.00601 -3.9371,-12.54551 -7.26173,-25.549 -13.17977,-36.98001 -5.55676,-11.10704 -13.4906,-20.693281 -23.25079,-26.125959 -5.88344,-3.392996 -12.30285,-5.364532 -18.79243,-5.853581 -1.63836,-2.224092 -3.18346,-4.548622 -4.72932,-6.869503 -7.37791,-11.329478 -13.89448,-23.643835 -22.70735,-33.45188 -8.18813,-9.318736 -18.22808,-16.517544 -29.25237,-19.303823 -4.32297,-1.135719 -8.75292,-1.619978 -13.17253,-1.544286 z" />
    <path
       id="path3"
       style="fill:#00c389;stroke:#ffffff;stroke-width:5.38964;stroke-dasharray:none;stroke-opacity:1;fill-opacity:1"
       d="m 558.35181,101.12593 c -4.69761,3.57589 -8.79896,8.22027 -12.92687,12.76878 -12.81039,14.85487 -23.44866,32.15244 -34.50497,48.92476 -11.29178,17.34473 -22.98871,34.58497 -37.23284,48.45851 -9.35351,9.16878 -19.81957,16.99612 -31.40319,21.09145 -14.41813,5.03735 -30.23548,3.86168 -44.02206,-3.37203 -11.09052,-5.54125 -21.00007,-13.90301 -30.95826,-21.9139 -8.81597,-7.04313 -17.88799,-14.02265 -28.0638,-17.71715 -6.92506,-2.53624 -14.19353,-3.48553 -21.4158,-3.07745 -12.98962,0.62227 -25.67541,4.8796 -37.78446,10.44637 -16.28734,7.55862 -31.73974,17.46222 -47.56408,26.30784 -33.80701,19.24242 -68.30204,36.58831 -102.53641,54.65181 -0.46892,0.33306 -1.18304,0.49026 -1.49798,0.93376 0.65042,9.25094 1.72268,18.6526 0.31713,27.87886 -1.5077,7.21779 -5.28033,13.23352 -8.72783,19.2157 -10.3882,18.34119 -20.810201,36.84408 -28.418944,57.16978 12.429714,4.15129 25.114904,7.75976 36.750774,14.71968 14.00462,8.39264 26.09904,21.92645 33.39721,38.87294 3.11032,7.18693 5.2887,15.14059 9.7892,21.29206 8.9034,12.355 19.80674,22.1547 30.27645,32.38523 13.84824,13.41187 27.84071,26.72415 40.2572,42.14725 10.58232,13.13724 19.90063,27.87992 27.11758,44.0934 6.7088,14.97848 11.60842,31.17485 14.35475,47.92853 4.36611,25.79954 4.14419,52.58826 0.46234,78.48879 -2.75128,20.29569 -7.57123,40.04354 -11.29792,60.0806 -1.96174,10.98338 -3.47069,22.1906 -4.01808,33.41669 -0.29616,7.10929 -0.423,14.24491 0.55583,21.27129 0.50825,3.40611 1.21422,7.02336 2.49717,10.22386 1.88157,4.48467 5.20845,7.88855 8.97126,9.84447 6.91183,4.21292 14.43726,6.15943 21.90685,8.3935 16.92232,4.76911 34.15292,8.5036 50.46257,16.01289 3.19747,1.43323 6.33835,3.11169 9.57569,4.38487 1.6338,-0.058 2.88255,-1.53585 4.24362,-2.45363 4.4161,-3.62978 8.14027,-8.32052 12.10911,-12.61652 10.35519,-11.81248 20.28125,-24.38948 32.11962,-34.03344 11.19773,-9.33053 24.10104,-15.97329 37.64868,-17.6861 14.0824,-1.9552 28.46222,1.25521 41.42357,8.09695 10.14149,5.07153 19.95584,11.20166 30.46164,15.12759 7.90046,3.25613 16.25502,5.58286 23.40999,11.09109 7.14767,5.39971 13.08863,13.01065 17.54678,21.68929 6.24917,11.27243 11.40506,23.36733 17.17496,35.00269 8.65281,18.04368 16.96547,36.3639 26.5611,53.69761 5.55432,8.79807 12.92751,15.70526 20.93368,20.80153 11.1817,7.12527 23.68813,10.8981 36.11821,12.6946 5.74059,0.81328 11.51693,1.21591 17.30957,1.21371 -22.20567,-20.87819 -37.90669,-51.86166 -43.23555,-85.4957 -2.83107,-17.71786 -2.87072,-36.2671 0.88897,-53.78668 4.07309,-18.53704 12.61664,-35.7795 24.8566,-47.92685 12.5225,-12.51594 28.32829,-19.78012 44.40894,-21.26257 15.77036,-1.71295 31.63915,1.24513 46.83351,6.34501 19.05895,6.43141 37.07965,16.71861 54.44704,28.14818 31.81159,21.40229 60.47215,49.09712 92.41927,70.23676 10.92636,7.29394 22.12067,14.13489 33.9219,19.06342 2.36088,0.94254 4.76122,1.74283 7.19469,2.35199 -2.2e-4,-7.51265 -0.93659,-14.96181 -1.84145,-22.38377 -2.33204,-17.33302 -5.99076,-34.32083 -8.79722,-51.53842 -2.13415,-12.47215 -3.87742,-25.04025 -5.41537,-37.64173 -2.35437,-17.51939 -5.37278,-34.94675 -9.79283,-51.85039 -0.79524,-2.98176 -1.60664,-5.95774 -2.49313,-8.90099 -17.17539,7.99759 -35.84861,10.50568 -54.11763,8.86859 -17.60515,-1.41125 -34.83265,-6.47676 -51.84263,-11.94514 -11.7265,-3.66419 -23.54697,-6.94256 -35.66062,-7.83739 -9.16744,-0.68136 -18.40097,0.0572 -27.49857,1.50072 -18.17619,2.64241 -36.40673,5.96264 -54.76337,5.18004 -22.11288,-0.74171 -43.9526,-5.8335 -65.38151,-12.2749 -24.64809,-7.37165 -49.03119,-16.24661 -74.05098,-21.4545 -4.07171,-0.8377 -8.53188,-1.4931 -12.48244,0.56465 -3.76622,1.91126 -6.96428,5.07941 -10.34838,7.79435 -11.03027,9.33187 -21.50184,19.86094 -33.44866,27.48173 -9.85177,5.84296 -20.87907,8.0064 -31.74421,8.37624 -15.78952,0.43022 -31.46018,-3.5206 -46.374,-9.63365 -25.58816,-10.37971 -49.65663,-27.0262 -69.21912,-49.8335 -10.04547,-11.62978 -18.71798,-25.31394 -24.15034,-40.95709 -5.27666,-14.95698 -7.01688,-31.89036 -4.28008,-47.88818 2.45864,-14.67956 8.78176,-28.14146 17.12809,-39.00858 7.19584,-9.41086 15.99386,-16.76405 25.218,-22.87467 10.70509,-7.00899 22.11382,-12.28181 33.70228,-16.64204 24.78752,-9.20834 50.5592,-13.30466 76.1489,-17.62937 34.74722,-5.70036 69.65046,-9.82647 104.51525,-14.28191 3.40614,-20.31997 9.09147,-40.01294 16.39081,-58.71746 6.20856,-16.3071 13.30926,-32.1785 21.9619,-46.75449 7.0007,-11.14808 15.68782,-20.99966 26.10257,-27.15616 15.0823,-8.96821 33.4108,-9.14575 48.6493,-0.63673 11.23097,5.88567 21.0655,15.08135 30.00027,25.15116 14.16892,16.22177 26.37355,34.7296 38.94097,52.75577 17.01958,24.73164 33.79951,49.93417 53.47976,71.64201 11.06516,12.173 23.07682,23.36626 36.62066,31.17577 11.97667,6.94387 25.21495,10.89842 38.47856,9.91036 9.64789,-0.57976 19.05661,-3.72192 28.42249,-6.61062 12.56648,-3.99175 25.06829,-8.78289 36.51578,-16.36562 4.13191,-2.80132 8.31224,-5.89699 11.27432,-10.49754 0.78546,-1.17875 1.1901,-2.77548 0.83326,-4.25462 -0.48885,-3.08731 -1.48239,-6.02328 -2.52199,-8.88626 -2.18866,-5.80641 -5.09124,-11.04187 -8.20051,-16.19824 -3.59159,-5.96465 -7.448,-11.76018 -11.51391,-17.28108 -10.47111,-14.30256 -22.0591,-27.26208 -33.6399,-40.20113 -8.86579,-9.87154 -17.86956,-19.57041 -26.32688,-29.97079 -10.08486,-12.58671 -18.44064,-27.40644 -23.73937,-43.83817 -3.93323,-12.14215 -5.94619,-25.22283 -5.72627,-38.29078 0.19094,-14.35014 2.96964,-28.62904 8.08013,-41.54964 6.8138,-17.72221 17.05735,-33.14969 28.53898,-46.66874 8.56649,-10.09761 17.86194,-19.19597 27.07958,-28.37327 -3.20139,-10.06897 -8.03599,-19.23601 -13.4267,-27.7451 -4.89795,-7.51296 -10.62757,-14.28375 -16.98301,-19.81199 -6.537,-5.68925 -13.84551,-10.29668 -21.69372,-12.5509 -6.6329,-1.98201 -13.52427,-2.4065 -20.26862,-1.32158 -8.77853,1.30928 -17.3676,4.8112 -25.31023,9.50365 -13.54593,7.9477 -25.46552,19.31748 -36.74392,31.34603 -13.1845,14.06374 -26.16662,28.47691 -40.35267,41.03856 -10.06262,8.95942 -20.6479,17.16294 -32.01562,23.42727 -9.93749,5.38269 -20.74449,8.95605 -31.68453,8.46779 -10.73261,-0.47113 -21.3727,-5.04848 -29.78802,-13.25853 -7.00886,-6.73858 -12.39424,-15.70118 -16.44478,-25.35096 -4.18315,-9.84589 -6.98603,-20.4567 -10.19613,-30.77558 -0.46171,-1.46018 -0.9417,-2.91156 -1.44701,-4.34995 -12.47123,-2.2183 -24.04835,-9.90907 -33.04941,-20.57235 -8.80685,-10.11132 -15.43536,-22.55199 -22.88229,-34.07904 -0.86531,-1.29482 -1.74274,-2.58001 -2.68921,-3.78801 -0.28301,0.20826 -0.56602,0.41652 -0.84903,0.62479 z" />
    <path
       style="fill:none;stroke:#ffe700;stroke-width:5.38964;stroke-dasharray:5.38964, 21.5586;stroke-dashoffset:0;stroke-opacity:1"
       d="M 97.570394,297.88579 C 92.901725,231.53028 84.324873,267.596 245.6977,171.80717 407.07053,76.018357 387.81987,296.66173 487.90587,135.08523 c 100.08602,-161.576489 93.26325,-14.41539 138.11871,-14.68877 44.85546,-0.27337 2.11655,156.17564 130.11181,12.24065 127.99527,-143.935008 207.36651,43.98338 190.16343,66.09947 -17.20303,22.11609 -111.44111,82.41835 -33.02839,165.24867 78.41271,82.83033 138.57287,164.18099 -9.00774,201.97064 C 756.6831,603.74554 693.92094,266.01312 630.028,405.60345 c -63.89294,139.59034 42.03613,84.46044 -180.15483,123.63051 -222.19096,39.17007 -17.39861,200.0328 35.03011,154.2321 52.42872,-45.80069 39.76699,-47.87395 143.123,-14.68877 103.35601,33.18517 103.53137,-15.08507 191.80951,15.93394 88.27815,31.01901 97.92572,-23.08718 109.98742,-5.79149 12.06171,17.29568 23.65535,61.14592 29.67281,118.58898 6.01747,57.44308 69.75198,238.44018 -130.68195,69.49492 C 628.3802,698.0584 632.70452,952.4398 738.1209,967.44899 843.53729,982.45818 633.78926,1081.0935 572.97897,956.4324 512.16869,831.77122 547.64252,884.79786 481.68575,845.9561 415.72898,807.11433 399.88521,931.17333 346.78457,901.34951 293.68394,871.5257 205.66328,905.0217 246.69855,727.53237 287.73382,550.04304 158.84072,533.87155 135.60308,460.68634 112.36544,387.50115 -4.8926714,469.10179 98.195927,295.28465"
       id="path1"
       sodipodi:nodetypes="ccccccccccccccccccccccc" />
  </g>
</svg>
