<?xml version="1.0" encoding="UTF-8" standalone="no"?>
<!-- Created with Inkscape (http://www.inkscape.org/) -->

<svg
   width="4096"
   height="4096"
   viewBox="0 0 1083.7333 1083.7333"
   version="1.1"
   id="svg1"
   inkscape:version="1.4.2 (f4327f4, 2025-05-13)"
   sodipodi:docname="track1.svg"
   inkscape:export-filename="track1.png"
   inkscape:export-xdpi="96"
   inkscape:export-ydpi="96"
   xmlns:inkscape="http://www.inkscape.org/namespaces/inkscape"
   xmlns:sodipodi="http://sodipodi.sourceforge.net/DTD/sodipodi-0.dtd"
   xmlns="http://www.w3.org/2000/svg"
   xmlns:svg="http://www.w3.org/2000/svg">
  <sodipodi:namedview
     id="namedview1"
     pagecolor="#ffffff"
     bordercolor="#cccccc"
     borderopacity="1"
     inkscape:showpageshadow="0"
     inkscape:pageopacity="1"
     inkscape:pagecheckerboard="0"
     inkscape:deskcolor="#d1d1d1"
     inkscape:document-units="px"
     inkscape:export-bgcolor="#00c389ff"
     inkscape:zoom="0.12173362"
     inkscape:cx="476.45014"
     inkscape:cy="1269.1646"
     inkscape:window-width="1708"
     inkscape:window-height="871"
     inkscape:window-x="2391"
     inkscape:window-y="-9"
     inkscape:window-maximized="1"
     inkscape:current-layer="layer1" />
  <defs
     id="defs1" />
  <g
     inkscape:label="Capa 1"
     inkscape:groupmode="layer"
     id="layer1">
    <path
       id="path2"
       style="fill:#000000;stroke:#ffffff;stroke-width:5.29167;stroke-dasharray:none;stroke-opacity:1;fill-opacity:1"
       d="m 468.22852,14.556641 c -54.58807,0.550089 -109.35935,5.793927 -162.39002,19.114226 -24.79394,6.26038 -48.92791,14.894727 -72.53716,24.672911 -30.89923,12.414318 -62.00534,24.431486 -93.95153,33.872158 -7.79969,2.219434 -15.82714,3.762006 -23.77023,5.561509 -1.9176,0.45364 -3.89499,0.769047 -5.64838,1.720352 -5.50329,2.672693 -9.55944,7.696173 -11.957209,13.238433 -9.81767,20.52921 -17.710642,41.95447 -23.900264,63.84663 -21.300823,74.29238 -25.582676,153.05944 -15.208457,229.52691 3.04743,22.6871 7.379906,45.17041 11.81528,67.6193 5.504091,27.53349 11.551324,54.97352 18.977348,82.05947 6.478622,23.68093 13.933192,47.11483 22.916742,69.97034 8.73322,22.01152 19.15556,43.48992 32.82568,62.88861 9.24892,13.02336 20.2407,25.01419 33.49133,34.0515 14.18578,9.67031 31.16872,15.46544 48.39926,15.5248 15.49926,0.19358 30.82272,-3.73141 44.93549,-9.95946 18.06137,-7.80667 34.54694,-18.74703 50.49741,-30.1609 16.8195,-12.07553 33.18475,-24.90427 50.97058,-35.53576 5.39249,-3.04516 11.16699,-5.80147 17.4001,-6.44652 2.05549,-0.0286 3.75115,1.44847 4.91362,2.94248 3.3643,4.11139 5.57255,8.9995 7.46273,13.92398 4.94657,12.48495 7.31979,25.78485 9.67831,38.93369 3.11742,17.86508 5.8307,35.81695 10.08441,53.4583 7.03622,30.4977 16.71797,60.54559 30.94266,88.49144 10.45381,20.43072 23.78846,39.59293 40.66082,55.25766 16.4356,15.19654 36.62905,26.58323 58.52816,31.56288 21.05227,4.82628 43.20219,4.05378 64.1036,-1.15748 23.13875,-5.68484 44.9817,-15.91059 65.04187,-28.65854 28.75367,-18.19161 54.39453,-40.93958 77.55652,-65.78355 10.97309,-11.75377 21.33146,-24.05839 31.43481,-36.56489 3.0951,-3.76915 6.08059,-7.63274 9.30134,-11.2959 8.59839,-9.58488 18.07286,-18.42439 26.13307,-28.50575 13.65538,-16.46975 25.60652,-34.31433 35.99958,-53.00595 12.97252,-23.30724 23.66936,-47.81309 33.11612,-72.73471 15.83705,-42.02392 27.58184,-85.47215 37.42535,-129.2503 5.44682,-24.39504 9.97229,-48.98106 14.51934,-73.55767 2.62183,-14.17115 5.34548,-28.32639 8.85881,-42.3008 8.23265,-33.37676 19.44014,-65.98288 32.8962,-97.59577 8.01076,-19.09702 16.55629,-37.99045 23.55839,-57.4902 3.6412,-10.29907 6.281,-21.04476 6.8386,-31.98662 0.3618,-6.89207 -0.2749,-13.85218 -2.1592,-20.50085 -2.7891,-10.11777 -8.1276,-19.48851 -15.2655,-27.1687 -10.3038,-11.36657 -23.25339,-19.92247 -36.54936,-27.38529 -19.81861,-11.09469 -40.81797,-19.85571 -61.84672,-28.35083 -4.66643,-1.862 -9.34179,-3.70294 -14.01357,-5.55208 C 886.12543,95.842417 879.83803,91.732787 873.40178,88.474921 857.946,80.384376 841.32841,74.891285 824.85031,69.321676 788.79895,57.592008 751.93059,48.536967 714.84099,40.758804 669.84541,31.382846 624.35108,24.394223 578.61469,19.828942 541.93714,16.232791 505.08458,14.396636 468.22852,14.556641 Z" />
    <path
       id="path3"
       style="fill:#00c389;stroke:#ffffff;stroke-width:5.29167;stroke-dasharray:none;stroke-opacity:1;fill-opacity:1"
       d="m 462.37695,88.302734 c -31.20231,0.63161 -62.38516,2.812885 -93.22731,7.614265 -32.4242,5.063801 -64.48365,13.241911 -95.01022,25.391951 -36.83308,14.34611 -73.46544,29.44271 -111.45984,40.50453 -2.21581,0.65816 -4.44517,1.27097 -6.66786,1.90722 -4.34319,11.35477 -8.21848,22.87747 -11.51861,34.57789 -7.15991,25.31905 -11.93518,51.29387 -14.68115,77.44816 -4.67177,45.18478 -3.00361,91.04955 4.396,135.84718 3.15835,19.29615 6.90505,38.47972 10.79289,57.64295 7.41351,36.15991 16.04607,72.14151 27.95369,107.08126 6.70595,19.54685 14.23431,38.87823 24.49564,56.86922 4.85073,8.42987 10.15653,16.74876 17.12714,23.58619 2.46533,2.36417 5.07637,4.63252 8.0262,6.37098 3.456,1.74955 7.54536,1.63385 11.19173,0.58185 8.01776,-1.94549 15.35505,-5.95603 22.502,-10.02402 12.00304,-6.97373 23.15762,-15.28689 34.45647,-23.31573 16.88121,-12.17603 33.62957,-24.71975 52.09225,-34.44258 13.21765,-6.89832 27.59942,-12.02011 42.55348,-13.11725 18.87459,-1.39706 38.25778,4.2091 53.24473,15.82341 10.72102,8.16264 19.1782,19.01597 25.5071,30.85053 9.35982,17.15128 14.67698,36.15006 18.56353,55.20148 4.5664,22.1477 7.5524,44.64096 12.89468,66.60035 4.30054,18.09347 9.70859,35.97091 16.86473,53.14616 5.51525,13.14319 12.11885,25.86141 20.63254,37.32422 6.31778,8.58024 14.00227,16.41165 23.25652,21.74853 5.05814,2.88572 10.52065,4.9242 16.24219,5.90821 6.55754,1.08601 13.31825,0.94798 19.87695,-0.0195 9.97657,-1.48973 19.6943,-4.8942 28.8964,-9.06776 18.59724,-8.47062 35.45889,-20.28656 51.09223,-33.38894 13.24156,-11.14922 25.68031,-23.2398 37.31494,-36.05447 8.83549,-9.67216 17.24668,-19.75822 25.54396,-29.90208 7.04803,-8.54508 14.33684,-16.89773 21.9579,-24.94095 9.34321,-10.02777 18.51849,-20.23946 26.0982,-31.66003 18.29247,-26.68427 31.93174,-56.28866 43.34401,-86.48628 14.72254,-38.95433 25.67938,-79.20947 34.69309,-119.85874 5.18151,-23.19306 9.62571,-46.53469 14.05091,-69.88536 5.15352,-27.00134 10.79174,-53.96777 18.88831,-80.26258 10.17003,-33.77913 23.29363,-66.58316 37.21387,-98.97028 5.29248,-12.57923 10.72713,-25.13864 14.48626,-38.27058 -7.66775,-6.46583 -16.54247,-11.13449 -25.46236,-15.60548 -26.10164,-13.03967 -53.58109,-23.09267 -80.77626,-33.62414 -27.17671,-10.39526 -54.36187,-20.7766 -81.58957,-31.03168 -2.13553,-0.96018 -3.98982,-2.73592 -4.70501,-5.00237 -36.42085,-9.40085 -73.31964,-16.9703 -110.44874,-22.98842 -32.9889,-5.338691 -66.23133,-9.178989 -99.57372,-11.627648 -8.40963,-0.630397 -16.85155,-0.991071 -25.29438,-1.389489 -17.30942,-0.761653 -34.63616,-1.253122 -51.96344,-1.157413 -1.29069,0.02242 -2.58138,0.04484 -3.87207,0.06726 z" />
    <path
       id="path1"
       style="fill:none;stroke:#ffca00;stroke-width:5.2916665;stroke-dasharray:5.29166651, 42.33333206;stroke-opacity:1;stroke-dashoffset:0"
       d="m 470.01367,51.044922 c -43.74831,0.404929 -87.58141,3.734992 -130.48769,12.385098 -26.60982,5.356533 -52.93515,12.735666 -78.11994,23.010633 -36.76883,14.754087 -73.54489,29.754767 -111.65079,40.756107 -6.80072,1.94051 -13.66165,3.68055 -20.60681,5.02394 -10.52704,22.40033 -18.1145,46.07404 -24.2436,69.99263 -7.453097,30.01118 -12.040699,60.70878 -13.962653,91.56576 -2.519753,41.10366 -0.241145,82.50552 6.392685,123.11651 2.156357,13.11514 4.577078,26.18454 7.048628,39.23713 7.24112,37.8037 15.74942,75.40977 26.88217,112.283 7.73418,25.49996 16.84913,50.68312 28.9969,74.437 6.88432,13.32797 14.90902,26.19493 25.05395,37.3029 8.07198,8.74318 17.88509,16.34783 29.44983,19.66915 5.29502,1.52869 10.80116,2.12808 16.27326,1.80819 11.85809,-0.62331 23.14475,-4.86024 33.69724,-10.09715 16.34735,-8.19704 31.21265,-18.99255 45.92384,-29.78373 14.89842,-10.87675 29.57498,-22.16924 45.63536,-31.31564 9.21969,-5.13833 19.18291,-9.36595 29.74861,-10.576 9.06743,-0.98164 18.57606,0.68591 26.35372,5.58692 8.42861,5.16085 14.77891,13.13072 19.43083,21.74027 6.3684,11.74151 10.24762,24.63819 13.2543,37.59554 4.67773,20.54588 6.92486,41.55466 11.46665,62.13025 6.19736,29.29995 14.57743,58.27927 27.61052,85.31082 7.15863,14.79694 15.82773,28.87976 26.74009,41.23262 11.33993,12.82151 25.51279,23.51607 41.78814,29.10267 9.50239,3.27881 19.52449,4.87848 29.52007,4.85489 18.14777,-0.009 35.9656,-4.923 52.50977,-12.21912 22.31298,-9.83153 42.54237,-23.75218 61.2302,-39.321 25.40303,-21.23547 47.8282,-45.81881 68.32785,-71.7736 4.2774,-5.45172 8.62345,-10.88695 13.48237,-15.84789 7.3263,-7.68029 14.95014,-15.11152 21.57564,-23.42358 22.20824,-26.78884 38.89595,-57.66985 52.50074,-89.56045 17.99044,-42.06222 30.94102,-86.08883 41.66092,-130.50129 7.33029,-30.51357 13.2804,-61.32902 18.72556,-92.23145 3.37921,-18.6722 7.27111,-37.26107 12.26743,-55.57301 8.95995,-33.48517 20.76628,-66.16409 34.60068,-97.93635 6.69335,-15.85509 13.77572,-31.56083 19.68055,-47.73491 2.35335,-6.73338 4.24852,-13.71538 4.91464,-20.88009 0.5188,-6.28254 -0.76697,-12.8551 -4.39904,-18.08963 -4.21267,-6.41153 -10.20963,-11.31139 -16.38195,-15.72721 -10.11164,-7.16473 -21.1949,-12.76397 -32.3356,-18.18034 -22.44101,-10.74389 -45.73312,-19.54645 -68.94391,-28.45207 -9.19391,-3.50114 -18.39312,-6.98833 -27.59358,-10.47221 3.23349,-1.53498 6.46748,-3.06895 9.70117,-4.60351 -13.34472,-5.5438 -27.13228,-9.91771 -40.89444,-14.28708 C 769.55192,90.276909 735.62212,82.215442 701.51069,75.190061 646.01518,63.925337 589.75637,56.247743 533.23047,52.820312 c -21.0489,-1.216795 -42.13211,-1.840895 -63.2168,-1.77539 z" />
  </g>
</svg>
