<?xml version="1.0" encoding="UTF-8" standalone="no"?>
<!-- Created with Inkscape (http://www.inkscape.org/) -->

<svg
   width="4096"
   height="4096"
   viewBox="0 0 1083.7333 1083.7333"
   version="1.1"
   id="svg1"
   inkscape:version="1.4.2 (f4327f4, 2025-05-13)"
   sodipodi:docname="track5.svg"
   inkscape:export-filename="track5.png"
   inkscape:export-xdpi="96"
   inkscape:export-ydpi="96"
   xmlns:inkscape="http://www.inkscape.org/namespaces/inkscape"
   xmlns:sodipodi="http://sodipodi.sourceforge.net/DTD/sodipodi-0.dtd"
   xmlns="http://www.w3.org/2000/svg"
   xmlns:svg="http://www.w3.org/2000/svg">
  <sodipodi:namedview
     id="namedview1"
     pagecolor="#ffffff"
     bordercolor="#cccccc"
     borderopacity="1"
     inkscape:showpageshadow="0"
     inkscape:pageopacity="1"
     inkscape:pagecheckerboard="0"
     inkscape:deskcolor="#d1d1d1"
     inkscape:document-units="px"
     inkscape:export-bgcolor="#00c389ff"
     inkscape:zoom="0.12173362"
     inkscape:cx="1199.34"
     inkscape:cy="2345.2847"
     inkscape:window-width="1708"
     inkscape:window-height="871"
     inkscape:window-x="2391"
     inkscape:window-y="-9"
     inkscape:window-maximized="1"
     inkscape:current-layer="layer1" />
  <defs
     id="defs1" />
  <g
     inkscape:label="Capa 1"
     inkscape:groupmode="layer"
     id="layer1">
    <path
       id="path2"
       style="fill:#000000;stroke:#ffffff;stroke-width:5.29167;stroke-dasharray:none;stroke-dashoffset:0;stroke-opacity:1"
       d="m 841.49805,38.859375 c -11.95583,0.303767 -23.73294,3.12348 -34.90749,7.278537 -17.05106,6.399349 -32.87089,15.706732 -47.56338,26.398856 -19.1217,13.925147 -36.81821,29.738002 -53.36855,46.617922 -5.71183,5.79392 -11.25553,11.76034 -16.76674,17.74216 -21.63437,15.924 -44.38432,30.3237 -68.29868,42.58343 -16.22798,8.21317 -33.05799,15.35158 -50.70977,19.89353 -10.34612,2.62429 -21.07928,4.19145 -31.72986,3.12261 -6.66557,-0.75482 -13.3982,-2.99489 -18.41326,-7.60053 -3.55175,-3.15423 -6.15502,-7.20955 -8.25646,-11.39116 -2.77374,-5.60946 -4.65264,-11.64558 -5.9849,-17.70857 -2.56794,-11.79125 -3.25101,-23.93601 -5.83725,-35.74582 -2.83644,-13.57234 -7.94866,-26.71016 -15.39999,-38.42534 -6.1735,-9.704419 -14.07423,-18.326475 -23.35645,-25.135401 -13.74791,-10.18088 -30.14132,-16.557 -47.01831,-19.091977 -21.24539,-3.433465 -42.97922,-1.879932 -64.07832,1.820885 -24.46919,4.319773 -48.26736,11.791042 -71.52008,20.44571 -30.62248,11.62015 -60.22815,25.783805 -89.10034,41.210283 -15.1138,8.21555 -29.91621,16.98876 -44.66283,25.84034 -12.82042,104.73283 -25.63986,209.46623 -38.42399,314.2032 -3.9009,46.70815 -2.04382,93.71752 2.57917,140.30173 5.88417,58.32973 16.57036,116.16239 31.52302,172.83917 5.18846,18.39872 11.64414,36.63242 21.56008,53.06411 6.91764,11.42449 15.49334,22.07762 26.38606,29.93888 15.94338,11.60307 37.09782,15.7544 56.21943,10.87684 13.3471,-3.191 25.57968,-9.91759 36.6247,-17.92283 15.55492,-11.33159 28.79322,-25.50033 40.90799,-40.37143 10.89504,-13.59591 21.10822,-27.80268 29.6879,-42.98687 1.46104,-2.71061 2.5345,-5.63886 2.98807,-8.69148 2.08747,-10.306 3.01254,-20.79735 4.24077,-31.22874 5.0063,-48.79238 3.98645,-98.2997 -4.25,-146.68629 -6.15603,-35.35388 -16.8358,-70.07567 -33.25408,-102.04903 -3.73006,-7.36533 -7.88894,-14.46701 -11.31764,-21.95842 -1.64324,-4.15863 -2.87723,-8.75713 -1.89921,-13.22727 0.8293,-3.14053 2.89959,-5.75354 5.18926,-7.92739 7.10703,-6.65725 15.88394,-10.94311 24.802,-14.61936 14.43117,-5.84745 29.58408,-9.55264 44.82414,-12.57153 24.59268,-4.76343 49.52491,-7.2873 74.52098,-8.75794 12.49744,-0.68084 25.05526,-1.11374 37.5849,-0.88132 7.71748,1.02463 15.07798,3.56977 22.55662,5.63695 18.05574,5.45939 35.73012,12.73181 51.50842,23.08738 9.88516,6.49711 19.25341,14.36616 25.68839,24.44403 4.09527,6.41822 6.71307,13.71396 7.34872,21.30402 0.63028,7.6345 -0.57423,15.38164 -2.69531,22.75977 -4.01693,13.57139 -10.96439,26.26802 -18.84914,38.00969 -11.35368,16.92575 -24.89731,32.26044 -39.21151,46.72499 -10.06337,10.21882 -20.61842,19.93531 -30.98789,29.83952 -10.05551,9.59851 -19.88262,19.44068 -29.29586,29.67199 -23.31493,25.23663 -44.47084,52.6758 -61.10143,82.80967 -12.15959,22.123 -21.63169,45.95474 -25.84548,70.9275 -3.51246,20.77246 -3.0664,42.3901 2.67715,62.72835 5.67749,20.41636 16.73169,39.21868 31.37752,54.49193 15.87695,16.66888 35.65875,29.19684 56.59723,38.52251 20.35842,9.02792 41.92759,15.09482 63.77386,19.26268 28.46516,5.39249 57.46732,7.47184 86.40929,7.78315 42.11418,0.33856 84.1484,-3.68777 125.76812,-9.87886 29.83634,-4.52739 59.54925,-10.30967 88.49493,-18.93006 22.5415,-6.7715 44.6882,-15.33452 64.98618,-27.35161 14.81952,-8.82021 28.60604,-19.72484 39.32811,-33.3208 10.63295,-13.55876 17.9837,-29.88349 20.01493,-47.05945 2.15204,-17.04753 -0.47785,-34.50103 -6.5045,-50.52772 -6.24758,-17.07687 -15.81667,-32.73805 -26.59923,-47.30826 -14.76952,-19.72406 -32.30223,-37.20352 -50.70831,-53.52359 -10.21023,-8.92787 -20.7419,-17.55447 -32.14614,-24.92619 -8.58115,-4.73259 -17.87258,-8.07234 -26.25568,-13.17977 -15.54094,-8.69002 -30.11303,-19.44344 -41.83621,-32.92778 -6.21796,-7.26086 -11.40395,-15.34605 -14.63817,-24.37114 -2.55328,-7.22073 -3.71681,-14.88073 -3.34199,-22.52708 0.43957,-9.76355 3.21363,-19.4887 7.14767,-28.47477 5.30756,-12.05205 12.60384,-23.15077 20.68518,-33.47972 16.51884,-20.93489 36.17645,-39.16259 56.92679,-55.84975 16.3769,-13.19427 33.54714,-25.35272 50.66388,-37.55731 19.77282,-14.10489 39.50838,-28.27725 58.58669,-43.31531 17.11322,-13.42909 33.85072,-27.41652 49.19053,-42.87086 9.8906,-10.14812 19.0026,-21.29904 25.2736,-34.08141 4.8963,-10.2289 7.226,-21.90936 5.3591,-33.18096 -2.0544,-12.44649 -8.8805,-23.84904 -18.2389,-32.20269 -10.9434,-10.10552 -23.9326,-17.53937 -36.3459,-25.63523 -13.42936,-8.68648 -26.85141,-17.67649 -37.77172,-29.48382 -9.66886,-10.40242 -17.48111,-22.66653 -22.01099,-36.16983 -4.15344,-11.96458 -7.08643,-24.38779 -12.46378,-35.909186 C 912.53903,78.846029 904.31536,66.46706 893.27398,56.986299 880.69973,46.128172 864.41966,39.686854 847.82739,38.948803 c -2.10767,-0.107702 -4.21948,-0.120171 -6.32934,-0.08943 z" />
    <path
       id="path3"
       style="fill:#00c389;stroke:#ffffff;stroke-width:5.29167;stroke-dasharray:none;stroke-dashoffset:0;stroke-opacity:1;fill-opacity:1"
       d="m 842.07031,119.05859 c -7.72655,1.38599 -14.89325,5.07062 -21.68234,8.96198 -15.01501,8.66577 -28.48763,19.82812 -41.34645,31.39449 -13.49159,12.24747 -25.587,25.90957 -38.86755,38.37518 -10.624,9.17488 -22.61369,16.53638 -34.2046,24.38838 -31.76319,20.73708 -65.68013,38.53687 -101.79485,50.39226 -21.93011,7.13934 -45.09048,11.17677 -68.2,9.88354 -22.69715,-1.26278 -45.23255,-8.93068 -63.26345,-22.92185 -17.32698,-13.38598 -30.39895,-31.94686 -38.03698,-52.406 -6.22475,-16.40344 -9.29126,-33.78251 -11.69314,-51.10016 -1.06352,-7.00579 -2.21387,-14.20074 -5.66608,-20.49171 -1.90276,-3.45978 -5.17276,-6.09817 -8.9408,-7.26616 -6.00373,-2.15782 -12.42495,-2.56453 -18.73105,-2.65688 -14.00966,-0.11681 -27.88445,2.47139 -41.45588,5.78127 -24.15441,5.985 -47.46784,14.91057 -70.2065,24.91672 -20.10085,8.90383 -39.71936,18.90967 -58.99822,29.50285 -10.16106,83.88252 -20.50191,167.74323 -30.60525,251.63273 -0.93731,7.99772 -1.94772,15.98786 -2.83914,23.99034 -1.32465,14.88208 -1.44963,29.84681 -1.42632,44.78821 0.16015,28.2575 2.0567,56.45685 4.94884,84.55942 5.29237,49.11832 14.42169,97.80919 26.57812,145.69727 3.07659,11.91414 6.67536,23.74046 12.21951,34.78196 1.01523,2.00805 2.08522,3.99054 3.30002,5.88601 7.57859,-4.85128 13.84829,-11.40095 19.99763,-17.89642 9.6854,-10.49815 18.11268,-22.05284 25.97698,-33.94343 0.46324,-1.67301 0.3924,-3.40067 0.72756,-5.12901 3.80339,-30.13989 4.67765,-60.67173 3.08771,-90.99574 -1.97079,-34.77671 -8.12423,-69.50994 -20.68013,-102.09448 -4.29611,-11.1435 -9.50411,-21.91516 -15.21396,-32.39803 -5.73607,-10.78451 -11.14816,-21.89008 -14.11454,-33.80071 -5.04175,-19.67035 -4.05778,-41.00956 3.6836,-59.85546 6.52831,-15.91541 17.56917,-29.746 30.88705,-40.53322 13.32651,-10.84043 28.79124,-18.73529 44.72233,-24.99016 25.82977,-10.06991 53.06826,-16.04964 80.45544,-19.98774 16.22556,-2.32759 32.53334,-4.03333 48.87072,-5.34826 21.04667,-1.6326 42.18856,-2.43761 63.29086,-1.549 13.06731,1.23025 25.63904,5.20886 38.20136,8.78706 27.88361,8.37404 54.84063,20.4283 78.68552,37.24827 16.56585,11.75573 31.32666,26.3004 42.27351,43.47481 7.74964,12.12325 13.51136,25.5378 16.73442,39.5713 4.78728,20.37489 4.48467,41.87521 -0.55658,62.17225 -5.06463,21.36042 -14.48892,41.49007 -26.20442,59.98364 -16.92295,27.03367 -38.2527,51.00069 -60.95389,73.28878 -20.69844,20.45046 -42.4128,39.92659 -61.37512,62.05813 -11.65205,13.62147 -22.68707,27.81476 -32.15561,43.06336 -6.48613,10.44689 -12.32364,21.38899 -16.95185,32.79219 -3.79663,9.41679 -6.73471,19.27609 -8.00946,29.32319 -0.93217,7.63532 -0.82038,15.41659 1.02811,22.93412 1.22055,4.85227 3.21936,9.44827 5.93287,13.59561 6.34911,9.81925 15.8693,17.16442 25.87815,22.90326 14.78795,8.41368 31.19856,13.68753 47.67972,17.59936 30.21662,7.04181 61.40629,8.69946 92.38321,8.49161 43.52347,-0.39537 86.89097,-5.47523 129.67,-13.2775 22.07641,-4.07316 44.00257,-9.2133 65.23378,-16.64053 13.45426,-4.73963 26.68592,-10.48325 38.54745,-18.5035 5.20299,-3.58413 10.19307,-7.83377 13.58336,-13.16855 1.78027,-2.88857 2.07111,-6.60759 1.50013,-9.9567 -0.81636,-4.51199 -2.38394,-8.89145 -4.2688,-12.98469 -2.99718,-6.39578 -6.79636,-12.43015 -10.82881,-18.21274 -8.52943,-12.06358 -18.68182,-22.93408 -29.25634,-33.25055 -9.73146,-9.41825 -20.02448,-18.2739 -30.94686,-26.28594 -3.41819,-2.36154 -7.24147,-4.01831 -10.96659,-5.84619 -5.33324,-2.50809 -10.49702,-5.35672 -15.64541,-8.21874 -23.87172,-13.46057 -46.00249,-30.39994 -63.85744,-51.2885 -13.92236,-16.32668 -24.79558,-35.38186 -30.88497,-55.99715 -4.1593,-13.96725 -6.0644,-28.60188 -5.62039,-43.17308 0.53812,-20.68591 5.597,-41.14757 14.07227,-59.98533 10.16926,-23.03554 24.70381,-43.91835 41.24716,-62.81115 22.27816,-25.58821 48.02421,-47.92563 75.04243,-68.33982 36.63891,-27.78818 75.23746,-53.01231 110.4848,-82.62133 7.60506,-6.39414 15.0308,-13.00459 22.1814,-19.90446 -17.43811,-11.28955 -34.91033,-22.78416 -50.17823,-36.95875 -17.66626,-16.22509 -32.16844,-35.91551 -42.2257,-57.70078 -5.29349,-11.31786 -9.37844,-23.15899 -12.81315,-35.16044 -1.85068,-5.75185 -3.82145,-11.57343 -7.29854,-16.59214 l -0.0986,0.0164 z" />
    <path
       id="path1"
       style="fill:none;stroke:#ffcd00;stroke-width:5.29167;stroke-dasharray:5.29166985, 21.16667938;stroke-dashoffset:0;stroke-opacity:1"
       d="m 841.80273,80.111328 c -9.94444,0.544357 -19.54664,3.707294 -28.49841,7.823868 -16.67007,7.695945 -31.6805,18.534904 -45.8396,30.144394 -17.8034,14.61911 -34.03452,31.0242 -49.46472,48.09033 -4.48897,4.51576 -9.97399,7.82954 -15.07339,11.58567 -26.11735,18.40526 -53.69259,34.87585 -82.96336,47.76118 -18.80701,8.2356 -38.48883,14.86881 -58.89684,17.61995 -14.05445,1.85241 -28.59323,1.57892 -42.24628,-2.5152 -13.65563,-4.09798 -26.0937,-12.3587 -34.86817,-23.62989 -8.65086,-10.86956 -14.19684,-23.90476 -17.63937,-37.28174 -2.84692,-10.78475 -4.09423,-21.89358 -5.48887,-32.93648 -1.72736,-11.96434 -5.27352,-23.85085 -12.00603,-33.98832 -4.95703,-7.46362 -11.81906,-13.647786 -19.79514,-17.73883 -9.38598,-4.873255 -19.92808,-7.174471 -30.38667,-7.983081 -13.72781,-1.015487 -27.54021,0.265798 -41.07623,2.592402 -20.18902,3.544172 -39.8925,9.522797 -59.14895,16.482009 -27.10457,9.85012 -53.33335,22.02599 -78.90319,35.29121 -12.30389,6.41511 -24.47508,13.19622 -36.43915,20.27823 -11.90033,96.69651 -23.8563,193.38659 -35.63661,290.09759 -2.87193,30.91911 -2.62559,62.05946 -1.04359,93.05549 1.99328,37.75753 6.5206,75.36937 12.84887,112.6343 5.29057,31.05121 11.89062,61.89032 19.73953,92.40403 4.11248,15.2692 9.30091,30.49447 17.1076,44.32195 4.25384,7.45258 9.49454,14.57746 16.54475,19.60969 4.9004,3.38959 10.8838,5.34945 16.85103,4.79508 3.50825,-0.25 6.9472,-1.12547 10.15872,-2.31508 9.3645,-3.56356 17.61797,-9.50117 25.12039,-15.98215 12.44359,-10.8397 23.13851,-23.51928 33.00166,-36.70561 5.87164,-7.89915 11.33029,-16.08264 16.48148,-24.47974 0.76484,-3.01927 0.96034,-6.1408 1.49843,-9.2015 3.46315,-24.51065 4.89054,-49.2998 4.88181,-74.07193 -0.12006,-38.84206 -4.38978,-77.77466 -14.93298,-115.22657 -5.94763,-20.95722 -13.97354,-41.34458 -24.54101,-60.42578 -4.82007,-8.54797 -9.71065,-17.26951 -12.27761,-26.83048 -3.07987,-10.78607 -3.58401,-22.51584 -0.17193,-33.28993 3.39293,-10.98038 10.43062,-20.58896 19.12727,-27.99294 10.19821,-8.81033 22.29573,-15.12007 34.71708,-20.18354 17.52756,-7.07326 35.94099,-11.67838 54.47413,-15.21702 23.87731,-4.5014 48.0763,-7.12405 72.3129,-8.71102 14.61966,-0.9214 29.26905,-1.48744 43.92011,-1.46377 3.54996,-0.0107 7.11733,0.16619 10.58789,0.96333 9.91635,1.95127 19.64194,4.75875 29.29789,7.72365 20.30224,6.42766 40.03723,14.96433 57.98522,26.4912 14.21524,9.1854 27.19743,20.62675 36.81416,34.63942 8.94755,13.16177 14.63993,28.66067 15.525,44.59975 1.01719,16.01245 -2.22573,32.07362 -8.00959,46.96102 -6.4946,16.908 -16.00283,32.49139 -26.58587,47.1309 -16.18262,22.13768 -35.24552,42.0069 -55.24384,60.71624 -13.45929,12.69611 -27.0533,25.28202 -39.59138,38.89046 -20.76874,22.11323 -39.73471,46.02262 -55.00237,72.28744 -8.22452,14.2698 -15.20522,29.32361 -19.97819,45.09826 -4.07867,13.57723 -6.45797,27.84204 -5.81609,42.05385 0.35809,8.35085 1.87272,16.84304 4.50242,24.73282 4.44309,13.62178 12.66284,25.81907 22.87341,35.79187 10.00096,9.75796 21.87416,17.51446 34.39544,23.6871 14.28031,7.01487 29.4403,12.07188 44.87442,15.92529 17.91193,4.41966 36.29933,7.14999 54.67187,8.78125 28.17332,2.44862 56.56208,2.23587 84.76245,0.61689 33.5418,-2.04533 66.89951,-6.35338 99.97273,-12.23114 28.1331,-5.1 56.16724,-11.69886 82.89307,-22.04586 14.76437,-5.74335 29.17859,-12.7317 41.97331,-22.16411 9.59039,-7.08135 18.2818,-15.77482 23.58324,-26.56571 3.50466,-7.14653 5.40137,-15.06432 5.31892,-23.05186 -0.0255,-9.3862 -2.41373,-18.7222 -5.88848,-27.41954 -6.12514,-15.10211 -15.32766,-28.68663 -25.58544,-41.27816 -15.40196,-18.81111 -33.25243,-35.56116 -52.22413,-50.75851 -3.7095,-2.92558 -7.32879,-5.89833 -11.24175,-8.54315 -2.94832,-1.83882 -6.2639,-2.97113 -9.39012,-4.46196 -15.8563,-7.3918 -31.0759,-16.24718 -44.93053,-26.95882 -11.34155,-8.78073 -21.91171,-18.68258 -30.59164,-30.1399 -9.95549,-13.04807 -17.56822,-28.08624 -20.92897,-44.21496 -2.92176,-13.79911 -2.91264,-28.20441 -0.012,-42.00635 4.10365,-20.37529 13.51291,-39.32831 25.21118,-56.37451 13.65403,-19.93851 30.33201,-37.61428 48.0772,-53.9496 20.31889,-18.65483 42.32359,-35.36624 64.85913,-51.23311 18.4349,-13.08865 36.94676,-26.07716 54.95765,-39.74834 17.99249,-13.58239 35.66214,-27.65771 52.21574,-42.95968 8.32535,-7.86002 16.29555,-16.17471 22.60962,-25.77222 2.3635,-3.79136 4.5049,-7.99838 4.5993,-12.55821 -0.1829,-3.68676 -2.6349,-6.73315 -5.15476,-9.21579 -3.6967,-3.62776 -7.98867,-6.5702 -12.2294,-9.51517 -10.03512,-6.74713 -20.53567,-12.76821 -30.46925,-19.66584 -14.25064,-9.66814 -27.82341,-20.59364 -38.9339,-33.8238 -13.04732,-15.32604 -22.84893,-33.41028 -28.47049,-52.74116 -2.76796,-9.06493 -5.10128,-18.3407 -9.34795,-26.86591 -3.78505,-7.82045 -8.7339,-15.338685 -15.74094,-20.63316 -4.15545,-3.129429 -9.10271,-5.267944 -14.19878,-6.070363 -2.78343,-0.487311 -5.62073,-0.645652 -8.4431,-0.540619 z" />
  </g>
</svg>
