<?xml version="1.0" encoding="UTF-8" standalone="no"?>
<!-- Created with Inkscape (http://www.inkscape.org/) -->

<svg
   width="4200"
   height="4200"
   viewBox="0 0 1111.2499 1111.2499"
   version="1.1"
   id="svg1"
   inkscape:export-filename="track9.png"
   inkscape:export-xdpi="96"
   inkscape:export-ydpi="96"
   sodipodi:docname="track9.svg"
   inkscape:version="1.4.2 (f4327f4, 2025-05-13)"
   xmlns:inkscape="http://www.inkscape.org/namespaces/inkscape"
   xmlns:sodipodi="http://sodipodi.sourceforge.net/DTD/sodipodi-0.dtd"
   xmlns="http://www.w3.org/2000/svg"
   xmlns:svg="http://www.w3.org/2000/svg">
  <sodipodi:namedview
     id="namedview1"
     pagecolor="#ffffff"
     bordercolor="#cccccc"
     borderopacity="1"
     inkscape:showpageshadow="0"
     inkscape:pageopacity="1"
     inkscape:pagecheckerboard="0"
     inkscape:deskcolor="#d1d1d1"
     inkscape:document-units="px"
     inkscape:export-bgcolor="#00c389ff"
     inkscape:zoom="0.12173362"
     inkscape:cx="846.10973"
     inkscape:cy="1762.044"
     inkscape:window-width="1708"
     inkscape:window-height="871"
     inkscape:window-x="2391"
     inkscape:window-y="-9"
     inkscape:window-maximized="1"
     inkscape:current-layer="layer1" />
  <defs
     id="defs1">
    <inkscape:path-effect
       effect="bspline"
       id="path-effect6"
       is_visible="true"
       lpeversion="1.3"
       weight="33.333333"
       steps="2"
       helper_size="0"
       apply_no_weight="true"
       apply_with_weight="true"
       only_selected="false"
       uniform="false" />
    <inkscape:path-effect
       effect="bspline"
       id="path-effect4"
       is_visible="true"
       lpeversion="1.3"
       weight="33.333333"
       steps="2"
       helper_size="0"
       apply_no_weight="true"
       apply_with_weight="true"
       only_selected="false"
       uniform="false" />
    <inkscape:path-effect
       effect="bspline"
       id="path-effect2"
       is_visible="true"
       lpeversion="1.3"
       weight="33.333333"
       steps="2"
       helper_size="0"
       apply_no_weight="true"
       apply_with_weight="true"
       only_selected="false"
       uniform="false" />
    <inkscape:path-effect
       effect="bspline"
       id="path-effect1"
       is_visible="true"
       lpeversion="1.3"
       weight="33.333333"
       steps="2"
       helper_size="0"
       apply_no_weight="true"
       apply_with_weight="true"
       only_selected="false"
       uniform="false" />
  </defs>
  <g
     inkscape:label="Capa 1"
     inkscape:groupmode="layer"
     id="layer1">
    <path
       id="path2"
       style="fill:#000000;fill-opacity:1;stroke:#ffffff;stroke-width:6.40834;stroke-dasharray:none;stroke-opacity:1"
       d="M 720.12866,20.056145 C 664.59847,21.684093 609.40762,30.363402 555.62722,44.107919 499.7768,58.584827 444.72773,76.059625 388.73267,89.93722 c -20.58358,5.05831 -41.38203,9.343842 -62.47223,11.60724 -10.69793,1.19699 -21.49668,1.77082 -32.28313,1.53892 -22.03261,-0.3418 -43.94509,-2.86528 -65.89402,-4.681515 -21.85727,-1.91702 -43.86536,-3.648335 -65.79304,-1.86112 -18.95704,1.521832 -37.84111,6.034345 -54.8318,14.719655 -18.390801,9.33072 -34.353212,23.24478 -46.469253,39.90251 -10.514493,14.33318 -18.178998,30.55768 -24.131834,47.24937 -6.157106,17.35137 -10.372981,35.36091 -13.217065,53.54122 -4.049236,26.22804 -5.136131,52.88695 -3.749869,79.38185 1.473832,26.64263 5.673351,53.21055 13.490568,78.75105 8.29611,26.70356 21.584194,51.7747 38.56587,73.96642 8.217641,10.81821 16.911862,21.26516 25.41177,31.8633 5.819633,7.31968 11.548483,14.73187 16.687993,22.55019 5.17431,8.14985 9.36461,16.96083 11.93246,26.24889 4.24635,15.52878 5.15068,31.72115 5.53521,47.77467 0.60839,24.40965 -0.57367,48.81258 -1.34196,73.20471 -1.25956,35.82847 -2.92535,71.70331 -1.37021,107.54997 1.14102,21.27649 4.04038,42.69742 11.50514,62.75423 5.77026,15.45133 14.75646,29.91602 27.15733,40.91479 17.90888,15.90126 41.92119,24.6209 65.84408,24.19004 17.59289,-0.10719 34.89231,-4.18042 51.57292,-9.49705 26.445,-8.52782 51.60169,-20.59159 78.04589,-29.07385 0.69985,-0.225 1.44906,-0.45761 2.16797,-0.68555 5.83746,11.55086 10.23553,23.74551 15.41228,35.58984 7.51148,17.92895 15.45353,35.9045 26.94948,51.69443 9.25335,12.68325 21.03172,23.76337 35.08268,30.93997 20.96287,10.8751 46.09939,13.2743 68.78401,6.7847 16.50426,-4.4553 31.80422,-12.38775 46.48642,-20.99166 24.50725,-14.4824 47.4921,-31.45236 72.53708,-45.0442 6.49934,-3.39752 13.05667,-6.85415 20.14348,-8.86636 1.07096,-0.27634 2.08298,-0.48527 3.18269,-0.61257 2.95062,1.84022 5.73854,4.13443 8.44785,6.3911 9.56145,8.17983 17.5404,17.96767 25.70326,27.48844 21.19926,25.05036 41.06283,51.37365 64.76742,74.17935 14.9899,14.3831 31.82065,27.1711 50.86341,35.6908 18.823,8.4176 39.63042,12.2756 60.22432,11.3339 14.74158,-0.633 29.326,-3.7503 43.17487,-8.7967 20.34346,-7.3973 39.13089,-18.7765 55.67044,-32.6887 20.8445,-17.5887 38.13695,-39.4058 50.36715,-63.78909 9.3021,-18.6659 15.6623,-38.92521 17.6077,-59.7343 2.2214,-24.35002 -1.7285,-49.33968 -12.0382,-71.5565 -8.4411,-18.40801 -20.73095,-34.84207 -34.8311,-49.29326 -21.10892,-21.99282 -45.83015,-39.98404 -70.00568,-58.38941 -5.92171,-4.49902 -11.82044,-9.0286 -17.65652,-13.63837 20.64565,-16.12614 42.52713,-30.73822 61.81416,-48.53842 10.978,-10.2809 21.03208,-21.82532 27.95402,-35.26454 10.04857,-19.25069 12.4792,-42.40237 6.33291,-63.25846 -4.79684,-16.54893 -14.68751,-31.41919 -27.46827,-42.88975 -12.15313,-11.02385 -26.49951,-19.35667 -41.40206,-26.08039 -20.02037,-8.95166 -41.14191,-15.20064 -62.48091,-20.11956 -21.60011,-4.92961 -43.50985,-8.43686 -65.5136,-10.97342 -40.23065,-4.57463 -80.8082,-5.57981 -121.25878,-4.26715 -41.66609,1.06828 -83.30246,3.66651 -124.99648,3.36111 -14.5701,-0.20348 -29.19967,-0.82481 -43.49432,-3.70354 -6.011,-1.18816 -11.93966,-2.62037 -17.60385,-5.00416 -3.47722,-1.56207 -6.77518,-3.88659 -9.16993,-6.76758 -5.03094,-6.43226 -7.41745,-14.45688 -8.5612,-22.41126 -1.11309,-7.70162 -0.89055,-15.68381 0.56313,-23.34241 1.79726,-9.19665 5.1427,-18.42874 11.12698,-25.80883 3.09151,-3.81374 6.96351,-6.94731 11.24524,-9.33365 7.15511,-4.06854 15.07836,-6.54753 23.01828,-8.57021 15.49951,-3.79534 31.56494,-4.91734 47.54156,-4.93242 14.0654,0.0183 28.09476,0.88065 42.09019,2.22644 41.4804,4.12427 82.21532,13.63987 122.51606,24.09241 47.51682,12.25574 94.66741,25.95985 142.465,37.09475 26.41323,5.96796 53.19929,10.81085 80.29617,12.04219 20.45564,0.79985 41.21266,-1.06481 60.7337,-7.47107 19.9904,-6.54003 38.5802,-17.80151 52.9024,-33.28516 14.7733,-15.88011 25.0752,-35.78282 29.895,-56.90535 4.1591,-18.32503 4.399,-37.41183 1.7116,-55.96998 -2.6707,-18.42461 -8.0748,-36.39372 -15.3066,-53.52509 -11.4493,-27.02746 -27.462,-51.95337 -45.9484,-74.68551 -17.1493,-21.00574 -36.53726,-40.16476 -57.52357,-57.3242 C 945.6547,81.003164 909.92674,59.783758 871.60768,45.067232 842.15516,33.77354 811.21999,26.455667 779.87432,22.990959 760.04648,20.760747 740.07519,19.979339 720.12866,20.056145 Z"
       sodipodi:nodetypes="ccccccccccccccccccccccccccccccccccccccccccccccccccccccccccccccccccccccccccccccc" />
    <path
       id="path4"
       style="fill:#00c389;fill-opacity:1;stroke:#ffffff;stroke-width:6.40834;stroke-dasharray:none;stroke-opacity:1"
       d="m 721.82983,117.34911 c -49.36512,1.14722 -98.26583,9.6414 -146.01562,21.94141 -55.05639,14.34701 -109.20579,32.02203 -164.47842,45.58411 -30.94055,7.53525 -62.38121,13.57418 -94.22915,15.36173 -17.76339,1.00048 -35.57637,0.40771 -53.30724,-0.89547 -23.43372,-1.69671 -46.76894,-4.55321 -70.21255,-6.12254 -10.04852,-0.60793 -20.22694,-0.6368 -30.14348,1.1037 -6.49893,1.12986 -12.98755,3.44022 -18.04518,7.79465 -4.20481,3.71244 -7.42518,8.54279 -10.13264,13.4667 -5.44142,10.00274 -8.94862,20.89285 -11.72003,31.88268 -3.52875,14.25765 -5.44226,28.83683 -6.39733,43.48265 -1.17377,20.15757 -0.56058,40.49526 2.45922,60.47936 1.87973,12.27303 4.62851,24.45059 8.79671,36.15915 2.68055,7.32485 6.04667,14.42228 9.96087,21.1486 4.54448,7.8699 10.05833,15.14383 15.61982,22.26948 13.9676,17.84348 29.32932,34.66065 41.64776,53.74614 15.42474,23.84216 25.55379,51.03467 29.79194,79.09561 3.22609,20.90156 3.8685,42.09683 3.87407,63.21494 -0.0809,25.11693 -1.22256,50.21328 -2.22114,75.30587 -1.03203,25.46368 -2.15733,50.94887 -1.60193,76.43899 0.28678,11.99692 0.90497,24.02196 3.65665,35.73187 0.7653,3.02467 1.51256,6.02041 2.75822,8.90022 0.17189,0.55647 0.90451,0.18388 1.33203,0.30078 5.856,-0.0388 11.61366,-1.50584 17.24118,-3.22032 17.68359,-5.28622 34.6104,-12.96033 51.82164,-19.67301 16.80955,-6.72737 33.85584,-13.18297 51.65796,-16.74842 12.36666,-2.38152 25.22368,-3.28567 37.64766,-0.7917 16.81933,3.42847 32.04459,13.2647 42.79251,26.55605 9.8486,11.80957 17.03239,25.55183 23.26531,39.53348 8.05498,18.08774 14.42639,36.9214 23.47022,54.57049 1.57375,3.04723 3.24118,6.14969 5.54688,8.74023 7.92169,-2.26459 14.9875,-6.63712 22.06496,-10.72471 15.11503,-9.03506 29.53475,-19.16089 44.38303,-28.61521 18.39554,-11.8617 37.31569,-23.21921 57.83997,-31.02295 14.7485,-5.60657 30.46801,-9.23842 46.323,-8.76825 16.00572,0.44159 31.79182,5.24769 45.53943,13.40846 14.93494,8.69303 27.82659,20.42995 39.72242,32.86755 19.37605,20.37421 36.11551,43.03013 54.27621,64.45917 8.64523,10.2297 17.59812,20.25894 27.60684,29.185 6.52992,5.66561 13.64907,10.90515 21.80967,13.94945 4.9872,1.73783 10.49678,2.2175 15.7711,1.50119 8.02662,-0.96458 15.77443,-3.98908 22.83506,-7.92366 13.23865,-7.41906 24.60649,-17.97662 33.35509,-30.33477 5.9947,-8.53694 10.81174,-17.99725 13.57254,-28.04393 1.8305,-6.77742 2.63327,-14.0482 1.61941,-21.00769 -1.05976,-7.9109 -4.97946,-15.06404 -9.61142,-21.47986 -7.01423,-9.71388 -15.7197,-17.99511 -24.67762,-25.85799 -16.22693,-14.10039 -33.84019,-26.45841 -50.94263,-39.45865 -14.5132,-10.90947 -28.98477,-22.03162 -41.64199,-35.1041 -8.71012,-9.12663 -16.2956,-19.61814 -20.5521,-31.58374 -4.85072,-13.76718 -4.19504,-29.33633 1.64925,-42.69799 5.09206,-12.04539 13.38919,-22.43005 22.56115,-31.62799 13.04273,-13.02108 27.93079,-23.97144 42.72451,-34.88307 10.67727,-7.84293 21.48953,-15.56617 31.69204,-24.01165 3.18786,-2.66559 6.31031,-5.41134 9.3125,-8.28516 -5.12047,-3.23893 -10.68227,-5.55562 -16.22218,-7.91945 -16.37671,-6.56207 -33.55939,-10.69153 -50.80564,-14.21214 -25.14539,-5.00337 -50.68852,-7.88981 -76.25538,-9.49341 -36.37074,-2.09355 -72.82465,-0.91221 -109.18938,0.68868 -35.86803,1.47481 -71.77846,3.31935 -107.68204,2.02063 -23.3562,-1.00473 -46.83264,-3.65771 -69.23022,-10.61076 -17.54235,-5.48823 -34.27373,-14.16219 -47.9897,-26.50089 -18.26502,-16.34914 -31.37623,-38.14975 -38.11747,-61.66159 -11.95308,-40.75784 -7.44863,-86.07752 12.3154,-123.67463 10.67858,-20.1483 26.17407,-37.84765 45.23245,-50.44686 17.70975,-11.88622 37.90096,-19.69227 58.60652,-24.50492 29.00869,-6.83638 59.03079,-8.14513 88.72337,-6.95414 35.31503,1.46563 70.34623,6.86049 104.95271,13.86529 49.31504,10.13836 97.64355,24.39099 146.25007,37.38385 28.82403,7.72974 57.66924,15.47492 87.08337,20.65901 13.92528,2.30803 28.01604,4.22814 42.18386,3.72156 6.86911,-0.31647 13.86936,-1.33893 20.33467,-3.85724 5.29648,-2.123 10.21758,-5.77475 12.8128,-10.96753 2.9275,-5.54233 3.6972,-11.92042 3.6836,-18.09288 -0.012,-10.79826 -2.68439,-21.47664 -6.29012,-31.64036 -5.46654,-15.17547 -13.36018,-29.34141 -22.4968,-42.6055 -10.4341,-15.08716 -22.59318,-28.89938 -35.65791,-41.71442 -24.08864,-23.4997 -52.08815,-43.0088 -82.55514,-57.3153 -25.08853,-11.68459 -52.10463,-19.08539 -79.51787,-22.51851 -17.31082,-2.21212 -34.77512,-3.02961 -52.23733,-2.94537 z"
       sodipodi:nodetypes="cccccccccccccccccccccccccccccccccccccccccccccccccccccccccccccccccccccccccccccccc" />
    <path
       style="fill:none;stroke:#ffdc00;stroke-width:4.36958;stroke-dasharray:4.36958, 17.4783;stroke-dashoffset:0;stroke-opacity:1"
       d="m 137.16865,183.61759 c 30.69777,-38.87739 86.4199,-23.37285 156.44909,-27.51001 70.02919,-4.13716 154.35815,-27.9152 235.39562,-43.64246 81.03747,-15.727269 158.77372,-23.40187 221.43023,2.25189 62.65651,25.65375 110.22675,84.63398 130.36189,140.70664 20.13514,56.07265 12.83468,109.23339 -42.99613,117.7979 -55.83081,8.56451 -160.18527,-27.46825 -243.18777,-49.52647 -83.00249,-22.05821 -144.6431,-30.13926 -176.84868,3.47974 -32.20558,33.619 -34.97231,108.93404 13.71352,138.29762 48.68583,29.36357 148.81836,12.77218 236.18902,15.51604 87.37066,2.74385 161.9689,24.82262 155.02437,54.14943 -6.94454,29.32682 -95.43106,65.89818 -92.17659,105.96341 3.25448,40.06523 98.24955,83.61956 110.67594,142.14948 12.42639,58.52992 -57.71738,132.0284 -113.27347,119.70388 C 672.3696,890.63016 631.40786,792.48414 579.4923,778.79763 527.57675,765.11111 464.71364,835.88576 427.88249,830.29966 391.05133,824.71355 380.25657,742.76737 339.75021,731.13951 299.24385,719.51164 229.03078,778.20349 202.09914,745.67716 175.1675,713.15082 191.52052,589.41022 180.90578,518.09467 c -10.61475,-71.31555 -48.196,-90.19744 -64.15155,-146.26969 -15.95554,-56.07226 -10.28335,-149.33 20.41442,-188.20739 z"
       id="path1"
       transform="matrix(1.2176462,0,0,1.2044387,-47.908338,-44.5861)"
       sodipodi:nodetypes="ccccccccccccccccccccc" />
  </g>
</svg>
