<?xml version="1.0" encoding="UTF-8" standalone="no"?>
<!-- Created with Inkscape (http://www.inkscape.org/) -->

<svg
   width="4200"
   height="4200"
   viewBox="0 0 1111.25 1111.25"
   version="1.1"
   id="svg1"
   inkscape:version="1.4.2 (f4327f4, 2025-05-13)"
   sodipodi:docname="track10.svg"
   inkscape:export-filename="track10.png"
   inkscape:export-xdpi="96"
   inkscape:export-ydpi="96"
   xmlns:inkscape="http://www.inkscape.org/namespaces/inkscape"
   xmlns:sodipodi="http://sodipodi.sourceforge.net/DTD/sodipodi-0.dtd"
   xmlns="http://www.w3.org/2000/svg"
   xmlns:svg="http://www.w3.org/2000/svg">
  <sodipodi:namedview
     id="namedview1"
     pagecolor="#ffffff"
     bordercolor="#cccccc"
     borderopacity="1"
     inkscape:showpageshadow="0"
     inkscape:pageopacity="1"
     inkscape:pagecheckerboard="0"
     inkscape:deskcolor="#d1d1d1"
     inkscape:document-units="px"
     inkscape:export-bgcolor="#00c389ff"
     inkscape:zoom="0.16385069"
     inkscape:cx="2075.0599"
     inkscape:cy="1937.7398"
     inkscape:window-width="1708"
     inkscape:window-height="871"
     inkscape:window-x="2391"
     inkscape:window-y="-9"
     inkscape:window-maximized="1"
     inkscape:current-layer="layer1" />
  <defs
     id="defs1" />
  <g
     inkscape:label="Capa 1"
     inkscape:groupmode="layer"
     id="layer1">
    <path
       id="path2"
       style="fill:#000000;fill-opacity:1;stroke:#ffffff;stroke-width:5.3983;stroke-dasharray:none;stroke-dashoffset:0;stroke-opacity:1"
       d="m 210.99704,9.2272166 c -14.69769,0.553488 -28.85642,5.7140864 -41.62434,12.8009994 -15.39768,8.561488 -28.78578,20.256943 -41.17645,32.695665 -15.23536,15.400195 -27.77009,33.25271 -38.772574,51.867849 -8.267325,13.88754 -16.699576,27.67546 -24.838352,41.63806 -6.883803,11.96032 -13.478062,24.13769 -18.64218,36.95835 -5.469564,13.90993 -9.041686,28.84011 -8.270816,43.87481 0.916875,18.22233 7.706169,35.95131 18.507566,50.57179 9.468165,13.16846 21.420333,24.26549 33.524522,34.94023 7.531469,6.73297 12.983294,15.62219 16.131234,25.199 5.16199,15.43415 4.9607,32.11981 1.81154,47.9161 -2.89626,14.58362 -8.336501,28.57408 -14.860584,41.92326 -6.158238,12.59481 -12.79226,24.97136 -18.19786,37.91986 -6.39684,15.26281 -11.624033,31.09222 -14.605009,47.39919 -2.09044,11.63157 -3.12286,23.51108 -2.364929,35.32464 1.013105,15.27391 5.196215,30.52419 13.384093,43.53657 9.184053,14.63857 23.073476,26.23898 39.089999,32.65796 15.72031,6.57516 32.92945,8.91448 49.88211,8.54808 13.84274,-0.19122 27.67145,-1.88368 41.13488,-5.1134 6.93553,-2.30264 12.46669,-7.3305 18.96931,-10.50622 16.37159,-8.76942 34.3966,-14.64891 52.90235,-16.56565 13.83278,-1.45675 27.86647,-0.56394 41.41805,2.53215 15.71485,3.54644 30.79222,10.25969 44.51444,18.85583 7.70353,4.79523 14.919,10.23933 21.883,16.05103 16.59094,13.59951 32.9449,27.58372 50.91016,39.35854 13.73921,9.06716 28.1875,17.33418 43.85455,22.55694 10.57351,3.55746 21.80626,5.52527 32.97363,4.63216 12.95781,-0.94121 25.47129,-6.27315 35.38055,-14.65491 4.58753,-3.82057 8.55905,-8.3397 11.99759,-13.21589 7.98733,-11.01441 13.29697,-23.68025 17.95746,-36.39078 6.44179,-17.55322 11.3616,-35.64793 19.33159,-52.59223 2.70388,-5.67065 5.82587,-11.17327 10.11103,-15.81644 1.96571,-2.16758 4.36006,-4.16159 7.02053,-5.5264 3.06209,-1.62921 6.33967,-2.51266 9.78365,-2.80112 8.27589,-0.76409 16.54877,0.78765 24.54203,2.91928 9.00966,2.44989 17.73974,5.77109 26.40832,9.24511 8.84246,3.60603 17.54755,7.95922 25.10049,13.78904 2.71542,2.21104 5.64323,4.531 6.99069,7.87831 0.99306,2.55975 0.0864,5.35013 -0.83767,7.78783 -2.6146,6.84782 -6.65642,13.03677 -10.89036,18.92537 -8.08389,11.19136 -17.02066,21.71336 -25.6607,32.47939 -10.28183,12.80887 -20.44344,25.90335 -27.948,40.59442 -5.405,10.52216 -9.03206,22.06621 -9.7757,33.91645 -0.57403,6.11884 -1.19578,12.36784 -3.48365,18.14005 -4.00925,11.37413 -10.3033,21.90764 -16.91041,31.99769 -13.70217,20.99713 -29.28782,40.80707 -41.17499,62.95165 -8.15237,15.22106 -14.51649,31.66944 -16.48846,48.92313 -2.09663,18.19755 0.83763,36.85581 7.92677,53.70702 4.283,10.25755 10.13749,19.79422 16.71126,28.72333 11.89848,16.00718 26.49295,29.78149 41.86391,42.38599 17.04672,13.924 35.25245,26.3924 54.1808,37.5952 15.67545,9.0701 32.33237,16.8116 50.07536,20.7443 13.0344,2.9021 26.81475,3.4052 39.78544,-0.1021 16.16923,-4.3329 30.53241,-14.5506 40.53354,-27.9362 9.75365,-12.5635 16.58592,-27.0395 23.35207,-41.3519 4.71842,-9.93523 9.30695,-20.07505 15.36276,-29.23488 1.84732,-2.80943 3.81913,-5.56806 6.32531,-7.83257 2.66406,-2.5652 5.75469,-4.60832 8.7047,-6.81417 5.3358,-4.10224 9.95895,-9.24098 12.97673,-15.29804 4.69449,-9.1352 5.97436,-19.94244 3.65922,-29.94402 -1.25643,-6.28703 -3.72076,-12.23122 -5.90008,-18.23387 4.79388,-4.11029 10.49974,-7.21736 16.24946,-9.88459 28.5754,-13.35203 59.69878,-19.51903 89.31078,-30.03518 11.40643,-4.05629 22.66027,-8.69486 33.1873,-14.72066 8.6849,-5.03756 16.9411,-11.19482 23.0226,-19.28982 5.3649,-7.04249 8.8326,-15.63746 9.2493,-24.52907 0.5571,-10.34226 -2.7584,-20.70735 -8.6837,-29.13472 -3.3672,-4.75072 -7.3252,-9.06224 -11.5458,-13.06121 -9.3184,-8.80973 -20.03592,-15.93336 -29.72349,-24.30529 -2.16911,-1.88539 -4.26599,-3.85541 -6.26029,-5.92617 -0.31782,-2.84142 -0.62381,-5.7065 -1.53176,-8.43226 -3.08804,-11.45599 -10.10737,-21.54928 -18.81482,-29.45652 -10.26002,-9.46119 -22.48573,-16.39563 -34.75753,-22.85908 -16.99563,-8.87466 -34.70725,-16.50154 -50.79577,-27.03399 -2.81008,-1.85849 -5.59674,-3.89132 -7.62078,-6.56027 2.8486,-5.80411 7.60103,-10.32877 12.17054,-14.77305 12.15034,-11.42803 26.22734,-20.5889 40.25322,-29.55391 22.49951,-14.31897 45.58195,-27.94735 66.19805,-44.98606 10.14275,-8.33206 19.82553,-17.37897 27.80103,-27.85868 6.4147,-8.60639 11.4329,-18.52939 13.0134,-29.24172 1.8868,-13.00649 -1.9491,-26.767 -10.4639,-36.78823 -7.1923,-8.68248 -16.88339,-14.8981 -27.01416,-19.60119 -14.20065,-6.6358 -29.3415,-10.83046 -44.23766,-15.55632 -8.88685,-2.7981 -17.80689,-5.63609 -26.24387,-9.6339 -2.01675,-1.06035 -3.79138,-2.34647 -5.47018,-3.77474 -4.48823,-4.08773 -9.14286,-8.07652 -14.46698,-11.0402 -13.2814,-8.02154 -28.22844,-12.78592 -43.27857,-16.1849 -22.5994,-4.94015 -45.77866,-6.54315 -68.86254,-6.96972 -8.29923,-0.11801 -16.59912,0.0461 -24.89555,0.25699 -3.0859,-2.02261 -6.05764,-4.33206 -8.30207,-7.29577 3.82444,-4.71197 9.03528,-7.9783 14.10508,-11.1758 11.03731,-6.70576 23.07687,-11.52586 35.08442,-16.13694 22.50405,-8.42047 45.735,-14.61734 69.05285,-20.30701 29.95641,-7.19877 60.33439,-12.45824 90.39855,-19.1867 23.26221,-5.33254 46.39358,-12.09251 67.76278,-22.91055 12.3026,-6.24445 24.0642,-14.00544 33.3041,-24.37572 8.0923,-9.10123 14.0456,-20.4018 15.6702,-32.57445 1.897,-13.73916 -1.4694,-27.9438 -8.4876,-39.81551 -6.855,-11.78466 -16.6146,-21.59049 -27.1825,-30.0622 -18.5862,-14.8434 -39.991,-25.77894 -62.14948,-34.17913 -17.22654,-6.45846 -35.01501,-11.71822 -53.3025,-14.045967 -10.42159,-1.255903 -21.03546,-1.780567 -31.4507,-0.184494 -8.50265,1.321806 -16.94917,4.020671 -24.08425,8.946511 -8.26147,5.70874 -14.64392,14.29834 -17.12483,24.09921 -0.99307,3.60291 -1.98432,7.40247 -4.54525,10.24961 -6.47663,8.40013 -14.55766,15.38309 -22.96074,21.77469 -14.74951,11.09963 -30.88091,20.20863 -47.63558,27.86778 -13.05544,5.89781 -26.68912,10.76334 -40.7205,13.94192 -7.8326,1.67192 -15.85907,2.67388 -23.88399,2.30786 -3.19566,-0.20573 -6.38439,-0.78562 -9.21284,-2.18417 -1.54861,-1.01556 -1.65394,-3.04567 -1.92301,-4.70701 -0.81471,-7.93822 1.07608,-15.75946 2.91106,-23.45751 2.45873,-9.72333 5.23028,-19.40931 6.74823,-29.34856 1.91237,-11.78613 2.58285,-23.95504 0.24739,-35.73178 -1.95408,-9.49234 -6.15766,-18.701447 -13.01241,-25.645371 -8.87536,-9.135607 -21.50587,-14.266092 -34.17218,-14.503845 -12.24462,-0.40447 -24.35027,2.371553 -35.92268,6.160948 -18.75094,6.171554 -36.54963,14.813735 -54.35597,23.263178 -14.73621,6.98591 -29.36297,14.22181 -44.35917,20.63982 -8.43443,3.56666 -16.96043,6.90099 -25.73551,9.52845 -5.03874,1.37973 -10.24557,2.07057 -15.44772,1.82001 -6.42866,-0.10737 -12.91473,0.078 -19.20738,1.51729 -13.61745,2.75245 -26.43113,8.49895 -38.58561,15.1127 -17.9341,9.8281 -34.57673,21.76289 -51.58317,33.07933 -11.7902,7.87924 -23.71916,15.63575 -36.43005,21.95729 -5.86439,2.81542 -12.07,5.14783 -18.56616,5.88194 -2.90167,0.21952 -5.94101,-0.84157 -7.84549,-3.09868 -2.30441,-2.27917 -4.20014,-5.18441 -5.74082,-8.07152 -4.8515,-8.86299 -7.84307,-18.62871 -10.32653,-28.3676 -5.31026,-20.25599 -7.02485,-41.19605 -10.00622,-61.87995 C 289.87862,92.084628 286.09536,74.448183 278.86427,58.096513 273.62136,46.131618 266.53099,34.76113 256.76701,25.979918 247.05427,17.214555 234.69887,11.328607 221.69302,9.7653586 c -3.54383,-0.463104 -7.12326,-0.632812 -10.69598,-0.538653 z" />
    <path
       id="path3"
       style="fill:#00c389;fill-opacity:1;stroke:#ffffff;stroke-width:5.3983;stroke-dasharray:none;stroke-dashoffset:0;stroke-opacity:1"
       d="m 212.88352,72.520959 c -6.53388,0.923808 -12.3465,4.371673 -17.75398,7.93749 -12.54017,8.40818 -23.24283,19.397571 -32.80649,30.922671 -7.9369,9.68834 -14.54661,20.42116 -20.89878,31.23243 -9.95684,16.80571 -20.31065,33.39287 -29.56985,50.60532 -3.69541,6.99867 -7.21913,14.15586 -9.49302,21.76246 -1.5459,5.45216 -2.380726,11.40366 -0.60047,16.90564 1.76572,5.34332 4.97559,10.06951 8.45872,14.42983 8.79446,10.84479 20.2745,19.11965 29.76232,29.33991 4.06852,4.28384 7.71201,8.95971 10.9341,13.91318 13.23719,19.93397 20.53718,43.58395 21.81513,67.43882 1.45751,25.96206 -3.65629,51.98023 -12.76387,76.21513 -4.69296,12.57358 -10.59632,24.64229 -16.66728,36.59567 -5.82139,11.59281 -11.51606,23.29622 -15.64585,35.59595 -3.43208,10.08319 -6.00303,20.45976 -6.90398,31.09364 -0.43492,5.80717 -0.35848,11.84336 1.16544,17.4447 1.16736,4.40198 3.52646,8.66506 7.36159,11.25972 3.66641,2.63186 7.99204,4.05763 12.33492,4.98818 9.62575,2.07163 19.57702,1.82922 29.32796,0.81985 2.7002,-0.31529 5.358,-0.51581 7.98688,-1.14216 2.69604,-0.81739 4.8164,-2.81554 7.32658,-4.03023 15.36497,-8.61971 31.7517,-15.43166 48.77076,-19.98558 26.70042,-7.19626 54.94888,-8.97533 82.25164,-4.35243 27.2755,4.56132 53.45057,15.08256 76.66797,30.08725 12.90451,8.26477 24.91316,17.83367 36.6091,27.71578 16.02573,13.33443 32.39585,26.52929 50.77333,36.47014 5.93483,3.15553 11.9616,6.19961 18.58922,7.51118 1.09226,0.17241 2.35875,0.52838 3.37517,0.35343 1.28494,-1.10728 2.03738,-2.67893 2.97602,-4.06591 4.16185,-6.8738 6.68162,-14.59853 9.50049,-22.15834 6.87841,-19.16236 12.5677,-38.84384 21.66143,-57.11952 6.78737,-13.66569 15.58827,-26.55102 27.17635,-36.57478 15.87285,-13.77003 36.81675,-21.1535 57.72126,-21.44804 17.2576,-0.27204 34.28777,3.63081 50.59382,9.01393 14.03449,4.68501 27.87735,10.09556 40.95655,17.06056 12.20549,6.52386 23.81053,14.48977 33.2344,24.71668 7.93551,8.62031 14.14241,18.98417 17.19091,30.35773 3.37533,12.2694 3.24568,25.45076 -0.16768,37.69478 -3.91503,14.73531 -11.65458,28.10484 -20.33983,40.49982 -13.94019,19.89199 -30.8281,37.53261 -44.43271,57.67521 -2.59035,3.93036 -5.19362,7.91702 -6.92906,12.31472 -1.25146,3.3596 -1.60793,7.08501 -1.83835,10.71823 -0.97413,11.12963 -3.39152,22.14489 -7.39227,32.58072 -7.60526,20.42611 -19.54057,38.8452 -31.85756,56.68234 -10.30967,14.94704 -20.9962,29.65446 -29.7075,45.59991 -3.87788,7.27827 -7.10358,14.95327 -8.54882,23.1222 -1.29797,7.22415 -0.48519,14.79026 2.09182,21.71376 2.80117,7.49937 7.21131,14.32351 12.13099,20.54853 7.61262,9.51744 16.42621,18.03821 25.72535,25.848 10.67289,8.95626 22.07421,17.09415 33.63656,24.88824 11.9978,8.0082 24.54962,15.4049 38.04963,20.5085 5.39228,2.0324 10.97731,3.6976 16.72337,3.7338 2.36192,-10e-5 4.81151,-0.6905 6.50303,-2.4193 3.55023,-3.2058 6.02256,-7.3754 8.48172,-11.4294 4.15731,-7.21714 7.63135,-14.82892 11.2832,-22.34464 7.0041,-14.65135 13.93195,-29.52234 23.7749,-42.5281 4.34498,-5.73113 9.23429,-11.05535 14.64841,-15.78824 -3.20826,-9.47047 -5.21095,-19.59947 -3.9436,-29.61498 1.62161,-14.50234 9.16114,-28.03662 19.97931,-37.69028 10.05938,-9.35898 22.19891,-16.0911 34.53801,-21.92785 24.25769,-11.2998 50.22361,-18.11038 75.72397,-25.9058 9.83122,-3.06235 19.6721,-6.16701 29.16911,-10.17575 -10.9747,-8.6556 -22.31161,-17.15486 -31.13828,-28.12153 -6.66586,-8.43173 -11.40857,-18.59648 -12.5431,-29.36074 -0.42907,-0.66978 -1.19364,-1.05085 -1.72867,-1.63797 -5.2066,-4.39161 -11.31368,-7.49477 -17.22657,-10.79524 -19.22369,-10.39759 -39.53493,-18.84304 -57.79169,-30.97387 -10.98422,-7.33738 -21.24577,-16.20489 -28.42538,-27.42476 -7.23962,-11.32649 -10.58344,-25.11373 -9.20037,-38.50621 1.08892,-11.01943 5.36258,-21.52855 11.32179,-30.78323 6.69066,-10.3945 15.28027,-19.41496 24.41801,-27.66915 19.8093,-17.78462 42.74556,-31.47794 65.1546,-45.63372 13.98473,-8.82656 27.8859,-17.90563 40.73859,-28.32539 3.82688,-3.12899 7.58922,-6.38495 11.14572,-9.85137 -11.87038,-4.61244 -24.1681,-7.97054 -36.25696,-11.93627 -12.58656,-4.02839 -25.1507,-8.51257 -36.59311,-15.23379 -5.57398,-3.38937 -10.55413,-7.63848 -15.46784,-11.90489 -3.80923,-3.00026 -8.27759,-5.03303 -12.88039,-6.47281 -13.58576,-4.59985 -27.84769,-6.60977 -42.05623,-7.91839 -10.62185,-0.98569 -21.27954,-1.40334 -31.95655,-1.33038 -9.68428,0.0135 -19.36851,0.31066 -29.05191,0.25244 -7.62211,-0.46397 -14.67871,-3.87869 -21.0939,-7.81238 -11.87539,-7.21541 -22.81419,-16.37025 -30.71619,-27.91287 -7.21095,-10.54579 -11.51764,-23.27053 -11.17355,-36.1221 0.25061,-12.3275 4.5074,-24.4771 11.75147,-34.41732 7.53939,-10.71793 17.74472,-19.25989 28.62014,-26.40875 16.97814,-11.05337 35.74481,-18.97578 54.71112,-25.89468 28.39311,-10.21815 57.64564,-17.82049 87.05372,-24.45015 25.59102,-5.71125 51.36615,-10.54976 76.98699,-16.11935 17.3373,-4.05179 34.5091,-9.02672 50.69799,-16.55938 5.71734,-2.69323 11.28344,-5.90581 15.86404,-10.26356 -3.9711,-6.07358 -9.7916,-10.60643 -15.52401,-14.86191 -12.20187,-8.72224 -25.75761,-15.36679 -39.66724,-20.86676 -11.67617,-4.51106 -23.69363,-8.17648 -36.03267,-10.26375 -4.02017,-0.64997 -8.05738,-1.10506 -12.08829,-1.30133 -4.90415,11.84843 -12.8012,22.18436 -21.52351,31.46244 -13.51728,14.2588 -29.54303,25.84196 -46.07854,36.31461 -27.73222,17.40529 -58.15041,30.71109 -90.05762,38.14833 -15.85773,3.64905 -32.31119,5.43756 -48.53455,3.52016 -11.53474,-1.36075 -22.92333,-4.82949 -32.8416,-10.97535 -7.88236,-4.84338 -14.68632,-11.41361 -19.82849,-19.11407 -6.90075,-10.24657 -10.91576,-22.35819 -11.78996,-34.67359 -1.23442,-14.51515 1.00999,-29.09175 4.58573,-43.13401 1.98522,-8.06003 4.30466,-16.04942 5.65778,-24.21584 -12.3633,3.99849 -24.15945,9.51514 -35.95043,14.93067 -20.3895,9.49925 -40.47092,19.68738 -61.19807,28.4385 -10.86769,4.54644 -21.91947,8.73325 -33.32606,11.71316 -10.88233,2.73929 -22.13704,4.0343 -33.35672,3.63829 -5.81551,0.0881 -11.15565,2.57961 -16.39042,4.90806 -9.04348,4.21073 -17.44077,9.59553 -25.85235,14.93828 -21.38873,13.76734 -41.869,29.0383 -64.29702,41.11349 -13.69247,7.31794 -28.28448,13.41536 -43.72057,15.69107 -12.04832,1.752 -24.57802,0.87076 -36.05063,-3.3447 -13.47612,-4.85946 -25.38223,-13.8246 -34.02885,-25.24494 -8.92815,-11.53443 -15.19737,-24.90044 -19.95659,-38.63687 -7.41259,-21.25959 -11.15081,-43.57081 -14.13863,-65.82509 -1.30073,-9.39235 -2.39016,-18.82432 -3.88608,-28.17136 -1.63041,-9.95541 -3.8605,-19.841337 -7.95727,-29.099945 -1.50548,-3.257258 -3.09601,-6.551041 -5.44437,-9.29292 -0.69624,-0.695815 -1.54551,-1.506706 -2.60695,-1.421516 z" />
    <path
       style="fill:none;stroke:#ffe600;stroke-width:5.3983;stroke-dasharray:5.3983, 21.5932;stroke-dashoffset:0;stroke-opacity:1"
       d="m 118.92579,113.97192 c 29.77273,-51.260428 129.85565,-146.365868 146.15304,11.10037 24.79985,239.61741 149.88277,30.53295 225.87289,37.74125 62.48079,5.92683 231.6485,-144.5617 188.22743,4.44014 -41.50647,142.43173 194.12494,32.89538 203.17488,-26.64086 8.82318,-58.044443 339.49067,79.2212 47.05686,133.2044 -311.75097,57.54912 -179.07365,125.75496 -174.94078,126.54419 0,0 107.01734,-7.87423 139.50973,26.64089 31.1699,33.11029 205.94296,22.20072 17.71553,135.42448 -188.22742,113.22374 39.10711,113.9316 39.85992,173.16574 0.47032,37.00562 139.50971,64.38211 -22.14439,108.7836 -161.65414,44.40144 -56.37273,75.31321 -95.22092,99.90331 C 778.33267,979.63597 803.1878,1124.1053 645.96256,1006.4415 488.73729,888.77759 654.67119,825.92022 657.03476,735.59252 658.71895,671.22826 825.3322,595.72787 659.24918,542.4461 493.16617,489.16436 613.28832,802.82181 402.37413,620.14869 292.87374,525.31024 192.10377,602.36823 192.00232,602.3881 90.131936,622.33733 56.916269,558.44952 114.49691,451.42309 161.09021,364.81906 131.50066,311.11827 107.85358,291.5778 34.367481,230.85349 72.403422,194.07061 118.92579,113.97192 Z"
       id="path1"
       sodipodi:nodetypes="ssssssssssssssssssss" />
  </g>
</svg>
