<?xml version="1.0" encoding="UTF-8" standalone="no"?>
<!-- Created with Inkscape (http://www.inkscape.org/) -->

<svg
   width="4096"
   height="4096"
   viewBox="0 0 1083.7333 1083.7333"
   version="1.1"
   id="svg1"
   inkscape:export-filename="track8.png"
   inkscape:export-xdpi="96"
   inkscape:export-ydpi="96"
   inkscape:version="1.4.2 (f4327f4, 2025-05-13)"
   sodipodi:docname="track8.svg"
   xmlns:inkscape="http://www.inkscape.org/namespaces/inkscape"
   xmlns:sodipodi="http://sodipodi.sourceforge.net/DTD/sodipodi-0.dtd"
   xmlns="http://www.w3.org/2000/svg"
   xmlns:svg="http://www.w3.org/2000/svg">
  <sodipodi:namedview
     id="namedview1"
     pagecolor="#ffffff"
     bordercolor="#cccccc"
     borderopacity="1"
     inkscape:showpageshadow="0"
     inkscape:pageopacity="1"
     inkscape:pagecheckerboard="0"
     inkscape:deskcolor="#d1d1d1"
     inkscape:document-units="px"
     inkscape:export-bgcolor="#00c389ff"
     inkscape:zoom="0.125"
     inkscape:cx="1168"
     inkscape:cy="1548"
     inkscape:window-width="1708"
     inkscape:window-height="871"
     inkscape:window-x="2391"
     inkscape:window-y="-9"
     inkscape:window-maximized="1"
     inkscape:current-layer="layer1" />
  <defs
     id="defs1">
    <inkscape:path-effect
       effect="spiro"
       id="path-effect5"
       is_visible="true"
       lpeversion="1" />
    <inkscape:path-effect
       effect="spiro"
       id="path-effect3"
       is_visible="true"
       lpeversion="1" />
    <inkscape:path-effect
       effect="spiro"
       id="path-effect1"
       is_visible="true"
       lpeversion="1" />
  </defs>
  <g
     inkscape:label="Capa 1"
     inkscape:groupmode="layer"
     id="layer1">
    <path
       id="path2"
       style="fill:#000000;stroke:#ffffff;stroke-width:5.29201;stroke-opacity:1;fill-opacity:1"
       d="M 629.92383,8.6933594 C 604.35217,9.1443677 579.22094,15.805739 555.78405,25.773083 525.7896,38.550459 498.08103,56.039007 468.18812,69.044223 455.76904,74.37317 442.576,78.28117 429.10547,79.636719 c -8.6325,0.828353 -17.33939,0.843074 -26.01758,0.490381 -18.49483,-0.789731 -36.85307,-3.540364 -55.19408,-6.053879 -27.97927,-3.908018 -56.06583,-8.204817 -84.39652,-7.868946 -25.15312,0.301196 -50.43225,4.329061 -73.92928,13.484722 -21.38296,8.359093 -40.99624,21.305003 -56.87023,37.914493 -14.33554,14.94504 -25.52978,32.79249 -33.283363,51.96714 -10.500092,26.03041 -14.573086,54.65572 -11.504179,82.57593 3.333064,33.09565 15.579742,65.14799 34.615882,92.38445 18.93945,27.3281 44.29966,50.05612 73.15006,66.51363 30.12882,17.36574 63.6947,28.51501 98.06493,33.55767 35.61161,5.37366 71.96644,4.86695 107.61191,0.0634 26.90911,-3.51453 53.57902,-8.89379 80.67348,-10.73369 12.29045,-0.63219 24.68226,-0.26064 36.71088,2.54072 10.09506,2.36052 20.00394,6.49888 27.86475,13.39078 10.41421,9.12685 17.183,21.90946 20.60732,35.16335 4.06592,15.71315 3.93177,32.20961 1.39654,48.11912 -3.55592,22.25258 -11.75618,43.37026 -21.00259,63.80108 -17.01231,37.56579 -37.70062,73.4507 -52.45113,112.02737 -8.96122,23.37586 -15.6061,47.7664 -18.06633,72.72867 -2.21947,22.03434 -1.18136,44.46612 3.82617,66.06446 9.79836,42.80539 33.73376,82.28511 67.35975,110.56975 38.55191,32.52025 89.067,50.33767 139.4741,49.53867 33.84711,-0.4667 67.4875,-9.12996 97.50202,-24.72708 29.64381,-15.3522 55.83911,-37.38127 75.82919,-64.13596 19.29464,-25.73871 33.18391,-55.4774 40.75021,-86.73314 3.23101,-13.266 5.28046,-26.80988 6.23355,-40.4291 2.62222,-31.8894 0.31909,-64.033 -4.97202,-95.53478 -7.24294,-44.18944 -19.22941,-87.4223 -27.63064,-131.37324 -4.9593,-26.12285 -8.40453,-52.64327 -7.72522,-79.27848 0.65191,-26.12725 4.94602,-52.2723 14.12302,-76.83183 7.65068,-20.39472 18.74433,-39.59626 33.32862,-55.82679 5.96779,-6.63633 12.41576,-12.81993 18.90533,-18.93986 19.48407,-18.2173 40.23498,-35.04134 59.22692,-53.78495 14.93946,-14.6945 28.86876,-30.59323 39.86606,-48.49021 12.3704,-20.01424 21.3576,-42.33685 24.7021,-65.69991 3.5722,-24.97366 0.5324,-51.07476 -9.927,-74.122021 -10.2238,-22.531436 -27.682,-41.901335 -49.54531,-53.626602 -21.94646,-11.758393 -48.22198,-15.431369 -72.47511,-9.61204 -18.43954,4.421988 -35.3517,13.951659 -49.89227,25.978508 -15.76695,13.012559 -28.56956,29.072305 -42.77336,43.676065 -4.4883,4.56998 -9.1094,9.04901 -14.21932,12.92597 -3.01624,2.16091 -6.13841,4.02977 -9.67424,5.19348 -2.33068,0.82993 -4.85606,1.08115 -7.29324,0.62183 -3.96877,-0.67733 -7.55003,-2.47256 -10.9642,-4.54652 -6.90917,-4.31836 -12.75087,-10.13509 -18.30374,-16.071487 C 766.11153,89.210106 759.84437,81.525639 753.39191,74.006071 742.71785,61.495338 731.71773,49.122325 718.91608,38.724762 705.15473,27.524452 689.17509,19.035037 672.12831,14.097741 658.45749,10.084786 644.14528,8.5652977 629.92383,8.6933594 Z" />
    <path
       style="fill:none;stroke:#ffed00;stroke-width:9.99999997;stroke-opacity:1;stroke-dasharray:9.99999997,39.99999988;stroke-dashoffset:0"
       d="m 145.62192,156.48923 c 19.27514,-12.31937 42.05523,-18.39797 64.85408,-20.27153 22.79886,-1.87357 45.7403,0.28725 68.40159,3.41199 45.32258,6.24948 91.68608,16.33306 136.25355,5.99222 38.12753,-8.8466 71.1647,-31.83579 106.52786,-48.611284 17.68159,-8.387748 36.26323,-15.314396 55.65822,-17.927293 19.39498,-2.612898 39.7353,-0.706183 57.3335,7.855126 12.96876,6.309145 24.03194,15.980431 33.85831,26.536791 9.82636,10.55635 18.55799,22.07512 27.99893,32.97753 9.44095,10.90242 19.71556,21.28818 31.93059,28.95547 12.21503,7.66728 26.57867,12.49727 40.9668,11.50943 13.88301,-0.95316 26.97746,-7.24018 38.08298,-15.62551 11.10553,-8.38533 20.45928,-18.83143 29.68037,-29.25342 9.2211,-10.42199 18.45445,-20.95643 29.38147,-29.57308 10.92702,-8.61666 23.77903,-15.298199 37.60978,-16.833366 15.00236,-1.665211 30.44972,2.974653 42.60591,11.922886 12.15618,8.94823 21.05156,22.01449 25.80337,36.34152 4.7518,14.32704 5.46092,29.85399 2.95704,44.73936 -2.50387,14.88537 -8.15397,29.1466 -15.71241,42.21234 -15.11688,26.13149 -37.49458,47.20801 -60.23019,67.06919 -22.73562,19.86118 -46.35294,39.11542 -64.97449,62.87699 -20.99371,26.7885 -35.02244,58.71314 -42.53122,91.90919 -7.50879,33.19605 -8.61916,67.65793 -5.28494,101.5289 5.19293,52.75282 20.96612,103.81887 31.11455,155.84613 10.14842,52.02726 14.4601,107.03383 -2.85953,157.1323 -12.8242,37.09507 -37.52279,70.08426 -69.87078,92.3129 -32.34798,22.22864 -72.21799,33.47602 -111.37571,30.79701 -39.15773,-2.67902 -77.31277,-19.38581 -105.40332,-46.79795 -28.09056,-27.41214 -45.7778,-65.38431 -48.06326,-104.56697 -2.10998,-36.17413 8.46849,-72.00092 22.89224,-105.24208 14.42374,-33.24117 32.73819,-64.67532 47.3595,-97.83006 14.62131,-33.15474 25.6174,-68.80455 24.15356,-105.01058 -0.73192,-18.10302 -4.63482,-36.17091 -12.37528,-52.552 -7.74045,-16.3811 -19.39408,-31.03313 -34.21387,-41.45564 -24.37108,-17.13977 -55.56193,-21.85153 -85.32778,-20.54181 -29.76585,1.30972 -58.99169,8.09579 -88.54913,11.84798 -39.36906,4.99773 -79.76951,4.54102 -118.24798,-5.17018 -38.47847,-9.7112 -75.0147,-29.03816 -102.04295,-58.09627 -27.02825,-29.05812 -43.933308,-68.20349 -42.901464,-107.87508 0.515922,-19.8358 5.463319,-39.59755 14.783194,-57.11511 9.31988,-17.51755 23.03755,-32.74016 39.75691,-43.42604 z"
       id="path1"
       inkscape:path-effect="#path-effect1"
       inkscape:original-d="M 145.62192,156.48923 C 84.764996,44.918203 336.16203,141.99948 415.13114,145.62191 494.10022,149.24435 563.651,99.979229 634.65072,86.938459 c 70.99975,-13.040771 82.59155,81.867041 134.75463,99.979221 52.16308,18.11218 79.69357,-73.1732 134.7546,-91.285376 55.06104,-18.11218 -68.10178,179.672816 -69.55077,265.162286 -1.44896,85.48949 -24.63254,132.58114 -47.81616,193.43809 -23.18358,60.85691 -13.76523,269.50921 28.25502,312.97843 42.02026,43.46924 -214.4482,-76.07114 -334.71307,-28.25501 -120.26484,47.81617 28.97948,-305.00907 47.81615,-402.09036 18.83667,-97.08128 -61.58139,11.5918 -173.87691,-8.69383 C 241.97871,407.88628 206.47884,268.06025 145.62192,156.48923 Z"
       transform="translate(39.122305,-26.081537)"
       sodipodi:nodetypes="ssssssssssss" />
    <path
       id="path3"
       style="fill:#00c389;stroke:#ffffff;stroke-width:5.29201;stroke-opacity:1;fill-opacity:1"
       d="m 629.68164,99.798828 c -4.62498,0.120888 -9.21386,0.874542 -13.73443,1.822172 -13.13418,2.86666 -25.53111,8.28842 -37.61521,14.05687 -22.46074,10.7625 -43.98099,23.44701 -66.67329,33.71298 -16.53571,7.524 -33.66098,13.85345 -51.49804,17.42965 -24.73663,5.11638 -50.2284,5.73806 -75.34249,3.38426 -33.74759,-2.87757 -67.06276,-9.54088 -100.84691,-12.16565 -16.98748,-1.26808 -34.32693,-1.16946 -50.91491,3.1177 -11.0897,2.87345 -21.81076,7.82504 -30.44107,15.45876 -12.09654,10.73109 -20.08401,25.7356 -23.11787,41.55112 -2.77855,14.57425 -1.59991,29.79301 2.84089,43.91844 6.16634,19.94463 18.13239,37.91825 33.60763,51.8613 17.06647,15.4524 37.85437,26.43641 59.72147,33.38587 25.97323,8.23149 53.46458,10.87054 80.61673,9.84675 13.99941,-0.48354 27.9363,-2.03825 41.79577,-4.01567 25.87359,-3.64123 51.63792,-8.51008 77.72087,-10.09307 26.58318,-1.68298 53.50663,0.72497 78.87325,9.05592 19.56603,6.39495 37.94417,16.73109 53.25136,30.54402 15.96257,14.27443 28.76436,32.05756 37.479,51.61985 10.19221,22.42765 15.38538,46.98861 15.97228,71.53096 0.4453,19.47709 -1.73136,38.92763 -6.00653,57.92602 -3.97259,17.85908 -9.90823,35.32104 -16.82105,52.26741 -12.61589,30.89697 -28.57189,60.28289 -42.92586,90.38571 -8.823,18.47991 -17.09246,37.33594 -22.64771,57.08658 -4.5601,16.44058 -7.06106,33.65231 -5.43769,50.7143 2.07932,21.03741 10.54344,41.29411 23.5164,57.93398 8.40864,10.78021 18.82602,19.97186 30.53912,27.01987 20.13708,12.2126 43.86858,18.44404 67.41819,17.53191 29.60415,-1.10009 58.65257,-12.85206 80.79119,-32.52082 19.52701,-17.30226 33.8907,-40.2612 41.2481,-65.26921 6.07534,-20.79196 7.67111,-42.65246 6.80696,-64.2248 -1.2726,-32.2268 -8.02018,-63.8883 -14.98142,-95.27738 -5.78196,-26.37761 -12.13345,-52.63324 -17.1453,-79.16612 -3.95259,-20.87987 -6.99677,-41.90769 -8.29632,-63.12496 -1.63572,-26.33189 -0.67761,-52.90846 3.38195,-78.97173 5.89405,-38.04727 18.54978,-75.38179 38.7265,-108.35724 9.7141,-15.97297 21.27787,-30.78489 34.12508,-44.35421 7.26113,-7.70783 14.98663,-15.04119 22.87903,-22.14775 19.86778,-18.13984 40.72049,-35.25623 59.42614,-54.63713 10.1981,-10.72289 19.62765,-22.47376 25.81147,-36.01195 4.2563,-9.30604 6.96606,-19.54554 6.36189,-29.84045 -0.42687,-7.07724 -2.56101,-14.30089 -7.28935,-19.72289 -2.776,-3.171 -6.61272,-5.76779 -10.92922,-5.98386 -4.04102,-0.0819 -7.64411,2.10997 -10.88266,4.28532 -8.70375,5.88596 -15.64014,13.8869 -22.75504,21.51266 -13.05968,14.16572 -25.92368,28.72932 -41.33967,40.39412 -7.98418,6.05622 -16.65872,11.35307 -25.82495,15.43009 -10.84442,4.85532 -22.29073,8.0258 -34.11585,9.22285 -13.8787,1.40379 -28.02306,-0.14899 -41.37381,-4.09002 -16.86283,-4.94701 -32.48742,-13.67569 -46.02887,-24.84631 -12.70991,-10.42873 -23.79085,-22.65058 -34.40017,-35.1488 -7.86273,-9.17826 -15.46149,-18.61489 -24.00852,-27.17601 -3.34999,-3.29816 -6.79488,-6.52841 -10.58779,-9.31448 -5.94291,-4.21858 -13.02726,-6.87745 -20.32213,-7.3059 -2.86234,-0.228614 -5.73614,-0.289465 -8.60714,-0.241032 z" />
  </g>
</svg>
