<?xml version="1.0" encoding="UTF-8" standalone="no"?>
<!-- Created with Inkscape (http://www.inkscape.org/) -->

<svg
   width="4096"
   height="4096"
   viewBox="0 0 1083.7333 1083.7333"
   version="1.1"
   id="svg1"
   inkscape:version="1.4.2 (f4327f4, 2025-05-13)"
   sodipodi:docname="track4.svg"
   inkscape:export-filename="track4.png"
   inkscape:export-xdpi="96"
   inkscape:export-ydpi="96"
   xmlns:inkscape="http://www.inkscape.org/namespaces/inkscape"
   xmlns:sodipodi="http://sodipodi.sourceforge.net/DTD/sodipodi-0.dtd"
   xmlns="http://www.w3.org/2000/svg"
   xmlns:svg="http://www.w3.org/2000/svg">
  <sodipodi:namedview
     id="namedview1"
     pagecolor="#ffffff"
     bordercolor="#cccccc"
     borderopacity="1"
     inkscape:showpageshadow="0"
     inkscape:pageopacity="1"
     inkscape:pagecheckerboard="0"
     inkscape:deskcolor="#d1d1d1"
     inkscape:document-units="px"
     inkscape:export-bgcolor="#00c389ff"
     inkscape:zoom="0.12173362"
     inkscape:cx="1174.696"
     inkscape:cy="2230.2795"
     inkscape:window-width="1708"
     inkscape:window-height="871"
     inkscape:window-x="2391"
     inkscape:window-y="-9"
     inkscape:window-maximized="1"
     inkscape:current-layer="layer1" />
  <defs
     id="defs1">
    <inkscape:path-effect
       effect="spiro"
       id="path-effect3"
       is_visible="true"
       lpeversion="1" />
    <inkscape:path-effect
       effect="spiro"
       id="path-effect1"
       is_visible="true"
       lpeversion="1" />
  </defs>
  <g
     inkscape:label="Capa 1"
     inkscape:groupmode="layer"
     id="layer1">
    <path
       id="path5"
       style="fill:#000000;stroke:#ffffff;stroke-width:5.68159;stroke-dasharray:none;stroke-opacity:1;fill-opacity:1"
       d="m 524.09123,44.293365 c -88.97406,1.799094 -177.94823,3.603757 -266.92306,5.364472 -9.57899,-0.07488 -18.42893,7.345844 -19.20127,16.057714 -0.51795,5.546296 2.29951,10.731556 3.18445,16.075523 1.79528,8.024721 2.04794,16.362507 0.0918,24.399406 -2.76283,11.91461 -9.38662,22.99891 -18.90701,31.53367 -11.11163,10.09057 -25.38017,16.9096 -40.15347,21.53764 -14.43819,4.54129 -29.44691,7.5339 -43.92692,12.01274 -18.24312,5.64409 -35.97065,13.11994 -51.574846,23.52139 -9.84173,6.50879 -18.7166,14.31027 -25.72915,23.39657 -8.77227,11.22831 -14.51674,24.44397 -16.30267,38.15245 -1.6536,12.17207 -0.35233,24.62486 3.46399,36.36918 5.71499,18.02811 16.63661,34.34138 29.71511,48.68924 2.39984,2.66357 4.94242,5.22977 7.41978,7.8226 3.4116,7.05158 7.85895,13.70275 13.39172,19.53405 9.757166,10.56208 21.691726,19.22371 33.925976,27.2623 18.86539,12.25326 39.04844,22.68791 59.44509,32.64036 22.6263,10.92747 45.70359,21.0863 69.15532,30.45298 16.22835,6.39512 32.88222,11.90675 49.88525,16.33085 11.94195,3.16017 24.0463,5.76947 36.12787,8.42986 3.83525,0.88154 7.77797,1.82891 11.26375,3.43893 1.63215,0.66762 2.87229,1.90318 3.98592,3.14506 -13.44368,10.80061 -28.18213,20.14988 -42.12749,30.37289 -12.65778,9.15639 -24.99014,18.929 -34.88636,30.65925 -7.76286,9.28923 -13.76524,20.08232 -15.69037,31.72208 -2.89338,16.94265 3.01987,34.90326 15.55319,47.65651 8.82013,9.21241 20.1925,16.051 32.01821,21.63663 17.92644,8.38484 37.33887,13.61565 56.6839,18.49401 3.58728,0.91085 7.17433,1.82157 10.75603,2.75043 -19.78953,6.90183 -40.24328,11.97686 -60.61315,17.19409 -5.2433,1.38088 -10.53596,2.70219 -15.58693,4.61046 -8.82229,3.86857 -15.86971,10.22504 -23.01119,16.18457 -27.60897,23.2029 -51.99603,49.89484 -70.06345,80.01015 -13.63696,22.74157 -22.77538,48.01973 -24.38721,74.00894 -1.69202,28.40058 6.62436,57.1943 23.36195,81.17516 13.7388,19.85564 32.21227,36.72575 52.81461,50.6654 11.60799,7.83248 23.85395,14.85748 36.40239,21.36098 14.74498,7.5774 29.94191,14.4184 45.45222,20.5859 21.8598,8.5404 44.85517,15.0117 68.53195,17.505 15.728,1.6542 31.78861,1.2213 47.25488,-1.9741 14.1897,-2.8984 27.84831,-8.1654 39.75942,-15.8205 16.25667,-10.3306 29.44621,-24.5642 38.1714,-40.7863 9.28898,-16.65076 14.34574,-35.04679 16.52434,-53.56512 1.40638,-10.36629 3.23828,-20.7502 6.24391,-30.84391 4.84152,-18.0792 10.75486,-36.06117 19.6527,-52.82248 4.38844,-8.18126 9.35788,-16.55095 17.07491,-22.59835 0.4732,-0.33666 1.02135,-0.92345 1.6521,-0.46726 6.03333,2.34929 11.059,6.31848 15.84578,10.3248 11.85365,10.10381 21.4477,22.14306 30.61526,34.31464 17.13055,23.1508 30.80896,48.20192 45.75693,72.52843 10.34541,16.6494 21.89433,32.85139 36.37093,46.77855 12.12815,11.8863 26.3357,22.274 42.65553,28.9348 16.42908,6.6384 34.9987,8.9236 52.72581,6.1015 15.08878,-2.2899 29.40752,-8.1263 41.74661,-16.3301 14.99074,-9.7015 27.53673,-22.22335 38.43997,-35.64984 13.4402,-16.78007 24.2528,-35.17835 33.9722,-53.93858 6.8626,-13.53927 13.0383,-27.42467 17.342,-41.83488 2.2307,-11.5432 1.5161,-23.31288 2.2317,-34.96695 1.6447,-46.33522 3.291,-92.67039 4.9348,-139.00563 -2.6321,-0.92263 -5.2638,-1.84635 -7.8958,-2.76941 -1.1493,-17.92611 -3.3972,-35.97485 -9.5484,-53.10408 -10.599,-30.81499 -31.4424,-58.53654 -58.80782,-78.95469 -23.87246,-18.18046 -51.87479,-31.3929 -81.0396,-40.93779 -26.15675,-8.62245 -53.19588,-14.9923 -78.68103,-25.21837 -10.32949,-4.21982 -20.57121,-8.74979 -29.84086,-14.75081 8.24464,-4.29178 17.27938,-7.10964 26.31615,-9.64845 15.08911,-4.02539 30.77965,-6.2029 46.48545,-6.65088 9.48684,-0.18816 19.05201,0.39161 28.25975,2.64777 2.51915,0.65308 4.83099,1.88094 6.72009,3.53391 3.45887,2.7016 6.95426,5.48715 11.17269,7.15945 14.41584,6.22932 32.64899,3.96623 44.77772,-5.47225 4.70058,-3.58343 8.17266,-8.28121 11.06348,-13.1616 3.46014,-5.7214 6.5937,-11.60041 9.98956,-17.35262 23.60527,-41.10554 47.17482,-82.2282 70.75842,-123.34413 8.2149,-10.46154 15.4,-21.67024 20.5035,-33.69592 11.2205,-25.68418 14.4994,-54.07754 10.2667,-81.41479 -3.8715,-25.53065 -13.8214,-50.07706 -27.4038,-72.59124 -11.2604,-18.73463 -24.8598,-36.27541 -40.2006,-52.403604 -7.86979,-8.044502 -17.02756,-15.303846 -27.86788,-19.786264 -17.51176,-7.546322 -38.05488,-8.995189 -56.6327,-4.02292 -16.41261,4.095696 -31.33761,12.079954 -44.78574,21.452168 -16.51942,11.6137 -30.9567,25.4908 -44.35013,40.02889 -5.52288,6.05264 -10.7941,12.29299 -15.93623,18.61684 -59.13103,-0.82945 -118.27174,-0.34802 -177.40142,0.33064 -6.2238,-0.29006 -12.69094,-0.44653 -18.50184,-2.78142 -1.06255,-0.94587 -0.81205,-2.44174 -1.06699,-3.66955 -0.36807,-4.6349 0.18498,-9.23732 1.02449,-13.81277 1.6162,-8.43583 4.73792,-16.63232 8.28285,-24.59583 3.762,-8.23107 8.50959,-16.139223 12.64253,-24.249336 4.87859,-10.230655 2.38863,-23.013756 -6.1297,-31.033337 -6.31918,-6.09652 -15.46102,-9.755795 -24.68989,-9.485762 z" />
    <path
       id="path4"
       style="fill:#00c389;stroke:#ffffff;stroke-width:5.68159;stroke-dasharray:none;stroke-opacity:1;fill-opacity:1"
       d="m 318.76259,120.71856 c -8.02195,35.54765 -32.53741,67.62428 -66.08472,87.04126 -20.12795,12.15427 -42.87739,20.30331 -66.15034,25.81446 -15.09119,3.75342 -30.39134,7.49121 -44.22432,14.33743 -6.0787,3.01469 -12.00279,6.70685 -16.46375,11.63787 -2.10944,2.44458 -3.12844,5.57622 -2.63696,8.6624 0.82185,6.41594 4.23063,12.2305 7.85545,17.66578 5.14784,7.53938 11.78032,14.15132 19.03771,20.03563 5.22991,4.67919 8.74394,10.88037 10.1163,17.43473 10.20539,9.48146 22.41988,16.87748 34.71909,23.84543 16.59784,9.3471 33.85196,17.67697 51.20336,25.7864 18.7846,8.60111 37.84982,16.74288 57.28263,24.05735 18.31775,6.64999 37.41916,11.298 56.59719,15.31475 13.10592,2.8505 26.32719,6.10736 38.10377,12.25775 14.10905,7.39724 25.6351,18.49398 34.0094,31.16018 6.22761,9.08834 11.85226,18.63223 15.42177,28.88212 1.93706,7.20778 0.60226,14.77666 -1.81924,21.74536 -4.02262,11.15254 -11.6834,20.91014 -20.57436,29.26989 -11.37008,10.73867 -24.4756,19.74962 -37.40465,28.83706 -11.24549,7.8422 -22.66483,15.53793 -33.01386,24.37807 9.13141,3.93861 18.76147,6.81068 28.41734,9.46422 21.64841,5.86083 43.92647,10.15337 64.64691,18.54383 11.80091,4.73077 23.23673,10.65735 32.55528,18.87988 8.40269,7.49477 14.67182,17.26856 16.42937,27.96122 2.00312,11.73257 -1.26688,24.05585 -8.62801,33.81269 -7.0016,9.56355 -16.95072,16.98767 -27.53364,23.06693 -13.46601,7.78039 -28.12535,13.62649 -42.90458,18.97326 -23.87653,8.5252 -48.54934,15.0092 -73.30999,20.99715 -10.74847,8.44596 -20.74468,17.6797 -30.05322,27.44314 -11.06831,11.70158 -20.96004,24.26036 -29.16489,37.79923 -5.36011,9.01697 -9.81077,18.47831 -12.53849,28.46129 -1.96466,7.15433 -2.98719,14.446 -2.61589,21.84354 0.35348,8.07276 2.46501,16.17762 6.18332,23.55508 6.52116,13.04776 17.20527,24.04094 29.1164,33.28 12.28261,9.51821 25.84923,17.38099 39.89064,24.53207 13.32022,6.73559 27.06265,12.89228 41.231,18.04728 12.07487,4.33339 24.68645,7.79122 37.54919,9.45847 8.58475,1.04554 17.55023,1.18367 26.01225,-0.97999 6.0822,-1.60593 11.75349,-4.72886 15.76402,-9.24626 6.35352,-6.84121 10.01787,-15.39189 12.38416,-24.00556 1.84102,-6.87302 2.59387,-13.84952 3.46064,-20.89273 1.65947,-12.22711 4.85932,-24.2187 8.0164,-36.18052 6.92721,-25.54204 16.06158,-50.79143 30.02185,-73.90145 8.18163,-13.42598 18.2028,-26.14338 31.1299,-36.10047 10.47859,-8.07642 22.98792,-14.13694 36.47817,-16.64439 11.30356,-2.19513 23.14002,-1.94959 34.34932,0.59371 13.91475,3.04427 26.80395,9.28236 38.14224,17.17104 16.02272,10.97017 29.48694,24.7084 41.69544,39.1213 19.46068,23.10229 35.41662,48.44543 50.49371,74.0832 6.78777,11.42067 13.42509,22.91114 20.9583,33.93072 6.99461,10.0174 15.02052,19.57158 24.89821,27.36937 3.80995,2.94934 8.11277,5.62931 13.05424,6.63885 3.91477,0.66891 7.75072,-0.92311 10.97049,-2.81251 7.05037,-4.05953 12.90518,-9.61634 18.07994,-15.46599 12.9422,-14.62572 22.70595,-31.37429 31.27545,-48.42928 3.66661,-7.36034 7.07178,-14.86127 9.95745,-22.47631 0.47929,-1.33102 0.68446,-2.90487 0.7575,-4.32075 1.30591,-38.83417 2.74089,-77.6652 4.13187,-116.49711 -3.39929,-6.70754 -4.91162,-14.07601 -5.37871,-21.41768 -0.49669,-6.69896 -0.59174,-13.41801 -1.06047,-20.11944 -0.60897,-10.30863 -1.83305,-20.60787 -5.06105,-30.57388 -3.33652,-10.66901 -8.56744,-20.89997 -15.90912,-29.76988 -10.57535,-12.91675 -24.67455,-23.275 -39.88951,-31.34324 -15.94684,-8.4581 -33.26674,-14.5257 -50.77454,-19.68603 -26.50563,-7.72211 -53.21034,-15.27676 -78.33151,-26.32716 -16.66559,-7.25829 -32.89067,-15.73565 -46.82742,-26.89038 -10.65559,-8.59773 -19.8275,-19.12787 -24.71416,-31.43383 -5.43799,-13.69297 -5.08838,-29.3315 1.51247,-42.64193 5.74663,-11.98883 15.56961,-22.05275 26.98028,-29.82905 14.10625,-9.75803 30.3533,-16.60218 46.98304,-21.93765 25.71425,-8.11386 52.86695,-12.25579 80.04952,-12.77295 16.19382,-0.2347 32.52214,1.03518 48.16833,4.98986 0.3233,-0.14485 0.47866,-0.8736 0.76971,-1.20681 22.55747,-39.30841 45.03296,-78.65958 67.79752,-117.86564 4.61289,-5.55225 9.08087,-11.25438 11.96591,-17.7327 2.67756,-5.50146 4.57936,-11.30799 5.81615,-17.1534 2.08642,-9.94097 2.17767,-20.20261 0.61629,-30.23188 -2.45698,-15.98091 -8.87878,-31.35871 -17.20521,-45.55964 -8.23223,-14.07583 -18.31796,-27.26739 -29.50794,-39.46704 -1.32515,-1.41079 -2.64855,-2.85064 -4.15506,-4.09444 -1.15889,-0.13218 -2.24449,0.4447 -3.34631,0.69083 -8.00265,2.61783 -14.80125,7.47212 -21.25319,12.39782 -12.67772,9.82622 -23.65208,21.41711 -33.90554,33.36678 -7.63861,9.01527 -14.48743,18.55871 -21.8946,27.72454 -5.0867,5.52638 -12.88685,8.49776 -20.64615,9.13079 -4.94536,0.36028 -9.90193,-0.11744 -14.85307,-0.0939 -62.73477,-1.28636 -125.48916,-0.60445 -188.22893,-0.06 -16.06698,0.0229 -32.32125,-1.87064 -47.38704,-7.14756 -14.97606,-5.24761 -28.28764,-14.51653 -37.49025,-26.54165 -6.42773,-8.31051 -10.8582,-17.87228 -13.05874,-27.83876 -3.42237,-14.95286 -2.49465,-30.48117 0.66156,-45.40105 0.0171,-0.48279 0.61744,-1.40124 -0.31229,-1.15327 -45.80225,0.91738 -91.60449,1.83476 -137.40673,2.75215 z" />
    <path
       style="fill:none;stroke:#ffde00;stroke-width:5.2916665;stroke-dasharray:5.29166651, 21.16666603;stroke-opacity:1;stroke-dashoffset:0"
       d="M 124.2178,329.08538 C 120.37423,327.81797 14.896654,237.721 175.50125,201.97664 296.69055,175.00459 285.39438,88.247776 285.39438,88.247776 l 222.22835,-4.459958 c 0,0 -63.49381,111.498892 48.84137,109.268912 112.33519,-2.22998 195.36557,0 195.36557,0 0,0 85.83273,-124.878755 136.7559,-69.12931 107.47697,117.66311 31.74687,191.77809 31.74687,191.77809 l -83.03035,144.94856 c -52.09125,-53.1633 -351.41912,31.70695 -63.49381,109.26891 187.27546,50.44867 126.64247,175.97673 148.96626,173.93824 l -4.8842,138.25862 c 0,0 -84.21512,234.61636 -192.92343,40.13962 -159.07466,-284.58112 -207.57593,11.14987 -207.57593,11.14987 0,0 10e-6,153.86837 -197.80762,49.05951 -197.80763,-104.80895 7.32621,-251.98748 7.32621,-251.98748 0,0 253.91983,-52.90552 63.49381,-95.88905 C 203.23985,592.3452 407.7686,538.21375 412.38199,491.87376 381.02793,429.98023 363.6177,459.15641 270.74198,420.51446 111.03219,354.06546 124.2178,329.08538 124.2178,329.08538 Z"
       id="path3"
       sodipodi:nodetypes="csccscsccsccscscscsc" />
  </g>
</svg>
