<?xml version="1.0" encoding="UTF-8" standalone="no"?>
<!-- Created with Inkscape (http://www.inkscape.org/) -->

<svg
   width="4096"
   height="4096"
   viewBox="0 0 1083.7333 1083.7333"
   version="1.1"
   id="svg1"
   inkscape:export-filename="track2.png"
   inkscape:export-xdpi="96"
   inkscape:export-ydpi="96"
   inkscape:version="1.4.2 (f4327f4, 2025-05-13)"
   sodipodi:docname="track2.svg"
   xmlns:inkscape="http://www.inkscape.org/namespaces/inkscape"
   xmlns:sodipodi="http://sodipodi.sourceforge.net/DTD/sodipodi-0.dtd"
   xmlns="http://www.w3.org/2000/svg"
   xmlns:svg="http://www.w3.org/2000/svg">
  <sodipodi:namedview
     id="namedview1"
     pagecolor="#ffffff"
     bordercolor="#cccccc"
     borderopacity="1"
     inkscape:showpageshadow="0"
     inkscape:pageopacity="1"
     inkscape:pagecheckerboard="0"
     inkscape:deskcolor="#d1d1d1"
     inkscape:document-units="px"
     inkscape:export-bgcolor="#00c38900"
     inkscape:zoom="0.12173362"
     inkscape:cx="1922.2299"
     inkscape:cy="1556.6776"
     inkscape:window-width="1708"
     inkscape:window-height="871"
     inkscape:window-x="2391"
     inkscape:window-y="-9"
     inkscape:window-maximized="1"
     inkscape:current-layer="layer1" />
  <defs
     id="defs1" />
  <g
     inkscape:label="Capa 1"
     inkscape:groupmode="layer"
     id="layer1">
    <path
       id="path2"
       style="fill:#000000;stroke:#ffffff;stroke-width:5.29167;stroke-dasharray:none;stroke-dashoffset:0;stroke-opacity:1;fill-opacity:1"
       d="m 664.75977,45.212891 c -19.99384,0.378601 -39.70932,4.343371 -59.04917,9.16859 -28.06735,7.125881 -55.43148,16.729273 -82.45669,27.071644 -2.9257,0.305594 -5.91139,0.22229 -8.80263,0.419185 -89.44627,3.438443 -178.89182,6.902599 -268.34425,10.174843 -9.62404,0.01404 -19.32306,0.03604 -28.82209,1.713152 -34.39069,5.317828 -66.70255,23.434775 -88.93451,50.249125 -16.33804,19.24223 -28.02642,42.14989 -35.523757,66.17867 -3.257651,10.56871 -5.499868,21.70318 -4.362331,32.80114 1.551334,14.46587 8.935652,28.31411 20.422358,37.31391 9.37459,7.61132 20.99781,12.06386 32.84032,13.98175 15.66628,2.832 31.69755,2.28372 47.50013,1.09777 13.80488,-1.07188 27.54338,-2.83242 41.28066,-4.54478 -22.50363,20.62824 -46.17991,39.91685 -69.2442,59.90275 -16.74233,14.46799 -33.20099,29.32431 -48.34046,45.4886 -7.17398,7.84715 -13.917345,16.3119 -18.282751,26.07939 -3.529112,8.09288 -5.143168,17.22638 -3.405722,25.96402 2.416989,13.02363 11.642903,24.62226 23.900913,29.705 8.83071,3.90679 18.72087,4.6593 28.25171,3.88687 14.95893,-0.96551 29.62335,-4.24234 44.37572,-6.71008 19.35193,-3.48802 38.7731,-7.06015 58.38151,-8.13491 8.84527,-0.35552 17.7623,-0.31571 26.41992,1.57617 3.10231,0.65359 6.31104,1.52717 9.05823,3.33539 2.06375,1.31311 3.24252,3.62502 3.68913,5.9739 0.7533,3.41622 1.14984,6.89643 1.7978,10.3328 3.22938,19.47829 7.02533,38.92043 12.94849,57.78102 6.97807,22.55449 16.54404,44.47246 29.93334,63.99339 9.6131,13.87929 21.52056,26.359 35.79176,35.49366 0.80012,0.95374 1.06276,2.22167 1.70666,3.27495 29.56972,61.5295 59.01755,123.11789 88.65662,184.61372 9.82474,14.68416 21.81896,27.73399 33.91211,40.55391 25.93525,26.80399 54.90249,50.51827 85.35289,71.98761 38.0637,26.62459 78.8611,49.27185 121.28537,68.14935 18.21918,7.8256 37.50281,13.4916 57.29035,15.3391 29.71014,3.2334 60.05806,-0.731 88.20147,-10.653 29.52124,-10.2095 56.87116,-26.05468 81.61188,-45.00681 33.55593,-25.53909 62.91071,-56.27296 88.74235,-89.51095 8.6872,-11.27339 17.264,-22.70935 24.2051,-35.1678 3.155,-7.07062 3.65,-14.90479 4.4405,-22.49984 3.4567,-35.89612 3.8135,-72.30183 -1.8987,-107.98964 -2.2426,-14.16726 -5.5745,-28.20977 -10.7523,-41.60593 -4.2112,-10.91017 -9.5368,-21.44253 -16.3363,-30.97881 -10.081,-13.97765 -23.68969,-25.60066 -39.61683,-32.36128 -17.57784,-7.53688 -37.34075,-9.45101 -56.15509,-6.34432 -15.03575,2.38794 -29.4881,7.36063 -43.80976,12.3777 -13.32125,4.49438 -27.08813,8.18213 -41.15093,9.22926 -6.05951,0.42929 -12.22423,0.32738 -18.18734,-1.083 -3.44752,-0.7522 -7.03761,-2.34003 -9.63595,-4.93437 -2.41273,-2.37345 -3.83415,-5.59375 -4.88336,-8.7185 -0.0778,-0.50761 -0.65441,-1.17654 0.0252,-1.47222 47.17261,-40.43236 90.50513,-85.48137 128.04478,-135.02933 12.0317,-15.95471 23.51862,-32.3831 33.19525,-49.89106 3.72693,-7.41516 6.34449,-15.41955 7.4756,-23.64915 1.08506,-8.07711 0.48519,-16.39824 -1.99237,-24.17538 -4.29972,-13.92289 -13.91426,-26.12076 -26.45744,-33.54399 -11.39323,-7.15744 -24.28827,-11.47352 -37.22484,-14.89146 -23.14454,-5.9559 -46.98853,-9.00474 -69.94526,-15.62032 -2.80959,-0.84325 -5.62899,-1.68496 -8.34375,-2.83789 3.56083,-6.71815 8.43274,-12.6086 13.19336,-18.49414 12.20355,-14.60197 26.44032,-27.29346 40.26438,-40.31057 16.25991,-15.19748 32.61677,-30.48988 46.29678,-48.12371 8.19656,-10.56427 15.62924,-21.94221 20.17577,-34.58999 3.5272,-9.83766 5.03369,-20.53736 3.34773,-30.90756 -1.99229,-12.6838 -9.03527,-24.32552 -18.8349,-32.52854 -4.61011,-3.92297 -9.88501,-7.00735 -15.45085,-9.362961 -12.61933,-5.531571 -26.36725,-7.865199 -40.01965,-9.036603 -21.69132,-1.875472 -43.48414,-0.906837 -65.2083,-0.264129 -23.16821,0.795477 -46.36538,2.10623 -69.54557,0.959996 -1.02925,-0.06308 -2.16062,-0.140364 -3.22656,-0.236328 C 731.051,74.485502 720.24509,60.553159 705.78483,53.48917 693.19207,47.009689 678.77354,45.060341 664.75977,45.212891 Z" />
    <path
       id="path3"
       style="fill:#00c389;stroke:#ffffff;stroke-width:5.29167;stroke-dasharray:none;stroke-dashoffset:0;stroke-opacity:1;fill-opacity:1"
       d="m 665.09375,111.38477 c -10.08728,0.30198 -20.06605,1.93627 -29.96559,3.9817 -13.60914,2.88708 -26.98057,6.72739 -40.26558,10.83979 -18.35378,5.7764 -36.38472,12.556 -54.35315,19.44276 -7.3956,2.4776 -15.2926,2.05566 -22.97357,2.42946 -91.07909,3.41776 -182.15871,6.83248 -273.23936,10.20124 -7.10037,-0.15501 -14.22623,0.0494 -21.14284,1.6285 -14.86858,3.13776 -28.7729,10.71482 -39.49833,21.53046 -10.63544,10.64205 -18.30998,23.90319 -23.89556,37.78984 -1.35698,3.41341 -2.59466,6.85015 -3.70704,10.36132 8.58455,1.04646 17.28962,0.60831 25.89946,0.0362 24.7044,-1.88102 49.17061,-6.07368 73.85054,-8.25107 7.67099,-0.63354 15.36256,-1.13731 23.06265,-1.11539 10.17183,0.22698 20.52497,1.90708 29.67013,6.55383 11.76143,6.09724 20.12081,18.5417 20.79697,31.83563 0.62073,9.64351 -2.32412,19.22254 -7.01735,27.56705 -7.51099,13.42121 -18.02193,24.82863 -28.72221,35.7536 -22.76575,23.05204 -47.88037,43.58649 -72.49133,64.59544 -7.6189,6.48191 -15.23966,12.96418 -22.75784,19.56179 22.93121,-3.82052 46.24948,-6.67937 69.52427,-4.91379 14.63304,1.09902 29.30932,4.22693 42.46211,10.90752 13.33069,6.7732 24.84201,17.41086 31.88016,30.67358 5.39519,9.96088 8.32938,21.07873 9.82244,32.25879 2.7085,17.05039 5.87012,34.08054 10.98172,50.58321 4.27965,14.07202 9.75976,27.77552 17.31682,40.4262 4.96319,8.24502 10.93002,16.0557 18.56065,22.0087 3.70401,2.77211 8.14528,4.33975 11.98587,6.93338 5.47045,3.90629 9.28377,9.70875 11.85501,15.83844 29.57764,61.96176 59.21418,123.89539 88.90392,185.8035 1.355,2.71955 3.09513,5.40642 5.11488,7.75238 7.496,9.32898 15.53805,18.18477 23.92973,26.71841 16.62767,16.82898 34.63428,32.23102 53.40004,46.62839 37.50874,28.58032 78.45715,52.45463 121.237,72.23629 9.76467,4.52349 19.74943,8.67105 30.23467,11.14217 9.53847,2.2421 19.2856,3.35239 29.10242,3.34247 21.99662,-0.007 43.66509,-6.02469 63.57067,-15.29972 13.4595,-6.28492 26.18664,-14.05764 38.29731,-22.63757 20.86897,-14.87764 39.72402,-32.39415 57.11472,-51.17762 14.21217,-15.40735 27.35001,-31.78861 39.44398,-48.88273 0.58888,-0.95124 1.42344,-1.77462 1.85536,-2.80879 0.4541,-4.53305 0.9188,-9.07809 1.25553,-13.62737 1.42835,-18.6877 1.64602,-37.49742 0.63215,-56.22951 -1.00011,-15.01911 -3.07167,-29.96059 -7.17921,-44.48029 -1.89941,-6.64356 -4.38128,-13.14612 -7.74274,-19.16747 -2.00841,-3.4834 -4.16207,-6.82053 -6.98027,-9.73473 -3.28864,-3.42499 -7.50408,-6.14719 -12.09484,-7.28017 -3.91102,-0.97513 -8.14722,-1.1766 -12.17195,-0.90033 -10.02688,0.73988 -19.4656,4.17571 -28.91665,7.42217 -8.37313,2.92824 -16.78123,5.77572 -25.36316,8.03494 -18.73896,5.0823 -38.16332,8.39928 -57.63861,7.46666 -15.00954,-0.73141 -30.08144,-4.17219 -43.31367,-11.45848 -16.08472,-8.85486 -29.04897,-23.22529 -36.22436,-40.12533 -5.48293,-12.63875 -8.34898,-26.38623 -8.55108,-40.1572 -0.0108,-4.70515 0.2165,-9.45078 1.23859,-14.05431 2.0091,-7.1112 6.93403,-13.06107 12.70629,-17.51775 40.0899,-33.02498 77.08407,-69.83916 110.32354,-109.74876 16.23364,-19.63675 31.47438,-40.11546 44.90325,-61.78778 -5.87467,-2.61152 -12.16949,-4.05855 -18.36772,-5.67247 -15.14948,-3.69494 -30.60914,-6.15822 -45.84854,-9.57959 -14.33759,-3.12056 -28.68115,-6.79439 -42.06152,-12.94024 -10.4142,-4.86443 -20.19927,-11.58664 -27.29511,-20.73665 -9.37629,-12.07887 -13.2117,-28.19065 -10.53635,-43.22208 1.87968,-10.75425 6.19835,-20.94589 11.72357,-30.316 7.36435,-12.47637 16.47315,-23.83537 26.20572,-34.53054 15.55961,-17.06472 32.97235,-32.28393 49.68562,-48.1704 8.82848,-8.43222 17.50226,-17.15397 25.27447,-26.50701 3.07658,-3.76622 5.97685,-7.6216 8.60463,-11.7215 -12.72324,-2.25527 -25.6634,-2.12129 -38.5464,-2.08156 -31.2506,0.23194 -62.45974,2.92621 -93.72167,2.09863 -12.72651,-0.35373 -25.57157,-1.28297 -37.86569,-4.79004 -9.28414,-2.67044 -18.28638,-7.09563 -25.13187,-14.03172 -6.99795,-7.09463 -11.43616,-16.6953 -12.16015,-26.64453 -1.56021,-0.0833 -3.12345,-0.0936 -4.68555,-0.084 z" />
    <path
       style="fill:none;stroke:#ffcf00;stroke-width:5.29167;stroke-dasharray:5.29166985, 42.33335876;stroke-dashoffset:0;stroke-opacity:1"
       d="m 245.60114,128.23423 284.72344,-10.86731 c 0,0 176.05038,-73.897691 169.53001,-10.86731 -6.52039,63.03038 352.10071,-56.509998 149.96882,123.8873 -202.1319,180.3973 139.10156,86.93845 73.89771,189.09114 -65.20386,102.15268 -163.0096,178.22383 -163.0096,178.22383 0,0 -8.69386,106.49962 134.75459,52.16309 143.44849,-54.33652 108.67309,184.74423 108.67309,184.74423 0,0 -136.9281,217.3461 -295.59079,145.6219 C 549.88573,908.50687 486.85538,815.04804 486.85538,815.04804 L 393.39651,619.43651 c 0,0 -54.33654,-15.21422 -71.72421,-143.44845 C 304.2846,347.75383 -28.254998,554.23268 215.17268,352.10075 458.60038,149.96884 93.458841,330.36613 126.06076,223.86653 c 32.60193,-106.49961 119.54038,-95.6323 119.54038,-95.6323 z"
       id="path1"
       sodipodi:nodetypes="ccssscscsccsssc" />
  </g>
</svg>
