<?xml version="1.0" encoding="UTF-8" standalone="no"?>
<!-- Created with Inkscape (http://www.inkscape.org/) -->

<svg
   width="4200"
   height="4200"
   viewBox="0 0 1111.25 1111.25"
   version="1.1"
   id="svg1"
   inkscape:version="1.4.2 (f4327f4, 2025-05-13)"
   sodipodi:docname="track3.svg"
   xmlns:inkscape="http://www.inkscape.org/namespaces/inkscape"
   xmlns:sodipodi="http://sodipodi.sourceforge.net/DTD/sodipodi-0.dtd"
   xmlns="http://www.w3.org/2000/svg"
   xmlns:svg="http://www.w3.org/2000/svg">
  <sodipodi:namedview
     id="namedview1"
     pagecolor="#ffffff"
     bordercolor="#cccccc"
     borderopacity="1"
     inkscape:showpageshadow="0"
     inkscape:pageopacity="1"
     inkscape:pagecheckerboard="0"
     inkscape:deskcolor="#d1d1d1"
     inkscape:document-units="px"
     inkscape:export-bgcolor="#00c389ff"
     inkscape:zoom="0.12173362"
     inkscape:cx="1026.8322"
     inkscape:cy="2139.9183"
     inkscape:window-width="1708"
     inkscape:window-height="871"
     inkscape:window-x="2391"
     inkscape:window-y="-9"
     inkscape:window-maximized="1"
     inkscape:current-layer="svg1" />
  <defs
     id="defs1" />
  <g
     inkscape:label="Capa 1"
     inkscape:groupmode="layer"
     id="layer1">
    <path
       id="path3"
       style="fill:#000000;stroke:#ffffff;stroke-width:5.29167;stroke-dasharray:none;stroke-opacity:1;fill-opacity:1"
       d="m 310.6875,22.640625 c -40.04296,2.534969 -80.19777,4.843296 -119.82422,11.328125 -8.77,1.462757 -17.5538,3.218626 -26.24084,5.087799 C 141.0747,44.163066 117.72566,50.887116 95.812628,61.01438 77.885924,69.340928 60.949522,80.202298 46.87058,94.178527 30.687119,110.2475 18.847812,130.79496 13.726562,153.0625 c -3.13444,13.55221 -3.702579,27.68066 -2.058824,41.4703 1.256848,10.69929 3.419689,21.2794 5.425344,31.87492 1.299226,6.57241 2.447772,13.17614 3.862185,19.72487 0.965346,4.30797 2.456467,8.60047 5.061541,12.24321 6.785928,9.92677 18.847896,15.86461 30.836218,15.46686 5.712041,-0.12607 11.409314,-1.21185 16.972447,-2.61981 8.344418,-2.26574 16.191649,-5.94946 23.641324,-10.3166 5.603763,-2.3806 11.359813,-4.37028 17.013333,-6.62736 17.86669,-6.85588 35.73307,-13.71256 53.59995,-20.56795 17.57596,2.25656 35.4588,-0.1776 52.22265,-5.75977 10.63523,-3.39717 21.15051,-7.60073 32.31083,-8.9384 6.39367,-0.4232 12.592,1.70817 18.40521,4.13732 16.52888,6.81556 31.55832,16.62158 46.74545,25.93498 14.87641,9.19149 29.98578,18.10282 46.18966,24.77879 6.40398,2.66833 12.92243,5.09841 19.71268,6.65141 3.56127,0.64938 7.12294,-0.38619 10.67979,-0.48069 3.73933,0.13101 6.98385,2.495 9.38708,5.19642 1.11885,1.2358 2.05729,2.628 2.80954,4.1147 -5.25517,6.67907 -10.50858,13.35953 -15.76563,20.03711 -13.9653,-3.14767 -27.62865,-7.78393 -41.83984,-9.67187 -13.74326,-1.92489 -27.73131,0.6304 -41.54615,-0.81031 -9.98761,-0.87875 -19.80824,-3.30128 -29.25123,-6.64769 -11.43279,-3.80582 -22.81817,-7.88566 -33.56411,-13.38508 -13.99669,-6.92853 -28.2135,-13.74523 -43.37679,-17.7663 -13.83382,-3.71499 -28.17577,-5.96481 -42.53125,-5.76367 -6.42597,0.13974 -12.92387,0.47644 -19.15883,2.23879 -9.56616,2.58318 -18.43849,7.36144 -26.79752,12.63983 -7.33929,4.5793 -14.668442,9.4092 -22.943731,12.14635 -9.342953,3.37031 -18.819905,6.68819 -27.135077,12.26605 -8.168622,5.45713 -14.963143,12.83953 -20.692388,20.79786 -17.165805,23.96337 -26.831798,53.12556 -27.930012,82.50325 -0.668685,17.81991 1.825246,35.7208 7.650031,52.58721 6.525256,18.96704 17.189715,36.614 30.868434,51.27763 10.966366,11.78461 23.937794,21.67259 38.071007,29.27117 6.061294,3.27917 12.351746,6.12477 18.782926,8.59803 -7.53816,6.22736 -14.432328,13.44483 -19.184329,22.05408 -6.029509,10.2391 -10.638544,21.19306 -15.702127,31.93661 -13.685666,30.28182 -25.180034,61.55948 -33.701432,93.70853 -4.228227,16.00386 -7.748421,32.2442 -10.361769,48.58143 -3.761592,23.75308 -5.36116,47.91401 -4.044481,71.94591 1.140802,20.38948 4.339526,40.70122 10.303193,60.24132 5.785651,19.06847 14.095882,37.40545 25.000234,54.11748 17.607666,27.14591 41.972521,49.87721 69.902581,66.24152 29.96377,17.69436 63.61489,28.55646 97.75696,34.50066 16.90169,2.9364 33.96068,4.7591 51.03248,6.3656 19.36861,1.705 38.81427,2.6731 58.26685,2.2096 17.75188,-0.6383 35.6046,-3.0321 52.30117,-9.3868 14.26289,-5.4958 27.35355,-14.0783 37.26057,-25.79407 6.72081,-7.81391 11.97782,-16.9097 15.50328,-26.54325 4.17858,-11.37973 6.02575,-23.66347 5.2848,-35.69234 -0.9261,-15.655 -6.10068,-30.80149 -13.04487,-44.81715 -8.39914,-16.8998 -19.16498,-32.45129 -29.4714,-48.2117 -14.7106,-22.21836 -29.88227,-44.24542 -41.95748,-68.04949 -7.74893,-15.40627 -14.1282,-31.71076 -16.78105,-48.82233 -2.25961,-14.34474 -1.55766,-29.30362 3.15091,-43.10428 2.49208,-7.44439 5.7775,-14.58934 9.10395,-21.6907 5.0098,-10.41331 10.71413,-20.49354 17.10267,-30.12461 4.64184,12.31056 7.10444,25.37159 7.92117,38.4816 0.67201,10.7567 -0.10192,21.53832 -1.23391,32.23757 -1.63697,16.69063 -3.56535,33.47449 -2.76539,50.23591 0.7516,16.11605 3.42308,32.21539 8.99475,47.40127 3.90474,10.78311 9.38448,21.02398 16.49606,30.03747 7.37088,9.39453 16.40971,17.48173 26.76632,23.51016 12.08438,7.05705 25.72142,11.22823 39.65524,12.41365 15.46354,1.35096 31.19386,-1.16531 45.65559,-6.87086 7.70231,-3.01426 15.04498,-6.94682 22.04538,-11.37516 18.40941,-11.75981 33.87457,-27.81935 46.39253,-45.66255 9.3195,-13.3201 17.00116,-27.88226 22.93684,-43.01205 0.24737,-0.63178 0.4945,-1.26366 0.74284,-1.89506 1.15776,0.99181 2.27571,2.02804 3.375,3.08399 1.15528,22.56985 2.37899,45.27637 6.92559,67.43797 2.87827,13.7881 6.89815,27.42781 13.03054,40.17135 4.3708,9.0731 9.83517,17.61492 16.6316,25.04425 9.26038,10.18902 20.80321,18.43089 33.57047,23.53197 9.84602,3.95449 20.4612,5.99098 31.03156,6.08974 13.68303,0.17912 27.36567,-2.85375 39.83237,-8.57577 14.20267,-6.46407 26.63749,-16.14118 37.6726,-27.09478 12.19976,-12.1049 22.81308,-25.74719 32.67089,-39.81087 15.54328,-22.34244 28.74493,-46.22298 41.40902,-70.29179 6.97854,-13.09058 13.80905,-26.2945 22.02066,-38.66783 8.71959,-13.46664 17.90524,-26.74145 24.63412,-41.36132 8.24647,-17.69176 13.23525,-37.16633 12.41068,-56.76926 -0.65706,-15.76272 -5.2094,-31.44863 -12.91287,-45.23925 -6.9792,-12.57239 -16.54566,-23.62194 -27.88406,-32.46992 -9.17903,-7.29785 -19.45149,-13.29351 -30.07197,-18.21807 -20.44897,-9.4358 -42.26166,-15.63505 -64.30197,-20.04897 -26.52038,-5.3357 -53.45521,-8.22779 -80.23131,-11.99655 -9.68165,-1.394 -19.36362,-2.83691 -28.956,-4.75793 -18.51401,-3.76486 -36.91227,-8.93042 -53.80695,-17.53165 -6.2182,-3.23774 -12.17006,-7.21034 -16.8801,-12.45118 -0.75754,-0.85984 -1.00685,-2.0768 -0.62392,-3.15876 1.21901,-6.81299 1.54586,-13.72834 1.70374,-20.63185 0.0145,-0.69672 0.0286,-1.39344 0.0433,-2.09016 8.99296,-3.24284 18.65775,-3.75897 28.13084,-3.8773 19.96858,-0.10123 39.70329,3.49125 59.23768,7.26625 22.22191,4.30296 44.34024,9.19187 66.66355,12.91537 10.52317,1.68365 21.08921,3.13436 31.74605,3.24162 12.11042,-0.006 24.1294,-2.16465 35.95324,-4.71353 17.09471,-3.67484 34.26153,-7.11668 51.63085,-9.22514 8.25858,-1.08482 16.55594,-2.36724 24.90898,-2.09138 10.6345,1.04119 21.26281,2.24973 31.94552,2.36996 16.35796,0.32316 32.77374,-1.22174 48.60946,-5.3839 6.47518,-1.70843 12.93172,-3.89192 19.08492,-6.50389 19.6508,-8.32341 37.4014,-21.36701 50.6216,-38.17685 13.73,-17.29963 22.9619,-38.02703 27.1759,-59.65651 4.0617,-21.17201 4.342,-43.07859 2.076,-64.52754 -2.8181,-26.64293 -9.2069,-52.75442 -17.2538,-78.29832 -4.5303,-14.27305 -9.5065,-28.38079 -14.9683,-42.33103 -7.7893,-19.68222 -16.6756,-38.93837 -25.319,-58.26665 -2.5976,-7.57707 -4.7587,-15.39696 -9.0677,-22.237253 -4.9508,-8.581918 -11.3761,-16.269358 -18.9041,-22.775081 -7.26681,-6.294521 -15.59908,-11.473166 -24.45724,-15.228825 -11.08594,-4.637886 -22.69332,-7.857544 -34.49485,-10.031139 -18.10515,-3.310983 -36.51064,-4.701712 -54.90883,-5.187185 -24.83553,-0.577091 -49.67607,0.549942 -74.42736,2.425441 -26.86088,2.100766 -53.64695,5.310761 -80.02834,10.775304 -8.80109,1.8705 -17.65244,3.845251 -26.21648,6.700088 -12.88685,4.189143 -25.37138,10.039787 -36.42462,17.833479 -16.1086,11.095821 -30.20523,24.810845 -43.61218,38.959101 -13.01651,13.86762 -25.10152,28.62 -36.78382,43.64796 -43.25865,2.60533 -86.52338,5.18027 -129.83594,6.72461 C 443.62006,121.68995 421.34572,91.493376 394.47637,65.655691 381.70682,53.363557 367.65072,42.247826 351.9092,33.983817 c -7.5122,-3.967744 -15.4144,-7.2681 -23.72442,-9.261895 -5.68366,-1.376883 -11.60834,-2.138433 -17.49728,-2.081297 z" />
    <path
       id="path2"
       style="fill:none;stroke:#ffe900;stroke-width:5.29167;stroke-dasharray:5.29166984, 21.16667938;stroke-opacity:1;stroke-dashoffset:0"
       d="M 310.54883,53.898438 C 267.43349,56.479942 224.1459,59.075836 181.67012,67.323912 156.47157,72.292679 131.36388,78.787496 108.03996,89.738131 91.310796,97.544359 75.54893,108.05378 63.438128,122.12565 51.268579,136.30894 43.39253,154.3471 42.20252,173.06593 c -0.823623,11.24338 0.715188,22.5006 2.925708,33.50575 2.168152,12.0561 4.377288,24.10469 6.588569,36.15293 10.391356,0.38154 20.652904,-3.00052 29.412444,-8.45699 4.978597,-3.05145 10.680496,-4.62145 16.133621,-6.77129 15.435548,-6.05722 30.954168,-11.90725 46.426048,-17.87381 7.1063,-2.72508 14.2126,-5.45017 21.3189,-8.17525 14.07169,3.38032 29.00934,2.14946 42.68388,-2.36369 11.63838,-3.39781 22.93676,-8.04659 34.88253,-10.34335 4.52823,-0.88105 9.14384,-1.19807 13.78665,-1.03515 5.89401,0.2084 11.73086,1.25592 17.37936,3.09961 19.06311,6.22188 36.38064,16.71745 53.33848,27.29951 16.69997,10.39435 33.42563,21.08438 51.85759,28.18874 3.43285,1.29117 6.98529,2.60617 10.71055,2.50584 3.12856,0.003 6.28579,-0.3906 9.33441,0.16828 9.75591,1.20047 18.94181,6.12553 25.84598,13.04561 5.2726,5.29441 9.47625,11.53623 11.97024,18.59579 1.60238,4.65773 2.51506,9.67836 1.83175,14.59699 -0.44301,3.09005 -1.73663,6.04211 -3.73588,8.44112 -9.61119,12.86706 -20.18022,24.99736 -29.44999,38.12101 -0.0165,0.54493 -0.64493,0.22258 -0.9744,0.38197 -5.81451,0.71744 -11.5984,-0.3179 -17.2451,-1.5135 -14.12305,-2.9259 -27.83742,-7.82421 -42.1335,-10.02057 -3.35412,-0.5326 -6.75651,-0.64426 -10.14534,-0.47629 -5.63134,0.23416 -11.26122,0.75584 -16.90194,0.50792 -14.14273,-0.17523 -28.35882,-1.79694 -41.82824,-6.17204 -6.75818,-2.16101 -13.47738,-4.4442 -20.19406,-6.73024 -7.50945,-2.63405 -14.87804,-5.68366 -21.97379,-9.29044 -12.70629,-6.17736 -25.30965,-12.86923 -38.99459,-16.6502 -13.51396,-3.91849 -27.66255,-6.02394 -41.74544,-5.17468 -6.88413,0.59998 -13.3309,3.54769 -19.15113,7.09183 -9.5957,5.53868 -18.51517,12.44052 -28.98758,16.32573 -8.569929,3.20509 -17.622274,5.53793 -25.34018,10.6296 -6.841132,4.57626 -11.827295,11.33692 -16.106926,18.24942 -16.300922,25.89593 -22.433007,58.12049 -16.24445,88.1374 4.902722,24.13417 18.236472,46.4094 37.02811,62.30042 14.787296,12.5871 32.648176,21.3466 51.426946,26.12466 10.97079,2.86636 22.24044,4.5847 33.25939,7.09362 1.35158,0.31479 2.68253,0.65334 4.03542,1.0389 -10.03978,12.93017 -22.84749,23.2907 -35.64627,33.37482 -5.24545,4.19216 -10.61442,8.28369 -15.3257,13.08591 -5.47604,6.30437 -8.76204,14.07662 -12.40588,21.49453 -12.168903,25.2758 -22.842068,51.29302 -31.40497,78.01502 -7.895392,24.62008 -14.074815,49.82327 -17.904678,75.40668 -4.279655,29.52094 -4.949943,59.75291 0.06781,89.22706 4.616696,26.87553 14.483792,53.04555 30.143422,75.46744 16.509522,23.67636 39.009582,43.01224 64.560982,56.36222 25.84173,13.69665 54.1968,22.2847 83.04025,26.76746 29.26008,4.71813 58.86061,7.25677 88.48909,7.85017 15.46798,0.083 31.08153,-1.0841 46.02886,-5.26548 10.75513,-3.0896 21.03619,-8.40813 29.00759,-16.35535 8.70474,-8.65311 14.20564,-20.34126 15.68986,-32.49683 0.89398,-7.06678 0.40232,-14.28562 -1.33454,-21.18873 -3.01303,-13.07076 -9.19489,-25.15045 -16.06182,-36.58242 -10.34752,-17.06206 -21.91423,-33.33802 -32.77554,-50.07522 -13.69396,-20.73219 -27.06956,-41.84562 -37.03212,-64.67469 -8.07099,-18.48749 -13.8954,-38.17669 -14.99064,-58.40638 -0.27561,-5.48548 -0.2172,-11.08031 0.21994,-16.55714 0.79341,-9.94493 2.78087,-19.837 6.0752,-29.27253 4.38633,-12.75109 10.42539,-24.8661 16.72322,-36.78213 6.3469,-11.76342 13.43668,-23.2251 22.19423,-33.36124 4.0575,-4.6294 8.51338,-8.98183 13.69248,-12.34957 2.29338,-1.42265 5.01489,-2.94728 7.86914,-2.59375 3.10186,0.73814 5.31727,3.21842 7.55728,5.30995 6.07272,6.14091 10.40851,13.82805 13.97803,21.67225 5.19431,11.5015 8.52317,23.87252 10.60149,36.29867 2.68691,15.71411 2.8383,31.81391 1.38772,47.68772 -1.7577,17.8439 -4.35659,35.754 -3.45258,53.74454 0.81927,15.13493 3.46541,30.38929 9.82958,44.23957 5.99899,13.23727 16.00767,24.87423 28.90444,31.76661 15.02276,8.09521 33.26887,9.48683 49.53843,4.59235 12.98948,-3.81573 24.79381,-10.9641 35.15418,-19.5803 12.5647,-10.5268 23.03656,-23.40744 31.6069,-37.34269 9.89335,-16.24056 16.93921,-34.11415 21.7092,-52.4817 0.84874,-3.09261 1.69027,-6.18285 2.52323,-9.28002 7.34261,0.78146 14.22819,3.77431 20.72834,7.07909 11.46923,5.93584 21.88609,13.9845 29.98877,24.08597 1.57427,1.91991 3.01096,4.2167 2.88844,6.79727 0.54221,18.96715 1.4841,37.96548 4.20349,56.76004 1.98368,13.51676 4.92663,26.98531 10.05212,39.68492 4.41969,10.86941 10.72205,21.19535 19.58838,29.00562 9.27189,8.18976 21.22272,13.47145 33.62381,14.1571 12.38032,0.81291 24.83502,-2.56616 35.5212,-8.75987 11.65584,-6.59172 21.52999,-15.87039 30.43833,-25.77194 11.09963,-12.37306 20.70594,-25.99915 29.73559,-39.92749 13.9715,-21.73012 25.90119,-44.7038 37.77932,-67.59855 5.38415,-10.26173 11.18066,-20.30599 17.79247,-29.83976 8.71327,-13.1124 17.69866,-26.24426 23.606,-40.92236 4.89525,-11.91329 7.98249,-24.77938 7.35614,-37.72289 -0.93355,-18.80097 -9.83434,-36.95299 -23.79621,-49.51985 -11.31899,-10.4555 -25.17145,-17.73043 -39.43217,-23.31729 -20.80237,-8.15104 -42.7343,-12.9868 -64.73304,-16.6018 -29.83209,-4.85545 -60.03567,-7.29405 -89.70773,-12.97041 -21.20227,-4.14083 -42.24727,-10.14873 -61.68013,-19.75257 -8.94464,-4.46912 -17.58122,-9.92854 -24.73921,-17.03553 -4.92889,-4.92801 -9.14999,-10.90713 -10.98345,-17.65782 -1.32233,-4.62207 -1.2334,-9.4413 -0.39998,-14.09058 1.00194,-6.00725 1.66343,-12.10451 1.34339,-18.20277 -0.10455,-3.06238 0.0479,-6.13693 0.76505,-9.06137 1.23544,-5.27256 3.97926,-10.34348 8.16454,-13.93218 4.74222,-4.0089 10.62646,-6.47171 16.50075,-8.2156 9.63865,-2.75925 19.63433,-3.84401 29.61648,-4.12663 16.36979,-0.43714 32.68,1.32689 48.79184,3.98313 14.53234,2.4022 28.9552,5.452 43.39455,8.38624 17.32053,3.56485 34.62867,7.29673 52.15107,9.74919 8.47409,1.16449 17.07468,1.94593 25.6155,1.04725 11.22467,-1.11083 22.17752,-3.9253 33.19945,-6.21241 10.96915,-2.36944 22.00773,-4.33447 33.11119,-5.91105 11.08695,-1.58772 22.1456,-3.24034 33.33016,-3.87221 1.82804,-0.10232 3.72339,-0.20036 5.54413,0.0196 6.32937,0.54482 12.68745,1.79106 19.03097,2.03008 16.90838,1.25097 34.12239,0.94387 50.65917,-3.11533 18.00094,-4.36736 35.1857,-13.08825 48.3241,-26.28406 14.4794,-14.46467 24.0786,-33.49634 28.0373,-53.5136 4.1679,-20.273 3.7697,-41.21786 1.2421,-61.67567 -3.4496,-28.05214 -11.2459,-55.34997 -20.2764,-82.06297 -9.7096,-28.37313 -22.0374,-55.75549 -34.704,-82.91175 -2.1773,-5.17826 -2.9873,-10.85541 -5.59232,-15.86815 -3.3436,-6.618043 -7.98719,-12.574292 -13.64038,-17.377661 -5.3505,-4.61042 -11.55047,-8.175994 -18.12015,-10.743242 -13.96621,-5.772914 -28.99367,-8.373448 -43.94366,-10.037228 -27.57367,-3.033677 -55.39413,-2.507946 -83.05637,-1.140747 -33.29607,1.810882 -66.54498,5.439101 -99.23714,12.08617 -14.98413,3.233927 -29.97486,7.665623 -43.13485,15.729566 -12.64028,7.703064 -23.6918,17.687642 -34.22785,28.012422 -19.25795,19.06618 -36.19254,40.30287 -52.51403,61.89356 -0.37705,0.26521 -0.38798,0.95579 -0.98296,0.77135 -53.75155,3.51428 -107.52603,6.82776 -161.38032,8.27747 -0.52633,-0.0424 -1.17722,0.21875 -1.6209,0.029 -8.17594,-14.0178 -16.66836,-27.86264 -25.94099,-41.18806 -14.00783,-20.20497 -29.57917,-39.39621 -47.36203,-56.410541 -11.84789,-11.222248 -24.96047,-21.324472 -39.71038,-28.433476 -6.90873,-3.234629 -14.4649,-5.379276 -22.14304,-5.239085 z" />
    <path
       id="path4"
       style="fill:#00c389;stroke:#ffffff;stroke-width:5.29167;stroke-dasharray:none;stroke-opacity:1;fill-opacity:1"
       d="m 310.47852,82.527344 c -35.11286,2.089946 -70.38882,4.29989 -105.19336,9.730468 -20.16062,3.224576 -40.28876,7.32564 -59.7168,13.548828 -13.94322,4.53312 -27.65939,10.03797 -40.10156,17.86328 -10.037228,6.37026 -19.377878,14.35072 -25.812963,24.49777 -6.486037,10.15738 -9.678419,22.39016 -9.033673,34.38793 0.400093,7.3712 1.950819,14.74522 3.20265,22.06589 0.158137,0.50952 -0.0061,1.62345 0.767531,0.97896 6.893078,-2.96135 14.0253,-5.32409 20.979331,-8.13361 22.692944,-8.70112 45.385674,-17.40281 68.078764,-26.10358 7.61162,2.56315 15.73756,4.07543 23.77539,3.11719 4.81987,-0.61011 9.56751,-2.11638 14.25373,-3.48136 13.35108,-4.05326 26.47454,-9.25129 40.37906,-11.11862 16.17834,-2.24445 32.84047,0.3375 47.93592,6.37748 20.58881,7.74353 39.25431,19.58699 57.87386,31.12106 12.89455,7.97149 25.88378,15.92655 39.96659,21.67159 1.51351,0.68575 3.15484,1.21851 4.83771,1.00642 12.02729,-0.12477 24.06354,2.84625 34.64569,8.56618 16.463,8.84168 29.49758,23.86458 35.98009,41.38714 2.74813,7.53532 4.32276,15.56161 4.1242,23.6003 -0.3091,9.62471 -3.49768,19.22196 -9.45157,26.83781 -5.10108,7.00909 -10.67352,13.65824 -15.97711,20.49744 -5.054,6.31451 -10.03115,12.73984 -14.4674,19.48415 -4.21009,5.53679 -10.83279,8.96328 -17.67861,9.82777 -9.29276,1.51618 -18.76668,0.28327 -27.92083,-1.53825 -13.00927,-2.63695 -25.63231,-6.9535 -38.6693,-9.39731 -3.31148,-0.5606 -6.60234,-0.73533 -9.96845,-0.48092 -5.73094,0.28637 -11.46745,0.59418 -17.20733,0.40865 -19.44929,-0.35107 -38.88959,-3.65981 -57.18871,-10.3097 -13.21007,-4.51306 -26.48012,-9.05761 -38.90043,-15.50595 -10.61822,-5.27353 -21.26175,-10.76205 -32.64914,-14.11794 -8.62973,-2.50998 -17.55706,-4.02222 -26.53898,-4.24753 -1.94192,0.006 -3.91675,-0.10835 -5.83114,0.25581 -2.97657,0.75603 -5.43743,2.69723 -8.08905,4.15421 -10.33158,6.15513 -20.28925,13.18802 -31.65292,17.36428 -6.2957,2.41214 -12.94452,4.01123 -18.878148,7.29159 -2.466818,1.51259 -4.362463,3.76691 -5.891679,6.19042 -8.057547,11.63593 -13.563212,25.11862 -15.68651,39.1402 -2.677105,17.2381 -0.433128,35.26874 7.232111,51.04643 9.294102,19.2615 26.365646,34.21648 46.057216,42.27806 13.03677,5.35593 27.04722,7.74305 40.81887,10.48839 9.17699,1.83028 18.42993,4.09761 26.70011,8.61488 7.35369,4.51369 11.15103,13.77762 9.70306,22.19718 -0.65608,4.22232 -2.81122,8.02652 -5.33616,11.40703 -9.19185,13.24265 -20.91012,24.50574 -33.28223,34.75027 -7.27014,6.03706 -14.8263,11.75966 -21.96713,17.93206 -2.87525,2.67764 -4.49543,6.37334 -6.20348,9.8801 -9.5152,19.37873 -18.21853,39.16359 -25.64027,59.41482 -10.46699,28.49996 -18.639582,57.93308 -23.431642,87.94531 -2.872516,18.40453 -4.27449,37.00785 -3.551713,55.64083 0.722282,18.63885 3.661476,37.28716 9.666452,55.00354 5.838223,17.22995 14.713723,33.48078 26.418803,47.42955 14.05585,16.84698 31.97982,30.20026 51.6368,39.81375 20.23602,9.98184 41.99783,16.58544 64.17398,20.41975 23.0956,4.07156 46.51034,6.34657 69.91544,7.67696 16.74145,0.82435 33.68039,1.39504 50.1875,-1.77539 4.24158,-0.81731 8.62368,-1.9993 12.59844,-3.65341 5.78107,-2.4128 11.29548,-6.08016 14.67426,-11.47482 3.64503,-5.68154 5.02492,-12.74112 3.82833,-19.38212 -1.24408,-8.34487 -4.85637,-16.06742 -8.73447,-23.52491 -6.31294,-11.88862 -14.09688,-22.89703 -21.41407,-34.1706 -16.95995,-25.6227 -34.51632,-50.98998 -48.33666,-78.49698 -11.07047,-22.12573 -19.54016,-45.80558 -22.62203,-70.44466 -2.83491,-22.16348 -0.88393,-44.9895 6.17146,-66.21451 4.42108,-13.39822 10.55976,-26.14581 17.02309,-38.66032 6.13324,-11.64336 12.86609,-23.00741 20.69953,-33.59643 6.97505,-9.33495 14.92268,-18.09141 24.42571,-24.91171 6.85219,-4.83412 14.81471,-8.52497 23.28212,-9.03399 8.08783,-0.42615 16.16363,2.31335 22.66401,7.06863 8.20515,5.82367 14.57741,13.83862 19.8959,22.29407 8.00315,12.9677 13.37379,27.40252 17.1979,42.10605 5.88394,23.25837 7.14508,47.55323 4.80538,71.39055 -1.45285,16.525 -4.06714,33.0045 -3.20382,49.62703 0.52411,9.63958 2.01288,19.27805 5.25953,28.40659 2.8185,7.81731 7.30455,15.26761 13.96255,20.39288 2.41659,1.87986 5.0642,3.35225 7.93808,4.49331 2.25599,0.88154 4.49979,1.50405 6.95899,1.91203 5.5043,0.91025 11.41404,0.52362 16.88671,-1.04075 9.52963,-2.72876 18.11667,-8.07096 25.6702,-14.39521 8.98379,-7.57025 16.50961,-16.66278 22.97433,-26.4251 7.06754,-10.76827 12.57718,-22.55527 16.68838,-34.71685 2.95821,-8.55645 5.03024,-17.37903 7.51545,-26.07477 1.06121,-3.52152 2.17528,-7.07196 3.9407,-10.31189 3.08301,-4.80931 8.69832,-7.55752 14.29127,-8.01666 8.12289,-0.71751 16.34075,0.38804 24.12535,2.74635 8.84192,2.65735 17.22538,6.67981 25.17275,11.34443 13.69778,8.12896 25.96788,18.85218 35.23829,31.8474 4.30421,6.42137 6.36999,14.20213 6.29133,21.90176 0.63956,20.502 1.70244,41.06154 5.55853,61.24686 1.74586,9.06797 4.0759,18.04855 7.99241,26.43376 2.4812,5.20662 5.53972,10.38292 9.87108,14.33157 4.15009,3.91735 9.35989,6.70862 15.03129,7.49654 6.56864,0.97361 13.28802,-0.59236 19.18363,-3.50508 5.16053,-2.51628 9.93795,-6.0228 14.29543,-9.82115 11.78742,-10.36613 21.3639,-22.92638 30.39155,-35.68948 15.37631,-21.967 28.06789,-45.64622 40.42449,-69.39751 7.10358,-13.59777 14.37821,-27.14906 23.04541,-39.83216 7.95994,-11.9784 16.30065,-23.89297 21.70726,-37.3049 2.79091,-7.00497 4.84553,-14.51525 4.99596,-22.0971 0.21362,-7.4892 -1.84238,-14.97852 -5.61699,-21.46526 -2.70016,-4.689 -6.24465,-8.78939 -10.37431,-12.31708 -9.10021,-7.90829 -20.19359,-13.11684 -31.34884,-17.38035 -18.18664,-6.85387 -37.32797,-10.96808 -56.45597,-14.11472 -34.59252,-5.62733 -69.73042,-8.05118 -103.9298,-16.03232 -20.98005,-4.89267 -41.62693,-11.76604 -60.64399,-21.98857 -11.86216,-6.45724 -23.12929,-14.39996 -31.92397,-24.74595 -7.42063,-8.69315 -12.9922,-19.177 -14.94188,-30.50809 -1.30153,-7.25233 -1.13772,-14.7312 0.22451,-21.96195 0.72274,-4.7929 1.03927,-9.65062 0.81851,-14.49455 -0.0177,-9.99771 2.35372,-20.07195 7.36664,-28.76022 5.4788,-9.66862 13.99164,-17.57436 24.00835,-22.36755 11.3784,-5.77751 24.0293,-8.50145 36.62699,-9.98296 19.30073,-2.18189 38.81844,-0.89601 58.01478,1.67553 28.9836,4.05654 57.43438,11.06492 86.18863,16.37054 9.34554,1.75043 18.75951,3.3375 28.21116,4.24043 3.01978,0.21066 6.31107,0.23757 9.39648,0.0293 6.33953,-0.49583 12.55412,-1.99133 18.80465,-3.20713 12.7075,-2.63313 25.37323,-5.52302 38.22325,-7.39031 14.04223,-2.23852 28.13228,-4.27488 42.31585,-5.36155 5.56766,-0.38516 11.17986,-0.38851 16.71455,0.39466 7.48788,0.84974 14.92751,1.90493 22.46562,1.92869 12.08778,0.38664 24.25063,-0.31069 35.92096,-3.50394 13.17798,-3.58583 25.7861,-10.44866 34.9155,-20.78165 8.4133,-9.42912 14.1703,-21.09722 17.0032,-33.3859 3.273,-13.72366 3.6294,-28.05864 2.7814,-42.14281 -1.5322,-24.38954 -7.3283,-48.27073 -14.4096,-71.60801 -7.3605,-24.29316 -16.67903,-47.9422 -27.04307,-71.10262 -3.93481,-8.90503 -8.13248,-17.69176 -12.09963,-26.58071 -2.16594,-4.69268 -3.56842,-9.6756 -5.12392,-14.58906 -1.08534,-2.64809 -2.76833,-5.12637 -4.75977,-7.20677 -3.34891,-3.54769 -7.64188,-6.030659 -12.1111,-7.895482 -8.02464,-3.412968 -16.58049,-5.29742 -25.13564,-6.756085 -9.17277,-1.470235 -18.4251,-2.233936 -27.71172,-2.850625 -26.79991,-1.506549 -53.70883,-0.474322 -80.46069,1.4769 -26.18353,2.008973 -52.25717,5.322061 -77.97747,10.620637 -9.93462,2.162695 -19.73602,4.960895 -28.79226,9.634815 -9.789,5.11908 -18.31479,12.31483 -26.36495,19.78138 -19.62812,18.17708 -36.51917,39.06034 -52.7911,60.2392 -3.11823,3.9842 -6.06904,8.12635 -9.57317,11.78525 -4.24933,3.74575 -10.13095,5.0884 -15.61942,5.20872 -44.05277,2.68887 -88.09211,5.59451 -132.19497,7.34385 -11.47759,0.44643 -22.95812,0.87219 -34.4421,1.09073 -4.78906,-0.0534 -9.65384,-1.19029 -13.68316,-3.85282 -4.97317,-3.03637 -8.73183,-7.75929 -11.26108,-12.95598 -16.50548,-28.38615 -35.10691,-55.76994 -57.72454,-79.66301 -10.80456,-11.32761 -22.60551,-21.992069 -36.32426,-29.722085 -4.10219,-2.237227 -8.3232,-4.578305 -13.02573,-5.059618 -0.62981,-0.05385 -1.26306,-0.06674 -1.89453,-0.0332 z" />
  </g>
</svg>
